G04 #@! TF.GenerationSoftware,KiCad,Pcbnew,(5.1.0)-1*
G04 #@! TF.CreationDate,2019-04-15T23:00:07-07:00*
G04 #@! TF.ProjectId,12AU7-Amplifier,31324155-372d-4416-9d70-6c6966696572,rev?*
G04 #@! TF.SameCoordinates,Original*
G04 #@! TF.FileFunction,Legend,Top*
G04 #@! TF.FilePolarity,Positive*
%FSLAX46Y46*%
G04 Gerber Fmt 4.6, Leading zero omitted, Abs format (unit mm)*
G04 Created by KiCad (PCBNEW (5.1.0)-1) date 2019-04-15 23:00:07*
%MOMM*%
%LPD*%
G04 APERTURE LIST*
%ADD10C,0.200000*%
%ADD11C,0.120000*%
%ADD12C,0.150000*%
%ADD13C,0.100000*%
G04 APERTURE END LIST*
D10*
X147285714Y-93837142D02*
X148428571Y-93837142D01*
X148428571Y-94408571D02*
X147285714Y-94408571D01*
X148928571Y-93075238D02*
X149214285Y-92789523D01*
X149500000Y-93075238D01*
X150000000Y-94694285D02*
X150071428Y-94789523D01*
X150000000Y-94884761D01*
X149928571Y-94789523D01*
X150000000Y-94694285D01*
X150000000Y-94884761D01*
X150500000Y-93075238D02*
X150785714Y-92789523D01*
X151071428Y-93075238D01*
X151571428Y-93837142D02*
X152714285Y-93837142D01*
X152714285Y-94408571D02*
X151571428Y-94408571D01*
X161464285Y-79833333D02*
X162178571Y-79833333D01*
X161321428Y-80404761D02*
X161821428Y-78404761D01*
X162321428Y-80404761D01*
X163464285Y-80404761D02*
X163464285Y-79357142D01*
X163392857Y-79166666D01*
X163250000Y-79071428D01*
X162964285Y-79071428D01*
X162821428Y-79166666D01*
X163464285Y-80309523D02*
X163321428Y-80404761D01*
X162964285Y-80404761D01*
X162821428Y-80309523D01*
X162750000Y-80119047D01*
X162750000Y-79928571D01*
X162821428Y-79738095D01*
X162964285Y-79642857D01*
X163321428Y-79642857D01*
X163464285Y-79547619D01*
X164178571Y-80404761D02*
X164178571Y-79071428D01*
X164178571Y-79452380D02*
X164250000Y-79261904D01*
X164321428Y-79166666D01*
X164464285Y-79071428D01*
X164607142Y-79071428D01*
X165321428Y-80404761D02*
X165178571Y-80309523D01*
X165107142Y-80214285D01*
X165035714Y-80023809D01*
X165035714Y-79452380D01*
X165107142Y-79261904D01*
X165178571Y-79166666D01*
X165321428Y-79071428D01*
X165535714Y-79071428D01*
X165678571Y-79166666D01*
X165750000Y-79261904D01*
X165821428Y-79452380D01*
X165821428Y-80023809D01*
X165750000Y-80214285D01*
X165678571Y-80309523D01*
X165535714Y-80404761D01*
X165321428Y-80404761D01*
X166464285Y-79071428D02*
X166464285Y-80404761D01*
X166464285Y-79261904D02*
X166535714Y-79166666D01*
X166678571Y-79071428D01*
X166892857Y-79071428D01*
X167035714Y-79166666D01*
X167107142Y-79357142D01*
X167107142Y-80404761D01*
X170178571Y-80404761D02*
X170107142Y-80404761D01*
X169964285Y-80309523D01*
X169750000Y-80023809D01*
X169392857Y-79452380D01*
X169250000Y-79166666D01*
X169178571Y-78880952D01*
X169178571Y-78690476D01*
X169250000Y-78500000D01*
X169392857Y-78404761D01*
X169464285Y-78404761D01*
X169607142Y-78500000D01*
X169678571Y-78690476D01*
X169678571Y-78785714D01*
X169607142Y-78976190D01*
X169535714Y-79071428D01*
X169107142Y-79452380D01*
X169035714Y-79547619D01*
X168964285Y-79738095D01*
X168964285Y-80023809D01*
X169035714Y-80214285D01*
X169107142Y-80309523D01*
X169250000Y-80404761D01*
X169464285Y-80404761D01*
X169607142Y-80309523D01*
X169678571Y-80214285D01*
X169892857Y-79833333D01*
X169964285Y-79547619D01*
X169964285Y-79357142D01*
X172821428Y-80404761D02*
X172321428Y-79452380D01*
X171964285Y-80404761D02*
X171964285Y-78404761D01*
X172535714Y-78404761D01*
X172678571Y-78500000D01*
X172750000Y-78595238D01*
X172821428Y-78785714D01*
X172821428Y-79071428D01*
X172750000Y-79261904D01*
X172678571Y-79357142D01*
X172535714Y-79452380D01*
X171964285Y-79452380D01*
X173321428Y-79071428D02*
X173678571Y-80404761D01*
X174035714Y-79071428D02*
X173678571Y-80404761D01*
X173535714Y-80880952D01*
X173464285Y-80976190D01*
X173321428Y-81071428D01*
X175250000Y-80404761D02*
X175250000Y-79357142D01*
X175178571Y-79166666D01*
X175035714Y-79071428D01*
X174750000Y-79071428D01*
X174607142Y-79166666D01*
X175250000Y-80309523D02*
X175107142Y-80404761D01*
X174750000Y-80404761D01*
X174607142Y-80309523D01*
X174535714Y-80119047D01*
X174535714Y-79928571D01*
X174607142Y-79738095D01*
X174750000Y-79642857D01*
X175107142Y-79642857D01*
X175250000Y-79547619D01*
X175964285Y-79071428D02*
X175964285Y-80404761D01*
X175964285Y-79261904D02*
X176035714Y-79166666D01*
X176178571Y-79071428D01*
X176392857Y-79071428D01*
X176535714Y-79166666D01*
X176607142Y-79357142D01*
X176607142Y-80404761D01*
X178392857Y-80309523D02*
X178607142Y-80404761D01*
X178964285Y-80404761D01*
X179107142Y-80309523D01*
X179178571Y-80214285D01*
X179250000Y-80023809D01*
X179250000Y-79833333D01*
X179178571Y-79642857D01*
X179107142Y-79547619D01*
X178964285Y-79452380D01*
X178678571Y-79357142D01*
X178535714Y-79261904D01*
X178464285Y-79166666D01*
X178392857Y-78976190D01*
X178392857Y-78785714D01*
X178464285Y-78595238D01*
X178535714Y-78500000D01*
X178678571Y-78404761D01*
X179035714Y-78404761D01*
X179250000Y-78500000D01*
X179892857Y-80404761D02*
X179892857Y-78404761D01*
X180535714Y-80404761D02*
X180535714Y-79357142D01*
X180464285Y-79166666D01*
X180321428Y-79071428D01*
X180107142Y-79071428D01*
X179964285Y-79166666D01*
X179892857Y-79261904D01*
X181892857Y-80404761D02*
X181892857Y-79357142D01*
X181821428Y-79166666D01*
X181678571Y-79071428D01*
X181392857Y-79071428D01*
X181250000Y-79166666D01*
X181892857Y-80309523D02*
X181750000Y-80404761D01*
X181392857Y-80404761D01*
X181250000Y-80309523D01*
X181178571Y-80119047D01*
X181178571Y-79928571D01*
X181250000Y-79738095D01*
X181392857Y-79642857D01*
X181750000Y-79642857D01*
X181892857Y-79547619D01*
X182607142Y-79071428D02*
X182607142Y-81071428D01*
X182607142Y-79166666D02*
X182750000Y-79071428D01*
X183035714Y-79071428D01*
X183178571Y-79166666D01*
X183250000Y-79261904D01*
X183321428Y-79452380D01*
X183321428Y-80023809D01*
X183250000Y-80214285D01*
X183178571Y-80309523D01*
X183035714Y-80404761D01*
X182750000Y-80404761D01*
X182607142Y-80309523D01*
X183964285Y-79071428D02*
X183964285Y-81071428D01*
X183964285Y-79166666D02*
X184107142Y-79071428D01*
X184392857Y-79071428D01*
X184535714Y-79166666D01*
X184607142Y-79261904D01*
X184678571Y-79452380D01*
X184678571Y-80023809D01*
X184607142Y-80214285D01*
X184535714Y-80309523D01*
X184392857Y-80404761D01*
X184107142Y-80404761D01*
X183964285Y-80309523D01*
X185892857Y-80309523D02*
X185750000Y-80404761D01*
X185464285Y-80404761D01*
X185321428Y-80309523D01*
X185250000Y-80119047D01*
X185250000Y-79357142D01*
X185321428Y-79166666D01*
X185464285Y-79071428D01*
X185750000Y-79071428D01*
X185892857Y-79166666D01*
X185964285Y-79357142D01*
X185964285Y-79547619D01*
X185250000Y-79738095D01*
X186821428Y-80404761D02*
X186678571Y-80309523D01*
X186607142Y-80119047D01*
X186607142Y-78404761D01*
X187607142Y-80404761D02*
X187464285Y-80309523D01*
X187392857Y-80119047D01*
X187392857Y-78404761D01*
X110321428Y-80404761D02*
X109464285Y-80404761D01*
X109892857Y-80404761D02*
X109892857Y-78404761D01*
X109750000Y-78690476D01*
X109607142Y-78880952D01*
X109464285Y-78976190D01*
X110892857Y-78595238D02*
X110964285Y-78500000D01*
X111107142Y-78404761D01*
X111464285Y-78404761D01*
X111607142Y-78500000D01*
X111678571Y-78595238D01*
X111750000Y-78785714D01*
X111750000Y-78976190D01*
X111678571Y-79261904D01*
X110821428Y-80404761D01*
X111750000Y-80404761D01*
X112321428Y-79833333D02*
X113035714Y-79833333D01*
X112178571Y-80404761D02*
X112678571Y-78404761D01*
X113178571Y-80404761D01*
X113678571Y-78404761D02*
X113678571Y-80023809D01*
X113750000Y-80214285D01*
X113821428Y-80309523D01*
X113964285Y-80404761D01*
X114250000Y-80404761D01*
X114392857Y-80309523D01*
X114464285Y-80214285D01*
X114535714Y-80023809D01*
X114535714Y-78404761D01*
X115107142Y-78404761D02*
X116107142Y-78404761D01*
X115464285Y-80404761D01*
X117821428Y-80404761D02*
X117821428Y-78404761D01*
X117821428Y-79357142D02*
X118678571Y-79357142D01*
X118678571Y-80404761D02*
X118678571Y-78404761D01*
X119964285Y-80309523D02*
X119821428Y-80404761D01*
X119535714Y-80404761D01*
X119392857Y-80309523D01*
X119321428Y-80119047D01*
X119321428Y-79357142D01*
X119392857Y-79166666D01*
X119535714Y-79071428D01*
X119821428Y-79071428D01*
X119964285Y-79166666D01*
X120035714Y-79357142D01*
X120035714Y-79547619D01*
X119321428Y-79738095D01*
X121321428Y-80404761D02*
X121321428Y-79357142D01*
X121250000Y-79166666D01*
X121107142Y-79071428D01*
X120821428Y-79071428D01*
X120678571Y-79166666D01*
X121321428Y-80309523D02*
X121178571Y-80404761D01*
X120821428Y-80404761D01*
X120678571Y-80309523D01*
X120607142Y-80119047D01*
X120607142Y-79928571D01*
X120678571Y-79738095D01*
X120821428Y-79642857D01*
X121178571Y-79642857D01*
X121321428Y-79547619D01*
X122678571Y-80404761D02*
X122678571Y-78404761D01*
X122678571Y-80309523D02*
X122535714Y-80404761D01*
X122250000Y-80404761D01*
X122107142Y-80309523D01*
X122035714Y-80214285D01*
X121964285Y-80023809D01*
X121964285Y-79452380D01*
X122035714Y-79261904D01*
X122107142Y-79166666D01*
X122250000Y-79071428D01*
X122535714Y-79071428D01*
X122678571Y-79166666D01*
X123392857Y-79071428D02*
X123392857Y-81071428D01*
X123392857Y-79166666D02*
X123535714Y-79071428D01*
X123821428Y-79071428D01*
X123964285Y-79166666D01*
X124035714Y-79261904D01*
X124107142Y-79452380D01*
X124107142Y-80023809D01*
X124035714Y-80214285D01*
X123964285Y-80309523D01*
X123821428Y-80404761D01*
X123535714Y-80404761D01*
X123392857Y-80309523D01*
X124750000Y-80404761D02*
X124750000Y-78404761D01*
X125392857Y-80404761D02*
X125392857Y-79357142D01*
X125321428Y-79166666D01*
X125178571Y-79071428D01*
X124964285Y-79071428D01*
X124821428Y-79166666D01*
X124750000Y-79261904D01*
X126321428Y-80404761D02*
X126178571Y-80309523D01*
X126107142Y-80214285D01*
X126035714Y-80023809D01*
X126035714Y-79452380D01*
X126107142Y-79261904D01*
X126178571Y-79166666D01*
X126321428Y-79071428D01*
X126535714Y-79071428D01*
X126678571Y-79166666D01*
X126750000Y-79261904D01*
X126821428Y-79452380D01*
X126821428Y-80023809D01*
X126750000Y-80214285D01*
X126678571Y-80309523D01*
X126535714Y-80404761D01*
X126321428Y-80404761D01*
X127464285Y-79071428D02*
X127464285Y-80404761D01*
X127464285Y-79261904D02*
X127535714Y-79166666D01*
X127678571Y-79071428D01*
X127892857Y-79071428D01*
X128035714Y-79166666D01*
X128107142Y-79357142D01*
X128107142Y-80404761D01*
X129392857Y-80309523D02*
X129250000Y-80404761D01*
X128964285Y-80404761D01*
X128821428Y-80309523D01*
X128750000Y-80119047D01*
X128750000Y-79357142D01*
X128821428Y-79166666D01*
X128964285Y-79071428D01*
X129250000Y-79071428D01*
X129392857Y-79166666D01*
X129464285Y-79357142D01*
X129464285Y-79547619D01*
X128750000Y-79738095D01*
X131178571Y-79833333D02*
X131892857Y-79833333D01*
X131035714Y-80404761D02*
X131535714Y-78404761D01*
X132035714Y-80404761D01*
X132535714Y-80404761D02*
X132535714Y-79071428D01*
X132535714Y-79261904D02*
X132607142Y-79166666D01*
X132750000Y-79071428D01*
X132964285Y-79071428D01*
X133107142Y-79166666D01*
X133178571Y-79357142D01*
X133178571Y-80404761D01*
X133178571Y-79357142D02*
X133250000Y-79166666D01*
X133392857Y-79071428D01*
X133607142Y-79071428D01*
X133750000Y-79166666D01*
X133821428Y-79357142D01*
X133821428Y-80404761D01*
X134535714Y-79071428D02*
X134535714Y-81071428D01*
X134535714Y-79166666D02*
X134678571Y-79071428D01*
X134964285Y-79071428D01*
X135107142Y-79166666D01*
X135178571Y-79261904D01*
X135250000Y-79452380D01*
X135250000Y-80023809D01*
X135178571Y-80214285D01*
X135107142Y-80309523D01*
X134964285Y-80404761D01*
X134678571Y-80404761D01*
X134535714Y-80309523D01*
X136107142Y-80404761D02*
X135964285Y-80309523D01*
X135892857Y-80119047D01*
X135892857Y-78404761D01*
X136678571Y-80404761D02*
X136678571Y-79071428D01*
X136678571Y-78404761D02*
X136607142Y-78500000D01*
X136678571Y-78595238D01*
X136750000Y-78500000D01*
X136678571Y-78404761D01*
X136678571Y-78595238D01*
X137178571Y-79071428D02*
X137750000Y-79071428D01*
X137392857Y-80404761D02*
X137392857Y-78690476D01*
X137464285Y-78500000D01*
X137607142Y-78404761D01*
X137750000Y-78404761D01*
X138250000Y-80404761D02*
X138250000Y-79071428D01*
X138250000Y-78404761D02*
X138178571Y-78500000D01*
X138250000Y-78595238D01*
X138321428Y-78500000D01*
X138250000Y-78404761D01*
X138250000Y-78595238D01*
X139535714Y-80309523D02*
X139392857Y-80404761D01*
X139107142Y-80404761D01*
X138964285Y-80309523D01*
X138892857Y-80119047D01*
X138892857Y-79357142D01*
X138964285Y-79166666D01*
X139107142Y-79071428D01*
X139392857Y-79071428D01*
X139535714Y-79166666D01*
X139607142Y-79357142D01*
X139607142Y-79547619D01*
X138892857Y-79738095D01*
X140250000Y-80404761D02*
X140250000Y-79071428D01*
X140250000Y-79452380D02*
X140321428Y-79261904D01*
X140392857Y-79166666D01*
X140535714Y-79071428D01*
X140678571Y-79071428D01*
D11*
X195000000Y-133970000D02*
X195000000Y-134380000D01*
X197970000Y-131000000D02*
G75*
G03X197970000Y-131000000I-2970000J0D01*
G01*
X101870000Y-83740000D02*
X118130000Y-83740000D01*
X118130000Y-100000000D02*
X118130000Y-83740000D01*
X101870000Y-100000000D02*
X101870000Y-83740000D01*
X101870000Y-100000000D02*
X118130000Y-100000000D01*
X120870000Y-83740000D02*
X137130000Y-83740000D01*
X137130000Y-100000000D02*
X137130000Y-83740000D01*
X120870000Y-100000000D02*
X120870000Y-83740000D01*
X120870000Y-100000000D02*
X137130000Y-100000000D01*
X181870000Y-100000000D02*
X198130000Y-100000000D01*
X181870000Y-100000000D02*
X181870000Y-83740000D01*
X198130000Y-100000000D02*
X198130000Y-83740000D01*
X181870000Y-83740000D02*
X198130000Y-83740000D01*
X162870000Y-83740000D02*
X179130000Y-83740000D01*
X179130000Y-100000000D02*
X179130000Y-83740000D01*
X162870000Y-100000000D02*
X162870000Y-83740000D01*
X162870000Y-100000000D02*
X179130000Y-100000000D01*
D12*
X164840000Y-140970000D02*
X164840000Y-150060000D01*
X172980000Y-140970000D02*
X172980000Y-150060000D01*
X164840000Y-140970000D02*
X172980000Y-140970000D01*
X164840000Y-150060000D02*
X172980000Y-150060000D01*
D11*
X177834775Y-138225000D02*
X177834775Y-137725000D01*
X178084775Y-137975000D02*
X177584775Y-137975000D01*
X172679000Y-136784000D02*
X172679000Y-136216000D01*
X172719000Y-137018000D02*
X172719000Y-135982000D01*
X172759000Y-137177000D02*
X172759000Y-135823000D01*
X172799000Y-137305000D02*
X172799000Y-135695000D01*
X172839000Y-137415000D02*
X172839000Y-135585000D01*
X172879000Y-137511000D02*
X172879000Y-135489000D01*
X172919000Y-137598000D02*
X172919000Y-135402000D01*
X172959000Y-137678000D02*
X172959000Y-135322000D01*
X172999000Y-135460000D02*
X172999000Y-135249000D01*
X172999000Y-137751000D02*
X172999000Y-137540000D01*
X173039000Y-135460000D02*
X173039000Y-135181000D01*
X173039000Y-137819000D02*
X173039000Y-137540000D01*
X173079000Y-135460000D02*
X173079000Y-135117000D01*
X173079000Y-137883000D02*
X173079000Y-137540000D01*
X173119000Y-135460000D02*
X173119000Y-135057000D01*
X173119000Y-137943000D02*
X173119000Y-137540000D01*
X173159000Y-135460000D02*
X173159000Y-135000000D01*
X173159000Y-138000000D02*
X173159000Y-137540000D01*
X173199000Y-135460000D02*
X173199000Y-134946000D01*
X173199000Y-138054000D02*
X173199000Y-137540000D01*
X173239000Y-135460000D02*
X173239000Y-134895000D01*
X173239000Y-138105000D02*
X173239000Y-137540000D01*
X173279000Y-135460000D02*
X173279000Y-134847000D01*
X173279000Y-138153000D02*
X173279000Y-137540000D01*
X173319000Y-135460000D02*
X173319000Y-134801000D01*
X173319000Y-138199000D02*
X173319000Y-137540000D01*
X173359000Y-135460000D02*
X173359000Y-134757000D01*
X173359000Y-138243000D02*
X173359000Y-137540000D01*
X173399000Y-135460000D02*
X173399000Y-134715000D01*
X173399000Y-138285000D02*
X173399000Y-137540000D01*
X173439000Y-135460000D02*
X173439000Y-134674000D01*
X173439000Y-138326000D02*
X173439000Y-137540000D01*
X173479000Y-135460000D02*
X173479000Y-134636000D01*
X173479000Y-138364000D02*
X173479000Y-137540000D01*
X173519000Y-135460000D02*
X173519000Y-134599000D01*
X173519000Y-138401000D02*
X173519000Y-137540000D01*
X173559000Y-135460000D02*
X173559000Y-134563000D01*
X173559000Y-138437000D02*
X173559000Y-137540000D01*
X173599000Y-135460000D02*
X173599000Y-134529000D01*
X173599000Y-138471000D02*
X173599000Y-137540000D01*
X173639000Y-135460000D02*
X173639000Y-134496000D01*
X173639000Y-138504000D02*
X173639000Y-137540000D01*
X173679000Y-135460000D02*
X173679000Y-134465000D01*
X173679000Y-138535000D02*
X173679000Y-137540000D01*
X173719000Y-135460000D02*
X173719000Y-134435000D01*
X173719000Y-138565000D02*
X173719000Y-137540000D01*
X173759000Y-135460000D02*
X173759000Y-134405000D01*
X173759000Y-138595000D02*
X173759000Y-137540000D01*
X173799000Y-135460000D02*
X173799000Y-134378000D01*
X173799000Y-138622000D02*
X173799000Y-137540000D01*
X173839000Y-135460000D02*
X173839000Y-134351000D01*
X173839000Y-138649000D02*
X173839000Y-137540000D01*
X173879000Y-135460000D02*
X173879000Y-134325000D01*
X173879000Y-138675000D02*
X173879000Y-137540000D01*
X173919000Y-135460000D02*
X173919000Y-134300000D01*
X173919000Y-138700000D02*
X173919000Y-137540000D01*
X173959000Y-135460000D02*
X173959000Y-134276000D01*
X173959000Y-138724000D02*
X173959000Y-137540000D01*
X173999000Y-135460000D02*
X173999000Y-134253000D01*
X173999000Y-138747000D02*
X173999000Y-137540000D01*
X174039000Y-135460000D02*
X174039000Y-134232000D01*
X174039000Y-138768000D02*
X174039000Y-137540000D01*
X174079000Y-135460000D02*
X174079000Y-134210000D01*
X174079000Y-138790000D02*
X174079000Y-137540000D01*
X174119000Y-135460000D02*
X174119000Y-134190000D01*
X174119000Y-138810000D02*
X174119000Y-137540000D01*
X174159000Y-135460000D02*
X174159000Y-134171000D01*
X174159000Y-138829000D02*
X174159000Y-137540000D01*
X174199000Y-135460000D02*
X174199000Y-134152000D01*
X174199000Y-138848000D02*
X174199000Y-137540000D01*
X174239000Y-135460000D02*
X174239000Y-134135000D01*
X174239000Y-138865000D02*
X174239000Y-137540000D01*
X174279000Y-135460000D02*
X174279000Y-134118000D01*
X174279000Y-138882000D02*
X174279000Y-137540000D01*
X174319000Y-135460000D02*
X174319000Y-134102000D01*
X174319000Y-138898000D02*
X174319000Y-137540000D01*
X174359000Y-135460000D02*
X174359000Y-134086000D01*
X174359000Y-138914000D02*
X174359000Y-137540000D01*
X174399000Y-135460000D02*
X174399000Y-134072000D01*
X174399000Y-138928000D02*
X174399000Y-137540000D01*
X174439000Y-135460000D02*
X174439000Y-134058000D01*
X174439000Y-138942000D02*
X174439000Y-137540000D01*
X174479000Y-135460000D02*
X174479000Y-134045000D01*
X174479000Y-138955000D02*
X174479000Y-137540000D01*
X174519000Y-135460000D02*
X174519000Y-134032000D01*
X174519000Y-138968000D02*
X174519000Y-137540000D01*
X174559000Y-135460000D02*
X174559000Y-134020000D01*
X174559000Y-138980000D02*
X174559000Y-137540000D01*
X174600000Y-135460000D02*
X174600000Y-134009000D01*
X174600000Y-138991000D02*
X174600000Y-137540000D01*
X174640000Y-135460000D02*
X174640000Y-133999000D01*
X174640000Y-139001000D02*
X174640000Y-137540000D01*
X174680000Y-135460000D02*
X174680000Y-133989000D01*
X174680000Y-139011000D02*
X174680000Y-137540000D01*
X174720000Y-135460000D02*
X174720000Y-133980000D01*
X174720000Y-139020000D02*
X174720000Y-137540000D01*
X174760000Y-135460000D02*
X174760000Y-133972000D01*
X174760000Y-139028000D02*
X174760000Y-137540000D01*
X174800000Y-135460000D02*
X174800000Y-133964000D01*
X174800000Y-139036000D02*
X174800000Y-137540000D01*
X174840000Y-135460000D02*
X174840000Y-133957000D01*
X174840000Y-139043000D02*
X174840000Y-137540000D01*
X174880000Y-135460000D02*
X174880000Y-133950000D01*
X174880000Y-139050000D02*
X174880000Y-137540000D01*
X174920000Y-135460000D02*
X174920000Y-133944000D01*
X174920000Y-139056000D02*
X174920000Y-137540000D01*
X174960000Y-135460000D02*
X174960000Y-133939000D01*
X174960000Y-139061000D02*
X174960000Y-137540000D01*
X175000000Y-135460000D02*
X175000000Y-133935000D01*
X175000000Y-139065000D02*
X175000000Y-137540000D01*
X175040000Y-135460000D02*
X175040000Y-133931000D01*
X175040000Y-139069000D02*
X175040000Y-137540000D01*
X175080000Y-139073000D02*
X175080000Y-133927000D01*
X175120000Y-139076000D02*
X175120000Y-133924000D01*
X175160000Y-139078000D02*
X175160000Y-133922000D01*
X175200000Y-139079000D02*
X175200000Y-133921000D01*
X175240000Y-139080000D02*
X175240000Y-133920000D01*
X175280000Y-139080000D02*
X175280000Y-133920000D01*
X177900000Y-136500000D02*
G75*
G03X177900000Y-136500000I-2620000J0D01*
G01*
X153137780Y-161102600D02*
X146896780Y-161102600D01*
X153137780Y-151102600D02*
X146896780Y-151102600D01*
X146896780Y-151102600D02*
X146896780Y-161102600D01*
X153137780Y-151102600D02*
X153137780Y-161102600D01*
X153637780Y-151102600D02*
X146397780Y-151102600D01*
X153637780Y-144102600D02*
X146397780Y-144102600D01*
X146397780Y-144102600D02*
X146397780Y-151102600D01*
X153637780Y-144102600D02*
X153637780Y-151102600D01*
X163602960Y-144120000D02*
X136412260Y-144120000D01*
X163600000Y-121120000D02*
X136400000Y-121120000D01*
X136400000Y-121120000D02*
X136400000Y-144120000D01*
X163600000Y-121120000D02*
X163600000Y-144120000D01*
D13*
X180100000Y-152400000D02*
X180100000Y-152600000D01*
X179800000Y-152400000D02*
X180100000Y-152400000D01*
X178900000Y-151500000D02*
X179800000Y-152400000D01*
X178900000Y-151100000D02*
X178900000Y-151500000D01*
X178900000Y-138200000D02*
X180400000Y-138200000D01*
X178900000Y-138800000D02*
X178900000Y-138200000D01*
X191100000Y-138200000D02*
X189700000Y-138200000D01*
X191100000Y-138800000D02*
X191100000Y-138200000D01*
X191100000Y-152400000D02*
X189900000Y-152400000D01*
X191100000Y-151800000D02*
X191100000Y-152400000D01*
X110100000Y-152400000D02*
X110100000Y-152600000D01*
X109800000Y-152400000D02*
X110100000Y-152400000D01*
X108900000Y-151500000D02*
X109800000Y-152400000D01*
X108900000Y-151100000D02*
X108900000Y-151500000D01*
X108900000Y-138200000D02*
X110400000Y-138200000D01*
X108900000Y-138800000D02*
X108900000Y-138200000D01*
X121100000Y-138200000D02*
X119700000Y-138200000D01*
X121100000Y-138800000D02*
X121100000Y-138200000D01*
X121100000Y-152400000D02*
X119900000Y-152400000D01*
X121100000Y-151800000D02*
X121100000Y-152400000D01*
D11*
X160250000Y-108000000D02*
G75*
G03X160250000Y-108000000I-10250000J0D01*
G01*
X130391000Y-100730000D02*
X130391000Y-102240000D01*
X126690000Y-100730000D02*
X126690000Y-102240000D01*
X123420000Y-102240000D02*
X133660000Y-102240000D01*
X133660000Y-100730000D02*
X133660000Y-105371000D01*
X123420000Y-100730000D02*
X123420000Y-105371000D01*
X123420000Y-105371000D02*
X133660000Y-105371000D01*
X123420000Y-100730000D02*
X133660000Y-100730000D01*
X173391000Y-100730000D02*
X173391000Y-102240000D01*
X169690000Y-100730000D02*
X169690000Y-102240000D01*
X166420000Y-102240000D02*
X176660000Y-102240000D01*
X176660000Y-100730000D02*
X176660000Y-105371000D01*
X166420000Y-100730000D02*
X166420000Y-105371000D01*
X166420000Y-105371000D02*
X176660000Y-105371000D01*
X166420000Y-100730000D02*
X176660000Y-100730000D01*
X102080000Y-118370000D02*
X102080000Y-114630000D01*
X107121000Y-117574000D02*
X107121000Y-115425000D01*
X105619000Y-114630000D02*
X102080000Y-114630000D01*
X105619000Y-118370000D02*
X102080000Y-118370000D01*
X107121000Y-117574000D02*
X107121000Y-115425000D01*
X107121000Y-121771000D02*
X107121000Y-120426000D01*
X107121000Y-112575000D02*
X107121000Y-111230000D01*
X102080000Y-121771000D02*
X102080000Y-111230000D01*
X107121000Y-111230000D02*
X102080000Y-111230000D01*
X107121000Y-121771000D02*
X102080000Y-121771000D01*
X197920000Y-114630000D02*
X197920000Y-118370000D01*
X192879000Y-115426000D02*
X192879000Y-117575000D01*
X194381000Y-118370000D02*
X197920000Y-118370000D01*
X194381000Y-114630000D02*
X197920000Y-114630000D01*
X192879000Y-115426000D02*
X192879000Y-117575000D01*
X192879000Y-111229000D02*
X192879000Y-112574000D01*
X192879000Y-120425000D02*
X192879000Y-121770000D01*
X197920000Y-111229000D02*
X197920000Y-121770000D01*
X192879000Y-121770000D02*
X197920000Y-121770000D01*
X192879000Y-111229000D02*
X197920000Y-111229000D01*
X133120000Y-117000000D02*
X132350000Y-117000000D01*
X125040000Y-117000000D02*
X125810000Y-117000000D01*
X132350000Y-115630000D02*
X125810000Y-115630000D01*
X132350000Y-118370000D02*
X132350000Y-115630000D01*
X125810000Y-118370000D02*
X132350000Y-118370000D01*
X125810000Y-115630000D02*
X125810000Y-118370000D01*
X166880000Y-117000000D02*
X167650000Y-117000000D01*
X174960000Y-117000000D02*
X174190000Y-117000000D01*
X167650000Y-118370000D02*
X174190000Y-118370000D01*
X167650000Y-115630000D02*
X167650000Y-118370000D01*
X174190000Y-115630000D02*
X167650000Y-115630000D01*
X174190000Y-118370000D02*
X174190000Y-115630000D01*
X124880000Y-111000000D02*
X125650000Y-111000000D01*
X132960000Y-111000000D02*
X132190000Y-111000000D01*
X125650000Y-112370000D02*
X132190000Y-112370000D01*
X125650000Y-109630000D02*
X125650000Y-112370000D01*
X132190000Y-109630000D02*
X125650000Y-109630000D01*
X132190000Y-112370000D02*
X132190000Y-109630000D01*
X166880000Y-111000000D02*
X167650000Y-111000000D01*
X174960000Y-111000000D02*
X174190000Y-111000000D01*
X167650000Y-112370000D02*
X174190000Y-112370000D01*
X167650000Y-109630000D02*
X167650000Y-112370000D01*
X174190000Y-109630000D02*
X167650000Y-109630000D01*
X174190000Y-112370000D02*
X174190000Y-109630000D01*
X105000000Y-133970000D02*
X105000000Y-134380000D01*
X107970000Y-131000000D02*
G75*
G03X107970000Y-131000000I-2970000J0D01*
G01*
X124880000Y-131000000D02*
X125650000Y-131000000D01*
X132960000Y-131000000D02*
X132190000Y-131000000D01*
X125650000Y-132370000D02*
X132190000Y-132370000D01*
X125650000Y-129630000D02*
X125650000Y-132370000D01*
X132190000Y-129630000D02*
X125650000Y-129630000D01*
X132190000Y-132370000D02*
X132190000Y-129630000D01*
X175120000Y-131000000D02*
X174350000Y-131000000D01*
X167040000Y-131000000D02*
X167810000Y-131000000D01*
X174350000Y-129630000D02*
X167810000Y-129630000D01*
X174350000Y-132370000D02*
X174350000Y-129630000D01*
X167810000Y-132370000D02*
X174350000Y-132370000D01*
X167810000Y-129630000D02*
X167810000Y-132370000D01*
X132190000Y-140370000D02*
X132190000Y-137630000D01*
X132190000Y-137630000D02*
X125650000Y-137630000D01*
X125650000Y-137630000D02*
X125650000Y-140370000D01*
X125650000Y-140370000D02*
X132190000Y-140370000D01*
X132960000Y-139000000D02*
X132190000Y-139000000D01*
X124880000Y-139000000D02*
X125650000Y-139000000D01*
X112391000Y-100730000D02*
X112391000Y-102240000D01*
X108690000Y-100730000D02*
X108690000Y-102240000D01*
X105420000Y-102240000D02*
X115660000Y-102240000D01*
X115660000Y-100730000D02*
X115660000Y-105371000D01*
X105420000Y-100730000D02*
X105420000Y-105371000D01*
X105420000Y-105371000D02*
X115660000Y-105371000D01*
X105420000Y-100730000D02*
X115660000Y-100730000D01*
X191391000Y-100730000D02*
X191391000Y-102240000D01*
X187690000Y-100730000D02*
X187690000Y-102240000D01*
X184420000Y-102240000D02*
X194660000Y-102240000D01*
X194660000Y-100730000D02*
X194660000Y-105371000D01*
X184420000Y-100730000D02*
X184420000Y-105371000D01*
X184420000Y-105371000D02*
X194660000Y-105371000D01*
X184420000Y-100730000D02*
X194660000Y-100730000D01*
X154600000Y-89800000D02*
X152000000Y-89800000D01*
X154600000Y-75100000D02*
X154600000Y-89800000D01*
X145400000Y-89800000D02*
X145400000Y-87900000D01*
X148100000Y-89800000D02*
X145400000Y-89800000D01*
X145400000Y-75100000D02*
X154600000Y-75100000D01*
X145400000Y-83900000D02*
X145400000Y-75100000D01*
X154800000Y-88950000D02*
X154800000Y-90000000D01*
X153750000Y-90000000D02*
X154800000Y-90000000D01*
X132540000Y-147510000D02*
X132540000Y-147510000D01*
X132540000Y-147640000D02*
X132540000Y-147510000D01*
X132540000Y-147640000D02*
X132540000Y-147640000D01*
X132540000Y-147510000D02*
X132540000Y-147640000D01*
X130000000Y-147510000D02*
X130000000Y-147510000D01*
X130000000Y-147640000D02*
X130000000Y-147510000D01*
X130000000Y-147640000D02*
X130000000Y-147640000D01*
X130000000Y-147510000D02*
X130000000Y-147640000D01*
X133830000Y-147640000D02*
X134230000Y-147640000D01*
X133830000Y-148760000D02*
X133830000Y-147640000D01*
X134230000Y-148760000D02*
X133830000Y-148760000D01*
X134230000Y-147640000D02*
X134230000Y-148760000D01*
X128710000Y-147640000D02*
X133830000Y-147640000D01*
X133830000Y-147640000D02*
X133830000Y-153800000D01*
X128710000Y-147640000D02*
X128710000Y-153800000D01*
X133830000Y-153800000D02*
G75*
G02X128710000Y-153800000I-2560000J0D01*
G01*
X110520354Y-115625000D02*
X110520354Y-116625000D01*
X110020354Y-116125000D02*
X111020354Y-116125000D01*
X120581000Y-118401000D02*
X120581000Y-119599000D01*
X120541000Y-118138000D02*
X120541000Y-119862000D01*
X120501000Y-117938000D02*
X120501000Y-120062000D01*
X120461000Y-117770000D02*
X120461000Y-120230000D01*
X120421000Y-117622000D02*
X120421000Y-120378000D01*
X120381000Y-117490000D02*
X120381000Y-120510000D01*
X120341000Y-117370000D02*
X120341000Y-120630000D01*
X120301000Y-117258000D02*
X120301000Y-120742000D01*
X120261000Y-117154000D02*
X120261000Y-120846000D01*
X120221000Y-117056000D02*
X120221000Y-120944000D01*
X120181000Y-116963000D02*
X120181000Y-121037000D01*
X120141000Y-116875000D02*
X120141000Y-121125000D01*
X120101000Y-116791000D02*
X120101000Y-121209000D01*
X120061000Y-116711000D02*
X120061000Y-121289000D01*
X120021000Y-116635000D02*
X120021000Y-121365000D01*
X119981000Y-116561000D02*
X119981000Y-121439000D01*
X119941000Y-116490000D02*
X119941000Y-121510000D01*
X119901000Y-116421000D02*
X119901000Y-121579000D01*
X119861000Y-116355000D02*
X119861000Y-121645000D01*
X119821000Y-116291000D02*
X119821000Y-121709000D01*
X119781000Y-116230000D02*
X119781000Y-121770000D01*
X119741000Y-116170000D02*
X119741000Y-121830000D01*
X119701000Y-116111000D02*
X119701000Y-121889000D01*
X119661000Y-116055000D02*
X119661000Y-121945000D01*
X119621000Y-116000000D02*
X119621000Y-122000000D01*
X119581000Y-115946000D02*
X119581000Y-122054000D01*
X119541000Y-115894000D02*
X119541000Y-122106000D01*
X119501000Y-115844000D02*
X119501000Y-122156000D01*
X119461000Y-115794000D02*
X119461000Y-122206000D01*
X119421000Y-115746000D02*
X119421000Y-122254000D01*
X119381000Y-115699000D02*
X119381000Y-122301000D01*
X119341000Y-115653000D02*
X119341000Y-122347000D01*
X119301000Y-115608000D02*
X119301000Y-122392000D01*
X119261000Y-115564000D02*
X119261000Y-122436000D01*
X119221000Y-120241000D02*
X119221000Y-122478000D01*
X119221000Y-115522000D02*
X119221000Y-117759000D01*
X119181000Y-120241000D02*
X119181000Y-122520000D01*
X119181000Y-115480000D02*
X119181000Y-117759000D01*
X119141000Y-120241000D02*
X119141000Y-122561000D01*
X119141000Y-115439000D02*
X119141000Y-117759000D01*
X119101000Y-120241000D02*
X119101000Y-122601000D01*
X119101000Y-115399000D02*
X119101000Y-117759000D01*
X119061000Y-120241000D02*
X119061000Y-122640000D01*
X119061000Y-115360000D02*
X119061000Y-117759000D01*
X119021000Y-120241000D02*
X119021000Y-122679000D01*
X119021000Y-115321000D02*
X119021000Y-117759000D01*
X118981000Y-120241000D02*
X118981000Y-122716000D01*
X118981000Y-115284000D02*
X118981000Y-117759000D01*
X118941000Y-120241000D02*
X118941000Y-122753000D01*
X118941000Y-115247000D02*
X118941000Y-117759000D01*
X118901000Y-120241000D02*
X118901000Y-122789000D01*
X118901000Y-115211000D02*
X118901000Y-117759000D01*
X118861000Y-120241000D02*
X118861000Y-122824000D01*
X118861000Y-115176000D02*
X118861000Y-117759000D01*
X118821000Y-120241000D02*
X118821000Y-122858000D01*
X118821000Y-115142000D02*
X118821000Y-117759000D01*
X118781000Y-120241000D02*
X118781000Y-122892000D01*
X118781000Y-115108000D02*
X118781000Y-117759000D01*
X118741000Y-120241000D02*
X118741000Y-122925000D01*
X118741000Y-115075000D02*
X118741000Y-117759000D01*
X118701000Y-120241000D02*
X118701000Y-122957000D01*
X118701000Y-115043000D02*
X118701000Y-117759000D01*
X118661000Y-120241000D02*
X118661000Y-122989000D01*
X118661000Y-115011000D02*
X118661000Y-117759000D01*
X118621000Y-120241000D02*
X118621000Y-123020000D01*
X118621000Y-114980000D02*
X118621000Y-117759000D01*
X118581000Y-120241000D02*
X118581000Y-123050000D01*
X118581000Y-114950000D02*
X118581000Y-117759000D01*
X118541000Y-120241000D02*
X118541000Y-123080000D01*
X118541000Y-114920000D02*
X118541000Y-117759000D01*
X118501000Y-120241000D02*
X118501000Y-123110000D01*
X118501000Y-114890000D02*
X118501000Y-117759000D01*
X118461000Y-120241000D02*
X118461000Y-123138000D01*
X118461000Y-114862000D02*
X118461000Y-117759000D01*
X118421000Y-120241000D02*
X118421000Y-123166000D01*
X118421000Y-114834000D02*
X118421000Y-117759000D01*
X118381000Y-120241000D02*
X118381000Y-123194000D01*
X118381000Y-114806000D02*
X118381000Y-117759000D01*
X118341000Y-120241000D02*
X118341000Y-123221000D01*
X118341000Y-114779000D02*
X118341000Y-117759000D01*
X118301000Y-120241000D02*
X118301000Y-123247000D01*
X118301000Y-114753000D02*
X118301000Y-117759000D01*
X118261000Y-120241000D02*
X118261000Y-123273000D01*
X118261000Y-114727000D02*
X118261000Y-117759000D01*
X118221000Y-120241000D02*
X118221000Y-123298000D01*
X118221000Y-114702000D02*
X118221000Y-117759000D01*
X118181000Y-120241000D02*
X118181000Y-123323000D01*
X118181000Y-114677000D02*
X118181000Y-117759000D01*
X118141000Y-120241000D02*
X118141000Y-123347000D01*
X118141000Y-114653000D02*
X118141000Y-117759000D01*
X118101000Y-120241000D02*
X118101000Y-123371000D01*
X118101000Y-114629000D02*
X118101000Y-117759000D01*
X118061000Y-120241000D02*
X118061000Y-123395000D01*
X118061000Y-114605000D02*
X118061000Y-117759000D01*
X118021000Y-120241000D02*
X118021000Y-123417000D01*
X118021000Y-114583000D02*
X118021000Y-117759000D01*
X117981000Y-120241000D02*
X117981000Y-123440000D01*
X117981000Y-114560000D02*
X117981000Y-117759000D01*
X117941000Y-120241000D02*
X117941000Y-123462000D01*
X117941000Y-114538000D02*
X117941000Y-117759000D01*
X117901000Y-120241000D02*
X117901000Y-123483000D01*
X117901000Y-114517000D02*
X117901000Y-117759000D01*
X117861000Y-120241000D02*
X117861000Y-123504000D01*
X117861000Y-114496000D02*
X117861000Y-117759000D01*
X117821000Y-120241000D02*
X117821000Y-123525000D01*
X117821000Y-114475000D02*
X117821000Y-117759000D01*
X117781000Y-120241000D02*
X117781000Y-123545000D01*
X117781000Y-114455000D02*
X117781000Y-117759000D01*
X117741000Y-120241000D02*
X117741000Y-123564000D01*
X117741000Y-114436000D02*
X117741000Y-117759000D01*
X117701000Y-120241000D02*
X117701000Y-123584000D01*
X117701000Y-114416000D02*
X117701000Y-117759000D01*
X117661000Y-120241000D02*
X117661000Y-123603000D01*
X117661000Y-114397000D02*
X117661000Y-117759000D01*
X117621000Y-120241000D02*
X117621000Y-123621000D01*
X117621000Y-114379000D02*
X117621000Y-117759000D01*
X117581000Y-120241000D02*
X117581000Y-123639000D01*
X117581000Y-114361000D02*
X117581000Y-117759000D01*
X117541000Y-120241000D02*
X117541000Y-123657000D01*
X117541000Y-114343000D02*
X117541000Y-117759000D01*
X117501000Y-120241000D02*
X117501000Y-123674000D01*
X117501000Y-114326000D02*
X117501000Y-117759000D01*
X117461000Y-120241000D02*
X117461000Y-123690000D01*
X117461000Y-114310000D02*
X117461000Y-117759000D01*
X117421000Y-120241000D02*
X117421000Y-123707000D01*
X117421000Y-114293000D02*
X117421000Y-117759000D01*
X117381000Y-120241000D02*
X117381000Y-123723000D01*
X117381000Y-114277000D02*
X117381000Y-117759000D01*
X117341000Y-120241000D02*
X117341000Y-123738000D01*
X117341000Y-114262000D02*
X117341000Y-117759000D01*
X117301000Y-120241000D02*
X117301000Y-123754000D01*
X117301000Y-114246000D02*
X117301000Y-117759000D01*
X117261000Y-120241000D02*
X117261000Y-123768000D01*
X117261000Y-114232000D02*
X117261000Y-117759000D01*
X117221000Y-120241000D02*
X117221000Y-123783000D01*
X117221000Y-114217000D02*
X117221000Y-117759000D01*
X117181000Y-120241000D02*
X117181000Y-123797000D01*
X117181000Y-114203000D02*
X117181000Y-117759000D01*
X117141000Y-120241000D02*
X117141000Y-123811000D01*
X117141000Y-114189000D02*
X117141000Y-117759000D01*
X117101000Y-120241000D02*
X117101000Y-123824000D01*
X117101000Y-114176000D02*
X117101000Y-117759000D01*
X117061000Y-120241000D02*
X117061000Y-123837000D01*
X117061000Y-114163000D02*
X117061000Y-117759000D01*
X117021000Y-120241000D02*
X117021000Y-123850000D01*
X117021000Y-114150000D02*
X117021000Y-117759000D01*
X116981000Y-120241000D02*
X116981000Y-123862000D01*
X116981000Y-114138000D02*
X116981000Y-117759000D01*
X116941000Y-120241000D02*
X116941000Y-123874000D01*
X116941000Y-114126000D02*
X116941000Y-117759000D01*
X116901000Y-120241000D02*
X116901000Y-123885000D01*
X116901000Y-114115000D02*
X116901000Y-117759000D01*
X116861000Y-120241000D02*
X116861000Y-123897000D01*
X116861000Y-114103000D02*
X116861000Y-117759000D01*
X116821000Y-120241000D02*
X116821000Y-123907000D01*
X116821000Y-114093000D02*
X116821000Y-117759000D01*
X116781000Y-120241000D02*
X116781000Y-123918000D01*
X116781000Y-114082000D02*
X116781000Y-117759000D01*
X116741000Y-114072000D02*
X116741000Y-123928000D01*
X116701000Y-114062000D02*
X116701000Y-123938000D01*
X116661000Y-114053000D02*
X116661000Y-123947000D01*
X116621000Y-114044000D02*
X116621000Y-123956000D01*
X116581000Y-114035000D02*
X116581000Y-123965000D01*
X116541000Y-114026000D02*
X116541000Y-123974000D01*
X116501000Y-114018000D02*
X116501000Y-123982000D01*
X116461000Y-114010000D02*
X116461000Y-123990000D01*
X116421000Y-114003000D02*
X116421000Y-123997000D01*
X116381000Y-113996000D02*
X116381000Y-124004000D01*
X116341000Y-113989000D02*
X116341000Y-124011000D01*
X116301000Y-113982000D02*
X116301000Y-124018000D01*
X116261000Y-113976000D02*
X116261000Y-124024000D01*
X116221000Y-113970000D02*
X116221000Y-124030000D01*
X116180000Y-113965000D02*
X116180000Y-124035000D01*
X116140000Y-113960000D02*
X116140000Y-124040000D01*
X116100000Y-113955000D02*
X116100000Y-124045000D01*
X116060000Y-113950000D02*
X116060000Y-124050000D01*
X116020000Y-113946000D02*
X116020000Y-124054000D01*
X115980000Y-113942000D02*
X115980000Y-124058000D01*
X115940000Y-113938000D02*
X115940000Y-124062000D01*
X115900000Y-113935000D02*
X115900000Y-124065000D01*
X115860000Y-113932000D02*
X115860000Y-124068000D01*
X115820000Y-113930000D02*
X115820000Y-124070000D01*
X115780000Y-113927000D02*
X115780000Y-124073000D01*
X115740000Y-113925000D02*
X115740000Y-124075000D01*
X115700000Y-113923000D02*
X115700000Y-124077000D01*
X115660000Y-113922000D02*
X115660000Y-124078000D01*
X115620000Y-113921000D02*
X115620000Y-124079000D01*
X115580000Y-113920000D02*
X115580000Y-124080000D01*
X115540000Y-113920000D02*
X115540000Y-124080000D01*
X115500000Y-113920000D02*
X115500000Y-124080000D01*
X120620000Y-119000000D02*
G75*
G03X120620000Y-119000000I-5120000J0D01*
G01*
X189479646Y-121375000D02*
X189479646Y-120375000D01*
X189979646Y-120875000D02*
X188979646Y-120875000D01*
X179419000Y-118599000D02*
X179419000Y-117401000D01*
X179459000Y-118862000D02*
X179459000Y-117138000D01*
X179499000Y-119062000D02*
X179499000Y-116938000D01*
X179539000Y-119230000D02*
X179539000Y-116770000D01*
X179579000Y-119378000D02*
X179579000Y-116622000D01*
X179619000Y-119510000D02*
X179619000Y-116490000D01*
X179659000Y-119630000D02*
X179659000Y-116370000D01*
X179699000Y-119742000D02*
X179699000Y-116258000D01*
X179739000Y-119846000D02*
X179739000Y-116154000D01*
X179779000Y-119944000D02*
X179779000Y-116056000D01*
X179819000Y-120037000D02*
X179819000Y-115963000D01*
X179859000Y-120125000D02*
X179859000Y-115875000D01*
X179899000Y-120209000D02*
X179899000Y-115791000D01*
X179939000Y-120289000D02*
X179939000Y-115711000D01*
X179979000Y-120365000D02*
X179979000Y-115635000D01*
X180019000Y-120439000D02*
X180019000Y-115561000D01*
X180059000Y-120510000D02*
X180059000Y-115490000D01*
X180099000Y-120579000D02*
X180099000Y-115421000D01*
X180139000Y-120645000D02*
X180139000Y-115355000D01*
X180179000Y-120709000D02*
X180179000Y-115291000D01*
X180219000Y-120770000D02*
X180219000Y-115230000D01*
X180259000Y-120830000D02*
X180259000Y-115170000D01*
X180299000Y-120889000D02*
X180299000Y-115111000D01*
X180339000Y-120945000D02*
X180339000Y-115055000D01*
X180379000Y-121000000D02*
X180379000Y-115000000D01*
X180419000Y-121054000D02*
X180419000Y-114946000D01*
X180459000Y-121106000D02*
X180459000Y-114894000D01*
X180499000Y-121156000D02*
X180499000Y-114844000D01*
X180539000Y-121206000D02*
X180539000Y-114794000D01*
X180579000Y-121254000D02*
X180579000Y-114746000D01*
X180619000Y-121301000D02*
X180619000Y-114699000D01*
X180659000Y-121347000D02*
X180659000Y-114653000D01*
X180699000Y-121392000D02*
X180699000Y-114608000D01*
X180739000Y-121436000D02*
X180739000Y-114564000D01*
X180779000Y-116759000D02*
X180779000Y-114522000D01*
X180779000Y-121478000D02*
X180779000Y-119241000D01*
X180819000Y-116759000D02*
X180819000Y-114480000D01*
X180819000Y-121520000D02*
X180819000Y-119241000D01*
X180859000Y-116759000D02*
X180859000Y-114439000D01*
X180859000Y-121561000D02*
X180859000Y-119241000D01*
X180899000Y-116759000D02*
X180899000Y-114399000D01*
X180899000Y-121601000D02*
X180899000Y-119241000D01*
X180939000Y-116759000D02*
X180939000Y-114360000D01*
X180939000Y-121640000D02*
X180939000Y-119241000D01*
X180979000Y-116759000D02*
X180979000Y-114321000D01*
X180979000Y-121679000D02*
X180979000Y-119241000D01*
X181019000Y-116759000D02*
X181019000Y-114284000D01*
X181019000Y-121716000D02*
X181019000Y-119241000D01*
X181059000Y-116759000D02*
X181059000Y-114247000D01*
X181059000Y-121753000D02*
X181059000Y-119241000D01*
X181099000Y-116759000D02*
X181099000Y-114211000D01*
X181099000Y-121789000D02*
X181099000Y-119241000D01*
X181139000Y-116759000D02*
X181139000Y-114176000D01*
X181139000Y-121824000D02*
X181139000Y-119241000D01*
X181179000Y-116759000D02*
X181179000Y-114142000D01*
X181179000Y-121858000D02*
X181179000Y-119241000D01*
X181219000Y-116759000D02*
X181219000Y-114108000D01*
X181219000Y-121892000D02*
X181219000Y-119241000D01*
X181259000Y-116759000D02*
X181259000Y-114075000D01*
X181259000Y-121925000D02*
X181259000Y-119241000D01*
X181299000Y-116759000D02*
X181299000Y-114043000D01*
X181299000Y-121957000D02*
X181299000Y-119241000D01*
X181339000Y-116759000D02*
X181339000Y-114011000D01*
X181339000Y-121989000D02*
X181339000Y-119241000D01*
X181379000Y-116759000D02*
X181379000Y-113980000D01*
X181379000Y-122020000D02*
X181379000Y-119241000D01*
X181419000Y-116759000D02*
X181419000Y-113950000D01*
X181419000Y-122050000D02*
X181419000Y-119241000D01*
X181459000Y-116759000D02*
X181459000Y-113920000D01*
X181459000Y-122080000D02*
X181459000Y-119241000D01*
X181499000Y-116759000D02*
X181499000Y-113890000D01*
X181499000Y-122110000D02*
X181499000Y-119241000D01*
X181539000Y-116759000D02*
X181539000Y-113862000D01*
X181539000Y-122138000D02*
X181539000Y-119241000D01*
X181579000Y-116759000D02*
X181579000Y-113834000D01*
X181579000Y-122166000D02*
X181579000Y-119241000D01*
X181619000Y-116759000D02*
X181619000Y-113806000D01*
X181619000Y-122194000D02*
X181619000Y-119241000D01*
X181659000Y-116759000D02*
X181659000Y-113779000D01*
X181659000Y-122221000D02*
X181659000Y-119241000D01*
X181699000Y-116759000D02*
X181699000Y-113753000D01*
X181699000Y-122247000D02*
X181699000Y-119241000D01*
X181739000Y-116759000D02*
X181739000Y-113727000D01*
X181739000Y-122273000D02*
X181739000Y-119241000D01*
X181779000Y-116759000D02*
X181779000Y-113702000D01*
X181779000Y-122298000D02*
X181779000Y-119241000D01*
X181819000Y-116759000D02*
X181819000Y-113677000D01*
X181819000Y-122323000D02*
X181819000Y-119241000D01*
X181859000Y-116759000D02*
X181859000Y-113653000D01*
X181859000Y-122347000D02*
X181859000Y-119241000D01*
X181899000Y-116759000D02*
X181899000Y-113629000D01*
X181899000Y-122371000D02*
X181899000Y-119241000D01*
X181939000Y-116759000D02*
X181939000Y-113605000D01*
X181939000Y-122395000D02*
X181939000Y-119241000D01*
X181979000Y-116759000D02*
X181979000Y-113583000D01*
X181979000Y-122417000D02*
X181979000Y-119241000D01*
X182019000Y-116759000D02*
X182019000Y-113560000D01*
X182019000Y-122440000D02*
X182019000Y-119241000D01*
X182059000Y-116759000D02*
X182059000Y-113538000D01*
X182059000Y-122462000D02*
X182059000Y-119241000D01*
X182099000Y-116759000D02*
X182099000Y-113517000D01*
X182099000Y-122483000D02*
X182099000Y-119241000D01*
X182139000Y-116759000D02*
X182139000Y-113496000D01*
X182139000Y-122504000D02*
X182139000Y-119241000D01*
X182179000Y-116759000D02*
X182179000Y-113475000D01*
X182179000Y-122525000D02*
X182179000Y-119241000D01*
X182219000Y-116759000D02*
X182219000Y-113455000D01*
X182219000Y-122545000D02*
X182219000Y-119241000D01*
X182259000Y-116759000D02*
X182259000Y-113436000D01*
X182259000Y-122564000D02*
X182259000Y-119241000D01*
X182299000Y-116759000D02*
X182299000Y-113416000D01*
X182299000Y-122584000D02*
X182299000Y-119241000D01*
X182339000Y-116759000D02*
X182339000Y-113397000D01*
X182339000Y-122603000D02*
X182339000Y-119241000D01*
X182379000Y-116759000D02*
X182379000Y-113379000D01*
X182379000Y-122621000D02*
X182379000Y-119241000D01*
X182419000Y-116759000D02*
X182419000Y-113361000D01*
X182419000Y-122639000D02*
X182419000Y-119241000D01*
X182459000Y-116759000D02*
X182459000Y-113343000D01*
X182459000Y-122657000D02*
X182459000Y-119241000D01*
X182499000Y-116759000D02*
X182499000Y-113326000D01*
X182499000Y-122674000D02*
X182499000Y-119241000D01*
X182539000Y-116759000D02*
X182539000Y-113310000D01*
X182539000Y-122690000D02*
X182539000Y-119241000D01*
X182579000Y-116759000D02*
X182579000Y-113293000D01*
X182579000Y-122707000D02*
X182579000Y-119241000D01*
X182619000Y-116759000D02*
X182619000Y-113277000D01*
X182619000Y-122723000D02*
X182619000Y-119241000D01*
X182659000Y-116759000D02*
X182659000Y-113262000D01*
X182659000Y-122738000D02*
X182659000Y-119241000D01*
X182699000Y-116759000D02*
X182699000Y-113246000D01*
X182699000Y-122754000D02*
X182699000Y-119241000D01*
X182739000Y-116759000D02*
X182739000Y-113232000D01*
X182739000Y-122768000D02*
X182739000Y-119241000D01*
X182779000Y-116759000D02*
X182779000Y-113217000D01*
X182779000Y-122783000D02*
X182779000Y-119241000D01*
X182819000Y-116759000D02*
X182819000Y-113203000D01*
X182819000Y-122797000D02*
X182819000Y-119241000D01*
X182859000Y-116759000D02*
X182859000Y-113189000D01*
X182859000Y-122811000D02*
X182859000Y-119241000D01*
X182899000Y-116759000D02*
X182899000Y-113176000D01*
X182899000Y-122824000D02*
X182899000Y-119241000D01*
X182939000Y-116759000D02*
X182939000Y-113163000D01*
X182939000Y-122837000D02*
X182939000Y-119241000D01*
X182979000Y-116759000D02*
X182979000Y-113150000D01*
X182979000Y-122850000D02*
X182979000Y-119241000D01*
X183019000Y-116759000D02*
X183019000Y-113138000D01*
X183019000Y-122862000D02*
X183019000Y-119241000D01*
X183059000Y-116759000D02*
X183059000Y-113126000D01*
X183059000Y-122874000D02*
X183059000Y-119241000D01*
X183099000Y-116759000D02*
X183099000Y-113115000D01*
X183099000Y-122885000D02*
X183099000Y-119241000D01*
X183139000Y-116759000D02*
X183139000Y-113103000D01*
X183139000Y-122897000D02*
X183139000Y-119241000D01*
X183179000Y-116759000D02*
X183179000Y-113093000D01*
X183179000Y-122907000D02*
X183179000Y-119241000D01*
X183219000Y-116759000D02*
X183219000Y-113082000D01*
X183219000Y-122918000D02*
X183219000Y-119241000D01*
X183259000Y-122928000D02*
X183259000Y-113072000D01*
X183299000Y-122938000D02*
X183299000Y-113062000D01*
X183339000Y-122947000D02*
X183339000Y-113053000D01*
X183379000Y-122956000D02*
X183379000Y-113044000D01*
X183419000Y-122965000D02*
X183419000Y-113035000D01*
X183459000Y-122974000D02*
X183459000Y-113026000D01*
X183499000Y-122982000D02*
X183499000Y-113018000D01*
X183539000Y-122990000D02*
X183539000Y-113010000D01*
X183579000Y-122997000D02*
X183579000Y-113003000D01*
X183619000Y-123004000D02*
X183619000Y-112996000D01*
X183659000Y-123011000D02*
X183659000Y-112989000D01*
X183699000Y-123018000D02*
X183699000Y-112982000D01*
X183739000Y-123024000D02*
X183739000Y-112976000D01*
X183779000Y-123030000D02*
X183779000Y-112970000D01*
X183820000Y-123035000D02*
X183820000Y-112965000D01*
X183860000Y-123040000D02*
X183860000Y-112960000D01*
X183900000Y-123045000D02*
X183900000Y-112955000D01*
X183940000Y-123050000D02*
X183940000Y-112950000D01*
X183980000Y-123054000D02*
X183980000Y-112946000D01*
X184020000Y-123058000D02*
X184020000Y-112942000D01*
X184060000Y-123062000D02*
X184060000Y-112938000D01*
X184100000Y-123065000D02*
X184100000Y-112935000D01*
X184140000Y-123068000D02*
X184140000Y-112932000D01*
X184180000Y-123070000D02*
X184180000Y-112930000D01*
X184220000Y-123073000D02*
X184220000Y-112927000D01*
X184260000Y-123075000D02*
X184260000Y-112925000D01*
X184300000Y-123077000D02*
X184300000Y-112923000D01*
X184340000Y-123078000D02*
X184340000Y-112922000D01*
X184380000Y-123079000D02*
X184380000Y-112921000D01*
X184420000Y-123080000D02*
X184420000Y-112920000D01*
X184460000Y-123080000D02*
X184460000Y-112920000D01*
X184500000Y-123080000D02*
X184500000Y-112920000D01*
X189620000Y-118000000D02*
G75*
G03X189620000Y-118000000I-5120000J0D01*
G01*
X111740302Y-128285000D02*
X111740302Y-129085000D01*
X111340302Y-128685000D02*
X112140302Y-128685000D01*
X119831000Y-130467000D02*
X119831000Y-131533000D01*
X119791000Y-130232000D02*
X119791000Y-131768000D01*
X119751000Y-130052000D02*
X119751000Y-131948000D01*
X119711000Y-129902000D02*
X119711000Y-132098000D01*
X119671000Y-129771000D02*
X119671000Y-132229000D01*
X119631000Y-129654000D02*
X119631000Y-132346000D01*
X119591000Y-129547000D02*
X119591000Y-132453000D01*
X119551000Y-129448000D02*
X119551000Y-132552000D01*
X119511000Y-129355000D02*
X119511000Y-132645000D01*
X119471000Y-129269000D02*
X119471000Y-132731000D01*
X119431000Y-129187000D02*
X119431000Y-132813000D01*
X119391000Y-129110000D02*
X119391000Y-132890000D01*
X119351000Y-129036000D02*
X119351000Y-132964000D01*
X119311000Y-128966000D02*
X119311000Y-133034000D01*
X119271000Y-128898000D02*
X119271000Y-133102000D01*
X119231000Y-128834000D02*
X119231000Y-133166000D01*
X119191000Y-128772000D02*
X119191000Y-133228000D01*
X119151000Y-128713000D02*
X119151000Y-133287000D01*
X119111000Y-128655000D02*
X119111000Y-133345000D01*
X119071000Y-128600000D02*
X119071000Y-133400000D01*
X119031000Y-128546000D02*
X119031000Y-133454000D01*
X118991000Y-128495000D02*
X118991000Y-133505000D01*
X118951000Y-128444000D02*
X118951000Y-133556000D01*
X118911000Y-128396000D02*
X118911000Y-133604000D01*
X118871000Y-128349000D02*
X118871000Y-133651000D01*
X118831000Y-128303000D02*
X118831000Y-133697000D01*
X118791000Y-128259000D02*
X118791000Y-133741000D01*
X118751000Y-128216000D02*
X118751000Y-133784000D01*
X118711000Y-128174000D02*
X118711000Y-133826000D01*
X118671000Y-128133000D02*
X118671000Y-133867000D01*
X118631000Y-128093000D02*
X118631000Y-133907000D01*
X118591000Y-128055000D02*
X118591000Y-133945000D01*
X118551000Y-128017000D02*
X118551000Y-133983000D01*
X118511000Y-127981000D02*
X118511000Y-134019000D01*
X118471000Y-127945000D02*
X118471000Y-134055000D01*
X118431000Y-127910000D02*
X118431000Y-134090000D01*
X118391000Y-127876000D02*
X118391000Y-134124000D01*
X118351000Y-127844000D02*
X118351000Y-134156000D01*
X118311000Y-127811000D02*
X118311000Y-134189000D01*
X118271000Y-127780000D02*
X118271000Y-134220000D01*
X118231000Y-127750000D02*
X118231000Y-134250000D01*
X118191000Y-127720000D02*
X118191000Y-134280000D01*
X118151000Y-127691000D02*
X118151000Y-134309000D01*
X118111000Y-127662000D02*
X118111000Y-134338000D01*
X118071000Y-127635000D02*
X118071000Y-134365000D01*
X118031000Y-132040000D02*
X118031000Y-134392000D01*
X118031000Y-127608000D02*
X118031000Y-129960000D01*
X117991000Y-132040000D02*
X117991000Y-134418000D01*
X117991000Y-127582000D02*
X117991000Y-129960000D01*
X117951000Y-132040000D02*
X117951000Y-134444000D01*
X117951000Y-127556000D02*
X117951000Y-129960000D01*
X117911000Y-132040000D02*
X117911000Y-134469000D01*
X117911000Y-127531000D02*
X117911000Y-129960000D01*
X117871000Y-132040000D02*
X117871000Y-134493000D01*
X117871000Y-127507000D02*
X117871000Y-129960000D01*
X117831000Y-132040000D02*
X117831000Y-134517000D01*
X117831000Y-127483000D02*
X117831000Y-129960000D01*
X117791000Y-132040000D02*
X117791000Y-134540000D01*
X117791000Y-127460000D02*
X117791000Y-129960000D01*
X117751000Y-132040000D02*
X117751000Y-134562000D01*
X117751000Y-127438000D02*
X117751000Y-129960000D01*
X117711000Y-132040000D02*
X117711000Y-134584000D01*
X117711000Y-127416000D02*
X117711000Y-129960000D01*
X117671000Y-132040000D02*
X117671000Y-134606000D01*
X117671000Y-127394000D02*
X117671000Y-129960000D01*
X117631000Y-132040000D02*
X117631000Y-134627000D01*
X117631000Y-127373000D02*
X117631000Y-129960000D01*
X117591000Y-132040000D02*
X117591000Y-134647000D01*
X117591000Y-127353000D02*
X117591000Y-129960000D01*
X117551000Y-132040000D02*
X117551000Y-134666000D01*
X117551000Y-127334000D02*
X117551000Y-129960000D01*
X117511000Y-132040000D02*
X117511000Y-134686000D01*
X117511000Y-127314000D02*
X117511000Y-129960000D01*
X117471000Y-132040000D02*
X117471000Y-134704000D01*
X117471000Y-127296000D02*
X117471000Y-129960000D01*
X117431000Y-132040000D02*
X117431000Y-134722000D01*
X117431000Y-127278000D02*
X117431000Y-129960000D01*
X117391000Y-132040000D02*
X117391000Y-134740000D01*
X117391000Y-127260000D02*
X117391000Y-129960000D01*
X117351000Y-132040000D02*
X117351000Y-134757000D01*
X117351000Y-127243000D02*
X117351000Y-129960000D01*
X117311000Y-132040000D02*
X117311000Y-134774000D01*
X117311000Y-127226000D02*
X117311000Y-129960000D01*
X117271000Y-132040000D02*
X117271000Y-134790000D01*
X117271000Y-127210000D02*
X117271000Y-129960000D01*
X117231000Y-132040000D02*
X117231000Y-134805000D01*
X117231000Y-127195000D02*
X117231000Y-129960000D01*
X117191000Y-132040000D02*
X117191000Y-134821000D01*
X117191000Y-127179000D02*
X117191000Y-129960000D01*
X117151000Y-132040000D02*
X117151000Y-134835000D01*
X117151000Y-127165000D02*
X117151000Y-129960000D01*
X117111000Y-132040000D02*
X117111000Y-134850000D01*
X117111000Y-127150000D02*
X117111000Y-129960000D01*
X117071000Y-132040000D02*
X117071000Y-134863000D01*
X117071000Y-127137000D02*
X117071000Y-129960000D01*
X117031000Y-132040000D02*
X117031000Y-134877000D01*
X117031000Y-127123000D02*
X117031000Y-129960000D01*
X116991000Y-132040000D02*
X116991000Y-134889000D01*
X116991000Y-127111000D02*
X116991000Y-129960000D01*
X116951000Y-132040000D02*
X116951000Y-134902000D01*
X116951000Y-127098000D02*
X116951000Y-129960000D01*
X116911000Y-132040000D02*
X116911000Y-134914000D01*
X116911000Y-127086000D02*
X116911000Y-129960000D01*
X116871000Y-132040000D02*
X116871000Y-134925000D01*
X116871000Y-127075000D02*
X116871000Y-129960000D01*
X116831000Y-132040000D02*
X116831000Y-134936000D01*
X116831000Y-127064000D02*
X116831000Y-129960000D01*
X116791000Y-132040000D02*
X116791000Y-134947000D01*
X116791000Y-127053000D02*
X116791000Y-129960000D01*
X116751000Y-132040000D02*
X116751000Y-134957000D01*
X116751000Y-127043000D02*
X116751000Y-129960000D01*
X116711000Y-132040000D02*
X116711000Y-134967000D01*
X116711000Y-127033000D02*
X116711000Y-129960000D01*
X116671000Y-132040000D02*
X116671000Y-134976000D01*
X116671000Y-127024000D02*
X116671000Y-129960000D01*
X116631000Y-132040000D02*
X116631000Y-134985000D01*
X116631000Y-127015000D02*
X116631000Y-129960000D01*
X116591000Y-132040000D02*
X116591000Y-134994000D01*
X116591000Y-127006000D02*
X116591000Y-129960000D01*
X116551000Y-132040000D02*
X116551000Y-135002000D01*
X116551000Y-126998000D02*
X116551000Y-129960000D01*
X116511000Y-132040000D02*
X116511000Y-135010000D01*
X116511000Y-126990000D02*
X116511000Y-129960000D01*
X116471000Y-132040000D02*
X116471000Y-135017000D01*
X116471000Y-126983000D02*
X116471000Y-129960000D01*
X116430000Y-132040000D02*
X116430000Y-135024000D01*
X116430000Y-126976000D02*
X116430000Y-129960000D01*
X116390000Y-132040000D02*
X116390000Y-135030000D01*
X116390000Y-126970000D02*
X116390000Y-129960000D01*
X116350000Y-132040000D02*
X116350000Y-135037000D01*
X116350000Y-126963000D02*
X116350000Y-129960000D01*
X116310000Y-132040000D02*
X116310000Y-135042000D01*
X116310000Y-126958000D02*
X116310000Y-129960000D01*
X116270000Y-132040000D02*
X116270000Y-135048000D01*
X116270000Y-126952000D02*
X116270000Y-129960000D01*
X116230000Y-132040000D02*
X116230000Y-135052000D01*
X116230000Y-126948000D02*
X116230000Y-129960000D01*
X116190000Y-132040000D02*
X116190000Y-135057000D01*
X116190000Y-126943000D02*
X116190000Y-129960000D01*
X116150000Y-132040000D02*
X116150000Y-135061000D01*
X116150000Y-126939000D02*
X116150000Y-129960000D01*
X116110000Y-132040000D02*
X116110000Y-135065000D01*
X116110000Y-126935000D02*
X116110000Y-129960000D01*
X116070000Y-132040000D02*
X116070000Y-135068000D01*
X116070000Y-126932000D02*
X116070000Y-129960000D01*
X116030000Y-132040000D02*
X116030000Y-135071000D01*
X116030000Y-126929000D02*
X116030000Y-129960000D01*
X115990000Y-132040000D02*
X115990000Y-135074000D01*
X115990000Y-126926000D02*
X115990000Y-129960000D01*
X115950000Y-126924000D02*
X115950000Y-135076000D01*
X115910000Y-126923000D02*
X115910000Y-135077000D01*
X115870000Y-126921000D02*
X115870000Y-135079000D01*
X115830000Y-126920000D02*
X115830000Y-135080000D01*
X115790000Y-126920000D02*
X115790000Y-135080000D01*
X115750000Y-126920000D02*
X115750000Y-135080000D01*
X119870000Y-131000000D02*
G75*
G03X119870000Y-131000000I-4120000J0D01*
G01*
X188259698Y-133715000D02*
X188259698Y-132915000D01*
X188659698Y-133315000D02*
X187859698Y-133315000D01*
X180169000Y-131533000D02*
X180169000Y-130467000D01*
X180209000Y-131768000D02*
X180209000Y-130232000D01*
X180249000Y-131948000D02*
X180249000Y-130052000D01*
X180289000Y-132098000D02*
X180289000Y-129902000D01*
X180329000Y-132229000D02*
X180329000Y-129771000D01*
X180369000Y-132346000D02*
X180369000Y-129654000D01*
X180409000Y-132453000D02*
X180409000Y-129547000D01*
X180449000Y-132552000D02*
X180449000Y-129448000D01*
X180489000Y-132645000D02*
X180489000Y-129355000D01*
X180529000Y-132731000D02*
X180529000Y-129269000D01*
X180569000Y-132813000D02*
X180569000Y-129187000D01*
X180609000Y-132890000D02*
X180609000Y-129110000D01*
X180649000Y-132964000D02*
X180649000Y-129036000D01*
X180689000Y-133034000D02*
X180689000Y-128966000D01*
X180729000Y-133102000D02*
X180729000Y-128898000D01*
X180769000Y-133166000D02*
X180769000Y-128834000D01*
X180809000Y-133228000D02*
X180809000Y-128772000D01*
X180849000Y-133287000D02*
X180849000Y-128713000D01*
X180889000Y-133345000D02*
X180889000Y-128655000D01*
X180929000Y-133400000D02*
X180929000Y-128600000D01*
X180969000Y-133454000D02*
X180969000Y-128546000D01*
X181009000Y-133505000D02*
X181009000Y-128495000D01*
X181049000Y-133556000D02*
X181049000Y-128444000D01*
X181089000Y-133604000D02*
X181089000Y-128396000D01*
X181129000Y-133651000D02*
X181129000Y-128349000D01*
X181169000Y-133697000D02*
X181169000Y-128303000D01*
X181209000Y-133741000D02*
X181209000Y-128259000D01*
X181249000Y-133784000D02*
X181249000Y-128216000D01*
X181289000Y-133826000D02*
X181289000Y-128174000D01*
X181329000Y-133867000D02*
X181329000Y-128133000D01*
X181369000Y-133907000D02*
X181369000Y-128093000D01*
X181409000Y-133945000D02*
X181409000Y-128055000D01*
X181449000Y-133983000D02*
X181449000Y-128017000D01*
X181489000Y-134019000D02*
X181489000Y-127981000D01*
X181529000Y-134055000D02*
X181529000Y-127945000D01*
X181569000Y-134090000D02*
X181569000Y-127910000D01*
X181609000Y-134124000D02*
X181609000Y-127876000D01*
X181649000Y-134156000D02*
X181649000Y-127844000D01*
X181689000Y-134189000D02*
X181689000Y-127811000D01*
X181729000Y-134220000D02*
X181729000Y-127780000D01*
X181769000Y-134250000D02*
X181769000Y-127750000D01*
X181809000Y-134280000D02*
X181809000Y-127720000D01*
X181849000Y-134309000D02*
X181849000Y-127691000D01*
X181889000Y-134338000D02*
X181889000Y-127662000D01*
X181929000Y-134365000D02*
X181929000Y-127635000D01*
X181969000Y-129960000D02*
X181969000Y-127608000D01*
X181969000Y-134392000D02*
X181969000Y-132040000D01*
X182009000Y-129960000D02*
X182009000Y-127582000D01*
X182009000Y-134418000D02*
X182009000Y-132040000D01*
X182049000Y-129960000D02*
X182049000Y-127556000D01*
X182049000Y-134444000D02*
X182049000Y-132040000D01*
X182089000Y-129960000D02*
X182089000Y-127531000D01*
X182089000Y-134469000D02*
X182089000Y-132040000D01*
X182129000Y-129960000D02*
X182129000Y-127507000D01*
X182129000Y-134493000D02*
X182129000Y-132040000D01*
X182169000Y-129960000D02*
X182169000Y-127483000D01*
X182169000Y-134517000D02*
X182169000Y-132040000D01*
X182209000Y-129960000D02*
X182209000Y-127460000D01*
X182209000Y-134540000D02*
X182209000Y-132040000D01*
X182249000Y-129960000D02*
X182249000Y-127438000D01*
X182249000Y-134562000D02*
X182249000Y-132040000D01*
X182289000Y-129960000D02*
X182289000Y-127416000D01*
X182289000Y-134584000D02*
X182289000Y-132040000D01*
X182329000Y-129960000D02*
X182329000Y-127394000D01*
X182329000Y-134606000D02*
X182329000Y-132040000D01*
X182369000Y-129960000D02*
X182369000Y-127373000D01*
X182369000Y-134627000D02*
X182369000Y-132040000D01*
X182409000Y-129960000D02*
X182409000Y-127353000D01*
X182409000Y-134647000D02*
X182409000Y-132040000D01*
X182449000Y-129960000D02*
X182449000Y-127334000D01*
X182449000Y-134666000D02*
X182449000Y-132040000D01*
X182489000Y-129960000D02*
X182489000Y-127314000D01*
X182489000Y-134686000D02*
X182489000Y-132040000D01*
X182529000Y-129960000D02*
X182529000Y-127296000D01*
X182529000Y-134704000D02*
X182529000Y-132040000D01*
X182569000Y-129960000D02*
X182569000Y-127278000D01*
X182569000Y-134722000D02*
X182569000Y-132040000D01*
X182609000Y-129960000D02*
X182609000Y-127260000D01*
X182609000Y-134740000D02*
X182609000Y-132040000D01*
X182649000Y-129960000D02*
X182649000Y-127243000D01*
X182649000Y-134757000D02*
X182649000Y-132040000D01*
X182689000Y-129960000D02*
X182689000Y-127226000D01*
X182689000Y-134774000D02*
X182689000Y-132040000D01*
X182729000Y-129960000D02*
X182729000Y-127210000D01*
X182729000Y-134790000D02*
X182729000Y-132040000D01*
X182769000Y-129960000D02*
X182769000Y-127195000D01*
X182769000Y-134805000D02*
X182769000Y-132040000D01*
X182809000Y-129960000D02*
X182809000Y-127179000D01*
X182809000Y-134821000D02*
X182809000Y-132040000D01*
X182849000Y-129960000D02*
X182849000Y-127165000D01*
X182849000Y-134835000D02*
X182849000Y-132040000D01*
X182889000Y-129960000D02*
X182889000Y-127150000D01*
X182889000Y-134850000D02*
X182889000Y-132040000D01*
X182929000Y-129960000D02*
X182929000Y-127137000D01*
X182929000Y-134863000D02*
X182929000Y-132040000D01*
X182969000Y-129960000D02*
X182969000Y-127123000D01*
X182969000Y-134877000D02*
X182969000Y-132040000D01*
X183009000Y-129960000D02*
X183009000Y-127111000D01*
X183009000Y-134889000D02*
X183009000Y-132040000D01*
X183049000Y-129960000D02*
X183049000Y-127098000D01*
X183049000Y-134902000D02*
X183049000Y-132040000D01*
X183089000Y-129960000D02*
X183089000Y-127086000D01*
X183089000Y-134914000D02*
X183089000Y-132040000D01*
X183129000Y-129960000D02*
X183129000Y-127075000D01*
X183129000Y-134925000D02*
X183129000Y-132040000D01*
X183169000Y-129960000D02*
X183169000Y-127064000D01*
X183169000Y-134936000D02*
X183169000Y-132040000D01*
X183209000Y-129960000D02*
X183209000Y-127053000D01*
X183209000Y-134947000D02*
X183209000Y-132040000D01*
X183249000Y-129960000D02*
X183249000Y-127043000D01*
X183249000Y-134957000D02*
X183249000Y-132040000D01*
X183289000Y-129960000D02*
X183289000Y-127033000D01*
X183289000Y-134967000D02*
X183289000Y-132040000D01*
X183329000Y-129960000D02*
X183329000Y-127024000D01*
X183329000Y-134976000D02*
X183329000Y-132040000D01*
X183369000Y-129960000D02*
X183369000Y-127015000D01*
X183369000Y-134985000D02*
X183369000Y-132040000D01*
X183409000Y-129960000D02*
X183409000Y-127006000D01*
X183409000Y-134994000D02*
X183409000Y-132040000D01*
X183449000Y-129960000D02*
X183449000Y-126998000D01*
X183449000Y-135002000D02*
X183449000Y-132040000D01*
X183489000Y-129960000D02*
X183489000Y-126990000D01*
X183489000Y-135010000D02*
X183489000Y-132040000D01*
X183529000Y-129960000D02*
X183529000Y-126983000D01*
X183529000Y-135017000D02*
X183529000Y-132040000D01*
X183570000Y-129960000D02*
X183570000Y-126976000D01*
X183570000Y-135024000D02*
X183570000Y-132040000D01*
X183610000Y-129960000D02*
X183610000Y-126970000D01*
X183610000Y-135030000D02*
X183610000Y-132040000D01*
X183650000Y-129960000D02*
X183650000Y-126963000D01*
X183650000Y-135037000D02*
X183650000Y-132040000D01*
X183690000Y-129960000D02*
X183690000Y-126958000D01*
X183690000Y-135042000D02*
X183690000Y-132040000D01*
X183730000Y-129960000D02*
X183730000Y-126952000D01*
X183730000Y-135048000D02*
X183730000Y-132040000D01*
X183770000Y-129960000D02*
X183770000Y-126948000D01*
X183770000Y-135052000D02*
X183770000Y-132040000D01*
X183810000Y-129960000D02*
X183810000Y-126943000D01*
X183810000Y-135057000D02*
X183810000Y-132040000D01*
X183850000Y-129960000D02*
X183850000Y-126939000D01*
X183850000Y-135061000D02*
X183850000Y-132040000D01*
X183890000Y-129960000D02*
X183890000Y-126935000D01*
X183890000Y-135065000D02*
X183890000Y-132040000D01*
X183930000Y-129960000D02*
X183930000Y-126932000D01*
X183930000Y-135068000D02*
X183930000Y-132040000D01*
X183970000Y-129960000D02*
X183970000Y-126929000D01*
X183970000Y-135071000D02*
X183970000Y-132040000D01*
X184010000Y-129960000D02*
X184010000Y-126926000D01*
X184010000Y-135074000D02*
X184010000Y-132040000D01*
X184050000Y-135076000D02*
X184050000Y-126924000D01*
X184090000Y-135077000D02*
X184090000Y-126923000D01*
X184130000Y-135079000D02*
X184130000Y-126921000D01*
X184170000Y-135080000D02*
X184170000Y-126920000D01*
X184210000Y-135080000D02*
X184210000Y-126920000D01*
X184250000Y-135080000D02*
X184250000Y-126920000D01*
X188370000Y-131000000D02*
G75*
G03X188370000Y-131000000I-4120000J0D01*
G01*
X131620000Y-124000000D02*
G75*
G03X131620000Y-124000000I-2620000J0D01*
G01*
X173620000Y-124000000D02*
G75*
G03X173620000Y-124000000I-2620000J0D01*
G01*
D12*
X194833333Y-127452380D02*
X194500000Y-126976190D01*
X194261904Y-127452380D02*
X194261904Y-126452380D01*
X194642857Y-126452380D01*
X194738095Y-126500000D01*
X194785714Y-126547619D01*
X194833333Y-126642857D01*
X194833333Y-126785714D01*
X194785714Y-126880952D01*
X194738095Y-126928571D01*
X194642857Y-126976190D01*
X194261904Y-126976190D01*
X195690476Y-126785714D02*
X195690476Y-127452380D01*
X195452380Y-126404761D02*
X195214285Y-127119047D01*
X195833333Y-127119047D01*
X167576666Y-143914761D02*
X167719523Y-143962380D01*
X167957619Y-143962380D01*
X168052857Y-143914761D01*
X168100476Y-143867142D01*
X168148095Y-143771904D01*
X168148095Y-143676666D01*
X168100476Y-143581428D01*
X168052857Y-143533809D01*
X167957619Y-143486190D01*
X167767142Y-143438571D01*
X167671904Y-143390952D01*
X167624285Y-143343333D01*
X167576666Y-143248095D01*
X167576666Y-143152857D01*
X167624285Y-143057619D01*
X167671904Y-143010000D01*
X167767142Y-142962380D01*
X168005238Y-142962380D01*
X168148095Y-143010000D01*
X168481428Y-142962380D02*
X168719523Y-143962380D01*
X168910000Y-143248095D01*
X169100476Y-143962380D01*
X169338571Y-142962380D01*
X170243333Y-143962380D02*
X169671904Y-143962380D01*
X169957619Y-143962380D02*
X169957619Y-142962380D01*
X169862380Y-143105238D01*
X169767142Y-143200476D01*
X169671904Y-143248095D01*
X175113333Y-140607142D02*
X175065714Y-140654761D01*
X174922857Y-140702380D01*
X174827619Y-140702380D01*
X174684761Y-140654761D01*
X174589523Y-140559523D01*
X174541904Y-140464285D01*
X174494285Y-140273809D01*
X174494285Y-140130952D01*
X174541904Y-139940476D01*
X174589523Y-139845238D01*
X174684761Y-139750000D01*
X174827619Y-139702380D01*
X174922857Y-139702380D01*
X175065714Y-139750000D01*
X175113333Y-139797619D01*
X175446666Y-139702380D02*
X176113333Y-139702380D01*
X175684761Y-140702380D01*
X157404761Y-145452380D02*
X157071428Y-144976190D01*
X156833333Y-145452380D02*
X156833333Y-144452380D01*
X157214285Y-144452380D01*
X157309523Y-144500000D01*
X157357142Y-144547619D01*
X157404761Y-144642857D01*
X157404761Y-144785714D01*
X157357142Y-144880952D01*
X157309523Y-144928571D01*
X157214285Y-144976190D01*
X156833333Y-144976190D01*
X157690476Y-144452380D02*
X158023809Y-145452380D01*
X158357142Y-144452380D01*
X159214285Y-145452380D02*
X158642857Y-145452380D01*
X158928571Y-145452380D02*
X158928571Y-144452380D01*
X158833333Y-144595238D01*
X158738095Y-144690476D01*
X158642857Y-144738095D01*
X178357142Y-146714285D02*
X178404761Y-146761904D01*
X178452380Y-146904761D01*
X178452380Y-147000000D01*
X178404761Y-147142857D01*
X178309523Y-147238095D01*
X178214285Y-147285714D01*
X178023809Y-147333333D01*
X177880952Y-147333333D01*
X177690476Y-147285714D01*
X177595238Y-147238095D01*
X177500000Y-147142857D01*
X177452380Y-147000000D01*
X177452380Y-146904761D01*
X177500000Y-146761904D01*
X177547619Y-146714285D01*
X177452380Y-146095238D02*
X177452380Y-145904761D01*
X177500000Y-145809523D01*
X177595238Y-145714285D01*
X177785714Y-145666666D01*
X178119047Y-145666666D01*
X178309523Y-145714285D01*
X178404761Y-145809523D01*
X178452380Y-145904761D01*
X178452380Y-146095238D01*
X178404761Y-146190476D01*
X178309523Y-146285714D01*
X178119047Y-146333333D01*
X177785714Y-146333333D01*
X177595238Y-146285714D01*
X177500000Y-146190476D01*
X177452380Y-146095238D01*
X178452380Y-145238095D02*
X177452380Y-145238095D01*
X178452380Y-144666666D01*
X177452380Y-144666666D01*
X177547619Y-144238095D02*
X177500000Y-144190476D01*
X177452380Y-144095238D01*
X177452380Y-143857142D01*
X177500000Y-143761904D01*
X177547619Y-143714285D01*
X177642857Y-143666666D01*
X177738095Y-143666666D01*
X177880952Y-143714285D01*
X178452380Y-144285714D01*
X178452380Y-143666666D01*
X122357142Y-146714285D02*
X122404761Y-146761904D01*
X122452380Y-146904761D01*
X122452380Y-147000000D01*
X122404761Y-147142857D01*
X122309523Y-147238095D01*
X122214285Y-147285714D01*
X122023809Y-147333333D01*
X121880952Y-147333333D01*
X121690476Y-147285714D01*
X121595238Y-147238095D01*
X121500000Y-147142857D01*
X121452380Y-147000000D01*
X121452380Y-146904761D01*
X121500000Y-146761904D01*
X121547619Y-146714285D01*
X121452380Y-146095238D02*
X121452380Y-145904761D01*
X121500000Y-145809523D01*
X121595238Y-145714285D01*
X121785714Y-145666666D01*
X122119047Y-145666666D01*
X122309523Y-145714285D01*
X122404761Y-145809523D01*
X122452380Y-145904761D01*
X122452380Y-146095238D01*
X122404761Y-146190476D01*
X122309523Y-146285714D01*
X122119047Y-146333333D01*
X121785714Y-146333333D01*
X121595238Y-146285714D01*
X121500000Y-146190476D01*
X121452380Y-146095238D01*
X122452380Y-145238095D02*
X121452380Y-145238095D01*
X122452380Y-144666666D01*
X121452380Y-144666666D01*
X122452380Y-143666666D02*
X122452380Y-144238095D01*
X122452380Y-143952380D02*
X121452380Y-143952380D01*
X121595238Y-144047619D01*
X121690476Y-144142857D01*
X121738095Y-144238095D01*
X149238095Y-107452380D02*
X149238095Y-108261904D01*
X149285714Y-108357142D01*
X149333333Y-108404761D01*
X149428571Y-108452380D01*
X149619047Y-108452380D01*
X149714285Y-108404761D01*
X149761904Y-108357142D01*
X149809523Y-108261904D01*
X149809523Y-107452380D01*
X150809523Y-108452380D02*
X150238095Y-108452380D01*
X150523809Y-108452380D02*
X150523809Y-107452380D01*
X150428571Y-107595238D01*
X150333333Y-107690476D01*
X150238095Y-107738095D01*
X127738095Y-105952380D02*
X127738095Y-106761904D01*
X127785714Y-106857142D01*
X127833333Y-106904761D01*
X127928571Y-106952380D01*
X128119047Y-106952380D01*
X128214285Y-106904761D01*
X128261904Y-106857142D01*
X128309523Y-106761904D01*
X128309523Y-105952380D01*
X128690476Y-105952380D02*
X129309523Y-105952380D01*
X128976190Y-106333333D01*
X129119047Y-106333333D01*
X129214285Y-106380952D01*
X129261904Y-106428571D01*
X129309523Y-106523809D01*
X129309523Y-106761904D01*
X129261904Y-106857142D01*
X129214285Y-106904761D01*
X129119047Y-106952380D01*
X128833333Y-106952380D01*
X128738095Y-106904761D01*
X128690476Y-106857142D01*
X170738095Y-105952380D02*
X170738095Y-106761904D01*
X170785714Y-106857142D01*
X170833333Y-106904761D01*
X170928571Y-106952380D01*
X171119047Y-106952380D01*
X171214285Y-106904761D01*
X171261904Y-106857142D01*
X171309523Y-106761904D01*
X171309523Y-105952380D01*
X171738095Y-106047619D02*
X171785714Y-106000000D01*
X171880952Y-105952380D01*
X172119047Y-105952380D01*
X172214285Y-106000000D01*
X172261904Y-106047619D01*
X172309523Y-106142857D01*
X172309523Y-106238095D01*
X172261904Y-106380952D01*
X171690476Y-106952380D01*
X172309523Y-106952380D01*
X104904761Y-123452380D02*
X104571428Y-122976190D01*
X104333333Y-123452380D02*
X104333333Y-122452380D01*
X104714285Y-122452380D01*
X104809523Y-122500000D01*
X104857142Y-122547619D01*
X104904761Y-122642857D01*
X104904761Y-122785714D01*
X104857142Y-122880952D01*
X104809523Y-122928571D01*
X104714285Y-122976190D01*
X104333333Y-122976190D01*
X105190476Y-122452380D02*
X105523809Y-123452380D01*
X105857142Y-122452380D01*
X106095238Y-122452380D02*
X106714285Y-122452380D01*
X106380952Y-122833333D01*
X106523809Y-122833333D01*
X106619047Y-122880952D01*
X106666666Y-122928571D01*
X106714285Y-123023809D01*
X106714285Y-123261904D01*
X106666666Y-123357142D01*
X106619047Y-123404761D01*
X106523809Y-123452380D01*
X106238095Y-123452380D01*
X106142857Y-123404761D01*
X106095238Y-123357142D01*
X193404761Y-123452380D02*
X193071428Y-122976190D01*
X192833333Y-123452380D02*
X192833333Y-122452380D01*
X193214285Y-122452380D01*
X193309523Y-122500000D01*
X193357142Y-122547619D01*
X193404761Y-122642857D01*
X193404761Y-122785714D01*
X193357142Y-122880952D01*
X193309523Y-122928571D01*
X193214285Y-122976190D01*
X192833333Y-122976190D01*
X193690476Y-122452380D02*
X194023809Y-123452380D01*
X194357142Y-122452380D01*
X194642857Y-122547619D02*
X194690476Y-122500000D01*
X194785714Y-122452380D01*
X195023809Y-122452380D01*
X195119047Y-122500000D01*
X195166666Y-122547619D01*
X195214285Y-122642857D01*
X195214285Y-122738095D01*
X195166666Y-122880952D01*
X194595238Y-123452380D01*
X195214285Y-123452380D01*
X128913333Y-119952380D02*
X128580000Y-119476190D01*
X128341904Y-119952380D02*
X128341904Y-118952380D01*
X128722857Y-118952380D01*
X128818095Y-119000000D01*
X128865714Y-119047619D01*
X128913333Y-119142857D01*
X128913333Y-119285714D01*
X128865714Y-119380952D01*
X128818095Y-119428571D01*
X128722857Y-119476190D01*
X128341904Y-119476190D01*
X129389523Y-119952380D02*
X129580000Y-119952380D01*
X129675238Y-119904761D01*
X129722857Y-119857142D01*
X129818095Y-119714285D01*
X129865714Y-119523809D01*
X129865714Y-119142857D01*
X129818095Y-119047619D01*
X129770476Y-119000000D01*
X129675238Y-118952380D01*
X129484761Y-118952380D01*
X129389523Y-119000000D01*
X129341904Y-119047619D01*
X129294285Y-119142857D01*
X129294285Y-119380952D01*
X129341904Y-119476190D01*
X129389523Y-119523809D01*
X129484761Y-119571428D01*
X129675238Y-119571428D01*
X129770476Y-119523809D01*
X129818095Y-119476190D01*
X129865714Y-119380952D01*
X170753333Y-119822380D02*
X170420000Y-119346190D01*
X170181904Y-119822380D02*
X170181904Y-118822380D01*
X170562857Y-118822380D01*
X170658095Y-118870000D01*
X170705714Y-118917619D01*
X170753333Y-119012857D01*
X170753333Y-119155714D01*
X170705714Y-119250952D01*
X170658095Y-119298571D01*
X170562857Y-119346190D01*
X170181904Y-119346190D01*
X171324761Y-119250952D02*
X171229523Y-119203333D01*
X171181904Y-119155714D01*
X171134285Y-119060476D01*
X171134285Y-119012857D01*
X171181904Y-118917619D01*
X171229523Y-118870000D01*
X171324761Y-118822380D01*
X171515238Y-118822380D01*
X171610476Y-118870000D01*
X171658095Y-118917619D01*
X171705714Y-119012857D01*
X171705714Y-119060476D01*
X171658095Y-119155714D01*
X171610476Y-119203333D01*
X171515238Y-119250952D01*
X171324761Y-119250952D01*
X171229523Y-119298571D01*
X171181904Y-119346190D01*
X171134285Y-119441428D01*
X171134285Y-119631904D01*
X171181904Y-119727142D01*
X171229523Y-119774761D01*
X171324761Y-119822380D01*
X171515238Y-119822380D01*
X171610476Y-119774761D01*
X171658095Y-119727142D01*
X171705714Y-119631904D01*
X171705714Y-119441428D01*
X171658095Y-119346190D01*
X171610476Y-119298571D01*
X171515238Y-119250952D01*
X128753333Y-113822380D02*
X128420000Y-113346190D01*
X128181904Y-113822380D02*
X128181904Y-112822380D01*
X128562857Y-112822380D01*
X128658095Y-112870000D01*
X128705714Y-112917619D01*
X128753333Y-113012857D01*
X128753333Y-113155714D01*
X128705714Y-113250952D01*
X128658095Y-113298571D01*
X128562857Y-113346190D01*
X128181904Y-113346190D01*
X129086666Y-112822380D02*
X129753333Y-112822380D01*
X129324761Y-113822380D01*
X170753333Y-113822380D02*
X170420000Y-113346190D01*
X170181904Y-113822380D02*
X170181904Y-112822380D01*
X170562857Y-112822380D01*
X170658095Y-112870000D01*
X170705714Y-112917619D01*
X170753333Y-113012857D01*
X170753333Y-113155714D01*
X170705714Y-113250952D01*
X170658095Y-113298571D01*
X170562857Y-113346190D01*
X170181904Y-113346190D01*
X171610476Y-112822380D02*
X171420000Y-112822380D01*
X171324761Y-112870000D01*
X171277142Y-112917619D01*
X171181904Y-113060476D01*
X171134285Y-113250952D01*
X171134285Y-113631904D01*
X171181904Y-113727142D01*
X171229523Y-113774761D01*
X171324761Y-113822380D01*
X171515238Y-113822380D01*
X171610476Y-113774761D01*
X171658095Y-113727142D01*
X171705714Y-113631904D01*
X171705714Y-113393809D01*
X171658095Y-113298571D01*
X171610476Y-113250952D01*
X171515238Y-113203333D01*
X171324761Y-113203333D01*
X171229523Y-113250952D01*
X171181904Y-113298571D01*
X171134285Y-113393809D01*
X104833333Y-127452380D02*
X104500000Y-126976190D01*
X104261904Y-127452380D02*
X104261904Y-126452380D01*
X104642857Y-126452380D01*
X104738095Y-126500000D01*
X104785714Y-126547619D01*
X104833333Y-126642857D01*
X104833333Y-126785714D01*
X104785714Y-126880952D01*
X104738095Y-126928571D01*
X104642857Y-126976190D01*
X104261904Y-126976190D01*
X105738095Y-126452380D02*
X105261904Y-126452380D01*
X105214285Y-126928571D01*
X105261904Y-126880952D01*
X105357142Y-126833333D01*
X105595238Y-126833333D01*
X105690476Y-126880952D01*
X105738095Y-126928571D01*
X105785714Y-127023809D01*
X105785714Y-127261904D01*
X105738095Y-127357142D01*
X105690476Y-127404761D01*
X105595238Y-127452380D01*
X105357142Y-127452380D01*
X105261904Y-127404761D01*
X105214285Y-127357142D01*
X128753333Y-133822380D02*
X128420000Y-133346190D01*
X128181904Y-133822380D02*
X128181904Y-132822380D01*
X128562857Y-132822380D01*
X128658095Y-132870000D01*
X128705714Y-132917619D01*
X128753333Y-133012857D01*
X128753333Y-133155714D01*
X128705714Y-133250952D01*
X128658095Y-133298571D01*
X128562857Y-133346190D01*
X128181904Y-133346190D01*
X129134285Y-132917619D02*
X129181904Y-132870000D01*
X129277142Y-132822380D01*
X129515238Y-132822380D01*
X129610476Y-132870000D01*
X129658095Y-132917619D01*
X129705714Y-133012857D01*
X129705714Y-133108095D01*
X129658095Y-133250952D01*
X129086666Y-133822380D01*
X129705714Y-133822380D01*
X170913333Y-133952380D02*
X170580000Y-133476190D01*
X170341904Y-133952380D02*
X170341904Y-132952380D01*
X170722857Y-132952380D01*
X170818095Y-133000000D01*
X170865714Y-133047619D01*
X170913333Y-133142857D01*
X170913333Y-133285714D01*
X170865714Y-133380952D01*
X170818095Y-133428571D01*
X170722857Y-133476190D01*
X170341904Y-133476190D01*
X171865714Y-133952380D02*
X171294285Y-133952380D01*
X171580000Y-133952380D02*
X171580000Y-132952380D01*
X171484761Y-133095238D01*
X171389523Y-133190476D01*
X171294285Y-133238095D01*
X128753333Y-141822380D02*
X128420000Y-141346190D01*
X128181904Y-141822380D02*
X128181904Y-140822380D01*
X128562857Y-140822380D01*
X128658095Y-140870000D01*
X128705714Y-140917619D01*
X128753333Y-141012857D01*
X128753333Y-141155714D01*
X128705714Y-141250952D01*
X128658095Y-141298571D01*
X128562857Y-141346190D01*
X128181904Y-141346190D01*
X129086666Y-140822380D02*
X129705714Y-140822380D01*
X129372380Y-141203333D01*
X129515238Y-141203333D01*
X129610476Y-141250952D01*
X129658095Y-141298571D01*
X129705714Y-141393809D01*
X129705714Y-141631904D01*
X129658095Y-141727142D01*
X129610476Y-141774761D01*
X129515238Y-141822380D01*
X129229523Y-141822380D01*
X129134285Y-141774761D01*
X129086666Y-141727142D01*
X110404761Y-107047619D02*
X110309523Y-107000000D01*
X110214285Y-106904761D01*
X110071428Y-106761904D01*
X109976190Y-106714285D01*
X109880952Y-106714285D01*
X109928571Y-106952380D02*
X109833333Y-106904761D01*
X109738095Y-106809523D01*
X109690476Y-106619047D01*
X109690476Y-106285714D01*
X109738095Y-106095238D01*
X109833333Y-106000000D01*
X109928571Y-105952380D01*
X110119047Y-105952380D01*
X110214285Y-106000000D01*
X110309523Y-106095238D01*
X110357142Y-106285714D01*
X110357142Y-106619047D01*
X110309523Y-106809523D01*
X110214285Y-106904761D01*
X110119047Y-106952380D01*
X109928571Y-106952380D01*
X110738095Y-106047619D02*
X110785714Y-106000000D01*
X110880952Y-105952380D01*
X111119047Y-105952380D01*
X111214285Y-106000000D01*
X111261904Y-106047619D01*
X111309523Y-106142857D01*
X111309523Y-106238095D01*
X111261904Y-106380952D01*
X110690476Y-106952380D01*
X111309523Y-106952380D01*
X189444761Y-107047619D02*
X189349523Y-107000000D01*
X189254285Y-106904761D01*
X189111428Y-106761904D01*
X189016190Y-106714285D01*
X188920952Y-106714285D01*
X188968571Y-106952380D02*
X188873333Y-106904761D01*
X188778095Y-106809523D01*
X188730476Y-106619047D01*
X188730476Y-106285714D01*
X188778095Y-106095238D01*
X188873333Y-106000000D01*
X188968571Y-105952380D01*
X189159047Y-105952380D01*
X189254285Y-106000000D01*
X189349523Y-106095238D01*
X189397142Y-106285714D01*
X189397142Y-106619047D01*
X189349523Y-106809523D01*
X189254285Y-106904761D01*
X189159047Y-106952380D01*
X188968571Y-106952380D01*
X190349523Y-106952380D02*
X189778095Y-106952380D01*
X190063809Y-106952380D02*
X190063809Y-105952380D01*
X189968571Y-106095238D01*
X189873333Y-106190476D01*
X189778095Y-106238095D01*
X155666666Y-85352380D02*
X155666666Y-86066666D01*
X155619047Y-86209523D01*
X155523809Y-86304761D01*
X155380952Y-86352380D01*
X155285714Y-86352380D01*
X156666666Y-86352380D02*
X156095238Y-86352380D01*
X156380952Y-86352380D02*
X156380952Y-85352380D01*
X156285714Y-85495238D01*
X156190476Y-85590476D01*
X156095238Y-85638095D01*
X130531904Y-144922380D02*
X130531904Y-143922380D01*
X130770000Y-143922380D01*
X130912857Y-143970000D01*
X131008095Y-144065238D01*
X131055714Y-144160476D01*
X131103333Y-144350952D01*
X131103333Y-144493809D01*
X131055714Y-144684285D01*
X131008095Y-144779523D01*
X130912857Y-144874761D01*
X130770000Y-144922380D01*
X130531904Y-144922380D01*
X132055714Y-144922380D02*
X131484285Y-144922380D01*
X131770000Y-144922380D02*
X131770000Y-143922380D01*
X131674761Y-144065238D01*
X131579523Y-144160476D01*
X131484285Y-144208095D01*
X115333333Y-125357142D02*
X115285714Y-125404761D01*
X115142857Y-125452380D01*
X115047619Y-125452380D01*
X114904761Y-125404761D01*
X114809523Y-125309523D01*
X114761904Y-125214285D01*
X114714285Y-125023809D01*
X114714285Y-124880952D01*
X114761904Y-124690476D01*
X114809523Y-124595238D01*
X114904761Y-124500000D01*
X115047619Y-124452380D01*
X115142857Y-124452380D01*
X115285714Y-124500000D01*
X115333333Y-124547619D01*
X116190476Y-124452380D02*
X116000000Y-124452380D01*
X115904761Y-124500000D01*
X115857142Y-124547619D01*
X115761904Y-124690476D01*
X115714285Y-124880952D01*
X115714285Y-125261904D01*
X115761904Y-125357142D01*
X115809523Y-125404761D01*
X115904761Y-125452380D01*
X116095238Y-125452380D01*
X116190476Y-125404761D01*
X116238095Y-125357142D01*
X116285714Y-125261904D01*
X116285714Y-125023809D01*
X116238095Y-124928571D01*
X116190476Y-124880952D01*
X116095238Y-124833333D01*
X115904761Y-124833333D01*
X115809523Y-124880952D01*
X115761904Y-124928571D01*
X115714285Y-125023809D01*
X184333333Y-124607142D02*
X184285714Y-124654761D01*
X184142857Y-124702380D01*
X184047619Y-124702380D01*
X183904761Y-124654761D01*
X183809523Y-124559523D01*
X183761904Y-124464285D01*
X183714285Y-124273809D01*
X183714285Y-124130952D01*
X183761904Y-123940476D01*
X183809523Y-123845238D01*
X183904761Y-123750000D01*
X184047619Y-123702380D01*
X184142857Y-123702380D01*
X184285714Y-123750000D01*
X184333333Y-123797619D01*
X185238095Y-123702380D02*
X184761904Y-123702380D01*
X184714285Y-124178571D01*
X184761904Y-124130952D01*
X184857142Y-124083333D01*
X185095238Y-124083333D01*
X185190476Y-124130952D01*
X185238095Y-124178571D01*
X185285714Y-124273809D01*
X185285714Y-124511904D01*
X185238095Y-124607142D01*
X185190476Y-124654761D01*
X185095238Y-124702380D01*
X184857142Y-124702380D01*
X184761904Y-124654761D01*
X184714285Y-124607142D01*
X115333333Y-136357142D02*
X115285714Y-136404761D01*
X115142857Y-136452380D01*
X115047619Y-136452380D01*
X114904761Y-136404761D01*
X114809523Y-136309523D01*
X114761904Y-136214285D01*
X114714285Y-136023809D01*
X114714285Y-135880952D01*
X114761904Y-135690476D01*
X114809523Y-135595238D01*
X114904761Y-135500000D01*
X115047619Y-135452380D01*
X115142857Y-135452380D01*
X115285714Y-135500000D01*
X115333333Y-135547619D01*
X116190476Y-135785714D02*
X116190476Y-136452380D01*
X115952380Y-135404761D02*
X115714285Y-136119047D01*
X116333333Y-136119047D01*
X184333333Y-136357142D02*
X184285714Y-136404761D01*
X184142857Y-136452380D01*
X184047619Y-136452380D01*
X183904761Y-136404761D01*
X183809523Y-136309523D01*
X183761904Y-136214285D01*
X183714285Y-136023809D01*
X183714285Y-135880952D01*
X183761904Y-135690476D01*
X183809523Y-135595238D01*
X183904761Y-135500000D01*
X184047619Y-135452380D01*
X184142857Y-135452380D01*
X184285714Y-135500000D01*
X184333333Y-135547619D01*
X184666666Y-135452380D02*
X185285714Y-135452380D01*
X184952380Y-135833333D01*
X185095238Y-135833333D01*
X185190476Y-135880952D01*
X185238095Y-135928571D01*
X185285714Y-136023809D01*
X185285714Y-136261904D01*
X185238095Y-136357142D01*
X185190476Y-136404761D01*
X185095238Y-136452380D01*
X184809523Y-136452380D01*
X184714285Y-136404761D01*
X184666666Y-136357142D01*
X128833333Y-128107142D02*
X128785714Y-128154761D01*
X128642857Y-128202380D01*
X128547619Y-128202380D01*
X128404761Y-128154761D01*
X128309523Y-128059523D01*
X128261904Y-127964285D01*
X128214285Y-127773809D01*
X128214285Y-127630952D01*
X128261904Y-127440476D01*
X128309523Y-127345238D01*
X128404761Y-127250000D01*
X128547619Y-127202380D01*
X128642857Y-127202380D01*
X128785714Y-127250000D01*
X128833333Y-127297619D01*
X129214285Y-127297619D02*
X129261904Y-127250000D01*
X129357142Y-127202380D01*
X129595238Y-127202380D01*
X129690476Y-127250000D01*
X129738095Y-127297619D01*
X129785714Y-127392857D01*
X129785714Y-127488095D01*
X129738095Y-127630952D01*
X129166666Y-128202380D01*
X129785714Y-128202380D01*
X170833333Y-127857142D02*
X170785714Y-127904761D01*
X170642857Y-127952380D01*
X170547619Y-127952380D01*
X170404761Y-127904761D01*
X170309523Y-127809523D01*
X170261904Y-127714285D01*
X170214285Y-127523809D01*
X170214285Y-127380952D01*
X170261904Y-127190476D01*
X170309523Y-127095238D01*
X170404761Y-127000000D01*
X170547619Y-126952380D01*
X170642857Y-126952380D01*
X170785714Y-127000000D01*
X170833333Y-127047619D01*
X171785714Y-127952380D02*
X171214285Y-127952380D01*
X171500000Y-127952380D02*
X171500000Y-126952380D01*
X171404761Y-127095238D01*
X171309523Y-127190476D01*
X171214285Y-127238095D01*
M02*
