G04 #@! TF.GenerationSoftware,KiCad,Pcbnew,(5.1.0)-1*
G04 #@! TF.CreationDate,2019-04-15T23:00:07-07:00*
G04 #@! TF.ProjectId,12AU7-Amplifier,31324155-372d-4416-9d70-6c6966696572,rev?*
G04 #@! TF.SameCoordinates,Original*
G04 #@! TF.FileFunction,Copper,L1,Top*
G04 #@! TF.FilePolarity,Positive*
%FSLAX46Y46*%
G04 Gerber Fmt 4.6, Leading zero omitted, Abs format (unit mm)*
G04 Created by KiCad (PCBNEW (5.1.0)-1) date 2019-04-15 23:00:07*
%MOMM*%
%LPD*%
G04 APERTURE LIST*
%ADD10O,2.800000X2.800000*%
%ADD11C,2.800000*%
%ADD12C,1.524000*%
%ADD13R,1.524000X1.524000*%
%ADD14C,1.600000*%
%ADD15R,1.600000X1.600000*%
%ADD16C,2.340000*%
%ADD17R,2.500000X1.800000*%
%ADD18R,1.800000X2.500000*%
%ADD19C,2.030000*%
%ADD20C,2.030000*%
%ADD21O,3.050000X2.030000*%
%ADD22O,1.905000X2.000000*%
%ADD23R,1.905000X2.000000*%
%ADD24O,1.600000X1.600000*%
%ADD25C,0.100000*%
%ADD26C,3.500000*%
%ADD27C,3.000000*%
%ADD28R,3.500000X3.500000*%
%ADD29C,1.800000*%
%ADD30R,1.800000X1.800000*%
%ADD31C,2.000000*%
%ADD32R,2.000000X2.000000*%
%ADD33C,0.500000*%
G04 APERTURE END LIST*
D10*
X195000000Y-136080000D03*
D11*
X195000000Y-131000000D03*
D12*
X171450000Y-146050000D03*
X166370000Y-146050000D03*
X166370000Y-140970000D03*
X168910000Y-140970000D03*
D13*
X171450000Y-140970000D03*
D14*
X174030000Y-136500000D03*
D15*
X176530000Y-136500000D03*
D16*
X145025400Y-131123720D03*
X150025400Y-131123720D03*
X155025400Y-131123720D03*
X145025400Y-141203720D03*
X150025400Y-141203720D03*
X155025400Y-141203720D03*
D17*
X185000000Y-146000000D03*
D18*
X190000000Y-141000000D03*
X180000000Y-141000000D03*
D17*
X115000000Y-146000000D03*
D18*
X120000000Y-141000000D03*
X110000000Y-141000000D03*
D19*
X155290000Y-115280000D03*
D20*
X155702599Y-114980230D02*
X154877401Y-115579770D01*
D19*
X158560000Y-110780000D03*
D20*
X158717599Y-110294961D02*
X158402401Y-111265039D01*
D19*
X158560000Y-105220000D03*
D20*
X158402401Y-104734961D02*
X158717599Y-105705039D01*
D19*
X155290000Y-100720000D03*
D20*
X154877401Y-100420230D02*
X155702599Y-101019770D01*
D21*
X150000000Y-99000000D03*
D19*
X144710000Y-100720000D03*
D20*
X145122599Y-100420230D02*
X144297401Y-101019770D01*
D19*
X141440000Y-105220000D03*
D20*
X141597599Y-104734961D02*
X141282401Y-105705039D01*
D19*
X141440000Y-110780000D03*
D20*
X141282401Y-110294961D02*
X141597599Y-111265039D01*
D19*
X144710000Y-115280000D03*
D20*
X144297401Y-114980230D02*
X145122599Y-115579770D01*
D22*
X131080000Y-104000000D03*
X128540000Y-104000000D03*
D23*
X126000000Y-104000000D03*
D22*
X174080000Y-104000000D03*
X171540000Y-104000000D03*
D23*
X169000000Y-104000000D03*
D16*
X107000000Y-119000000D03*
X104500000Y-116500000D03*
X107000000Y-114000000D03*
X193000000Y-114000000D03*
X195500000Y-116500000D03*
X193000000Y-119000000D03*
D24*
X134160000Y-117000000D03*
D14*
X124000000Y-117000000D03*
D24*
X165840000Y-117000000D03*
D14*
X176000000Y-117000000D03*
D24*
X123840000Y-111000000D03*
D14*
X134000000Y-111000000D03*
D24*
X165840000Y-111000000D03*
D14*
X176000000Y-111000000D03*
D10*
X105000000Y-136080000D03*
D11*
X105000000Y-131000000D03*
D24*
X123840000Y-131000000D03*
D14*
X134000000Y-131000000D03*
D24*
X176160000Y-131000000D03*
D14*
X166000000Y-131000000D03*
X134000000Y-139000000D03*
D24*
X123840000Y-139000000D03*
D22*
X113080000Y-104000000D03*
X110540000Y-104000000D03*
D23*
X108000000Y-104000000D03*
D22*
X192080000Y-104000000D03*
X189540000Y-104000000D03*
D23*
X187000000Y-104000000D03*
D25*
G36*
X146260765Y-84154213D02*
G01*
X146345704Y-84166813D01*
X146428999Y-84187677D01*
X146509848Y-84216605D01*
X146587472Y-84253319D01*
X146661124Y-84297464D01*
X146730094Y-84348616D01*
X146793718Y-84406282D01*
X146851384Y-84469906D01*
X146902536Y-84538876D01*
X146946681Y-84612528D01*
X146983395Y-84690152D01*
X147012323Y-84771001D01*
X147033187Y-84854296D01*
X147045787Y-84939235D01*
X147050000Y-85025000D01*
X147050000Y-86775000D01*
X147045787Y-86860765D01*
X147033187Y-86945704D01*
X147012323Y-87028999D01*
X146983395Y-87109848D01*
X146946681Y-87187472D01*
X146902536Y-87261124D01*
X146851384Y-87330094D01*
X146793718Y-87393718D01*
X146730094Y-87451384D01*
X146661124Y-87502536D01*
X146587472Y-87546681D01*
X146509848Y-87583395D01*
X146428999Y-87612323D01*
X146345704Y-87633187D01*
X146260765Y-87645787D01*
X146175000Y-87650000D01*
X144425000Y-87650000D01*
X144339235Y-87645787D01*
X144254296Y-87633187D01*
X144171001Y-87612323D01*
X144090152Y-87583395D01*
X144012528Y-87546681D01*
X143938876Y-87502536D01*
X143869906Y-87451384D01*
X143806282Y-87393718D01*
X143748616Y-87330094D01*
X143697464Y-87261124D01*
X143653319Y-87187472D01*
X143616605Y-87109848D01*
X143587677Y-87028999D01*
X143566813Y-86945704D01*
X143554213Y-86860765D01*
X143550000Y-86775000D01*
X143550000Y-85025000D01*
X143554213Y-84939235D01*
X143566813Y-84854296D01*
X143587677Y-84771001D01*
X143616605Y-84690152D01*
X143653319Y-84612528D01*
X143697464Y-84538876D01*
X143748616Y-84469906D01*
X143806282Y-84406282D01*
X143869906Y-84348616D01*
X143938876Y-84297464D01*
X144012528Y-84253319D01*
X144090152Y-84216605D01*
X144171001Y-84187677D01*
X144254296Y-84166813D01*
X144339235Y-84154213D01*
X144425000Y-84150000D01*
X146175000Y-84150000D01*
X146260765Y-84154213D01*
X146260765Y-84154213D01*
G37*
D26*
X145300000Y-85900000D03*
D25*
G36*
X151073513Y-81403611D02*
G01*
X151146318Y-81414411D01*
X151217714Y-81432295D01*
X151287013Y-81457090D01*
X151353548Y-81488559D01*
X151416678Y-81526398D01*
X151475795Y-81570242D01*
X151530330Y-81619670D01*
X151579758Y-81674205D01*
X151623602Y-81733322D01*
X151661441Y-81796452D01*
X151692910Y-81862987D01*
X151717705Y-81932286D01*
X151735589Y-82003682D01*
X151746389Y-82076487D01*
X151750000Y-82150000D01*
X151750000Y-83650000D01*
X151746389Y-83723513D01*
X151735589Y-83796318D01*
X151717705Y-83867714D01*
X151692910Y-83937013D01*
X151661441Y-84003548D01*
X151623602Y-84066678D01*
X151579758Y-84125795D01*
X151530330Y-84180330D01*
X151475795Y-84229758D01*
X151416678Y-84273602D01*
X151353548Y-84311441D01*
X151287013Y-84342910D01*
X151217714Y-84367705D01*
X151146318Y-84385589D01*
X151073513Y-84396389D01*
X151000000Y-84400000D01*
X149000000Y-84400000D01*
X148926487Y-84396389D01*
X148853682Y-84385589D01*
X148782286Y-84367705D01*
X148712987Y-84342910D01*
X148646452Y-84311441D01*
X148583322Y-84273602D01*
X148524205Y-84229758D01*
X148469670Y-84180330D01*
X148420242Y-84125795D01*
X148376398Y-84066678D01*
X148338559Y-84003548D01*
X148307090Y-83937013D01*
X148282295Y-83867714D01*
X148264411Y-83796318D01*
X148253611Y-83723513D01*
X148250000Y-83650000D01*
X148250000Y-82150000D01*
X148253611Y-82076487D01*
X148264411Y-82003682D01*
X148282295Y-81932286D01*
X148307090Y-81862987D01*
X148338559Y-81796452D01*
X148376398Y-81733322D01*
X148420242Y-81674205D01*
X148469670Y-81619670D01*
X148524205Y-81570242D01*
X148583322Y-81526398D01*
X148646452Y-81488559D01*
X148712987Y-81457090D01*
X148782286Y-81432295D01*
X148853682Y-81414411D01*
X148926487Y-81403611D01*
X149000000Y-81400000D01*
X151000000Y-81400000D01*
X151073513Y-81403611D01*
X151073513Y-81403611D01*
G37*
D27*
X150000000Y-82900000D03*
D28*
X150000000Y-88900000D03*
D29*
X132540000Y-146430000D03*
D30*
X130000000Y-146430000D03*
D31*
X118000000Y-119000000D03*
D32*
X113000000Y-119000000D03*
D31*
X182000000Y-118000000D03*
D32*
X187000000Y-118000000D03*
D14*
X117000000Y-131000000D03*
D15*
X114500000Y-131000000D03*
D14*
X183000000Y-131000000D03*
D15*
X185500000Y-131000000D03*
D14*
X128000000Y-124000000D03*
X130000000Y-124000000D03*
X172000000Y-124000000D03*
X170000000Y-124000000D03*
D33*
X172000000Y-125000000D02*
X172000000Y-124000000D01*
X166000000Y-131000000D02*
X172000000Y-125000000D01*
X159727233Y-110780000D02*
X158560000Y-110780000D01*
X161914002Y-110780000D02*
X159727233Y-110780000D01*
X172000000Y-120865998D02*
X161914002Y-110780000D01*
X172000000Y-124000000D02*
X172000000Y-120865998D01*
X142315741Y-106095741D02*
X141440000Y-105220000D01*
X143361991Y-107141991D02*
X142315741Y-106095741D01*
X143361991Y-112638009D02*
X143361991Y-107141991D01*
X133550001Y-122449999D02*
X143361991Y-112638009D01*
X128418631Y-122449999D02*
X133550001Y-122449999D01*
X128000000Y-122868630D02*
X128418631Y-122449999D01*
X128000000Y-124000000D02*
X128000000Y-122868630D01*
X128000000Y-125000000D02*
X128000000Y-124000000D01*
X134000000Y-131000000D02*
X128000000Y-125000000D01*
X142901680Y-124000000D02*
X130000000Y-124000000D01*
X150025400Y-131123720D02*
X142901680Y-124000000D01*
X185500000Y-131000000D02*
X195000000Y-131000000D01*
X185500000Y-129700000D02*
X185500000Y-131000000D01*
X184550001Y-117959999D02*
X184550001Y-128750001D01*
X184550001Y-128750001D02*
X185500000Y-129700000D01*
X182840001Y-116249999D02*
X184550001Y-117959999D01*
X178955997Y-116249999D02*
X182840001Y-116249999D01*
X169847988Y-107141990D02*
X178955997Y-116249999D01*
X160481990Y-107141990D02*
X169847988Y-107141990D01*
X158560000Y-105220000D02*
X160481990Y-107141990D01*
X114500000Y-129700000D02*
X114500000Y-131000000D01*
X122750011Y-121449989D02*
X114500000Y-129700000D01*
X132354430Y-121449989D02*
X122750011Y-121449989D01*
X141440000Y-112364419D02*
X132354430Y-121449989D01*
X141440000Y-110780000D02*
X141440000Y-112364419D01*
X114500000Y-131000000D02*
X105000000Y-131000000D01*
X177000000Y-118000000D02*
X176000000Y-117000000D01*
X182000000Y-118000000D02*
X177000000Y-118000000D01*
X180000000Y-139250000D02*
X180000000Y-141000000D01*
X180000000Y-131705998D02*
X180000000Y-139250000D01*
X182000000Y-129705998D02*
X180000000Y-131705998D01*
X182000000Y-118000000D02*
X182000000Y-129705998D01*
X120000000Y-117000000D02*
X124000000Y-117000000D01*
X118000000Y-119000000D02*
X120000000Y-117000000D01*
X131080000Y-103952500D02*
X131080000Y-104000000D01*
X128847510Y-101720010D02*
X131080000Y-103952500D01*
X116812490Y-101720010D02*
X128847510Y-101720010D01*
X114532500Y-104000000D02*
X116812490Y-101720010D01*
X113080000Y-104000000D02*
X114532500Y-104000000D01*
X113000000Y-104080000D02*
X113080000Y-104000000D01*
X113000000Y-119000000D02*
X113000000Y-104080000D01*
X167131999Y-141731999D02*
X166370000Y-140970000D01*
X167882001Y-142482001D02*
X167131999Y-141731999D01*
X172812001Y-142482001D02*
X167882001Y-142482001D01*
X176530000Y-138764002D02*
X172812001Y-142482001D01*
X176530000Y-136500000D02*
X176530000Y-138764002D01*
X156768780Y-100720000D02*
X155290000Y-100720000D01*
X187760000Y-100720000D02*
X156768780Y-100720000D01*
X189540000Y-102500000D02*
X187760000Y-100720000D01*
X189540000Y-104000000D02*
X189540000Y-102500000D01*
X189540000Y-110540000D02*
X193000000Y-114000000D01*
X189540000Y-104000000D02*
X189540000Y-110540000D01*
X164400000Y-139000000D02*
X134000000Y-139000000D01*
X166370000Y-140970000D02*
X164400000Y-139000000D01*
X110540000Y-115460000D02*
X110540000Y-104000000D01*
X107000000Y-119000000D02*
X110540000Y-115460000D01*
X187000000Y-113000000D02*
X193000000Y-119000000D01*
X187000000Y-104000000D02*
X187000000Y-113000000D01*
X193000000Y-119000000D02*
X195500000Y-116500000D01*
X104500000Y-116500000D02*
X107000000Y-114000000D01*
X108000000Y-113000000D02*
X107000000Y-114000000D01*
X108000000Y-104000000D02*
X108000000Y-113000000D01*
X143231221Y-100720000D02*
X144710000Y-100720000D01*
X109780000Y-100720000D02*
X143231221Y-100720000D01*
X108000000Y-102500000D02*
X109780000Y-100720000D01*
X108000000Y-104000000D02*
X108000000Y-102500000D01*
X171540000Y-104047500D02*
X171540000Y-104000000D01*
X172992500Y-105500000D02*
X171540000Y-104047500D01*
X173040000Y-105500000D02*
X172992500Y-105500000D01*
X176000000Y-108460000D02*
X173040000Y-105500000D01*
X176000000Y-111000000D02*
X176000000Y-108460000D01*
X128540000Y-105540000D02*
X134000000Y-111000000D01*
X128540000Y-104000000D02*
X128540000Y-105540000D01*
X120000000Y-139250000D02*
X120000000Y-141000000D01*
X123360000Y-135890000D02*
X120000000Y-139250000D01*
X150259120Y-135890000D02*
X123360000Y-135890000D01*
X155025400Y-131123720D02*
X150259120Y-135890000D01*
X111400000Y-141000000D02*
X110000000Y-141000000D01*
X113910000Y-143510000D02*
X111400000Y-141000000D01*
X152719120Y-143510000D02*
X113910000Y-143510000D01*
X155025400Y-141203720D02*
X152719120Y-143510000D01*
X150000000Y-91150000D02*
X150000000Y-88900000D01*
X152275010Y-93425010D02*
X150000000Y-91150000D01*
X152275010Y-124335010D02*
X152275010Y-93425010D01*
X168910000Y-140970000D02*
X152275010Y-124335010D01*
M02*
