G04 #@! TF.GenerationSoftware,KiCad,Pcbnew,(5.1.0)-1*
G04 #@! TF.CreationDate,2019-04-15T23:00:07-07:00*
G04 #@! TF.ProjectId,12AU7-Amplifier,31324155-372d-4416-9d70-6c6966696572,rev?*
G04 #@! TF.SameCoordinates,Original*
G04 #@! TF.FileFunction,Soldermask,Bot*
G04 #@! TF.FilePolarity,Negative*
%FSLAX46Y46*%
G04 Gerber Fmt 4.6, Leading zero omitted, Abs format (unit mm)*
G04 Created by KiCad (PCBNEW (5.1.0)-1) date 2019-04-15 23:00:07*
%MOMM*%
%LPD*%
G04 APERTURE LIST*
%ADD10C,0.100000*%
G04 APERTURE END LIST*
D10*
G36*
X190189890Y-147874017D02*
G01*
X190308364Y-147923091D01*
X190414988Y-147994335D01*
X190505665Y-148085012D01*
X190576909Y-148191636D01*
X190625983Y-148310110D01*
X190651000Y-148435882D01*
X190651000Y-148564118D01*
X190625983Y-148689890D01*
X190576909Y-148808364D01*
X190505665Y-148914988D01*
X190414988Y-149005665D01*
X190308364Y-149076909D01*
X190308363Y-149076910D01*
X190308362Y-149076910D01*
X190189890Y-149125983D01*
X190064119Y-149151000D01*
X189935881Y-149151000D01*
X189810110Y-149125983D01*
X189691638Y-149076910D01*
X189691637Y-149076910D01*
X189691636Y-149076909D01*
X189585012Y-149005665D01*
X189494335Y-148914988D01*
X189423091Y-148808364D01*
X189374017Y-148689890D01*
X189349000Y-148564118D01*
X189349000Y-148435882D01*
X189374017Y-148310110D01*
X189423091Y-148191636D01*
X189494335Y-148085012D01*
X189585012Y-147994335D01*
X189691636Y-147923091D01*
X189810110Y-147874017D01*
X189935881Y-147849000D01*
X190064119Y-147849000D01*
X190189890Y-147874017D01*
X190189890Y-147874017D01*
G37*
G36*
X120189890Y-147874017D02*
G01*
X120308364Y-147923091D01*
X120414988Y-147994335D01*
X120505665Y-148085012D01*
X120576909Y-148191636D01*
X120625983Y-148310110D01*
X120651000Y-148435882D01*
X120651000Y-148564118D01*
X120625983Y-148689890D01*
X120576909Y-148808364D01*
X120505665Y-148914988D01*
X120414988Y-149005665D01*
X120308364Y-149076909D01*
X120308363Y-149076910D01*
X120308362Y-149076910D01*
X120189890Y-149125983D01*
X120064119Y-149151000D01*
X119935881Y-149151000D01*
X119810110Y-149125983D01*
X119691638Y-149076910D01*
X119691637Y-149076910D01*
X119691636Y-149076909D01*
X119585012Y-149005665D01*
X119494335Y-148914988D01*
X119423091Y-148808364D01*
X119374017Y-148689890D01*
X119349000Y-148564118D01*
X119349000Y-148435882D01*
X119374017Y-148310110D01*
X119423091Y-148191636D01*
X119494335Y-148085012D01*
X119585012Y-147994335D01*
X119691636Y-147923091D01*
X119810110Y-147874017D01*
X119935881Y-147849000D01*
X120064119Y-147849000D01*
X120189890Y-147874017D01*
X120189890Y-147874017D01*
G37*
G36*
X110189890Y-147874017D02*
G01*
X110308364Y-147923091D01*
X110414988Y-147994335D01*
X110505665Y-148085012D01*
X110576909Y-148191636D01*
X110625983Y-148310110D01*
X110651000Y-148435882D01*
X110651000Y-148564118D01*
X110625983Y-148689890D01*
X110576909Y-148808364D01*
X110505665Y-148914988D01*
X110414988Y-149005665D01*
X110308364Y-149076909D01*
X110308363Y-149076910D01*
X110308362Y-149076910D01*
X110189890Y-149125983D01*
X110064119Y-149151000D01*
X109935881Y-149151000D01*
X109810110Y-149125983D01*
X109691638Y-149076910D01*
X109691637Y-149076910D01*
X109691636Y-149076909D01*
X109585012Y-149005665D01*
X109494335Y-148914988D01*
X109423091Y-148808364D01*
X109374017Y-148689890D01*
X109349000Y-148564118D01*
X109349000Y-148435882D01*
X109374017Y-148310110D01*
X109423091Y-148191636D01*
X109494335Y-148085012D01*
X109585012Y-147994335D01*
X109691636Y-147923091D01*
X109810110Y-147874017D01*
X109935881Y-147849000D01*
X110064119Y-147849000D01*
X110189890Y-147874017D01*
X110189890Y-147874017D01*
G37*
G36*
X180189890Y-147874017D02*
G01*
X180308364Y-147923091D01*
X180414988Y-147994335D01*
X180505665Y-148085012D01*
X180576909Y-148191636D01*
X180625983Y-148310110D01*
X180651000Y-148435882D01*
X180651000Y-148564118D01*
X180625983Y-148689890D01*
X180576909Y-148808364D01*
X180505665Y-148914988D01*
X180414988Y-149005665D01*
X180308364Y-149076909D01*
X180308363Y-149076910D01*
X180308362Y-149076910D01*
X180189890Y-149125983D01*
X180064119Y-149151000D01*
X179935881Y-149151000D01*
X179810110Y-149125983D01*
X179691638Y-149076910D01*
X179691637Y-149076910D01*
X179691636Y-149076909D01*
X179585012Y-149005665D01*
X179494335Y-148914988D01*
X179423091Y-148808364D01*
X179374017Y-148689890D01*
X179349000Y-148564118D01*
X179349000Y-148435882D01*
X179374017Y-148310110D01*
X179423091Y-148191636D01*
X179494335Y-148085012D01*
X179585012Y-147994335D01*
X179691636Y-147923091D01*
X179810110Y-147874017D01*
X179935881Y-147849000D01*
X180064119Y-147849000D01*
X180189890Y-147874017D01*
X180189890Y-147874017D01*
G37*
G36*
X104375256Y-144391298D02*
G01*
X104481579Y-144412447D01*
X104782042Y-144536903D01*
X105052451Y-144717585D01*
X105282415Y-144947549D01*
X105463097Y-145217958D01*
X105463098Y-145217960D01*
X105483925Y-145268242D01*
X105586363Y-145515547D01*
X105587553Y-145518422D01*
X105651000Y-145837389D01*
X105651000Y-146162611D01*
X105626229Y-146287142D01*
X105587553Y-146481579D01*
X105463097Y-146782042D01*
X105282415Y-147052451D01*
X105052451Y-147282415D01*
X104782042Y-147463097D01*
X104481579Y-147587553D01*
X104375256Y-147608702D01*
X104162611Y-147651000D01*
X103837389Y-147651000D01*
X103624744Y-147608702D01*
X103518421Y-147587553D01*
X103217958Y-147463097D01*
X102947549Y-147282415D01*
X102717585Y-147052451D01*
X102536903Y-146782042D01*
X102412447Y-146481579D01*
X102373771Y-146287142D01*
X102349000Y-146162611D01*
X102349000Y-145837389D01*
X102412447Y-145518422D01*
X102413638Y-145515547D01*
X102516075Y-145268242D01*
X102536902Y-145217960D01*
X102536903Y-145217958D01*
X102717585Y-144947549D01*
X102947549Y-144717585D01*
X103217958Y-144536903D01*
X103518421Y-144412447D01*
X103624744Y-144391298D01*
X103837389Y-144349000D01*
X104162611Y-144349000D01*
X104375256Y-144391298D01*
X104375256Y-144391298D01*
G37*
G36*
X196375256Y-144391298D02*
G01*
X196481579Y-144412447D01*
X196782042Y-144536903D01*
X197052451Y-144717585D01*
X197282415Y-144947549D01*
X197463097Y-145217958D01*
X197463098Y-145217960D01*
X197483925Y-145268242D01*
X197586363Y-145515547D01*
X197587553Y-145518422D01*
X197651000Y-145837389D01*
X197651000Y-146162611D01*
X197626229Y-146287142D01*
X197587553Y-146481579D01*
X197463097Y-146782042D01*
X197282415Y-147052451D01*
X197052451Y-147282415D01*
X196782042Y-147463097D01*
X196481579Y-147587553D01*
X196375256Y-147608702D01*
X196162611Y-147651000D01*
X195837389Y-147651000D01*
X195624744Y-147608702D01*
X195518421Y-147587553D01*
X195217958Y-147463097D01*
X194947549Y-147282415D01*
X194717585Y-147052451D01*
X194536903Y-146782042D01*
X194412447Y-146481579D01*
X194373771Y-146287142D01*
X194349000Y-146162611D01*
X194349000Y-145837389D01*
X194412447Y-145518422D01*
X194413638Y-145515547D01*
X194516075Y-145268242D01*
X194536902Y-145217960D01*
X194536903Y-145217958D01*
X194717585Y-144947549D01*
X194947549Y-144717585D01*
X195217958Y-144536903D01*
X195518421Y-144412447D01*
X195624744Y-144391298D01*
X195837389Y-144349000D01*
X196162611Y-144349000D01*
X196375256Y-144391298D01*
X196375256Y-144391298D01*
G37*
G36*
X130951000Y-147381000D02*
G01*
X129049000Y-147381000D01*
X129049000Y-145479000D01*
X130951000Y-145479000D01*
X130951000Y-147381000D01*
X130951000Y-147381000D01*
G37*
G36*
X132817395Y-145515546D02*
G01*
X132990466Y-145587234D01*
X132990467Y-145587235D01*
X133146227Y-145691310D01*
X133278690Y-145823773D01*
X133278691Y-145823775D01*
X133382766Y-145979534D01*
X133454454Y-146152605D01*
X133491000Y-146336333D01*
X133491000Y-146523667D01*
X133454454Y-146707395D01*
X133382766Y-146880466D01*
X133382765Y-146880467D01*
X133278690Y-147036227D01*
X133146227Y-147168690D01*
X133067818Y-147221081D01*
X132990466Y-147272766D01*
X132817395Y-147344454D01*
X132633667Y-147381000D01*
X132446333Y-147381000D01*
X132262605Y-147344454D01*
X132089534Y-147272766D01*
X132012182Y-147221081D01*
X131933773Y-147168690D01*
X131801310Y-147036227D01*
X131697235Y-146880467D01*
X131697234Y-146880466D01*
X131625546Y-146707395D01*
X131589000Y-146523667D01*
X131589000Y-146336333D01*
X131625546Y-146152605D01*
X131697234Y-145979534D01*
X131801309Y-145823775D01*
X131801310Y-145823773D01*
X131933773Y-145691310D01*
X132089533Y-145587235D01*
X132089534Y-145587234D01*
X132262605Y-145515546D01*
X132446333Y-145479000D01*
X132633667Y-145479000D01*
X132817395Y-145515546D01*
X132817395Y-145515546D01*
G37*
G36*
X186301000Y-146951000D02*
G01*
X183699000Y-146951000D01*
X183699000Y-145049000D01*
X186301000Y-145049000D01*
X186301000Y-146951000D01*
X186301000Y-146951000D01*
G37*
G36*
X116301000Y-146951000D02*
G01*
X113699000Y-146951000D01*
X113699000Y-145049000D01*
X116301000Y-145049000D01*
X116301000Y-146951000D01*
X116301000Y-146951000D01*
G37*
G36*
X171687142Y-145268242D02*
G01*
X171835101Y-145329529D01*
X171968255Y-145418499D01*
X172081501Y-145531745D01*
X172170471Y-145664899D01*
X172231758Y-145812858D01*
X172263000Y-145969925D01*
X172263000Y-146130075D01*
X172231758Y-146287142D01*
X172170471Y-146435101D01*
X172081501Y-146568255D01*
X171968255Y-146681501D01*
X171835101Y-146770471D01*
X171687142Y-146831758D01*
X171530075Y-146863000D01*
X171369925Y-146863000D01*
X171212858Y-146831758D01*
X171064899Y-146770471D01*
X170931745Y-146681501D01*
X170818499Y-146568255D01*
X170729529Y-146435101D01*
X170668242Y-146287142D01*
X170637000Y-146130075D01*
X170637000Y-145969925D01*
X170668242Y-145812858D01*
X170729529Y-145664899D01*
X170818499Y-145531745D01*
X170931745Y-145418499D01*
X171064899Y-145329529D01*
X171212858Y-145268242D01*
X171369925Y-145237000D01*
X171530075Y-145237000D01*
X171687142Y-145268242D01*
X171687142Y-145268242D01*
G37*
G36*
X166607142Y-145268242D02*
G01*
X166755101Y-145329529D01*
X166888255Y-145418499D01*
X167001501Y-145531745D01*
X167090471Y-145664899D01*
X167151758Y-145812858D01*
X167183000Y-145969925D01*
X167183000Y-146130075D01*
X167151758Y-146287142D01*
X167090471Y-146435101D01*
X167001501Y-146568255D01*
X166888255Y-146681501D01*
X166755101Y-146770471D01*
X166607142Y-146831758D01*
X166450075Y-146863000D01*
X166289925Y-146863000D01*
X166132858Y-146831758D01*
X165984899Y-146770471D01*
X165851745Y-146681501D01*
X165738499Y-146568255D01*
X165649529Y-146435101D01*
X165588242Y-146287142D01*
X165557000Y-146130075D01*
X165557000Y-145969925D01*
X165588242Y-145812858D01*
X165649529Y-145664899D01*
X165738499Y-145531745D01*
X165851745Y-145418499D01*
X165984899Y-145329529D01*
X166132858Y-145268242D01*
X166289925Y-145237000D01*
X166450075Y-145237000D01*
X166607142Y-145268242D01*
X166607142Y-145268242D01*
G37*
G36*
X120189890Y-145374017D02*
G01*
X120308364Y-145423091D01*
X120414988Y-145494335D01*
X120505665Y-145585012D01*
X120576691Y-145691309D01*
X120576910Y-145691638D01*
X120625983Y-145810110D01*
X120651000Y-145935881D01*
X120651000Y-146064119D01*
X120633399Y-146152605D01*
X120625983Y-146189890D01*
X120576909Y-146308364D01*
X120505665Y-146414988D01*
X120414988Y-146505665D01*
X120308364Y-146576909D01*
X120308363Y-146576910D01*
X120308362Y-146576910D01*
X120189890Y-146625983D01*
X120064119Y-146651000D01*
X119935881Y-146651000D01*
X119810110Y-146625983D01*
X119691638Y-146576910D01*
X119691637Y-146576910D01*
X119691636Y-146576909D01*
X119585012Y-146505665D01*
X119494335Y-146414988D01*
X119423091Y-146308364D01*
X119374017Y-146189890D01*
X119366601Y-146152605D01*
X119349000Y-146064119D01*
X119349000Y-145935881D01*
X119374017Y-145810110D01*
X119423090Y-145691638D01*
X119423310Y-145691309D01*
X119494335Y-145585012D01*
X119585012Y-145494335D01*
X119691636Y-145423091D01*
X119810110Y-145374017D01*
X119935881Y-145349000D01*
X120064119Y-145349000D01*
X120189890Y-145374017D01*
X120189890Y-145374017D01*
G37*
G36*
X110189890Y-145374017D02*
G01*
X110308364Y-145423091D01*
X110414988Y-145494335D01*
X110505665Y-145585012D01*
X110576691Y-145691309D01*
X110576910Y-145691638D01*
X110625983Y-145810110D01*
X110651000Y-145935881D01*
X110651000Y-146064119D01*
X110633399Y-146152605D01*
X110625983Y-146189890D01*
X110576909Y-146308364D01*
X110505665Y-146414988D01*
X110414988Y-146505665D01*
X110308364Y-146576909D01*
X110308363Y-146576910D01*
X110308362Y-146576910D01*
X110189890Y-146625983D01*
X110064119Y-146651000D01*
X109935881Y-146651000D01*
X109810110Y-146625983D01*
X109691638Y-146576910D01*
X109691637Y-146576910D01*
X109691636Y-146576909D01*
X109585012Y-146505665D01*
X109494335Y-146414988D01*
X109423091Y-146308364D01*
X109374017Y-146189890D01*
X109366601Y-146152605D01*
X109349000Y-146064119D01*
X109349000Y-145935881D01*
X109374017Y-145810110D01*
X109423090Y-145691638D01*
X109423310Y-145691309D01*
X109494335Y-145585012D01*
X109585012Y-145494335D01*
X109691636Y-145423091D01*
X109810110Y-145374017D01*
X109935881Y-145349000D01*
X110064119Y-145349000D01*
X110189890Y-145374017D01*
X110189890Y-145374017D01*
G37*
G36*
X190189890Y-145374017D02*
G01*
X190308364Y-145423091D01*
X190414988Y-145494335D01*
X190505665Y-145585012D01*
X190576691Y-145691309D01*
X190576910Y-145691638D01*
X190625983Y-145810110D01*
X190651000Y-145935881D01*
X190651000Y-146064119D01*
X190633399Y-146152605D01*
X190625983Y-146189890D01*
X190576909Y-146308364D01*
X190505665Y-146414988D01*
X190414988Y-146505665D01*
X190308364Y-146576909D01*
X190308363Y-146576910D01*
X190308362Y-146576910D01*
X190189890Y-146625983D01*
X190064119Y-146651000D01*
X189935881Y-146651000D01*
X189810110Y-146625983D01*
X189691638Y-146576910D01*
X189691637Y-146576910D01*
X189691636Y-146576909D01*
X189585012Y-146505665D01*
X189494335Y-146414988D01*
X189423091Y-146308364D01*
X189374017Y-146189890D01*
X189366601Y-146152605D01*
X189349000Y-146064119D01*
X189349000Y-145935881D01*
X189374017Y-145810110D01*
X189423090Y-145691638D01*
X189423310Y-145691309D01*
X189494335Y-145585012D01*
X189585012Y-145494335D01*
X189691636Y-145423091D01*
X189810110Y-145374017D01*
X189935881Y-145349000D01*
X190064119Y-145349000D01*
X190189890Y-145374017D01*
X190189890Y-145374017D01*
G37*
G36*
X180189890Y-145374017D02*
G01*
X180308364Y-145423091D01*
X180414988Y-145494335D01*
X180505665Y-145585012D01*
X180576691Y-145691309D01*
X180576910Y-145691638D01*
X180625983Y-145810110D01*
X180651000Y-145935881D01*
X180651000Y-146064119D01*
X180633399Y-146152605D01*
X180625983Y-146189890D01*
X180576909Y-146308364D01*
X180505665Y-146414988D01*
X180414988Y-146505665D01*
X180308364Y-146576909D01*
X180308363Y-146576910D01*
X180308362Y-146576910D01*
X180189890Y-146625983D01*
X180064119Y-146651000D01*
X179935881Y-146651000D01*
X179810110Y-146625983D01*
X179691638Y-146576910D01*
X179691637Y-146576910D01*
X179691636Y-146576909D01*
X179585012Y-146505665D01*
X179494335Y-146414988D01*
X179423091Y-146308364D01*
X179374017Y-146189890D01*
X179366601Y-146152605D01*
X179349000Y-146064119D01*
X179349000Y-145935881D01*
X179374017Y-145810110D01*
X179423090Y-145691638D01*
X179423310Y-145691309D01*
X179494335Y-145585012D01*
X179585012Y-145494335D01*
X179691636Y-145423091D01*
X179810110Y-145374017D01*
X179935881Y-145349000D01*
X180064119Y-145349000D01*
X180189890Y-145374017D01*
X180189890Y-145374017D01*
G37*
G36*
X145381553Y-140029642D02*
G01*
X145473594Y-140067767D01*
X145603759Y-140121683D01*
X145803742Y-140255307D01*
X145973813Y-140425378D01*
X146107437Y-140625361D01*
X146151963Y-140732857D01*
X146183963Y-140810110D01*
X146199478Y-140847568D01*
X146242553Y-141064119D01*
X146246400Y-141083462D01*
X146246400Y-141323978D01*
X146210261Y-141505665D01*
X146199478Y-141559872D01*
X146107437Y-141782079D01*
X145973813Y-141982062D01*
X145803742Y-142152133D01*
X145603759Y-142285757D01*
X145473594Y-142339673D01*
X145381553Y-142377798D01*
X145263605Y-142401259D01*
X145145659Y-142424720D01*
X144905141Y-142424720D01*
X144787195Y-142401259D01*
X144669247Y-142377798D01*
X144577206Y-142339673D01*
X144447041Y-142285757D01*
X144247058Y-142152133D01*
X144076987Y-141982062D01*
X143943363Y-141782079D01*
X143851322Y-141559872D01*
X143840540Y-141505665D01*
X143804400Y-141323978D01*
X143804400Y-141083462D01*
X143808248Y-141064119D01*
X143851322Y-140847568D01*
X143866838Y-140810110D01*
X143898837Y-140732857D01*
X143943363Y-140625361D01*
X144076987Y-140425378D01*
X144247058Y-140255307D01*
X144447041Y-140121683D01*
X144577206Y-140067767D01*
X144669247Y-140029642D01*
X144905141Y-139982720D01*
X145145659Y-139982720D01*
X145381553Y-140029642D01*
X145381553Y-140029642D01*
G37*
G36*
X150381553Y-140029642D02*
G01*
X150473594Y-140067767D01*
X150603759Y-140121683D01*
X150803742Y-140255307D01*
X150973813Y-140425378D01*
X151107437Y-140625361D01*
X151151963Y-140732857D01*
X151183963Y-140810110D01*
X151199478Y-140847568D01*
X151242553Y-141064119D01*
X151246400Y-141083462D01*
X151246400Y-141323978D01*
X151210261Y-141505665D01*
X151199478Y-141559872D01*
X151107437Y-141782079D01*
X150973813Y-141982062D01*
X150803742Y-142152133D01*
X150603759Y-142285757D01*
X150473594Y-142339673D01*
X150381553Y-142377798D01*
X150263605Y-142401259D01*
X150145659Y-142424720D01*
X149905141Y-142424720D01*
X149787195Y-142401259D01*
X149669247Y-142377798D01*
X149577206Y-142339673D01*
X149447041Y-142285757D01*
X149247058Y-142152133D01*
X149076987Y-141982062D01*
X148943363Y-141782079D01*
X148851322Y-141559872D01*
X148840540Y-141505665D01*
X148804400Y-141323978D01*
X148804400Y-141083462D01*
X148808248Y-141064119D01*
X148851322Y-140847568D01*
X148866838Y-140810110D01*
X148898837Y-140732857D01*
X148943363Y-140625361D01*
X149076987Y-140425378D01*
X149247058Y-140255307D01*
X149447041Y-140121683D01*
X149577206Y-140067767D01*
X149669247Y-140029642D01*
X149905141Y-139982720D01*
X150145659Y-139982720D01*
X150381553Y-140029642D01*
X150381553Y-140029642D01*
G37*
G36*
X155381553Y-140029642D02*
G01*
X155473594Y-140067767D01*
X155603759Y-140121683D01*
X155803742Y-140255307D01*
X155973813Y-140425378D01*
X156107437Y-140625361D01*
X156151963Y-140732857D01*
X156183963Y-140810110D01*
X156199478Y-140847568D01*
X156242553Y-141064119D01*
X156246400Y-141083462D01*
X156246400Y-141323978D01*
X156210261Y-141505665D01*
X156199478Y-141559872D01*
X156107437Y-141782079D01*
X155973813Y-141982062D01*
X155803742Y-142152133D01*
X155603759Y-142285757D01*
X155473594Y-142339673D01*
X155381553Y-142377798D01*
X155263605Y-142401259D01*
X155145659Y-142424720D01*
X154905141Y-142424720D01*
X154787195Y-142401259D01*
X154669247Y-142377798D01*
X154577206Y-142339673D01*
X154447041Y-142285757D01*
X154247058Y-142152133D01*
X154076987Y-141982062D01*
X153943363Y-141782079D01*
X153851322Y-141559872D01*
X153840540Y-141505665D01*
X153804400Y-141323978D01*
X153804400Y-141083462D01*
X153808248Y-141064119D01*
X153851322Y-140847568D01*
X153866838Y-140810110D01*
X153898837Y-140732857D01*
X153943363Y-140625361D01*
X154076987Y-140425378D01*
X154247058Y-140255307D01*
X154447041Y-140121683D01*
X154577206Y-140067767D01*
X154669247Y-140029642D01*
X154905141Y-139982720D01*
X155145659Y-139982720D01*
X155381553Y-140029642D01*
X155381553Y-140029642D01*
G37*
G36*
X110951000Y-142301000D02*
G01*
X109049000Y-142301000D01*
X109049000Y-139699000D01*
X110951000Y-139699000D01*
X110951000Y-142301000D01*
X110951000Y-142301000D01*
G37*
G36*
X190951000Y-142301000D02*
G01*
X189049000Y-142301000D01*
X189049000Y-139699000D01*
X190951000Y-139699000D01*
X190951000Y-142301000D01*
X190951000Y-142301000D01*
G37*
G36*
X180951000Y-142301000D02*
G01*
X179049000Y-142301000D01*
X179049000Y-139699000D01*
X180951000Y-139699000D01*
X180951000Y-142301000D01*
X180951000Y-142301000D01*
G37*
G36*
X120951000Y-142301000D02*
G01*
X119049000Y-142301000D01*
X119049000Y-139699000D01*
X120951000Y-139699000D01*
X120951000Y-142301000D01*
X120951000Y-142301000D01*
G37*
G36*
X169147142Y-140188242D02*
G01*
X169295101Y-140249529D01*
X169428255Y-140338499D01*
X169541501Y-140451745D01*
X169630471Y-140584899D01*
X169691758Y-140732858D01*
X169723000Y-140889925D01*
X169723000Y-141050075D01*
X169691758Y-141207142D01*
X169630471Y-141355101D01*
X169541501Y-141488255D01*
X169428255Y-141601501D01*
X169295101Y-141690471D01*
X169147142Y-141751758D01*
X168990075Y-141783000D01*
X168829925Y-141783000D01*
X168672858Y-141751758D01*
X168524899Y-141690471D01*
X168391745Y-141601501D01*
X168278499Y-141488255D01*
X168189529Y-141355101D01*
X168128242Y-141207142D01*
X168097000Y-141050075D01*
X168097000Y-140889925D01*
X168128242Y-140732858D01*
X168189529Y-140584899D01*
X168278499Y-140451745D01*
X168391745Y-140338499D01*
X168524899Y-140249529D01*
X168672858Y-140188242D01*
X168829925Y-140157000D01*
X168990075Y-140157000D01*
X169147142Y-140188242D01*
X169147142Y-140188242D01*
G37*
G36*
X166607142Y-140188242D02*
G01*
X166755101Y-140249529D01*
X166888255Y-140338499D01*
X167001501Y-140451745D01*
X167090471Y-140584899D01*
X167151758Y-140732858D01*
X167183000Y-140889925D01*
X167183000Y-141050075D01*
X167151758Y-141207142D01*
X167090471Y-141355101D01*
X167001501Y-141488255D01*
X166888255Y-141601501D01*
X166755101Y-141690471D01*
X166607142Y-141751758D01*
X166450075Y-141783000D01*
X166289925Y-141783000D01*
X166132858Y-141751758D01*
X165984899Y-141690471D01*
X165851745Y-141601501D01*
X165738499Y-141488255D01*
X165649529Y-141355101D01*
X165588242Y-141207142D01*
X165557000Y-141050075D01*
X165557000Y-140889925D01*
X165588242Y-140732858D01*
X165649529Y-140584899D01*
X165738499Y-140451745D01*
X165851745Y-140338499D01*
X165984899Y-140249529D01*
X166132858Y-140188242D01*
X166289925Y-140157000D01*
X166450075Y-140157000D01*
X166607142Y-140188242D01*
X166607142Y-140188242D01*
G37*
G36*
X172263000Y-141783000D02*
G01*
X170637000Y-141783000D01*
X170637000Y-140157000D01*
X172263000Y-140157000D01*
X172263000Y-141783000D01*
X172263000Y-141783000D01*
G37*
G36*
X115189890Y-140374017D02*
G01*
X115308364Y-140423091D01*
X115414988Y-140494335D01*
X115505665Y-140585012D01*
X115576910Y-140691638D01*
X115625983Y-140810110D01*
X115651000Y-140935881D01*
X115651000Y-141064119D01*
X115625983Y-141189890D01*
X115576909Y-141308364D01*
X115505665Y-141414988D01*
X115414988Y-141505665D01*
X115308364Y-141576909D01*
X115308363Y-141576910D01*
X115308362Y-141576910D01*
X115189890Y-141625983D01*
X115064119Y-141651000D01*
X114935881Y-141651000D01*
X114810110Y-141625983D01*
X114691638Y-141576910D01*
X114691637Y-141576910D01*
X114691636Y-141576909D01*
X114585012Y-141505665D01*
X114494335Y-141414988D01*
X114423091Y-141308364D01*
X114374017Y-141189890D01*
X114349000Y-141064119D01*
X114349000Y-140935881D01*
X114374017Y-140810110D01*
X114423090Y-140691638D01*
X114494335Y-140585012D01*
X114585012Y-140494335D01*
X114691636Y-140423091D01*
X114810110Y-140374017D01*
X114935881Y-140349000D01*
X115064119Y-140349000D01*
X115189890Y-140374017D01*
X115189890Y-140374017D01*
G37*
G36*
X185189890Y-140374017D02*
G01*
X185308364Y-140423091D01*
X185414988Y-140494335D01*
X185505665Y-140585012D01*
X185576910Y-140691638D01*
X185625983Y-140810110D01*
X185651000Y-140935881D01*
X185651000Y-141064119D01*
X185625983Y-141189890D01*
X185576909Y-141308364D01*
X185505665Y-141414988D01*
X185414988Y-141505665D01*
X185308364Y-141576909D01*
X185308363Y-141576910D01*
X185308362Y-141576910D01*
X185189890Y-141625983D01*
X185064119Y-141651000D01*
X184935881Y-141651000D01*
X184810110Y-141625983D01*
X184691638Y-141576910D01*
X184691637Y-141576910D01*
X184691636Y-141576909D01*
X184585012Y-141505665D01*
X184494335Y-141414988D01*
X184423091Y-141308364D01*
X184374017Y-141189890D01*
X184349000Y-141064119D01*
X184349000Y-140935881D01*
X184374017Y-140810110D01*
X184423090Y-140691638D01*
X184494335Y-140585012D01*
X184585012Y-140494335D01*
X184691636Y-140423091D01*
X184810110Y-140374017D01*
X184935881Y-140349000D01*
X185064119Y-140349000D01*
X185189890Y-140374017D01*
X185189890Y-140374017D01*
G37*
G36*
X134248228Y-138181703D02*
G01*
X134403100Y-138245853D01*
X134542481Y-138338985D01*
X134661015Y-138457519D01*
X134754147Y-138596900D01*
X134818297Y-138751772D01*
X134851000Y-138916184D01*
X134851000Y-139083816D01*
X134818297Y-139248228D01*
X134754147Y-139403100D01*
X134661015Y-139542481D01*
X134542481Y-139661015D01*
X134403100Y-139754147D01*
X134248228Y-139818297D01*
X134083816Y-139851000D01*
X133916184Y-139851000D01*
X133751772Y-139818297D01*
X133596900Y-139754147D01*
X133457519Y-139661015D01*
X133338985Y-139542481D01*
X133245853Y-139403100D01*
X133181703Y-139248228D01*
X133149000Y-139083816D01*
X133149000Y-138916184D01*
X133181703Y-138751772D01*
X133245853Y-138596900D01*
X133338985Y-138457519D01*
X133457519Y-138338985D01*
X133596900Y-138245853D01*
X133751772Y-138181703D01*
X133916184Y-138149000D01*
X134083816Y-138149000D01*
X134248228Y-138181703D01*
X134248228Y-138181703D01*
G37*
G36*
X124006823Y-138161313D02*
G01*
X124167242Y-138209976D01*
X124234361Y-138245852D01*
X124315078Y-138288996D01*
X124444659Y-138395341D01*
X124551004Y-138524922D01*
X124551005Y-138524924D01*
X124630024Y-138672758D01*
X124678687Y-138833177D01*
X124695117Y-139000000D01*
X124678687Y-139166823D01*
X124630024Y-139327242D01*
X124589477Y-139403100D01*
X124551004Y-139475078D01*
X124444659Y-139604659D01*
X124315078Y-139711004D01*
X124315076Y-139711005D01*
X124167242Y-139790024D01*
X124006823Y-139838687D01*
X123881804Y-139851000D01*
X123798196Y-139851000D01*
X123673177Y-139838687D01*
X123512758Y-139790024D01*
X123364924Y-139711005D01*
X123364922Y-139711004D01*
X123235341Y-139604659D01*
X123128996Y-139475078D01*
X123090523Y-139403100D01*
X123049976Y-139327242D01*
X123001313Y-139166823D01*
X122984883Y-139000000D01*
X123001313Y-138833177D01*
X123049976Y-138672758D01*
X123128995Y-138524924D01*
X123128996Y-138524922D01*
X123235341Y-138395341D01*
X123364922Y-138288996D01*
X123445639Y-138245852D01*
X123512758Y-138209976D01*
X123673177Y-138161313D01*
X123798196Y-138149000D01*
X123881804Y-138149000D01*
X124006823Y-138161313D01*
X124006823Y-138161313D01*
G37*
G36*
X195177861Y-134639498D02*
G01*
X195284446Y-134649995D01*
X195557960Y-134732965D01*
X195557963Y-134732966D01*
X195810028Y-134867698D01*
X195810029Y-134867699D01*
X195810033Y-134867701D01*
X196030976Y-135049024D01*
X196212299Y-135269967D01*
X196212301Y-135269971D01*
X196212302Y-135269972D01*
X196347034Y-135522037D01*
X196347035Y-135522040D01*
X196430005Y-135795554D01*
X196458020Y-136080000D01*
X196430005Y-136364446D01*
X196414310Y-136416184D01*
X196347034Y-136637963D01*
X196288095Y-136748229D01*
X196212299Y-136890033D01*
X196030976Y-137110976D01*
X195810033Y-137292299D01*
X195810029Y-137292301D01*
X195810028Y-137292302D01*
X195557963Y-137427034D01*
X195557960Y-137427035D01*
X195284446Y-137510005D01*
X195177861Y-137520502D01*
X195071278Y-137531000D01*
X194928722Y-137531000D01*
X194822139Y-137520502D01*
X194715554Y-137510005D01*
X194442040Y-137427035D01*
X194442037Y-137427034D01*
X194189972Y-137292302D01*
X194189971Y-137292301D01*
X194189967Y-137292299D01*
X193969024Y-137110976D01*
X193787701Y-136890033D01*
X193711905Y-136748229D01*
X193652966Y-136637963D01*
X193585690Y-136416184D01*
X193569995Y-136364446D01*
X193541980Y-136080000D01*
X193569995Y-135795554D01*
X193652965Y-135522040D01*
X193652966Y-135522037D01*
X193787698Y-135269972D01*
X193787699Y-135269971D01*
X193787701Y-135269967D01*
X193969024Y-135049024D01*
X194189967Y-134867701D01*
X194189971Y-134867699D01*
X194189972Y-134867698D01*
X194442037Y-134732966D01*
X194442040Y-134732965D01*
X194715554Y-134649995D01*
X194822139Y-134639498D01*
X194928722Y-134629000D01*
X195071278Y-134629000D01*
X195177861Y-134639498D01*
X195177861Y-134639498D01*
G37*
G36*
X105177861Y-134639498D02*
G01*
X105284446Y-134649995D01*
X105557960Y-134732965D01*
X105557963Y-134732966D01*
X105810028Y-134867698D01*
X105810029Y-134867699D01*
X105810033Y-134867701D01*
X106030976Y-135049024D01*
X106212299Y-135269967D01*
X106212301Y-135269971D01*
X106212302Y-135269972D01*
X106347034Y-135522037D01*
X106347035Y-135522040D01*
X106430005Y-135795554D01*
X106458020Y-136080000D01*
X106430005Y-136364446D01*
X106414310Y-136416184D01*
X106347034Y-136637963D01*
X106288095Y-136748229D01*
X106212299Y-136890033D01*
X106030976Y-137110976D01*
X105810033Y-137292299D01*
X105810029Y-137292301D01*
X105810028Y-137292302D01*
X105557963Y-137427034D01*
X105557960Y-137427035D01*
X105284446Y-137510005D01*
X105177861Y-137520502D01*
X105071278Y-137531000D01*
X104928722Y-137531000D01*
X104822139Y-137520502D01*
X104715554Y-137510005D01*
X104442040Y-137427035D01*
X104442037Y-137427034D01*
X104189972Y-137292302D01*
X104189971Y-137292301D01*
X104189967Y-137292299D01*
X103969024Y-137110976D01*
X103787701Y-136890033D01*
X103711905Y-136748229D01*
X103652966Y-136637963D01*
X103585690Y-136416184D01*
X103569995Y-136364446D01*
X103541980Y-136080000D01*
X103569995Y-135795554D01*
X103652965Y-135522040D01*
X103652966Y-135522037D01*
X103787698Y-135269972D01*
X103787699Y-135269971D01*
X103787701Y-135269967D01*
X103969024Y-135049024D01*
X104189967Y-134867701D01*
X104189971Y-134867699D01*
X104189972Y-134867698D01*
X104442037Y-134732966D01*
X104442040Y-134732965D01*
X104715554Y-134649995D01*
X104822139Y-134639498D01*
X104928722Y-134629000D01*
X105071278Y-134629000D01*
X105177861Y-134639498D01*
X105177861Y-134639498D01*
G37*
G36*
X174278228Y-135681703D02*
G01*
X174433100Y-135745853D01*
X174572481Y-135838985D01*
X174691015Y-135957519D01*
X174784147Y-136096900D01*
X174848297Y-136251772D01*
X174881000Y-136416184D01*
X174881000Y-136583816D01*
X174848297Y-136748228D01*
X174784147Y-136903100D01*
X174691015Y-137042481D01*
X174572481Y-137161015D01*
X174433100Y-137254147D01*
X174278228Y-137318297D01*
X174113816Y-137351000D01*
X173946184Y-137351000D01*
X173781772Y-137318297D01*
X173626900Y-137254147D01*
X173487519Y-137161015D01*
X173368985Y-137042481D01*
X173275853Y-136903100D01*
X173211703Y-136748228D01*
X173179000Y-136583816D01*
X173179000Y-136416184D01*
X173211703Y-136251772D01*
X173275853Y-136096900D01*
X173368985Y-135957519D01*
X173487519Y-135838985D01*
X173626900Y-135745853D01*
X173781772Y-135681703D01*
X173946184Y-135649000D01*
X174113816Y-135649000D01*
X174278228Y-135681703D01*
X174278228Y-135681703D01*
G37*
G36*
X177381000Y-137351000D02*
G01*
X175679000Y-137351000D01*
X175679000Y-135649000D01*
X177381000Y-135649000D01*
X177381000Y-137351000D01*
X177381000Y-137351000D01*
G37*
G36*
X195423241Y-129604760D02*
G01*
X195687305Y-129714139D01*
X195924958Y-129872934D01*
X196127066Y-130075042D01*
X196285861Y-130312695D01*
X196395240Y-130576759D01*
X196451000Y-130857088D01*
X196451000Y-131142912D01*
X196395240Y-131423241D01*
X196285861Y-131687305D01*
X196127066Y-131924958D01*
X195924958Y-132127066D01*
X195687305Y-132285861D01*
X195423241Y-132395240D01*
X195142912Y-132451000D01*
X194857088Y-132451000D01*
X194576759Y-132395240D01*
X194312695Y-132285861D01*
X194075042Y-132127066D01*
X193872934Y-131924958D01*
X193714139Y-131687305D01*
X193604760Y-131423241D01*
X193549000Y-131142912D01*
X193549000Y-130857088D01*
X193604760Y-130576759D01*
X193714139Y-130312695D01*
X193872934Y-130075042D01*
X194075042Y-129872934D01*
X194312695Y-129714139D01*
X194576759Y-129604760D01*
X194857088Y-129549000D01*
X195142912Y-129549000D01*
X195423241Y-129604760D01*
X195423241Y-129604760D01*
G37*
G36*
X105423241Y-129604760D02*
G01*
X105687305Y-129714139D01*
X105924958Y-129872934D01*
X106127066Y-130075042D01*
X106285861Y-130312695D01*
X106395240Y-130576759D01*
X106451000Y-130857088D01*
X106451000Y-131142912D01*
X106395240Y-131423241D01*
X106285861Y-131687305D01*
X106127066Y-131924958D01*
X105924958Y-132127066D01*
X105687305Y-132285861D01*
X105423241Y-132395240D01*
X105142912Y-132451000D01*
X104857088Y-132451000D01*
X104576759Y-132395240D01*
X104312695Y-132285861D01*
X104075042Y-132127066D01*
X103872934Y-131924958D01*
X103714139Y-131687305D01*
X103604760Y-131423241D01*
X103549000Y-131142912D01*
X103549000Y-130857088D01*
X103604760Y-130576759D01*
X103714139Y-130312695D01*
X103872934Y-130075042D01*
X104075042Y-129872934D01*
X104312695Y-129714139D01*
X104576759Y-129604760D01*
X104857088Y-129549000D01*
X105142912Y-129549000D01*
X105423241Y-129604760D01*
X105423241Y-129604760D01*
G37*
G36*
X145263605Y-129926181D02*
G01*
X145381553Y-129949642D01*
X145473594Y-129987767D01*
X145603759Y-130041683D01*
X145803742Y-130175307D01*
X145973813Y-130345378D01*
X146107437Y-130545361D01*
X146120442Y-130576759D01*
X146199478Y-130767567D01*
X146217285Y-130857088D01*
X146246400Y-131003461D01*
X146246400Y-131243979D01*
X146229839Y-131327239D01*
X146214750Y-131403097D01*
X146199478Y-131479872D01*
X146107437Y-131702079D01*
X145973813Y-131902062D01*
X145803742Y-132072133D01*
X145603759Y-132205757D01*
X145473594Y-132259673D01*
X145381553Y-132297798D01*
X145263605Y-132321259D01*
X145145659Y-132344720D01*
X144905141Y-132344720D01*
X144787195Y-132321259D01*
X144669247Y-132297798D01*
X144577206Y-132259673D01*
X144447041Y-132205757D01*
X144247058Y-132072133D01*
X144076987Y-131902062D01*
X143943363Y-131702079D01*
X143851322Y-131479872D01*
X143836051Y-131403097D01*
X143820961Y-131327239D01*
X143804400Y-131243979D01*
X143804400Y-131003461D01*
X143833515Y-130857088D01*
X143851322Y-130767567D01*
X143930358Y-130576759D01*
X143943363Y-130545361D01*
X144076987Y-130345378D01*
X144247058Y-130175307D01*
X144447041Y-130041683D01*
X144577206Y-129987767D01*
X144669247Y-129949642D01*
X144787195Y-129926181D01*
X144905141Y-129902720D01*
X145145659Y-129902720D01*
X145263605Y-129926181D01*
X145263605Y-129926181D01*
G37*
G36*
X155263605Y-129926181D02*
G01*
X155381553Y-129949642D01*
X155473594Y-129987767D01*
X155603759Y-130041683D01*
X155803742Y-130175307D01*
X155973813Y-130345378D01*
X156107437Y-130545361D01*
X156120442Y-130576759D01*
X156199478Y-130767567D01*
X156217285Y-130857088D01*
X156246400Y-131003461D01*
X156246400Y-131243979D01*
X156229839Y-131327239D01*
X156214750Y-131403097D01*
X156199478Y-131479872D01*
X156107437Y-131702079D01*
X155973813Y-131902062D01*
X155803742Y-132072133D01*
X155603759Y-132205757D01*
X155473594Y-132259673D01*
X155381553Y-132297798D01*
X155263605Y-132321259D01*
X155145659Y-132344720D01*
X154905141Y-132344720D01*
X154787195Y-132321259D01*
X154669247Y-132297798D01*
X154577206Y-132259673D01*
X154447041Y-132205757D01*
X154247058Y-132072133D01*
X154076987Y-131902062D01*
X153943363Y-131702079D01*
X153851322Y-131479872D01*
X153836051Y-131403097D01*
X153820961Y-131327239D01*
X153804400Y-131243979D01*
X153804400Y-131003461D01*
X153833515Y-130857088D01*
X153851322Y-130767567D01*
X153930358Y-130576759D01*
X153943363Y-130545361D01*
X154076987Y-130345378D01*
X154247058Y-130175307D01*
X154447041Y-130041683D01*
X154577206Y-129987767D01*
X154669247Y-129949642D01*
X154787195Y-129926181D01*
X154905141Y-129902720D01*
X155145659Y-129902720D01*
X155263605Y-129926181D01*
X155263605Y-129926181D01*
G37*
G36*
X150263605Y-129926181D02*
G01*
X150381553Y-129949642D01*
X150473594Y-129987767D01*
X150603759Y-130041683D01*
X150803742Y-130175307D01*
X150973813Y-130345378D01*
X151107437Y-130545361D01*
X151120442Y-130576759D01*
X151199478Y-130767567D01*
X151217285Y-130857088D01*
X151246400Y-131003461D01*
X151246400Y-131243979D01*
X151229839Y-131327239D01*
X151214750Y-131403097D01*
X151199478Y-131479872D01*
X151107437Y-131702079D01*
X150973813Y-131902062D01*
X150803742Y-132072133D01*
X150603759Y-132205757D01*
X150473594Y-132259673D01*
X150381553Y-132297798D01*
X150263605Y-132321259D01*
X150145659Y-132344720D01*
X149905141Y-132344720D01*
X149787195Y-132321259D01*
X149669247Y-132297798D01*
X149577206Y-132259673D01*
X149447041Y-132205757D01*
X149247058Y-132072133D01*
X149076987Y-131902062D01*
X148943363Y-131702079D01*
X148851322Y-131479872D01*
X148836051Y-131403097D01*
X148820961Y-131327239D01*
X148804400Y-131243979D01*
X148804400Y-131003461D01*
X148833515Y-130857088D01*
X148851322Y-130767567D01*
X148930358Y-130576759D01*
X148943363Y-130545361D01*
X149076987Y-130345378D01*
X149247058Y-130175307D01*
X149447041Y-130041683D01*
X149577206Y-129987767D01*
X149669247Y-129949642D01*
X149787195Y-129926181D01*
X149905141Y-129902720D01*
X150145659Y-129902720D01*
X150263605Y-129926181D01*
X150263605Y-129926181D01*
G37*
G36*
X134248228Y-130181703D02*
G01*
X134403100Y-130245853D01*
X134542481Y-130338985D01*
X134661015Y-130457519D01*
X134754147Y-130596900D01*
X134818297Y-130751772D01*
X134851000Y-130916184D01*
X134851000Y-131083816D01*
X134818297Y-131248228D01*
X134754147Y-131403100D01*
X134661015Y-131542481D01*
X134542481Y-131661015D01*
X134403100Y-131754147D01*
X134248228Y-131818297D01*
X134083816Y-131851000D01*
X133916184Y-131851000D01*
X133751772Y-131818297D01*
X133596900Y-131754147D01*
X133457519Y-131661015D01*
X133338985Y-131542481D01*
X133245853Y-131403100D01*
X133181703Y-131248228D01*
X133149000Y-131083816D01*
X133149000Y-130916184D01*
X133181703Y-130751772D01*
X133245853Y-130596900D01*
X133338985Y-130457519D01*
X133457519Y-130338985D01*
X133596900Y-130245853D01*
X133751772Y-130181703D01*
X133916184Y-130149000D01*
X134083816Y-130149000D01*
X134248228Y-130181703D01*
X134248228Y-130181703D01*
G37*
G36*
X186351000Y-131851000D02*
G01*
X184649000Y-131851000D01*
X184649000Y-130149000D01*
X186351000Y-130149000D01*
X186351000Y-131851000D01*
X186351000Y-131851000D01*
G37*
G36*
X183248228Y-130181703D02*
G01*
X183403100Y-130245853D01*
X183542481Y-130338985D01*
X183661015Y-130457519D01*
X183754147Y-130596900D01*
X183818297Y-130751772D01*
X183851000Y-130916184D01*
X183851000Y-131083816D01*
X183818297Y-131248228D01*
X183754147Y-131403100D01*
X183661015Y-131542481D01*
X183542481Y-131661015D01*
X183403100Y-131754147D01*
X183248228Y-131818297D01*
X183083816Y-131851000D01*
X182916184Y-131851000D01*
X182751772Y-131818297D01*
X182596900Y-131754147D01*
X182457519Y-131661015D01*
X182338985Y-131542481D01*
X182245853Y-131403100D01*
X182181703Y-131248228D01*
X182149000Y-131083816D01*
X182149000Y-130916184D01*
X182181703Y-130751772D01*
X182245853Y-130596900D01*
X182338985Y-130457519D01*
X182457519Y-130338985D01*
X182596900Y-130245853D01*
X182751772Y-130181703D01*
X182916184Y-130149000D01*
X183083816Y-130149000D01*
X183248228Y-130181703D01*
X183248228Y-130181703D01*
G37*
G36*
X115351000Y-131851000D02*
G01*
X113649000Y-131851000D01*
X113649000Y-130149000D01*
X115351000Y-130149000D01*
X115351000Y-131851000D01*
X115351000Y-131851000D01*
G37*
G36*
X117248228Y-130181703D02*
G01*
X117403100Y-130245853D01*
X117542481Y-130338985D01*
X117661015Y-130457519D01*
X117754147Y-130596900D01*
X117818297Y-130751772D01*
X117851000Y-130916184D01*
X117851000Y-131083816D01*
X117818297Y-131248228D01*
X117754147Y-131403100D01*
X117661015Y-131542481D01*
X117542481Y-131661015D01*
X117403100Y-131754147D01*
X117248228Y-131818297D01*
X117083816Y-131851000D01*
X116916184Y-131851000D01*
X116751772Y-131818297D01*
X116596900Y-131754147D01*
X116457519Y-131661015D01*
X116338985Y-131542481D01*
X116245853Y-131403100D01*
X116181703Y-131248228D01*
X116149000Y-131083816D01*
X116149000Y-130916184D01*
X116181703Y-130751772D01*
X116245853Y-130596900D01*
X116338985Y-130457519D01*
X116457519Y-130338985D01*
X116596900Y-130245853D01*
X116751772Y-130181703D01*
X116916184Y-130149000D01*
X117083816Y-130149000D01*
X117248228Y-130181703D01*
X117248228Y-130181703D01*
G37*
G36*
X124006823Y-130161313D02*
G01*
X124167242Y-130209976D01*
X124234361Y-130245852D01*
X124315078Y-130288996D01*
X124444659Y-130395341D01*
X124551004Y-130524922D01*
X124551005Y-130524924D01*
X124630024Y-130672758D01*
X124678687Y-130833177D01*
X124695117Y-131000000D01*
X124678687Y-131166823D01*
X124630024Y-131327242D01*
X124589477Y-131403100D01*
X124551004Y-131475078D01*
X124444659Y-131604659D01*
X124315078Y-131711004D01*
X124315076Y-131711005D01*
X124167242Y-131790024D01*
X124006823Y-131838687D01*
X123881804Y-131851000D01*
X123798196Y-131851000D01*
X123673177Y-131838687D01*
X123512758Y-131790024D01*
X123364924Y-131711005D01*
X123364922Y-131711004D01*
X123235341Y-131604659D01*
X123128996Y-131475078D01*
X123090523Y-131403100D01*
X123049976Y-131327242D01*
X123001313Y-131166823D01*
X122984883Y-131000000D01*
X123001313Y-130833177D01*
X123049976Y-130672758D01*
X123128995Y-130524924D01*
X123128996Y-130524922D01*
X123235341Y-130395341D01*
X123364922Y-130288996D01*
X123445639Y-130245852D01*
X123512758Y-130209976D01*
X123673177Y-130161313D01*
X123798196Y-130149000D01*
X123881804Y-130149000D01*
X124006823Y-130161313D01*
X124006823Y-130161313D01*
G37*
G36*
X166248228Y-130181703D02*
G01*
X166403100Y-130245853D01*
X166542481Y-130338985D01*
X166661015Y-130457519D01*
X166754147Y-130596900D01*
X166818297Y-130751772D01*
X166851000Y-130916184D01*
X166851000Y-131083816D01*
X166818297Y-131248228D01*
X166754147Y-131403100D01*
X166661015Y-131542481D01*
X166542481Y-131661015D01*
X166403100Y-131754147D01*
X166248228Y-131818297D01*
X166083816Y-131851000D01*
X165916184Y-131851000D01*
X165751772Y-131818297D01*
X165596900Y-131754147D01*
X165457519Y-131661015D01*
X165338985Y-131542481D01*
X165245853Y-131403100D01*
X165181703Y-131248228D01*
X165149000Y-131083816D01*
X165149000Y-130916184D01*
X165181703Y-130751772D01*
X165245853Y-130596900D01*
X165338985Y-130457519D01*
X165457519Y-130338985D01*
X165596900Y-130245853D01*
X165751772Y-130181703D01*
X165916184Y-130149000D01*
X166083816Y-130149000D01*
X166248228Y-130181703D01*
X166248228Y-130181703D01*
G37*
G36*
X176326823Y-130161313D02*
G01*
X176487242Y-130209976D01*
X176554361Y-130245852D01*
X176635078Y-130288996D01*
X176764659Y-130395341D01*
X176871004Y-130524922D01*
X176871005Y-130524924D01*
X176950024Y-130672758D01*
X176998687Y-130833177D01*
X177015117Y-131000000D01*
X176998687Y-131166823D01*
X176950024Y-131327242D01*
X176909477Y-131403100D01*
X176871004Y-131475078D01*
X176764659Y-131604659D01*
X176635078Y-131711004D01*
X176635076Y-131711005D01*
X176487242Y-131790024D01*
X176326823Y-131838687D01*
X176201804Y-131851000D01*
X176118196Y-131851000D01*
X175993177Y-131838687D01*
X175832758Y-131790024D01*
X175684924Y-131711005D01*
X175684922Y-131711004D01*
X175555341Y-131604659D01*
X175448996Y-131475078D01*
X175410523Y-131403100D01*
X175369976Y-131327242D01*
X175321313Y-131166823D01*
X175304883Y-131000000D01*
X175321313Y-130833177D01*
X175369976Y-130672758D01*
X175448995Y-130524924D01*
X175448996Y-130524922D01*
X175555341Y-130395341D01*
X175684922Y-130288996D01*
X175765639Y-130245852D01*
X175832758Y-130209976D01*
X175993177Y-130161313D01*
X176118196Y-130149000D01*
X176201804Y-130149000D01*
X176326823Y-130161313D01*
X176326823Y-130161313D01*
G37*
G36*
X170248228Y-123181703D02*
G01*
X170403100Y-123245853D01*
X170542481Y-123338985D01*
X170661015Y-123457519D01*
X170754147Y-123596900D01*
X170818297Y-123751772D01*
X170851000Y-123916184D01*
X170851000Y-124083816D01*
X170818297Y-124248228D01*
X170754147Y-124403100D01*
X170661015Y-124542481D01*
X170542481Y-124661015D01*
X170403100Y-124754147D01*
X170248228Y-124818297D01*
X170083816Y-124851000D01*
X169916184Y-124851000D01*
X169751772Y-124818297D01*
X169596900Y-124754147D01*
X169457519Y-124661015D01*
X169338985Y-124542481D01*
X169245853Y-124403100D01*
X169181703Y-124248228D01*
X169149000Y-124083816D01*
X169149000Y-123916184D01*
X169181703Y-123751772D01*
X169245853Y-123596900D01*
X169338985Y-123457519D01*
X169457519Y-123338985D01*
X169596900Y-123245853D01*
X169751772Y-123181703D01*
X169916184Y-123149000D01*
X170083816Y-123149000D01*
X170248228Y-123181703D01*
X170248228Y-123181703D01*
G37*
G36*
X128248228Y-123181703D02*
G01*
X128403100Y-123245853D01*
X128542481Y-123338985D01*
X128661015Y-123457519D01*
X128754147Y-123596900D01*
X128818297Y-123751772D01*
X128851000Y-123916184D01*
X128851000Y-124083816D01*
X128818297Y-124248228D01*
X128754147Y-124403100D01*
X128661015Y-124542481D01*
X128542481Y-124661015D01*
X128403100Y-124754147D01*
X128248228Y-124818297D01*
X128083816Y-124851000D01*
X127916184Y-124851000D01*
X127751772Y-124818297D01*
X127596900Y-124754147D01*
X127457519Y-124661015D01*
X127338985Y-124542481D01*
X127245853Y-124403100D01*
X127181703Y-124248228D01*
X127149000Y-124083816D01*
X127149000Y-123916184D01*
X127181703Y-123751772D01*
X127245853Y-123596900D01*
X127338985Y-123457519D01*
X127457519Y-123338985D01*
X127596900Y-123245853D01*
X127751772Y-123181703D01*
X127916184Y-123149000D01*
X128083816Y-123149000D01*
X128248228Y-123181703D01*
X128248228Y-123181703D01*
G37*
G36*
X172248228Y-123181703D02*
G01*
X172403100Y-123245853D01*
X172542481Y-123338985D01*
X172661015Y-123457519D01*
X172754147Y-123596900D01*
X172818297Y-123751772D01*
X172851000Y-123916184D01*
X172851000Y-124083816D01*
X172818297Y-124248228D01*
X172754147Y-124403100D01*
X172661015Y-124542481D01*
X172542481Y-124661015D01*
X172403100Y-124754147D01*
X172248228Y-124818297D01*
X172083816Y-124851000D01*
X171916184Y-124851000D01*
X171751772Y-124818297D01*
X171596900Y-124754147D01*
X171457519Y-124661015D01*
X171338985Y-124542481D01*
X171245853Y-124403100D01*
X171181703Y-124248228D01*
X171149000Y-124083816D01*
X171149000Y-123916184D01*
X171181703Y-123751772D01*
X171245853Y-123596900D01*
X171338985Y-123457519D01*
X171457519Y-123338985D01*
X171596900Y-123245853D01*
X171751772Y-123181703D01*
X171916184Y-123149000D01*
X172083816Y-123149000D01*
X172248228Y-123181703D01*
X172248228Y-123181703D01*
G37*
G36*
X130248228Y-123181703D02*
G01*
X130403100Y-123245853D01*
X130542481Y-123338985D01*
X130661015Y-123457519D01*
X130754147Y-123596900D01*
X130818297Y-123751772D01*
X130851000Y-123916184D01*
X130851000Y-124083816D01*
X130818297Y-124248228D01*
X130754147Y-124403100D01*
X130661015Y-124542481D01*
X130542481Y-124661015D01*
X130403100Y-124754147D01*
X130248228Y-124818297D01*
X130083816Y-124851000D01*
X129916184Y-124851000D01*
X129751772Y-124818297D01*
X129596900Y-124754147D01*
X129457519Y-124661015D01*
X129338985Y-124542481D01*
X129245853Y-124403100D01*
X129181703Y-124248228D01*
X129149000Y-124083816D01*
X129149000Y-123916184D01*
X129181703Y-123751772D01*
X129245853Y-123596900D01*
X129338985Y-123457519D01*
X129457519Y-123338985D01*
X129596900Y-123245853D01*
X129751772Y-123181703D01*
X129916184Y-123149000D01*
X130083816Y-123149000D01*
X130248228Y-123181703D01*
X130248228Y-123181703D01*
G37*
G36*
X193175680Y-117790024D02*
G01*
X193356153Y-117825922D01*
X193416696Y-117851000D01*
X193578359Y-117917963D01*
X193778342Y-118051587D01*
X193948413Y-118221658D01*
X194082037Y-118421641D01*
X194115391Y-118502165D01*
X194174078Y-118643847D01*
X194221000Y-118879742D01*
X194221000Y-119120258D01*
X194183942Y-119306565D01*
X194174078Y-119356152D01*
X194082037Y-119578359D01*
X193948413Y-119778342D01*
X193778342Y-119948413D01*
X193578359Y-120082037D01*
X193448194Y-120135953D01*
X193356153Y-120174078D01*
X193238205Y-120197539D01*
X193120259Y-120221000D01*
X192879741Y-120221000D01*
X192761795Y-120197539D01*
X192643847Y-120174078D01*
X192551806Y-120135953D01*
X192421641Y-120082037D01*
X192221658Y-119948413D01*
X192051587Y-119778342D01*
X191917963Y-119578359D01*
X191825922Y-119356152D01*
X191816059Y-119306565D01*
X191779000Y-119120258D01*
X191779000Y-118879742D01*
X191825922Y-118643847D01*
X191884609Y-118502165D01*
X191917963Y-118421641D01*
X192051587Y-118221658D01*
X192221658Y-118051587D01*
X192421641Y-117917963D01*
X192583304Y-117851000D01*
X192643847Y-117825922D01*
X192824320Y-117790024D01*
X192879741Y-117779000D01*
X193120259Y-117779000D01*
X193175680Y-117790024D01*
X193175680Y-117790024D01*
G37*
G36*
X107175680Y-117790024D02*
G01*
X107356153Y-117825922D01*
X107416696Y-117851000D01*
X107578359Y-117917963D01*
X107778342Y-118051587D01*
X107948413Y-118221658D01*
X108082037Y-118421641D01*
X108115391Y-118502165D01*
X108174078Y-118643847D01*
X108221000Y-118879742D01*
X108221000Y-119120258D01*
X108183942Y-119306565D01*
X108174078Y-119356152D01*
X108082037Y-119578359D01*
X107948413Y-119778342D01*
X107778342Y-119948413D01*
X107578359Y-120082037D01*
X107448194Y-120135953D01*
X107356153Y-120174078D01*
X107238205Y-120197539D01*
X107120259Y-120221000D01*
X106879741Y-120221000D01*
X106761795Y-120197539D01*
X106643847Y-120174078D01*
X106551806Y-120135953D01*
X106421641Y-120082037D01*
X106221658Y-119948413D01*
X106051587Y-119778342D01*
X105917963Y-119578359D01*
X105825922Y-119356152D01*
X105816059Y-119306565D01*
X105779000Y-119120258D01*
X105779000Y-118879742D01*
X105825922Y-118643847D01*
X105884609Y-118502165D01*
X105917963Y-118421641D01*
X106051587Y-118221658D01*
X106221658Y-118051587D01*
X106421641Y-117917963D01*
X106583304Y-117851000D01*
X106643847Y-117825922D01*
X106824320Y-117790024D01*
X106879741Y-117779000D01*
X107120259Y-117779000D01*
X107175680Y-117790024D01*
X107175680Y-117790024D01*
G37*
G36*
X118306564Y-117989389D02*
G01*
X118497833Y-118068615D01*
X118497835Y-118068616D01*
X118669973Y-118183635D01*
X118816365Y-118330027D01*
X118928491Y-118497835D01*
X118931385Y-118502167D01*
X119010611Y-118693436D01*
X119051000Y-118896484D01*
X119051000Y-119103516D01*
X119010611Y-119306564D01*
X118931385Y-119497833D01*
X118931384Y-119497835D01*
X118816365Y-119669973D01*
X118669973Y-119816365D01*
X118497835Y-119931384D01*
X118497834Y-119931385D01*
X118497833Y-119931385D01*
X118306564Y-120010611D01*
X118103516Y-120051000D01*
X117896484Y-120051000D01*
X117693436Y-120010611D01*
X117502167Y-119931385D01*
X117502166Y-119931385D01*
X117502165Y-119931384D01*
X117330027Y-119816365D01*
X117183635Y-119669973D01*
X117068616Y-119497835D01*
X117068615Y-119497833D01*
X116989389Y-119306564D01*
X116949000Y-119103516D01*
X116949000Y-118896484D01*
X116989389Y-118693436D01*
X117068615Y-118502167D01*
X117071510Y-118497835D01*
X117183635Y-118330027D01*
X117330027Y-118183635D01*
X117502165Y-118068616D01*
X117502167Y-118068615D01*
X117693436Y-117989389D01*
X117896484Y-117949000D01*
X118103516Y-117949000D01*
X118306564Y-117989389D01*
X118306564Y-117989389D01*
G37*
G36*
X114051000Y-120051000D02*
G01*
X111949000Y-120051000D01*
X111949000Y-117949000D01*
X114051000Y-117949000D01*
X114051000Y-120051000D01*
X114051000Y-120051000D01*
G37*
G36*
X182306564Y-116989389D02*
G01*
X182497833Y-117068615D01*
X182497835Y-117068616D01*
X182669973Y-117183635D01*
X182816365Y-117330027D01*
X182913284Y-117475076D01*
X182931385Y-117502167D01*
X183010611Y-117693436D01*
X183051000Y-117896484D01*
X183051000Y-118103516D01*
X183010611Y-118306564D01*
X182931385Y-118497833D01*
X182931384Y-118497835D01*
X182816365Y-118669973D01*
X182669973Y-118816365D01*
X182497835Y-118931384D01*
X182497834Y-118931385D01*
X182497833Y-118931385D01*
X182306564Y-119010611D01*
X182103516Y-119051000D01*
X181896484Y-119051000D01*
X181693436Y-119010611D01*
X181502167Y-118931385D01*
X181502166Y-118931385D01*
X181502165Y-118931384D01*
X181330027Y-118816365D01*
X181183635Y-118669973D01*
X181068616Y-118497835D01*
X181068615Y-118497833D01*
X180989389Y-118306564D01*
X180949000Y-118103516D01*
X180949000Y-117896484D01*
X180989389Y-117693436D01*
X181068615Y-117502167D01*
X181086717Y-117475076D01*
X181183635Y-117330027D01*
X181330027Y-117183635D01*
X181502165Y-117068616D01*
X181502167Y-117068615D01*
X181693436Y-116989389D01*
X181896484Y-116949000D01*
X182103516Y-116949000D01*
X182306564Y-116989389D01*
X182306564Y-116989389D01*
G37*
G36*
X188051000Y-119051000D02*
G01*
X185949000Y-119051000D01*
X185949000Y-116949000D01*
X188051000Y-116949000D01*
X188051000Y-119051000D01*
X188051000Y-119051000D01*
G37*
G36*
X134326823Y-116161313D02*
G01*
X134487242Y-116209976D01*
X134554361Y-116245852D01*
X134635078Y-116288996D01*
X134764659Y-116395341D01*
X134871004Y-116524922D01*
X134871005Y-116524924D01*
X134950024Y-116672758D01*
X134998687Y-116833177D01*
X135015117Y-117000000D01*
X134998687Y-117166823D01*
X134950024Y-117327242D01*
X134909477Y-117403100D01*
X134871004Y-117475078D01*
X134764659Y-117604659D01*
X134635078Y-117711004D01*
X134635076Y-117711005D01*
X134487242Y-117790024D01*
X134326823Y-117838687D01*
X134201804Y-117851000D01*
X134118196Y-117851000D01*
X133993177Y-117838687D01*
X133832758Y-117790024D01*
X133684924Y-117711005D01*
X133684922Y-117711004D01*
X133555341Y-117604659D01*
X133448996Y-117475078D01*
X133410523Y-117403100D01*
X133369976Y-117327242D01*
X133321313Y-117166823D01*
X133304883Y-117000000D01*
X133321313Y-116833177D01*
X133369976Y-116672758D01*
X133448995Y-116524924D01*
X133448996Y-116524922D01*
X133555341Y-116395341D01*
X133684922Y-116288996D01*
X133765639Y-116245852D01*
X133832758Y-116209976D01*
X133993177Y-116161313D01*
X134118196Y-116149000D01*
X134201804Y-116149000D01*
X134326823Y-116161313D01*
X134326823Y-116161313D01*
G37*
G36*
X166006823Y-116161313D02*
G01*
X166167242Y-116209976D01*
X166234361Y-116245852D01*
X166315078Y-116288996D01*
X166444659Y-116395341D01*
X166551004Y-116524922D01*
X166551005Y-116524924D01*
X166630024Y-116672758D01*
X166678687Y-116833177D01*
X166695117Y-117000000D01*
X166678687Y-117166823D01*
X166630024Y-117327242D01*
X166589477Y-117403100D01*
X166551004Y-117475078D01*
X166444659Y-117604659D01*
X166315078Y-117711004D01*
X166315076Y-117711005D01*
X166167242Y-117790024D01*
X166006823Y-117838687D01*
X165881804Y-117851000D01*
X165798196Y-117851000D01*
X165673177Y-117838687D01*
X165512758Y-117790024D01*
X165364924Y-117711005D01*
X165364922Y-117711004D01*
X165235341Y-117604659D01*
X165128996Y-117475078D01*
X165090523Y-117403100D01*
X165049976Y-117327242D01*
X165001313Y-117166823D01*
X164984883Y-117000000D01*
X165001313Y-116833177D01*
X165049976Y-116672758D01*
X165128995Y-116524924D01*
X165128996Y-116524922D01*
X165235341Y-116395341D01*
X165364922Y-116288996D01*
X165445639Y-116245852D01*
X165512758Y-116209976D01*
X165673177Y-116161313D01*
X165798196Y-116149000D01*
X165881804Y-116149000D01*
X166006823Y-116161313D01*
X166006823Y-116161313D01*
G37*
G36*
X124248228Y-116181703D02*
G01*
X124403100Y-116245853D01*
X124542481Y-116338985D01*
X124661015Y-116457519D01*
X124754147Y-116596900D01*
X124818297Y-116751772D01*
X124851000Y-116916184D01*
X124851000Y-117083816D01*
X124818297Y-117248228D01*
X124754147Y-117403100D01*
X124661015Y-117542481D01*
X124542481Y-117661015D01*
X124403100Y-117754147D01*
X124248228Y-117818297D01*
X124083816Y-117851000D01*
X123916184Y-117851000D01*
X123751772Y-117818297D01*
X123596900Y-117754147D01*
X123457519Y-117661015D01*
X123338985Y-117542481D01*
X123245853Y-117403100D01*
X123181703Y-117248228D01*
X123149000Y-117083816D01*
X123149000Y-116916184D01*
X123181703Y-116751772D01*
X123245853Y-116596900D01*
X123338985Y-116457519D01*
X123457519Y-116338985D01*
X123596900Y-116245853D01*
X123751772Y-116181703D01*
X123916184Y-116149000D01*
X124083816Y-116149000D01*
X124248228Y-116181703D01*
X124248228Y-116181703D01*
G37*
G36*
X176248228Y-116181703D02*
G01*
X176403100Y-116245853D01*
X176542481Y-116338985D01*
X176661015Y-116457519D01*
X176754147Y-116596900D01*
X176818297Y-116751772D01*
X176851000Y-116916184D01*
X176851000Y-117083816D01*
X176818297Y-117248228D01*
X176754147Y-117403100D01*
X176661015Y-117542481D01*
X176542481Y-117661015D01*
X176403100Y-117754147D01*
X176248228Y-117818297D01*
X176083816Y-117851000D01*
X175916184Y-117851000D01*
X175751772Y-117818297D01*
X175596900Y-117754147D01*
X175457519Y-117661015D01*
X175338985Y-117542481D01*
X175245853Y-117403100D01*
X175181703Y-117248228D01*
X175149000Y-117083816D01*
X175149000Y-116916184D01*
X175181703Y-116751772D01*
X175245853Y-116596900D01*
X175338985Y-116457519D01*
X175457519Y-116338985D01*
X175596900Y-116245853D01*
X175751772Y-116181703D01*
X175916184Y-116149000D01*
X176083816Y-116149000D01*
X176248228Y-116181703D01*
X176248228Y-116181703D01*
G37*
G36*
X104738205Y-115302461D02*
G01*
X104856153Y-115325922D01*
X104948194Y-115364047D01*
X105078359Y-115417963D01*
X105278342Y-115551587D01*
X105448413Y-115721658D01*
X105582037Y-115921641D01*
X105626183Y-116028219D01*
X105674078Y-116143847D01*
X105687232Y-116209976D01*
X105702950Y-116288995D01*
X105721000Y-116379742D01*
X105721000Y-116620258D01*
X105678649Y-116833175D01*
X105674078Y-116856152D01*
X105582037Y-117078359D01*
X105448413Y-117278342D01*
X105278342Y-117448413D01*
X105078359Y-117582037D01*
X104948194Y-117635953D01*
X104856153Y-117674078D01*
X104758838Y-117693435D01*
X104620259Y-117721000D01*
X104379741Y-117721000D01*
X104241162Y-117693435D01*
X104143847Y-117674078D01*
X104051806Y-117635953D01*
X103921641Y-117582037D01*
X103721658Y-117448413D01*
X103551587Y-117278342D01*
X103417963Y-117078359D01*
X103325922Y-116856152D01*
X103321352Y-116833175D01*
X103279000Y-116620258D01*
X103279000Y-116379742D01*
X103297051Y-116288995D01*
X103312768Y-116209976D01*
X103325922Y-116143847D01*
X103373817Y-116028219D01*
X103417963Y-115921641D01*
X103551587Y-115721658D01*
X103721658Y-115551587D01*
X103921641Y-115417963D01*
X104051806Y-115364047D01*
X104143847Y-115325922D01*
X104261795Y-115302461D01*
X104379741Y-115279000D01*
X104620259Y-115279000D01*
X104738205Y-115302461D01*
X104738205Y-115302461D01*
G37*
G36*
X195738205Y-115302461D02*
G01*
X195856153Y-115325922D01*
X195948194Y-115364047D01*
X196078359Y-115417963D01*
X196278342Y-115551587D01*
X196448413Y-115721658D01*
X196582037Y-115921641D01*
X196626183Y-116028219D01*
X196674078Y-116143847D01*
X196687232Y-116209976D01*
X196702950Y-116288995D01*
X196721000Y-116379742D01*
X196721000Y-116620258D01*
X196678649Y-116833175D01*
X196674078Y-116856152D01*
X196582037Y-117078359D01*
X196448413Y-117278342D01*
X196278342Y-117448413D01*
X196078359Y-117582037D01*
X195948194Y-117635953D01*
X195856153Y-117674078D01*
X195758838Y-117693435D01*
X195620259Y-117721000D01*
X195379741Y-117721000D01*
X195241162Y-117693435D01*
X195143847Y-117674078D01*
X195051806Y-117635953D01*
X194921641Y-117582037D01*
X194721658Y-117448413D01*
X194551587Y-117278342D01*
X194417963Y-117078359D01*
X194325922Y-116856152D01*
X194321352Y-116833175D01*
X194279000Y-116620258D01*
X194279000Y-116379742D01*
X194297051Y-116288995D01*
X194312768Y-116209976D01*
X194325922Y-116143847D01*
X194373817Y-116028219D01*
X194417963Y-115921641D01*
X194551587Y-115721658D01*
X194721658Y-115551587D01*
X194921641Y-115417963D01*
X195051806Y-115364047D01*
X195143847Y-115325922D01*
X195261795Y-115302461D01*
X195379741Y-115279000D01*
X195620259Y-115279000D01*
X195738205Y-115302461D01*
X195738205Y-115302461D01*
G37*
G36*
X144502384Y-113932435D02*
G01*
X144547456Y-113938669D01*
X144745850Y-114007466D01*
X144881618Y-114087041D01*
X144881623Y-114087044D01*
X144881622Y-114087044D01*
X145766819Y-114730175D01*
X145791537Y-114748134D01*
X145825531Y-114778342D01*
X145909174Y-114852669D01*
X146035909Y-115020089D01*
X146127549Y-115209025D01*
X146180568Y-115412203D01*
X146192930Y-115621821D01*
X146181102Y-115707333D01*
X146164160Y-115829825D01*
X146132321Y-115921640D01*
X146095363Y-116028219D01*
X145989183Y-116209379D01*
X145849700Y-116366345D01*
X145682280Y-116493079D01*
X145493343Y-116584720D01*
X145290165Y-116637739D01*
X145080547Y-116650101D01*
X144917615Y-116627565D01*
X144872543Y-116621331D01*
X144674149Y-116552534D01*
X144538381Y-116472959D01*
X143926248Y-116028219D01*
X143628467Y-115811869D01*
X143628466Y-115811868D01*
X143628463Y-115811866D01*
X143510828Y-115707333D01*
X143510826Y-115707331D01*
X143384092Y-115539911D01*
X143292451Y-115350974D01*
X143239432Y-115147796D01*
X143227070Y-114938179D01*
X143255840Y-114730177D01*
X143255840Y-114730175D01*
X143324637Y-114531781D01*
X143430817Y-114350621D01*
X143570298Y-114193657D01*
X143570300Y-114193655D01*
X143737720Y-114066921D01*
X143926657Y-113975280D01*
X144129835Y-113922261D01*
X144339452Y-113909899D01*
X144502384Y-113932435D01*
X144502384Y-113932435D01*
G37*
G36*
X155870165Y-113922261D02*
G01*
X156073343Y-113975280D01*
X156262280Y-114066921D01*
X156429700Y-114193655D01*
X156429702Y-114193657D01*
X156569183Y-114350621D01*
X156675363Y-114531781D01*
X156744160Y-114730175D01*
X156744160Y-114730177D01*
X156772930Y-114938179D01*
X156760568Y-115147797D01*
X156707549Y-115350975D01*
X156615909Y-115539911D01*
X156489174Y-115707331D01*
X156489172Y-115707333D01*
X156371537Y-115811866D01*
X156371534Y-115811868D01*
X156371533Y-115811869D01*
X156220446Y-115921640D01*
X155461618Y-116472959D01*
X155325850Y-116552534D01*
X155127456Y-116621331D01*
X155082384Y-116627565D01*
X154919452Y-116650101D01*
X154709835Y-116637739D01*
X154506657Y-116584720D01*
X154317720Y-116493079D01*
X154150300Y-116366345D01*
X154010817Y-116209379D01*
X153904637Y-116028219D01*
X153867679Y-115921640D01*
X153835840Y-115829825D01*
X153818898Y-115707333D01*
X153807070Y-115621821D01*
X153819432Y-115412204D01*
X153872451Y-115209026D01*
X153964092Y-115020089D01*
X154090826Y-114852669D01*
X154174469Y-114778342D01*
X154208463Y-114748134D01*
X155118381Y-114087041D01*
X155254149Y-114007466D01*
X155452543Y-113938669D01*
X155497615Y-113932435D01*
X155660547Y-113909899D01*
X155870165Y-113922261D01*
X155870165Y-113922261D01*
G37*
G36*
X107238205Y-112802461D02*
G01*
X107356153Y-112825922D01*
X107448194Y-112864047D01*
X107578359Y-112917963D01*
X107778342Y-113051587D01*
X107948413Y-113221658D01*
X108082037Y-113421641D01*
X108174078Y-113643848D01*
X108221000Y-113879741D01*
X108221000Y-114120259D01*
X108174078Y-114356152D01*
X108082037Y-114578359D01*
X107948413Y-114778342D01*
X107778342Y-114948413D01*
X107578359Y-115082037D01*
X107448194Y-115135953D01*
X107356153Y-115174078D01*
X107120259Y-115221000D01*
X106879741Y-115221000D01*
X106643847Y-115174078D01*
X106551806Y-115135953D01*
X106421641Y-115082037D01*
X106221658Y-114948413D01*
X106051587Y-114778342D01*
X105917963Y-114578359D01*
X105825922Y-114356152D01*
X105779000Y-114120259D01*
X105779000Y-113879741D01*
X105825922Y-113643848D01*
X105917963Y-113421641D01*
X106051587Y-113221658D01*
X106221658Y-113051587D01*
X106421641Y-112917963D01*
X106551806Y-112864047D01*
X106643847Y-112825922D01*
X106761795Y-112802461D01*
X106879741Y-112779000D01*
X107120259Y-112779000D01*
X107238205Y-112802461D01*
X107238205Y-112802461D01*
G37*
G36*
X193238205Y-112802461D02*
G01*
X193356153Y-112825922D01*
X193448194Y-112864047D01*
X193578359Y-112917963D01*
X193778342Y-113051587D01*
X193948413Y-113221658D01*
X194082037Y-113421641D01*
X194174078Y-113643848D01*
X194221000Y-113879741D01*
X194221000Y-114120259D01*
X194174078Y-114356152D01*
X194082037Y-114578359D01*
X193948413Y-114778342D01*
X193778342Y-114948413D01*
X193578359Y-115082037D01*
X193448194Y-115135953D01*
X193356153Y-115174078D01*
X193120259Y-115221000D01*
X192879741Y-115221000D01*
X192643847Y-115174078D01*
X192551806Y-115135953D01*
X192421641Y-115082037D01*
X192221658Y-114948413D01*
X192051587Y-114778342D01*
X191917963Y-114578359D01*
X191825922Y-114356152D01*
X191779000Y-114120259D01*
X191779000Y-113879741D01*
X191825922Y-113643848D01*
X191917963Y-113421641D01*
X192051587Y-113221658D01*
X192221658Y-113051587D01*
X192421641Y-112917963D01*
X192551806Y-112864047D01*
X192643847Y-112825922D01*
X192761795Y-112802461D01*
X192879741Y-112779000D01*
X193120259Y-112779000D01*
X193238205Y-112802461D01*
X193238205Y-112802461D01*
G37*
G36*
X141573155Y-109264020D02*
G01*
X141768695Y-109340553D01*
X141945547Y-109453763D01*
X142096915Y-109599301D01*
X142216980Y-109771568D01*
X142280047Y-109915752D01*
X142627606Y-110985425D01*
X142661331Y-111139137D01*
X142665454Y-111349082D01*
X142628539Y-111555794D01*
X142552007Y-111751334D01*
X142438797Y-111928185D01*
X142293260Y-112079554D01*
X142120992Y-112199618D01*
X142075661Y-112219446D01*
X141928605Y-112283770D01*
X141797227Y-112312595D01*
X141723499Y-112328772D01*
X141521801Y-112332732D01*
X141513557Y-112332894D01*
X141513555Y-112332894D01*
X141306846Y-112295980D01*
X141111305Y-112219447D01*
X140934453Y-112106237D01*
X140783085Y-111960700D01*
X140663020Y-111788432D01*
X140599953Y-111644249D01*
X140390624Y-111000000D01*
X140252395Y-110574576D01*
X140218669Y-110420862D01*
X140214547Y-110210920D01*
X140214547Y-110210917D01*
X140251460Y-110004207D01*
X140327993Y-109808667D01*
X140441203Y-109631815D01*
X140586741Y-109480447D01*
X140759008Y-109360382D01*
X140951396Y-109276230D01*
X141156499Y-109231229D01*
X141208986Y-109230198D01*
X141366442Y-109227107D01*
X141366445Y-109227107D01*
X141573155Y-109264020D01*
X141573155Y-109264020D01*
G37*
G36*
X158641801Y-109227268D02*
G01*
X158843499Y-109231228D01*
X158917227Y-109247405D01*
X159048605Y-109276230D01*
X159195215Y-109340359D01*
X159240992Y-109360382D01*
X159413260Y-109480446D01*
X159558797Y-109631815D01*
X159672007Y-109808666D01*
X159748539Y-110004206D01*
X159785454Y-110210918D01*
X159781331Y-110420863D01*
X159747606Y-110574575D01*
X159400047Y-111644248D01*
X159336980Y-111788432D01*
X159216915Y-111960699D01*
X159065547Y-112106237D01*
X158888695Y-112219447D01*
X158693155Y-112295980D01*
X158486445Y-112332893D01*
X158486442Y-112332893D01*
X158328986Y-112329802D01*
X158276499Y-112328771D01*
X158071396Y-112283770D01*
X157879008Y-112199618D01*
X157706741Y-112079553D01*
X157561203Y-111928185D01*
X157447993Y-111751333D01*
X157371460Y-111555793D01*
X157334547Y-111349083D01*
X157338669Y-111139139D01*
X157338669Y-111139137D01*
X157372395Y-110985424D01*
X157624354Y-110209976D01*
X157719953Y-109915751D01*
X157783020Y-109771568D01*
X157903085Y-109599300D01*
X158054453Y-109453763D01*
X158231305Y-109340553D01*
X158426846Y-109264020D01*
X158633555Y-109227106D01*
X158633557Y-109227106D01*
X158641801Y-109227268D01*
X158641801Y-109227268D01*
G37*
G36*
X176248228Y-110181703D02*
G01*
X176403100Y-110245853D01*
X176542481Y-110338985D01*
X176661015Y-110457519D01*
X176754147Y-110596900D01*
X176818297Y-110751772D01*
X176851000Y-110916184D01*
X176851000Y-111083816D01*
X176818297Y-111248228D01*
X176754147Y-111403100D01*
X176661015Y-111542481D01*
X176542481Y-111661015D01*
X176403100Y-111754147D01*
X176248228Y-111818297D01*
X176083816Y-111851000D01*
X175916184Y-111851000D01*
X175751772Y-111818297D01*
X175596900Y-111754147D01*
X175457519Y-111661015D01*
X175338985Y-111542481D01*
X175245853Y-111403100D01*
X175181703Y-111248228D01*
X175149000Y-111083816D01*
X175149000Y-110916184D01*
X175181703Y-110751772D01*
X175245853Y-110596900D01*
X175338985Y-110457519D01*
X175457519Y-110338985D01*
X175596900Y-110245853D01*
X175751772Y-110181703D01*
X175916184Y-110149000D01*
X176083816Y-110149000D01*
X176248228Y-110181703D01*
X176248228Y-110181703D01*
G37*
G36*
X166006823Y-110161313D02*
G01*
X166167242Y-110209976D01*
X166234361Y-110245852D01*
X166315078Y-110288996D01*
X166444659Y-110395341D01*
X166551004Y-110524922D01*
X166551005Y-110524924D01*
X166630024Y-110672758D01*
X166678687Y-110833177D01*
X166695117Y-111000000D01*
X166678687Y-111166823D01*
X166630024Y-111327242D01*
X166589477Y-111403100D01*
X166551004Y-111475078D01*
X166444659Y-111604659D01*
X166315078Y-111711004D01*
X166315076Y-111711005D01*
X166167242Y-111790024D01*
X166006823Y-111838687D01*
X165881804Y-111851000D01*
X165798196Y-111851000D01*
X165673177Y-111838687D01*
X165512758Y-111790024D01*
X165364924Y-111711005D01*
X165364922Y-111711004D01*
X165235341Y-111604659D01*
X165128996Y-111475078D01*
X165090523Y-111403100D01*
X165049976Y-111327242D01*
X165001313Y-111166823D01*
X164984883Y-111000000D01*
X165001313Y-110833177D01*
X165049976Y-110672758D01*
X165128995Y-110524924D01*
X165128996Y-110524922D01*
X165235341Y-110395341D01*
X165364922Y-110288996D01*
X165445639Y-110245852D01*
X165512758Y-110209976D01*
X165673177Y-110161313D01*
X165798196Y-110149000D01*
X165881804Y-110149000D01*
X166006823Y-110161313D01*
X166006823Y-110161313D01*
G37*
G36*
X134248228Y-110181703D02*
G01*
X134403100Y-110245853D01*
X134542481Y-110338985D01*
X134661015Y-110457519D01*
X134754147Y-110596900D01*
X134818297Y-110751772D01*
X134851000Y-110916184D01*
X134851000Y-111083816D01*
X134818297Y-111248228D01*
X134754147Y-111403100D01*
X134661015Y-111542481D01*
X134542481Y-111661015D01*
X134403100Y-111754147D01*
X134248228Y-111818297D01*
X134083816Y-111851000D01*
X133916184Y-111851000D01*
X133751772Y-111818297D01*
X133596900Y-111754147D01*
X133457519Y-111661015D01*
X133338985Y-111542481D01*
X133245853Y-111403100D01*
X133181703Y-111248228D01*
X133149000Y-111083816D01*
X133149000Y-110916184D01*
X133181703Y-110751772D01*
X133245853Y-110596900D01*
X133338985Y-110457519D01*
X133457519Y-110338985D01*
X133596900Y-110245853D01*
X133751772Y-110181703D01*
X133916184Y-110149000D01*
X134083816Y-110149000D01*
X134248228Y-110181703D01*
X134248228Y-110181703D01*
G37*
G36*
X124006823Y-110161313D02*
G01*
X124167242Y-110209976D01*
X124234361Y-110245852D01*
X124315078Y-110288996D01*
X124444659Y-110395341D01*
X124551004Y-110524922D01*
X124551005Y-110524924D01*
X124630024Y-110672758D01*
X124678687Y-110833177D01*
X124695117Y-111000000D01*
X124678687Y-111166823D01*
X124630024Y-111327242D01*
X124589477Y-111403100D01*
X124551004Y-111475078D01*
X124444659Y-111604659D01*
X124315078Y-111711004D01*
X124315076Y-111711005D01*
X124167242Y-111790024D01*
X124006823Y-111838687D01*
X123881804Y-111851000D01*
X123798196Y-111851000D01*
X123673177Y-111838687D01*
X123512758Y-111790024D01*
X123364924Y-111711005D01*
X123364922Y-111711004D01*
X123235341Y-111604659D01*
X123128996Y-111475078D01*
X123090523Y-111403100D01*
X123049976Y-111327242D01*
X123001313Y-111166823D01*
X122984883Y-111000000D01*
X123001313Y-110833177D01*
X123049976Y-110672758D01*
X123128995Y-110524924D01*
X123128996Y-110524922D01*
X123235341Y-110395341D01*
X123364922Y-110288996D01*
X123445639Y-110245852D01*
X123512758Y-110209976D01*
X123673177Y-110161313D01*
X123798196Y-110149000D01*
X123881804Y-110149000D01*
X124006823Y-110161313D01*
X124006823Y-110161313D01*
G37*
G36*
X158693155Y-103704020D02*
G01*
X158888695Y-103780553D01*
X159065547Y-103893763D01*
X159216915Y-104039301D01*
X159336980Y-104211568D01*
X159400047Y-104355752D01*
X159747606Y-105425425D01*
X159781331Y-105579137D01*
X159785454Y-105789082D01*
X159748539Y-105995794D01*
X159672007Y-106191334D01*
X159558797Y-106368185D01*
X159413260Y-106519554D01*
X159240992Y-106639618D01*
X159195661Y-106659446D01*
X159048605Y-106723770D01*
X158917227Y-106752595D01*
X158843499Y-106768772D01*
X158641801Y-106772732D01*
X158633557Y-106772894D01*
X158633555Y-106772894D01*
X158426846Y-106735980D01*
X158231305Y-106659447D01*
X158054453Y-106546237D01*
X157903085Y-106400700D01*
X157783020Y-106228432D01*
X157719953Y-106084249D01*
X157546174Y-105549412D01*
X157372395Y-105014576D01*
X157338669Y-104860862D01*
X157334547Y-104650920D01*
X157334547Y-104650917D01*
X157371460Y-104444207D01*
X157447993Y-104248667D01*
X157561203Y-104071815D01*
X157706741Y-103920447D01*
X157879008Y-103800382D01*
X158071396Y-103716230D01*
X158276499Y-103671229D01*
X158328986Y-103670198D01*
X158486442Y-103667107D01*
X158486445Y-103667107D01*
X158693155Y-103704020D01*
X158693155Y-103704020D01*
G37*
G36*
X141521801Y-103667268D02*
G01*
X141723499Y-103671228D01*
X141797227Y-103687405D01*
X141928605Y-103716230D01*
X142075215Y-103780359D01*
X142120992Y-103800382D01*
X142293260Y-103920446D01*
X142438797Y-104071815D01*
X142552007Y-104248666D01*
X142628539Y-104444206D01*
X142665454Y-104650918D01*
X142661331Y-104860863D01*
X142627606Y-105014575D01*
X142280047Y-106084248D01*
X142216980Y-106228432D01*
X142096915Y-106400699D01*
X141945547Y-106546237D01*
X141768695Y-106659447D01*
X141573155Y-106735980D01*
X141366445Y-106772893D01*
X141366442Y-106772893D01*
X141208986Y-106769802D01*
X141156499Y-106768771D01*
X140951396Y-106723770D01*
X140759008Y-106639618D01*
X140586741Y-106519553D01*
X140441203Y-106368185D01*
X140327993Y-106191333D01*
X140251460Y-105995793D01*
X140214547Y-105789083D01*
X140218669Y-105579139D01*
X140218669Y-105579137D01*
X140252395Y-105425424D01*
X140504048Y-104650917D01*
X140599953Y-104355751D01*
X140663020Y-104211568D01*
X140783085Y-104039300D01*
X140934453Y-103893763D01*
X141111305Y-103780553D01*
X141306846Y-103704020D01*
X141513555Y-103667106D01*
X141513557Y-103667106D01*
X141521801Y-103667268D01*
X141521801Y-103667268D01*
G37*
G36*
X110736719Y-102963520D02*
G01*
X110925880Y-103020901D01*
X110925883Y-103020902D01*
X111018333Y-103070318D01*
X111100212Y-103114083D01*
X111253015Y-103239485D01*
X111378417Y-103392288D01*
X111471599Y-103566619D01*
X111528980Y-103755780D01*
X111543500Y-103903206D01*
X111543500Y-104096793D01*
X111528980Y-104244219D01*
X111495147Y-104355751D01*
X111471598Y-104433383D01*
X111465812Y-104444207D01*
X111378417Y-104607712D01*
X111253015Y-104760515D01*
X111100212Y-104885917D01*
X110925881Y-104979099D01*
X110736720Y-105036480D01*
X110540000Y-105055855D01*
X110343281Y-105036480D01*
X110154120Y-104979099D01*
X109979788Y-104885917D01*
X109826985Y-104760515D01*
X109701583Y-104607712D01*
X109608401Y-104433381D01*
X109551020Y-104244220D01*
X109536500Y-104096794D01*
X109536500Y-103903207D01*
X109551020Y-103755781D01*
X109608401Y-103566620D01*
X109608402Y-103566617D01*
X109657818Y-103474167D01*
X109701583Y-103392288D01*
X109826985Y-103239485D01*
X109979788Y-103114083D01*
X110154119Y-103020901D01*
X110343280Y-102963520D01*
X110540000Y-102944145D01*
X110736719Y-102963520D01*
X110736719Y-102963520D01*
G37*
G36*
X113276719Y-102963520D02*
G01*
X113465880Y-103020901D01*
X113465883Y-103020902D01*
X113558333Y-103070318D01*
X113640212Y-103114083D01*
X113793015Y-103239485D01*
X113918417Y-103392288D01*
X114011599Y-103566619D01*
X114068980Y-103755780D01*
X114083500Y-103903206D01*
X114083500Y-104096793D01*
X114068980Y-104244219D01*
X114035147Y-104355751D01*
X114011598Y-104433383D01*
X114005812Y-104444207D01*
X113918417Y-104607712D01*
X113793015Y-104760515D01*
X113640212Y-104885917D01*
X113465881Y-104979099D01*
X113276720Y-105036480D01*
X113080000Y-105055855D01*
X112883281Y-105036480D01*
X112694120Y-104979099D01*
X112519788Y-104885917D01*
X112366985Y-104760515D01*
X112241583Y-104607712D01*
X112148401Y-104433381D01*
X112091020Y-104244220D01*
X112076500Y-104096794D01*
X112076500Y-103903207D01*
X112091020Y-103755781D01*
X112148401Y-103566620D01*
X112148402Y-103566617D01*
X112197818Y-103474167D01*
X112241583Y-103392288D01*
X112366985Y-103239485D01*
X112519788Y-103114083D01*
X112694119Y-103020901D01*
X112883280Y-102963520D01*
X113080000Y-102944145D01*
X113276719Y-102963520D01*
X113276719Y-102963520D01*
G37*
G36*
X128736719Y-102963520D02*
G01*
X128925880Y-103020901D01*
X128925883Y-103020902D01*
X129018333Y-103070318D01*
X129100212Y-103114083D01*
X129253015Y-103239485D01*
X129378417Y-103392288D01*
X129471599Y-103566619D01*
X129528980Y-103755780D01*
X129543500Y-103903206D01*
X129543500Y-104096793D01*
X129528980Y-104244219D01*
X129495147Y-104355751D01*
X129471598Y-104433383D01*
X129465812Y-104444207D01*
X129378417Y-104607712D01*
X129253015Y-104760515D01*
X129100212Y-104885917D01*
X128925881Y-104979099D01*
X128736720Y-105036480D01*
X128540000Y-105055855D01*
X128343281Y-105036480D01*
X128154120Y-104979099D01*
X127979788Y-104885917D01*
X127826985Y-104760515D01*
X127701583Y-104607712D01*
X127608401Y-104433381D01*
X127551020Y-104244220D01*
X127536500Y-104096794D01*
X127536500Y-103903207D01*
X127551020Y-103755781D01*
X127608401Y-103566620D01*
X127608402Y-103566617D01*
X127657818Y-103474167D01*
X127701583Y-103392288D01*
X127826985Y-103239485D01*
X127979788Y-103114083D01*
X128154119Y-103020901D01*
X128343280Y-102963520D01*
X128540000Y-102944145D01*
X128736719Y-102963520D01*
X128736719Y-102963520D01*
G37*
G36*
X131276719Y-102963520D02*
G01*
X131465880Y-103020901D01*
X131465883Y-103020902D01*
X131558333Y-103070318D01*
X131640212Y-103114083D01*
X131793015Y-103239485D01*
X131918417Y-103392288D01*
X132011599Y-103566619D01*
X132068980Y-103755780D01*
X132083500Y-103903206D01*
X132083500Y-104096793D01*
X132068980Y-104244219D01*
X132035147Y-104355751D01*
X132011598Y-104433383D01*
X132005812Y-104444207D01*
X131918417Y-104607712D01*
X131793015Y-104760515D01*
X131640212Y-104885917D01*
X131465881Y-104979099D01*
X131276720Y-105036480D01*
X131080000Y-105055855D01*
X130883281Y-105036480D01*
X130694120Y-104979099D01*
X130519788Y-104885917D01*
X130366985Y-104760515D01*
X130241583Y-104607712D01*
X130148401Y-104433381D01*
X130091020Y-104244220D01*
X130076500Y-104096794D01*
X130076500Y-103903207D01*
X130091020Y-103755781D01*
X130148401Y-103566620D01*
X130148402Y-103566617D01*
X130197818Y-103474167D01*
X130241583Y-103392288D01*
X130366985Y-103239485D01*
X130519788Y-103114083D01*
X130694119Y-103020901D01*
X130883280Y-102963520D01*
X131080000Y-102944145D01*
X131276719Y-102963520D01*
X131276719Y-102963520D01*
G37*
G36*
X171736719Y-102963520D02*
G01*
X171925880Y-103020901D01*
X171925883Y-103020902D01*
X172018333Y-103070318D01*
X172100212Y-103114083D01*
X172253015Y-103239485D01*
X172378417Y-103392288D01*
X172471599Y-103566619D01*
X172528980Y-103755780D01*
X172543500Y-103903206D01*
X172543500Y-104096793D01*
X172528980Y-104244219D01*
X172495147Y-104355751D01*
X172471598Y-104433383D01*
X172465812Y-104444207D01*
X172378417Y-104607712D01*
X172253015Y-104760515D01*
X172100212Y-104885917D01*
X171925881Y-104979099D01*
X171736720Y-105036480D01*
X171540000Y-105055855D01*
X171343281Y-105036480D01*
X171154120Y-104979099D01*
X170979788Y-104885917D01*
X170826985Y-104760515D01*
X170701583Y-104607712D01*
X170608401Y-104433381D01*
X170551020Y-104244220D01*
X170536500Y-104096794D01*
X170536500Y-103903207D01*
X170551020Y-103755781D01*
X170608401Y-103566620D01*
X170608402Y-103566617D01*
X170657818Y-103474167D01*
X170701583Y-103392288D01*
X170826985Y-103239485D01*
X170979788Y-103114083D01*
X171154119Y-103020901D01*
X171343280Y-102963520D01*
X171540000Y-102944145D01*
X171736719Y-102963520D01*
X171736719Y-102963520D01*
G37*
G36*
X192276719Y-102963520D02*
G01*
X192465880Y-103020901D01*
X192465883Y-103020902D01*
X192558333Y-103070318D01*
X192640212Y-103114083D01*
X192793015Y-103239485D01*
X192918417Y-103392288D01*
X193011599Y-103566619D01*
X193068980Y-103755780D01*
X193083500Y-103903206D01*
X193083500Y-104096793D01*
X193068980Y-104244219D01*
X193035147Y-104355751D01*
X193011598Y-104433383D01*
X193005812Y-104444207D01*
X192918417Y-104607712D01*
X192793015Y-104760515D01*
X192640212Y-104885917D01*
X192465881Y-104979099D01*
X192276720Y-105036480D01*
X192080000Y-105055855D01*
X191883281Y-105036480D01*
X191694120Y-104979099D01*
X191519788Y-104885917D01*
X191366985Y-104760515D01*
X191241583Y-104607712D01*
X191148401Y-104433381D01*
X191091020Y-104244220D01*
X191076500Y-104096794D01*
X191076500Y-103903207D01*
X191091020Y-103755781D01*
X191148401Y-103566620D01*
X191148402Y-103566617D01*
X191197818Y-103474167D01*
X191241583Y-103392288D01*
X191366985Y-103239485D01*
X191519788Y-103114083D01*
X191694119Y-103020901D01*
X191883280Y-102963520D01*
X192080000Y-102944145D01*
X192276719Y-102963520D01*
X192276719Y-102963520D01*
G37*
G36*
X189736719Y-102963520D02*
G01*
X189925880Y-103020901D01*
X189925883Y-103020902D01*
X190018333Y-103070318D01*
X190100212Y-103114083D01*
X190253015Y-103239485D01*
X190378417Y-103392288D01*
X190471599Y-103566619D01*
X190528980Y-103755780D01*
X190543500Y-103903206D01*
X190543500Y-104096793D01*
X190528980Y-104244219D01*
X190495147Y-104355751D01*
X190471598Y-104433383D01*
X190465812Y-104444207D01*
X190378417Y-104607712D01*
X190253015Y-104760515D01*
X190100212Y-104885917D01*
X189925881Y-104979099D01*
X189736720Y-105036480D01*
X189540000Y-105055855D01*
X189343281Y-105036480D01*
X189154120Y-104979099D01*
X188979788Y-104885917D01*
X188826985Y-104760515D01*
X188701583Y-104607712D01*
X188608401Y-104433381D01*
X188551020Y-104244220D01*
X188536500Y-104096794D01*
X188536500Y-103903207D01*
X188551020Y-103755781D01*
X188608401Y-103566620D01*
X188608402Y-103566617D01*
X188657818Y-103474167D01*
X188701583Y-103392288D01*
X188826985Y-103239485D01*
X188979788Y-103114083D01*
X189154119Y-103020901D01*
X189343280Y-102963520D01*
X189540000Y-102944145D01*
X189736719Y-102963520D01*
X189736719Y-102963520D01*
G37*
G36*
X174276719Y-102963520D02*
G01*
X174465880Y-103020901D01*
X174465883Y-103020902D01*
X174558333Y-103070318D01*
X174640212Y-103114083D01*
X174793015Y-103239485D01*
X174918417Y-103392288D01*
X175011599Y-103566619D01*
X175068980Y-103755780D01*
X175083500Y-103903206D01*
X175083500Y-104096793D01*
X175068980Y-104244219D01*
X175035147Y-104355751D01*
X175011598Y-104433383D01*
X175005812Y-104444207D01*
X174918417Y-104607712D01*
X174793015Y-104760515D01*
X174640212Y-104885917D01*
X174465881Y-104979099D01*
X174276720Y-105036480D01*
X174080000Y-105055855D01*
X173883281Y-105036480D01*
X173694120Y-104979099D01*
X173519788Y-104885917D01*
X173366985Y-104760515D01*
X173241583Y-104607712D01*
X173148401Y-104433381D01*
X173091020Y-104244220D01*
X173076500Y-104096794D01*
X173076500Y-103903207D01*
X173091020Y-103755781D01*
X173148401Y-103566620D01*
X173148402Y-103566617D01*
X173197818Y-103474167D01*
X173241583Y-103392288D01*
X173366985Y-103239485D01*
X173519788Y-103114083D01*
X173694119Y-103020901D01*
X173883280Y-102963520D01*
X174080000Y-102944145D01*
X174276719Y-102963520D01*
X174276719Y-102963520D01*
G37*
G36*
X109003500Y-105051000D02*
G01*
X106996500Y-105051000D01*
X106996500Y-102949000D01*
X109003500Y-102949000D01*
X109003500Y-105051000D01*
X109003500Y-105051000D01*
G37*
G36*
X170003500Y-105051000D02*
G01*
X167996500Y-105051000D01*
X167996500Y-102949000D01*
X170003500Y-102949000D01*
X170003500Y-105051000D01*
X170003500Y-105051000D01*
G37*
G36*
X127003500Y-105051000D02*
G01*
X124996500Y-105051000D01*
X124996500Y-102949000D01*
X127003500Y-102949000D01*
X127003500Y-105051000D01*
X127003500Y-105051000D01*
G37*
G36*
X188003500Y-105051000D02*
G01*
X185996500Y-105051000D01*
X185996500Y-102949000D01*
X188003500Y-102949000D01*
X188003500Y-105051000D01*
X188003500Y-105051000D01*
G37*
G36*
X155082384Y-99372435D02*
G01*
X155127456Y-99378669D01*
X155325850Y-99447466D01*
X155461618Y-99527041D01*
X155824406Y-99790621D01*
X156346819Y-100170175D01*
X156371537Y-100188134D01*
X156489172Y-100292667D01*
X156489174Y-100292669D01*
X156615909Y-100460089D01*
X156707549Y-100649025D01*
X156760568Y-100852203D01*
X156772930Y-101061821D01*
X156761102Y-101147333D01*
X156744160Y-101269825D01*
X156675363Y-101468219D01*
X156569183Y-101649379D01*
X156429700Y-101806345D01*
X156262280Y-101933079D01*
X156073343Y-102024720D01*
X155870165Y-102077739D01*
X155660547Y-102090101D01*
X155497615Y-102067565D01*
X155452543Y-102061331D01*
X155254149Y-101992534D01*
X155118381Y-101912959D01*
X154208463Y-101251866D01*
X154090828Y-101147333D01*
X154090826Y-101147331D01*
X153964092Y-100979911D01*
X153872451Y-100790974D01*
X153819432Y-100587796D01*
X153807070Y-100378179D01*
X153835840Y-100170177D01*
X153835840Y-100170175D01*
X153904637Y-99971781D01*
X154010817Y-99790621D01*
X154150298Y-99633657D01*
X154150300Y-99633655D01*
X154317720Y-99506921D01*
X154506657Y-99415280D01*
X154709835Y-99362261D01*
X154919452Y-99349899D01*
X155082384Y-99372435D01*
X155082384Y-99372435D01*
G37*
G36*
X145290165Y-99362261D02*
G01*
X145493343Y-99415280D01*
X145682280Y-99506921D01*
X145849700Y-99633655D01*
X145849702Y-99633657D01*
X145989183Y-99790621D01*
X146095363Y-99971781D01*
X146164160Y-100170175D01*
X146164160Y-100170177D01*
X146192930Y-100378179D01*
X146180568Y-100587797D01*
X146127549Y-100790975D01*
X146035909Y-100979911D01*
X145909174Y-101147331D01*
X145909172Y-101147333D01*
X145791537Y-101251866D01*
X145791534Y-101251868D01*
X145791533Y-101251869D01*
X145493752Y-101468219D01*
X144881618Y-101912959D01*
X144745850Y-101992534D01*
X144547456Y-102061331D01*
X144502384Y-102067565D01*
X144339452Y-102090101D01*
X144129835Y-102077739D01*
X143926657Y-102024720D01*
X143737720Y-101933079D01*
X143570300Y-101806345D01*
X143430817Y-101649379D01*
X143324637Y-101468219D01*
X143255840Y-101269825D01*
X143238898Y-101147333D01*
X143227070Y-101061821D01*
X143239432Y-100852204D01*
X143292451Y-100649026D01*
X143384092Y-100460089D01*
X143510826Y-100292669D01*
X143510828Y-100292667D01*
X143628463Y-100188134D01*
X143901695Y-99989620D01*
X144221288Y-99757422D01*
X144538381Y-99527041D01*
X144674149Y-99447466D01*
X144872543Y-99378669D01*
X144917615Y-99372435D01*
X145080547Y-99349899D01*
X145290165Y-99362261D01*
X145290165Y-99362261D01*
G37*
G36*
X150718970Y-97949424D02*
G01*
X150919917Y-98010381D01*
X151105102Y-98109365D01*
X151267423Y-98242577D01*
X151400635Y-98404898D01*
X151499619Y-98590083D01*
X151560576Y-98791030D01*
X151581157Y-99000000D01*
X151560576Y-99208970D01*
X151499619Y-99409917D01*
X151400635Y-99595102D01*
X151267423Y-99757423D01*
X151105102Y-99890635D01*
X150919917Y-99989619D01*
X150718970Y-100050576D01*
X150562364Y-100066000D01*
X149437636Y-100066000D01*
X149281030Y-100050576D01*
X149080083Y-99989619D01*
X148894898Y-99890635D01*
X148732577Y-99757423D01*
X148599365Y-99595102D01*
X148500381Y-99409917D01*
X148439424Y-99208970D01*
X148418843Y-99000000D01*
X148439424Y-98791030D01*
X148500381Y-98590083D01*
X148599365Y-98404898D01*
X148732577Y-98242577D01*
X148894898Y-98109365D01*
X149080083Y-98010381D01*
X149281030Y-97949424D01*
X149437636Y-97934000D01*
X150562364Y-97934000D01*
X150718970Y-97949424D01*
X150718970Y-97949424D01*
G37*
G36*
X151801000Y-90701000D02*
G01*
X148199000Y-90701000D01*
X148199000Y-87099000D01*
X151801000Y-87099000D01*
X151801000Y-90701000D01*
X151801000Y-90701000D01*
G37*
G36*
X146426366Y-84115695D02*
G01*
X146583460Y-84163349D01*
X146728231Y-84240731D01*
X146855128Y-84344872D01*
X146959269Y-84471769D01*
X147036651Y-84616540D01*
X147084305Y-84773634D01*
X147101000Y-84943140D01*
X147101000Y-86856860D01*
X147084305Y-87026366D01*
X147036651Y-87183460D01*
X146959269Y-87328231D01*
X146855128Y-87455128D01*
X146728231Y-87559269D01*
X146583460Y-87636651D01*
X146426366Y-87684305D01*
X146256860Y-87701000D01*
X144343140Y-87701000D01*
X144173634Y-87684305D01*
X144016540Y-87636651D01*
X143871769Y-87559269D01*
X143744872Y-87455128D01*
X143640731Y-87328231D01*
X143563349Y-87183460D01*
X143515695Y-87026366D01*
X143499000Y-86856860D01*
X143499000Y-84943140D01*
X143515695Y-84773634D01*
X143563349Y-84616540D01*
X143640731Y-84471769D01*
X143744872Y-84344872D01*
X143871769Y-84240731D01*
X144016540Y-84163349D01*
X144173634Y-84115695D01*
X144343140Y-84099000D01*
X146256860Y-84099000D01*
X146426366Y-84115695D01*
X146426366Y-84115695D01*
G37*
G36*
X151226979Y-81363293D02*
G01*
X151360625Y-81403834D01*
X151483784Y-81469664D01*
X151591740Y-81558260D01*
X151680336Y-81666216D01*
X151746166Y-81789375D01*
X151786707Y-81923021D01*
X151801000Y-82068140D01*
X151801000Y-83731860D01*
X151786707Y-83876979D01*
X151746166Y-84010625D01*
X151680336Y-84133784D01*
X151591740Y-84241740D01*
X151483784Y-84330336D01*
X151360625Y-84396166D01*
X151226979Y-84436707D01*
X151081860Y-84451000D01*
X148918140Y-84451000D01*
X148773021Y-84436707D01*
X148639375Y-84396166D01*
X148516216Y-84330336D01*
X148408260Y-84241740D01*
X148319664Y-84133784D01*
X148253834Y-84010625D01*
X148213293Y-83876979D01*
X148199000Y-83731860D01*
X148199000Y-82068140D01*
X148213293Y-81923021D01*
X148253834Y-81789375D01*
X148319664Y-81666216D01*
X148408260Y-81558260D01*
X148516216Y-81469664D01*
X148639375Y-81403834D01*
X148773021Y-81363293D01*
X148918140Y-81349000D01*
X151081860Y-81349000D01*
X151226979Y-81363293D01*
X151226979Y-81363293D01*
G37*
G36*
X104375256Y-77391298D02*
G01*
X104481579Y-77412447D01*
X104782042Y-77536903D01*
X105052451Y-77717585D01*
X105282415Y-77947549D01*
X105463097Y-78217958D01*
X105587553Y-78518421D01*
X105651000Y-78837391D01*
X105651000Y-79162609D01*
X105587553Y-79481579D01*
X105463097Y-79782042D01*
X105282415Y-80052451D01*
X105052451Y-80282415D01*
X104782042Y-80463097D01*
X104481579Y-80587553D01*
X104375256Y-80608702D01*
X104162611Y-80651000D01*
X103837389Y-80651000D01*
X103624744Y-80608702D01*
X103518421Y-80587553D01*
X103217958Y-80463097D01*
X102947549Y-80282415D01*
X102717585Y-80052451D01*
X102536903Y-79782042D01*
X102412447Y-79481579D01*
X102349000Y-79162609D01*
X102349000Y-78837391D01*
X102412447Y-78518421D01*
X102536903Y-78217958D01*
X102717585Y-77947549D01*
X102947549Y-77717585D01*
X103217958Y-77536903D01*
X103518421Y-77412447D01*
X103624744Y-77391298D01*
X103837389Y-77349000D01*
X104162611Y-77349000D01*
X104375256Y-77391298D01*
X104375256Y-77391298D01*
G37*
G36*
X196375256Y-77391298D02*
G01*
X196481579Y-77412447D01*
X196782042Y-77536903D01*
X197052451Y-77717585D01*
X197282415Y-77947549D01*
X197463097Y-78217958D01*
X197587553Y-78518421D01*
X197651000Y-78837391D01*
X197651000Y-79162609D01*
X197587553Y-79481579D01*
X197463097Y-79782042D01*
X197282415Y-80052451D01*
X197052451Y-80282415D01*
X196782042Y-80463097D01*
X196481579Y-80587553D01*
X196375256Y-80608702D01*
X196162611Y-80651000D01*
X195837389Y-80651000D01*
X195624744Y-80608702D01*
X195518421Y-80587553D01*
X195217958Y-80463097D01*
X194947549Y-80282415D01*
X194717585Y-80052451D01*
X194536903Y-79782042D01*
X194412447Y-79481579D01*
X194349000Y-79162609D01*
X194349000Y-78837391D01*
X194412447Y-78518421D01*
X194536903Y-78217958D01*
X194717585Y-77947549D01*
X194947549Y-77717585D01*
X195217958Y-77536903D01*
X195518421Y-77412447D01*
X195624744Y-77391298D01*
X195837389Y-77349000D01*
X196162611Y-77349000D01*
X196375256Y-77391298D01*
X196375256Y-77391298D01*
G37*
M02*
