G04 #@! TF.GenerationSoftware,KiCad,Pcbnew,(5.1.0)-1*
G04 #@! TF.CreationDate,2019-04-15T23:00:07-07:00*
G04 #@! TF.ProjectId,12AU7-Amplifier,31324155-372d-4416-9d70-6c6966696572,rev?*
G04 #@! TF.SameCoordinates,Original*
G04 #@! TF.FileFunction,Legend,Bot*
G04 #@! TF.FilePolarity,Positive*
%FSLAX46Y46*%
G04 Gerber Fmt 4.6, Leading zero omitted, Abs format (unit mm)*
G04 Created by KiCad (PCBNEW (5.1.0)-1) date 2019-04-15 23:00:07*
%MOMM*%
%LPD*%
G04 APERTURE LIST*
%ADD10C,0.120000*%
G04 APERTURE END LIST*
D10*
X124929000Y-78048000D02*
X124974965Y-77970754D01*
X124974965Y-77970754D02*
X125018733Y-77893950D01*
X125018733Y-77893950D02*
X125061740Y-77815592D01*
X125061740Y-77815592D02*
X125097000Y-77748000D01*
X126489000Y-78651000D02*
X126518026Y-78558464D01*
X126518026Y-78558464D02*
X126540772Y-78458167D01*
X126540772Y-78458167D02*
X126561407Y-78355234D01*
X126561407Y-78355234D02*
X126580119Y-78252541D01*
X126580119Y-78252541D02*
X126597370Y-78147806D01*
X126597370Y-78147806D02*
X126612507Y-78041225D01*
X126612507Y-78041225D02*
X126618000Y-77994000D01*
X121281000Y-77973000D02*
X121785000Y-77979000D01*
X121098000Y-77403000D02*
X121005755Y-77430906D01*
X121005755Y-77430906D02*
X120950548Y-77496539D01*
X120950548Y-77496539D02*
X120909734Y-77578383D01*
X120909734Y-77578383D02*
X120894000Y-77613000D01*
X119808000Y-77760000D02*
X119728291Y-77800291D01*
X119728291Y-77800291D02*
X119656413Y-77849481D01*
X119656413Y-77849481D02*
X119606768Y-77920574D01*
X119606768Y-77920574D02*
X119577000Y-77997000D01*
X120792000Y-77886000D02*
X120777000Y-77967000D01*
X121116000Y-76752000D02*
X121018629Y-76774916D01*
X121018629Y-76774916D02*
X120921900Y-76801402D01*
X120921900Y-76801402D02*
X120827057Y-76828524D01*
X120827057Y-76828524D02*
X120822000Y-76830000D01*
X120243000Y-77592000D02*
X120153198Y-77622300D01*
X120153198Y-77622300D02*
X120063038Y-77655193D01*
X120063038Y-77655193D02*
X119973823Y-77689664D01*
X119973823Y-77689664D02*
X119886319Y-77725428D01*
X119886319Y-77725428D02*
X119808000Y-77760000D01*
X124581000Y-78060000D02*
X124827000Y-78219000D01*
X122400000Y-77433000D02*
X122291933Y-77420632D01*
X122291933Y-77420632D02*
X122212942Y-77462169D01*
X122212942Y-77462169D02*
X122170202Y-77540331D01*
X122170202Y-77540331D02*
X122148000Y-77589000D01*
X124827000Y-78219000D02*
X124929000Y-78048000D01*
X125097000Y-77748000D02*
X125160000Y-77622000D01*
X122619000Y-78180000D02*
X122715875Y-78207040D01*
X122715875Y-78207040D02*
X122811253Y-78231770D01*
X122811253Y-78231770D02*
X122909314Y-78254209D01*
X122909314Y-78254209D02*
X123003000Y-78264000D01*
X120894000Y-77613000D02*
X120857259Y-77698050D01*
X120857259Y-77698050D02*
X120823541Y-77785150D01*
X120823541Y-77785150D02*
X120794178Y-77876351D01*
X120794178Y-77876351D02*
X120792000Y-77886000D01*
X126129000Y-78225000D02*
X126182105Y-78296215D01*
X126182105Y-78296215D02*
X126234632Y-78365225D01*
X126234632Y-78365225D02*
X126288027Y-78433732D01*
X126288027Y-78433732D02*
X126341752Y-78500611D01*
X126341752Y-78500611D02*
X126396786Y-78566121D01*
X126396786Y-78566121D02*
X126454434Y-78628501D01*
X126454434Y-78628501D02*
X126489000Y-78651000D01*
X120822000Y-76830000D02*
X120822000Y-76830000D01*
X120855000Y-77229000D02*
X120936000Y-77088000D01*
X125160000Y-77622000D02*
X124959000Y-77490000D01*
X120168000Y-78057000D02*
X120271167Y-78039031D01*
X120271167Y-78039031D02*
X120374232Y-78018796D01*
X120374232Y-78018796D02*
X120472131Y-77996191D01*
X120472131Y-77996191D02*
X120507000Y-77985000D01*
X119697000Y-78162000D02*
X119793403Y-78137183D01*
X119793403Y-78137183D02*
X119890829Y-78114426D01*
X119890829Y-78114426D02*
X119991757Y-78092289D01*
X119991757Y-78092289D02*
X120095067Y-78071015D01*
X120095067Y-78071015D02*
X120168000Y-78057000D01*
X121098000Y-77403000D02*
X121098000Y-77403000D01*
X121878000Y-77733000D02*
X121912245Y-77642460D01*
X121912245Y-77642460D02*
X121945504Y-77555281D01*
X121945504Y-77555281D02*
X121980022Y-77467493D01*
X121980022Y-77467493D02*
X121995000Y-77433000D01*
X126162000Y-77952000D02*
X126134102Y-78044664D01*
X126134102Y-78044664D02*
X126112497Y-78144687D01*
X126112497Y-78144687D02*
X126129000Y-78225000D01*
X126285000Y-77487000D02*
X126262361Y-77587739D01*
X126262361Y-77587739D02*
X126237898Y-77685292D01*
X126237898Y-77685292D02*
X126211472Y-77783686D01*
X126211472Y-77783686D02*
X126184744Y-77877349D01*
X126184744Y-77877349D02*
X126162000Y-77952000D01*
X123030000Y-78198000D02*
X123052091Y-78099864D01*
X123052091Y-78099864D02*
X123079778Y-78006318D01*
X123079778Y-78006318D02*
X123109759Y-77913441D01*
X123109759Y-77913441D02*
X123117000Y-77892000D01*
X120777000Y-77967000D02*
X121281000Y-77973000D01*
X126618000Y-77994000D02*
X126625914Y-77880184D01*
X126625914Y-77880184D02*
X126615667Y-77770194D01*
X126615667Y-77770194D02*
X126583033Y-77681482D01*
X126583033Y-77681482D02*
X126543383Y-77599378D01*
X126543383Y-77599378D02*
X126499900Y-77514489D01*
X126499900Y-77514489D02*
X126495000Y-77505000D01*
X121980000Y-78027000D02*
X122077367Y-78050011D01*
X122077367Y-78050011D02*
X122121000Y-78057000D01*
X119577000Y-77997000D02*
X119546310Y-78087544D01*
X119546310Y-78087544D02*
X119557957Y-78195898D01*
X119557957Y-78195898D02*
X119657128Y-78174003D01*
X119657128Y-78174003D02*
X119697000Y-78162000D01*
X121617000Y-77382000D02*
X121496176Y-77382852D01*
X121496176Y-77382852D02*
X121378550Y-77385307D01*
X121378550Y-77385307D02*
X121262210Y-77389594D01*
X121262210Y-77389594D02*
X121149250Y-77396790D01*
X121149250Y-77396790D02*
X121098000Y-77403000D01*
X121995000Y-77433000D02*
X121921043Y-77386492D01*
X121921043Y-77386492D02*
X121804438Y-77382746D01*
X121804438Y-77382746D02*
X121684201Y-77382047D01*
X121684201Y-77382047D02*
X121617000Y-77382000D01*
X123174000Y-77619000D02*
X123079982Y-77589764D01*
X123079982Y-77589764D02*
X122981717Y-77564179D01*
X122981717Y-77564179D02*
X122884174Y-77539972D01*
X122884174Y-77539972D02*
X122779755Y-77514901D01*
X122779755Y-77514901D02*
X122678921Y-77491422D01*
X122678921Y-77491422D02*
X122579909Y-77469151D01*
X122579909Y-77469151D02*
X122478591Y-77447587D01*
X122478591Y-77447587D02*
X122400000Y-77433000D01*
X123117000Y-77892000D02*
X123146687Y-77800916D01*
X123146687Y-77800916D02*
X123172122Y-77705296D01*
X123172122Y-77705296D02*
X123174000Y-77619000D01*
X123003000Y-78264000D02*
X123030000Y-78198000D01*
X122121000Y-78057000D02*
X122223396Y-78077183D01*
X122223396Y-78077183D02*
X122321990Y-78100333D01*
X122321990Y-78100333D02*
X122418564Y-78124749D01*
X122418564Y-78124749D02*
X122514575Y-78150428D01*
X122514575Y-78150428D02*
X122609264Y-78177161D01*
X122609264Y-78177161D02*
X122619000Y-78180000D01*
X121785000Y-77979000D02*
X121878000Y-77733000D01*
X126342000Y-77238000D02*
X126317899Y-77335135D01*
X126317899Y-77335135D02*
X126296012Y-77434249D01*
X126296012Y-77434249D02*
X126285000Y-77487000D01*
X123621000Y-77562000D02*
X123708487Y-77595056D01*
X123708487Y-77595056D02*
X123792544Y-77631780D01*
X123792544Y-77631780D02*
X123878143Y-77671843D01*
X123878143Y-77671843D02*
X123961751Y-77712791D01*
X123961751Y-77712791D02*
X124041706Y-77753303D01*
X124041706Y-77753303D02*
X124124569Y-77796525D01*
X124124569Y-77796525D02*
X124206800Y-77840611D01*
X124206800Y-77840611D02*
X124289142Y-77885971D01*
X124289142Y-77885971D02*
X124366034Y-77929534D01*
X124366034Y-77929534D02*
X124443284Y-77974676D01*
X124443284Y-77974676D02*
X124518689Y-78020430D01*
X124518689Y-78020430D02*
X124581000Y-78060000D01*
X126285000Y-77487000D02*
X126285000Y-77487000D01*
X123663000Y-77184000D02*
X123663000Y-77184000D01*
X123852000Y-76965000D02*
X123776797Y-77010174D01*
X123776797Y-77010174D02*
X123725383Y-77080507D01*
X123725383Y-77080507D02*
X123678858Y-77156537D01*
X123678858Y-77156537D02*
X123663000Y-77184000D01*
X123663000Y-77184000D02*
X123617875Y-77263489D01*
X123617875Y-77263489D02*
X123575262Y-77341293D01*
X123575262Y-77341293D02*
X123536149Y-77423151D01*
X123536149Y-77423151D02*
X123548374Y-77532233D01*
X123548374Y-77532233D02*
X123621000Y-77562000D01*
X124959000Y-77490000D02*
X124885162Y-77443683D01*
X124885162Y-77443683D02*
X124808858Y-77398229D01*
X124808858Y-77398229D02*
X124730728Y-77353622D01*
X124730728Y-77353622D02*
X124652212Y-77310415D01*
X124652212Y-77310415D02*
X124568015Y-77265643D01*
X124568015Y-77265643D02*
X124488270Y-77224600D01*
X124488270Y-77224600D02*
X124406203Y-77183688D01*
X124406203Y-77183688D02*
X124322954Y-77143576D01*
X124322954Y-77143576D02*
X124238654Y-77104480D01*
X124238654Y-77104480D02*
X124155100Y-77067462D01*
X124155100Y-77067462D02*
X124069315Y-77031693D01*
X124069315Y-77031693D02*
X123981626Y-76998505D01*
X123981626Y-76998505D02*
X123888897Y-76970608D01*
X123888897Y-76970608D02*
X123852000Y-76965000D01*
X122148000Y-77589000D02*
X122111912Y-77673600D01*
X122111912Y-77673600D02*
X122075400Y-77763156D01*
X122075400Y-77763156D02*
X122041235Y-77850089D01*
X122041235Y-77850089D02*
X122008373Y-77937518D01*
X122008373Y-77937518D02*
X121980000Y-78027000D01*
X126495000Y-77505000D02*
X126453707Y-77425691D01*
X126453707Y-77425691D02*
X126410562Y-77346530D01*
X126410562Y-77346530D02*
X126366102Y-77270445D01*
X126366102Y-77270445D02*
X126342000Y-77238000D01*
X120570000Y-77292000D02*
X120855000Y-77229000D01*
X130470000Y-78720000D02*
X130353503Y-78723821D01*
X130353503Y-78723821D02*
X130239376Y-78732206D01*
X130239376Y-78732206D02*
X130129967Y-78743270D01*
X130129967Y-78743270D02*
X130022452Y-78756975D01*
X130022452Y-78756975D02*
X129917591Y-78773740D01*
X129917591Y-78773740D02*
X129900000Y-78777000D01*
X129588000Y-77877000D02*
X129510400Y-77924441D01*
X129510400Y-77924441D02*
X129435801Y-77970628D01*
X129435801Y-77970628D02*
X129360407Y-78018071D01*
X129360407Y-78018071D02*
X129286784Y-78065379D01*
X129286784Y-78065379D02*
X129212971Y-78114143D01*
X129212971Y-78114143D02*
X129141662Y-78163012D01*
X129141662Y-78163012D02*
X129071255Y-78213716D01*
X129071255Y-78213716D02*
X129003378Y-78266091D01*
X129003378Y-78266091D02*
X128938370Y-78321460D01*
X128938370Y-78321460D02*
X128877750Y-78381345D01*
X128877750Y-78381345D02*
X128823360Y-78449625D01*
X128823360Y-78449625D02*
X128781875Y-78529149D01*
X128781875Y-78529149D02*
X128760899Y-78628704D01*
X128760899Y-78628704D02*
X128760000Y-78657000D01*
X127641000Y-77832000D02*
X127700670Y-77768220D01*
X127700670Y-77768220D02*
X127762108Y-77707924D01*
X127762108Y-77707924D02*
X127826776Y-77649164D01*
X127826776Y-77649164D02*
X127893039Y-77593073D01*
X127893039Y-77593073D02*
X127960670Y-77539449D01*
X127960670Y-77539449D02*
X128029803Y-77487902D01*
X128029803Y-77487902D02*
X128100958Y-77437873D01*
X128100958Y-77437873D02*
X128173598Y-77389625D01*
X128173598Y-77389625D02*
X128247761Y-77343023D01*
X128247761Y-77343023D02*
X128329647Y-77294426D01*
X128329647Y-77294426D02*
X128408770Y-77250102D01*
X128408770Y-77250102D02*
X128489107Y-77207581D01*
X128489107Y-77207581D02*
X128570426Y-77166950D01*
X128570426Y-77166950D02*
X128652507Y-77128304D01*
X128652507Y-77128304D02*
X128739648Y-77089792D01*
X128739648Y-77089792D02*
X128825821Y-77054213D01*
X128825821Y-77054213D02*
X128914002Y-77020358D01*
X128914002Y-77020358D02*
X129007141Y-76987422D01*
X129007141Y-76987422D02*
X129099728Y-76957605D01*
X129099728Y-76957605D02*
X129193973Y-76930348D01*
X129193973Y-76930348D02*
X129291930Y-76905488D01*
X129291930Y-76905488D02*
X129392934Y-76883813D01*
X129392934Y-76883813D02*
X129496180Y-76866203D01*
X129496180Y-76866203D02*
X129605249Y-76853205D01*
X129605249Y-76853205D02*
X129719936Y-76846782D01*
X129719936Y-76846782D02*
X129837590Y-76849653D01*
X129837590Y-76849653D02*
X129944306Y-76862989D01*
X129944306Y-76862989D02*
X129987000Y-76872000D01*
X129105000Y-76737000D02*
X129105000Y-76737000D01*
X122118000Y-77187000D02*
X122289000Y-76923000D01*
X122649000Y-76758000D02*
X122649000Y-76758000D01*
X129900000Y-78777000D02*
X129794669Y-78794370D01*
X129794669Y-78794370D02*
X129688068Y-78809622D01*
X129688068Y-78809622D02*
X129578890Y-78822225D01*
X129578890Y-78822225D02*
X129466303Y-78831049D01*
X129466303Y-78831049D02*
X129348512Y-78833922D01*
X129348512Y-78833922D02*
X129234022Y-78826886D01*
X129234022Y-78826886D02*
X129134717Y-78805971D01*
X129134717Y-78805971D02*
X129069000Y-78774000D01*
X119805000Y-77526000D02*
X119902151Y-77501917D01*
X119902151Y-77501917D02*
X119991468Y-77470768D01*
X119991468Y-77470768D02*
X120051000Y-77448000D01*
X122340000Y-77211000D02*
X122434906Y-77236265D01*
X122434906Y-77236265D02*
X122481000Y-77244000D01*
X122289000Y-76923000D02*
X122457000Y-76662000D01*
X130785000Y-79629000D02*
X130900310Y-79624044D01*
X130900310Y-79624044D02*
X130943837Y-79547118D01*
X130943837Y-79547118D02*
X130975277Y-79457413D01*
X130975277Y-79457413D02*
X130986000Y-79419000D01*
X130500000Y-78912000D02*
X130612130Y-78920312D01*
X130612130Y-78920312D02*
X130704946Y-78948844D01*
X130704946Y-78948844D02*
X130771924Y-79001884D01*
X130771924Y-79001884D02*
X130810449Y-79083981D01*
X130810449Y-79083981D02*
X130818572Y-79196527D01*
X130818572Y-79196527D02*
X130804811Y-79304056D01*
X130804811Y-79304056D02*
X130788000Y-79380000D01*
X121080000Y-76848000D02*
X121121811Y-76769760D01*
X121121811Y-76769760D02*
X121116000Y-76752000D01*
X120936000Y-77088000D02*
X120981452Y-77010722D01*
X120981452Y-77010722D02*
X121028252Y-76932949D01*
X121028252Y-76932949D02*
X121076841Y-76853167D01*
X121076841Y-76853167D02*
X121080000Y-76848000D01*
X120051000Y-77448000D02*
X120142032Y-77415955D01*
X120142032Y-77415955D02*
X120233972Y-77386025D01*
X120233972Y-77386025D02*
X120328023Y-77357198D01*
X120328023Y-77357198D02*
X120425020Y-77329278D01*
X120425020Y-77329278D02*
X120521239Y-77303767D01*
X120521239Y-77303767D02*
X120570000Y-77292000D01*
X120282000Y-77025000D02*
X120197673Y-77062802D01*
X120197673Y-77062802D02*
X120115764Y-77102240D01*
X120115764Y-77102240D02*
X120040391Y-77148038D01*
X120040391Y-77148038D02*
X119979622Y-77207375D01*
X119979622Y-77207375D02*
X119931273Y-77279334D01*
X119931273Y-77279334D02*
X119901000Y-77331000D01*
X122061000Y-76662000D02*
X121939908Y-76662879D01*
X121939908Y-76662879D02*
X121822067Y-76665417D01*
X121822067Y-76665417D02*
X121705264Y-76669887D01*
X121705264Y-76669887D02*
X121592597Y-76677550D01*
X121592597Y-76677550D02*
X121551000Y-76683000D01*
X120822000Y-76830000D02*
X120729398Y-76858265D01*
X120729398Y-76858265D02*
X120637334Y-76888880D01*
X120637334Y-76888880D02*
X120545093Y-76921396D01*
X120545093Y-76921396D02*
X120456369Y-76954299D01*
X120456369Y-76954299D02*
X120369729Y-76988186D01*
X120369729Y-76988186D02*
X120285087Y-77023640D01*
X120285087Y-77023640D02*
X120282000Y-77025000D01*
X121551000Y-76683000D02*
X121551000Y-76683000D01*
X128877000Y-78882000D02*
X128942992Y-78936458D01*
X128942992Y-78936458D02*
X129016800Y-78983502D01*
X129016800Y-78983502D02*
X129090000Y-79014000D01*
X130368000Y-77223000D02*
X130328615Y-77303661D01*
X130328615Y-77303661D02*
X130274544Y-77370589D01*
X130274544Y-77370589D02*
X130214351Y-77431241D01*
X130214351Y-77431241D02*
X130149579Y-77488868D01*
X130149579Y-77488868D02*
X130082933Y-77543197D01*
X130082933Y-77543197D02*
X130014302Y-77595560D01*
X130014302Y-77595560D02*
X129944049Y-77646375D01*
X129944049Y-77646375D02*
X129872983Y-77695543D01*
X129872983Y-77695543D02*
X129796887Y-77746173D01*
X129796887Y-77746173D02*
X129723425Y-77793407D01*
X129723425Y-77793407D02*
X129645950Y-77841728D01*
X129645950Y-77841728D02*
X129588000Y-77877000D01*
X122925000Y-76710000D02*
X122817722Y-76696638D01*
X122817722Y-76696638D02*
X122713165Y-76712668D01*
X122713165Y-76712668D02*
X122649000Y-76758000D01*
X122457000Y-76662000D02*
X122061000Y-76662000D01*
X127194000Y-78744000D02*
X127221226Y-78646896D01*
X127221226Y-78646896D02*
X127250799Y-78554959D01*
X127250799Y-78554959D02*
X127282938Y-78465820D01*
X127282938Y-78465820D02*
X127317940Y-78378106D01*
X127317940Y-78378106D02*
X127354606Y-78294415D01*
X127354606Y-78294415D02*
X127394326Y-78211507D01*
X127394326Y-78211507D02*
X127437950Y-78128401D01*
X127437950Y-78128401D02*
X127482174Y-78051691D01*
X127482174Y-78051691D02*
X127529818Y-77976859D01*
X127529818Y-77976859D02*
X127580584Y-77905595D01*
X127580584Y-77905595D02*
X127635198Y-77838531D01*
X127635198Y-77838531D02*
X127641000Y-77832000D01*
X129069000Y-78774000D02*
X129005289Y-78716950D01*
X129005289Y-78716950D02*
X128970707Y-78631423D01*
X128970707Y-78631423D02*
X129006696Y-78547277D01*
X129006696Y-78547277D02*
X129064419Y-78484019D01*
X129064419Y-78484019D02*
X129129976Y-78427334D01*
X129129976Y-78427334D02*
X129198443Y-78374832D01*
X129198443Y-78374832D02*
X129269749Y-78323949D01*
X129269749Y-78323949D02*
X129343036Y-78274070D01*
X129343036Y-78274070D02*
X129418220Y-78224561D01*
X129418220Y-78224561D02*
X129493419Y-78176200D01*
X129493419Y-78176200D02*
X129571063Y-78127128D01*
X129571063Y-78127128D02*
X129645781Y-78080508D01*
X129645781Y-78080508D02*
X129720737Y-78034186D01*
X129720737Y-78034186D02*
X129795163Y-77988523D01*
X129795163Y-77988523D02*
X129855000Y-77952000D01*
X129090000Y-79014000D02*
X129197269Y-79026918D01*
X129197269Y-79026918D02*
X129313869Y-79031088D01*
X129313869Y-79031088D02*
X129432911Y-79029138D01*
X129432911Y-79029138D02*
X129547645Y-79023038D01*
X129547645Y-79023038D02*
X129659205Y-79013937D01*
X129659205Y-79013937D02*
X129770042Y-79002229D01*
X129770042Y-79002229D02*
X129877428Y-78988584D01*
X129877428Y-78988584D02*
X129983305Y-78973049D01*
X129983305Y-78973049D02*
X129990000Y-78972000D01*
X123579000Y-76872000D02*
X123490838Y-76840041D01*
X123490838Y-76840041D02*
X123392968Y-76814664D01*
X123392968Y-76814664D02*
X123294101Y-76791099D01*
X123294101Y-76791099D02*
X123191128Y-76767674D01*
X123191128Y-76767674D02*
X123091888Y-76745783D01*
X123091888Y-76745783D02*
X122988783Y-76723550D01*
X122988783Y-76723550D02*
X122925000Y-76710000D01*
X122481000Y-77244000D02*
X122584742Y-77262718D01*
X122584742Y-77262718D02*
X122684531Y-77283782D01*
X122684531Y-77283782D02*
X122786262Y-77306560D01*
X122786262Y-77306560D02*
X122886478Y-77329941D01*
X122886478Y-77329941D02*
X122984804Y-77353749D01*
X122984804Y-77353749D02*
X123083611Y-77378739D01*
X123083611Y-77378739D02*
X123178117Y-77404357D01*
X123178117Y-77404357D02*
X123240000Y-77424000D01*
X121287000Y-76911000D02*
X121237373Y-76984358D01*
X121237373Y-76984358D02*
X121189876Y-77058581D01*
X121189876Y-77058581D02*
X121146488Y-77135200D01*
X121146488Y-77135200D02*
X121140000Y-77154000D01*
X121551000Y-76683000D02*
X121459025Y-76712029D01*
X121459025Y-76712029D02*
X121394864Y-76768453D01*
X121394864Y-76768453D02*
X121340460Y-76836708D01*
X121340460Y-76836708D02*
X121289257Y-76907797D01*
X121289257Y-76907797D02*
X121287000Y-76911000D01*
X125643000Y-76905000D02*
X125643000Y-76905000D01*
X130467000Y-76920000D02*
X130407205Y-76858458D01*
X130407205Y-76858458D02*
X130339141Y-76806467D01*
X130339141Y-76806467D02*
X130264945Y-76760416D01*
X130264945Y-76760416D02*
X130184385Y-76719326D01*
X130184385Y-76719326D02*
X130097075Y-76684298D01*
X130097075Y-76684298D02*
X130017000Y-76662000D01*
X129987000Y-76872000D02*
X130078333Y-76901530D01*
X130078333Y-76901530D02*
X130158803Y-76941198D01*
X130158803Y-76941198D02*
X130230785Y-76989568D01*
X130230785Y-76989568D02*
X130293824Y-77046671D01*
X130293824Y-77046671D02*
X130345238Y-77115372D01*
X130345238Y-77115372D02*
X130369951Y-77211034D01*
X130369951Y-77211034D02*
X130368000Y-77223000D01*
X129990000Y-78972000D02*
X130095259Y-78955975D01*
X130095259Y-78955975D02*
X130201487Y-78941256D01*
X130201487Y-78941256D02*
X130308420Y-78927999D01*
X130308420Y-78927999D02*
X130418603Y-78916662D01*
X130418603Y-78916662D02*
X130500000Y-78912000D01*
X119901000Y-77331000D02*
X119856802Y-77407098D01*
X119856802Y-77407098D02*
X119816059Y-77486731D01*
X119816059Y-77486731D02*
X119805000Y-77526000D01*
X121629000Y-77187000D02*
X122118000Y-77187000D01*
X121140000Y-77154000D02*
X121237189Y-77177873D01*
X121237189Y-77177873D02*
X121351573Y-77183692D01*
X121351573Y-77183692D02*
X121470579Y-77186139D01*
X121470579Y-77186139D02*
X121589847Y-77186954D01*
X121589847Y-77186954D02*
X121629000Y-77187000D01*
X130986000Y-79419000D02*
X131008191Y-79320920D01*
X131008191Y-79320920D02*
X131021359Y-79212937D01*
X131021359Y-79212937D02*
X131018597Y-79095220D01*
X131018597Y-79095220D02*
X130997226Y-78995919D01*
X130997226Y-78995919D02*
X130959453Y-78912833D01*
X130959453Y-78912833D02*
X130906766Y-78844654D01*
X130906766Y-78844654D02*
X130840568Y-78790779D01*
X130840568Y-78790779D02*
X130833000Y-78786000D01*
X128760000Y-78657000D02*
X128777430Y-78760036D01*
X128777430Y-78760036D02*
X128826931Y-78831827D01*
X128826931Y-78831827D02*
X128877000Y-78882000D01*
X130788000Y-79380000D02*
X130763919Y-79476600D01*
X130763919Y-79476600D02*
X130755751Y-79588504D01*
X130755751Y-79588504D02*
X130785000Y-79629000D01*
X130833000Y-78786000D02*
X130753590Y-78745248D01*
X130753590Y-78745248D02*
X130654225Y-78724352D01*
X130654225Y-78724352D02*
X130537960Y-78719600D01*
X130537960Y-78719600D02*
X130470000Y-78720000D01*
X129855000Y-77952000D02*
X129929659Y-77905754D01*
X129929659Y-77905754D02*
X130002812Y-77858808D01*
X130002812Y-77858808D02*
X130074809Y-77810652D01*
X130074809Y-77810652D02*
X130146525Y-77760264D01*
X130146525Y-77760264D02*
X130215413Y-77708923D01*
X130215413Y-77708923D02*
X130283304Y-77654560D01*
X130283304Y-77654560D02*
X130347398Y-77598435D01*
X130347398Y-77598435D02*
X130408367Y-77538621D01*
X130408367Y-77538621D02*
X130465441Y-77473347D01*
X130465441Y-77473347D02*
X130515564Y-77401933D01*
X130515564Y-77401933D02*
X130555589Y-77320802D01*
X130555589Y-77320802D02*
X130578326Y-77222731D01*
X130578326Y-77222731D02*
X130568538Y-77110335D01*
X130568538Y-77110335D02*
X130534635Y-77022879D01*
X130534635Y-77022879D02*
X130488654Y-76948590D01*
X130488654Y-76948590D02*
X130467000Y-76920000D01*
X123444000Y-77169000D02*
X123487974Y-77092700D01*
X123487974Y-77092700D02*
X123529860Y-77012996D01*
X123529860Y-77012996D02*
X123567212Y-76930137D01*
X123567212Y-76930137D02*
X123579000Y-76872000D01*
X123240000Y-77424000D02*
X123312006Y-77375894D01*
X123312006Y-77375894D02*
X123361843Y-77305110D01*
X123361843Y-77305110D02*
X123407996Y-77230496D01*
X123407996Y-77230496D02*
X123444000Y-77169000D01*
X122649000Y-76758000D02*
X122596403Y-76825666D01*
X122596403Y-76825666D02*
X122545430Y-76896351D01*
X122545430Y-76896351D02*
X122494983Y-76968503D01*
X122494983Y-76968503D02*
X122446112Y-77040122D01*
X122446112Y-77040122D02*
X122397020Y-77114132D01*
X122397020Y-77114132D02*
X122350530Y-77188738D01*
X122350530Y-77188738D02*
X122340000Y-77211000D01*
X130017000Y-76662000D02*
X129910999Y-76647067D01*
X129910999Y-76647067D02*
X129794624Y-76641965D01*
X129794624Y-76641965D02*
X129677006Y-76644469D01*
X129677006Y-76644469D02*
X129562556Y-76652630D01*
X129562556Y-76652630D02*
X129454197Y-76664973D01*
X129454197Y-76664973D02*
X129347693Y-76681395D01*
X129347693Y-76681395D02*
X129247241Y-76701028D01*
X129247241Y-76701028D02*
X129149667Y-76724522D01*
X129149667Y-76724522D02*
X129105000Y-76737000D01*
X125334000Y-77772000D02*
X125281620Y-77841005D01*
X125281620Y-77841005D02*
X125235035Y-77916188D01*
X125235035Y-77916188D02*
X125202000Y-77973000D01*
X125256000Y-78579000D02*
X125319582Y-78637602D01*
X125319582Y-78637602D02*
X125382869Y-78694350D01*
X125382869Y-78694350D02*
X125448884Y-78749837D01*
X125448884Y-78749837D02*
X125522439Y-78796512D01*
X125522439Y-78796512D02*
X125553000Y-78789000D01*
X121812000Y-79002000D02*
X121807707Y-79119128D01*
X121807707Y-79119128D02*
X121807815Y-79240968D01*
X121807815Y-79240968D02*
X121811347Y-79358110D01*
X121811347Y-79358110D02*
X121817845Y-79472374D01*
X121817845Y-79472374D02*
X121827493Y-79583732D01*
X121827493Y-79583732D02*
X121841345Y-79690752D01*
X121841345Y-79690752D02*
X121864319Y-79787917D01*
X121864319Y-79787917D02*
X121875000Y-79806000D01*
X121908000Y-78273000D02*
X121884592Y-78370476D01*
X121884592Y-78370476D02*
X121865943Y-78473923D01*
X121865943Y-78473923D02*
X121850616Y-78578982D01*
X121850616Y-78578982D02*
X121837627Y-78686455D01*
X121837627Y-78686455D02*
X121826633Y-78796783D01*
X121826633Y-78796783D02*
X121817404Y-78913199D01*
X121817404Y-78913199D02*
X121812000Y-79002000D01*
X120267000Y-79617000D02*
X120378000Y-79656000D01*
X121632000Y-79644000D02*
X121621826Y-79532717D01*
X121621826Y-79532717D02*
X121615357Y-79415906D01*
X121615357Y-79415906D02*
X121612033Y-79294943D01*
X121612033Y-79294943D02*
X121611556Y-79173625D01*
X121611556Y-79173625D02*
X121613601Y-79055310D01*
X121613601Y-79055310D02*
X121618328Y-78931974D01*
X121618328Y-78931974D02*
X121625186Y-78818236D01*
X121625186Y-78818236D02*
X121634663Y-78705816D01*
X121634663Y-78705816D02*
X121647183Y-78595750D01*
X121647183Y-78595750D02*
X121662000Y-78498000D01*
X121662000Y-78498000D02*
X121680074Y-78395297D01*
X121680074Y-78395297D02*
X121697508Y-78291547D01*
X121697508Y-78291547D02*
X121710000Y-78210000D01*
X124680000Y-78396000D02*
X124624112Y-78331004D01*
X124624112Y-78331004D02*
X124555024Y-78279473D01*
X124555024Y-78279473D02*
X124482667Y-78231065D01*
X124482667Y-78231065D02*
X124406516Y-78183226D01*
X124406516Y-78183226D02*
X124330289Y-78137438D01*
X124330289Y-78137438D02*
X124253907Y-78093149D01*
X124253907Y-78093149D02*
X124175964Y-78049326D01*
X124175964Y-78049326D02*
X124096912Y-78006141D01*
X124096912Y-78006141D02*
X124016197Y-77963290D01*
X124016197Y-77963290D02*
X123934948Y-77921434D01*
X123934948Y-77921434D02*
X123851911Y-77880065D01*
X123851911Y-77880065D02*
X123768692Y-77840227D01*
X123768692Y-77840227D02*
X123684338Y-77801882D01*
X123684338Y-77801882D02*
X123598876Y-77765887D01*
X123598876Y-77765887D02*
X123510916Y-77733760D01*
X123510916Y-77733760D02*
X123429000Y-77715000D01*
X120720000Y-77478000D02*
X120607525Y-77486904D01*
X120607525Y-77486904D02*
X120509810Y-77511048D01*
X120509810Y-77511048D02*
X120415544Y-77537660D01*
X120415544Y-77537660D02*
X120322415Y-77566179D01*
X120322415Y-77566179D02*
X120243000Y-77592000D01*
X120378000Y-79656000D02*
X120378000Y-79200000D01*
X119403000Y-78687000D02*
X119387392Y-78793110D01*
X119387392Y-78793110D02*
X119373615Y-78900701D01*
X119373615Y-78900701D02*
X119369154Y-79016262D01*
X119369154Y-79016262D02*
X119396084Y-79109530D01*
X119396084Y-79109530D02*
X119453597Y-79172336D01*
X119453597Y-79172336D02*
X119523542Y-79223132D01*
X119523542Y-79223132D02*
X119598000Y-79272000D01*
X119811000Y-78339000D02*
X119713619Y-78365185D01*
X119713619Y-78365185D02*
X119618847Y-78391846D01*
X119618847Y-78391846D02*
X119529972Y-78423030D01*
X119529972Y-78423030D02*
X119458893Y-78472570D01*
X119458893Y-78472570D02*
X119423784Y-78557897D01*
X119423784Y-78557897D02*
X119406701Y-78662186D01*
X119406701Y-78662186D02*
X119403000Y-78687000D01*
X125202000Y-77973000D02*
X125158484Y-78052814D01*
X125158484Y-78052814D02*
X125113202Y-78131176D01*
X125113202Y-78131176D02*
X125067570Y-78205814D01*
X125067570Y-78205814D02*
X125037000Y-78252000D01*
X120579000Y-79311000D02*
X120584475Y-79427586D01*
X120584475Y-79427586D02*
X120591089Y-79541303D01*
X120591089Y-79541303D02*
X120600221Y-79652498D01*
X120600221Y-79652498D02*
X120612000Y-79713000D01*
X124986000Y-78330000D02*
X125256000Y-78579000D01*
X123210000Y-78327000D02*
X123260957Y-78396821D01*
X123260957Y-78396821D02*
X123336474Y-78442028D01*
X123336474Y-78442028D02*
X123418268Y-78481700D01*
X123418268Y-78481700D02*
X123441000Y-78492000D01*
X123348000Y-77838000D02*
X123348000Y-77838000D01*
X120507000Y-77985000D02*
X120552187Y-77909413D01*
X120552187Y-77909413D02*
X120590439Y-77827423D01*
X120590439Y-77827423D02*
X120627643Y-77741490D01*
X120627643Y-77741490D02*
X120662873Y-77654832D01*
X120662873Y-77654832D02*
X120695531Y-77567438D01*
X120695531Y-77567438D02*
X120720000Y-77478000D01*
X120255000Y-78240000D02*
X120151615Y-78259146D01*
X120151615Y-78259146D02*
X120050420Y-78280392D01*
X120050420Y-78280392D02*
X119949501Y-78303475D01*
X119949501Y-78303475D02*
X119852977Y-78327579D01*
X119852977Y-78327579D02*
X119811000Y-78339000D01*
X124254000Y-78855000D02*
X124320548Y-78800805D01*
X124320548Y-78800805D02*
X124383767Y-78742041D01*
X124383767Y-78742041D02*
X124446737Y-78679423D01*
X124446737Y-78679423D02*
X124505615Y-78617818D01*
X124505615Y-78617818D02*
X124563336Y-78554364D01*
X124563336Y-78554364D02*
X124619614Y-78488323D01*
X124619614Y-78488323D02*
X124670622Y-78418743D01*
X124670622Y-78418743D02*
X124680000Y-78396000D01*
X120468000Y-78264000D02*
X120394542Y-78217337D01*
X120394542Y-78217337D02*
X120288000Y-78234360D01*
X120288000Y-78234360D02*
X120255000Y-78240000D01*
X123924000Y-78756000D02*
X124176000Y-78912000D01*
X125676000Y-78063000D02*
X125613783Y-78003230D01*
X125613783Y-78003230D02*
X125550934Y-77944158D01*
X125550934Y-77944158D02*
X125487634Y-77886545D01*
X125487634Y-77886545D02*
X125422271Y-77830307D01*
X125422271Y-77830307D02*
X125352915Y-77779567D01*
X125352915Y-77779567D02*
X125334000Y-77772000D01*
X125715000Y-78486000D02*
X125847000Y-78228000D01*
X123348000Y-77838000D02*
X123315970Y-77927122D01*
X123315970Y-77927122D02*
X123285335Y-78019093D01*
X123285335Y-78019093D02*
X123256774Y-78112529D01*
X123256774Y-78112529D02*
X123230918Y-78208136D01*
X123230918Y-78208136D02*
X123211099Y-78309018D01*
X123211099Y-78309018D02*
X123210000Y-78327000D01*
X121656000Y-79851000D02*
X121632000Y-79644000D01*
X125847000Y-78228000D02*
X125676000Y-78063000D01*
X125202000Y-77973000D02*
X125202000Y-77973000D01*
X120687000Y-78243000D02*
X120687000Y-78243000D01*
X124176000Y-78912000D02*
X124254000Y-78855000D01*
X121344000Y-79830000D02*
X121656000Y-79851000D01*
X123441000Y-78492000D02*
X123522804Y-78531206D01*
X123522804Y-78531206D02*
X123602803Y-78572352D01*
X123602803Y-78572352D02*
X123687258Y-78617824D01*
X123687258Y-78617824D02*
X123765105Y-78661361D01*
X123765105Y-78661361D02*
X123841823Y-78705898D01*
X123841823Y-78705898D02*
X123916647Y-78751379D01*
X123916647Y-78751379D02*
X123924000Y-78756000D01*
X120720000Y-78162000D02*
X120687000Y-78243000D01*
X120687000Y-78243000D02*
X120659239Y-78335719D01*
X120659239Y-78335719D02*
X120637939Y-78435668D01*
X120637939Y-78435668D02*
X120620953Y-78538691D01*
X120620953Y-78538691D02*
X120606629Y-78648493D01*
X120606629Y-78648493D02*
X120595388Y-78758148D01*
X120595388Y-78758148D02*
X120586581Y-78871221D01*
X120586581Y-78871221D02*
X120580271Y-78988659D01*
X120580271Y-78988659D02*
X120576847Y-79108948D01*
X120576847Y-79108948D02*
X120576804Y-79229661D01*
X120576804Y-79229661D02*
X120579000Y-79311000D01*
X121875000Y-79806000D02*
X121993593Y-79803525D01*
X121993593Y-79803525D02*
X122099050Y-79788467D01*
X122099050Y-79788467D02*
X122206271Y-79770078D01*
X122206271Y-79770078D02*
X122307929Y-79750651D01*
X122307929Y-79750651D02*
X122407430Y-79729951D01*
X122407430Y-79729951D02*
X122508471Y-79707108D01*
X122508471Y-79707108D02*
X122605649Y-79682936D01*
X122605649Y-79682936D02*
X122691000Y-79659000D01*
X120378000Y-79200000D02*
X120379777Y-79081552D01*
X120379777Y-79081552D02*
X120383415Y-78964840D01*
X120383415Y-78964840D02*
X120389085Y-78850275D01*
X120389085Y-78850275D02*
X120397050Y-78737332D01*
X120397050Y-78737332D02*
X120407814Y-78624138D01*
X120407814Y-78624138D02*
X120421417Y-78514398D01*
X120421417Y-78514398D02*
X120437823Y-78410119D01*
X120437823Y-78410119D02*
X120457784Y-78308530D01*
X120457784Y-78308530D02*
X120468000Y-78264000D01*
X121101000Y-78168000D02*
X120720000Y-78162000D01*
X121710000Y-78210000D02*
X121613125Y-78185882D01*
X121613125Y-78185882D02*
X121500949Y-78177773D01*
X121500949Y-78177773D02*
X121384184Y-78173007D01*
X121384184Y-78173007D02*
X121266075Y-78170097D01*
X121266075Y-78170097D02*
X121144946Y-78168380D01*
X121144946Y-78168380D02*
X121101000Y-78168000D01*
X120612000Y-79713000D02*
X120701855Y-79743525D01*
X120701855Y-79743525D02*
X120802394Y-79763907D01*
X120802394Y-79763907D02*
X120908468Y-79781499D01*
X120908468Y-79781499D02*
X121014919Y-79796619D01*
X121014919Y-79796619D02*
X121122527Y-79809772D01*
X121122527Y-79809772D02*
X121233807Y-79821175D01*
X121233807Y-79821175D02*
X121344000Y-79830000D01*
X125553000Y-78789000D02*
X125597431Y-78712767D01*
X125597431Y-78712767D02*
X125640641Y-78631568D01*
X125640641Y-78631568D02*
X125682282Y-78550822D01*
X125682282Y-78550822D02*
X125715000Y-78486000D01*
X120243000Y-77592000D02*
X120243000Y-77592000D01*
X122148000Y-77589000D02*
X122148000Y-77589000D01*
X125037000Y-78252000D02*
X124986000Y-78330000D01*
X123429000Y-77715000D02*
X123373893Y-77780635D01*
X123373893Y-77780635D02*
X123348000Y-77838000D01*
X119598000Y-79272000D02*
X119672689Y-79319372D01*
X119672689Y-79319372D02*
X119748986Y-79365504D01*
X119748986Y-79365504D02*
X119827848Y-79410844D01*
X119827848Y-79410844D02*
X119906779Y-79453850D01*
X119906779Y-79453850D02*
X119988594Y-79495878D01*
X119988594Y-79495878D02*
X120071908Y-79535884D01*
X120071908Y-79535884D02*
X120155251Y-79572859D01*
X120155251Y-79572859D02*
X120242426Y-79607881D01*
X120242426Y-79607881D02*
X120267000Y-79617000D01*
X119811000Y-78339000D02*
X119811000Y-78339000D01*
X127104000Y-78924000D02*
X127163465Y-78861759D01*
X127163465Y-78861759D02*
X127189188Y-78762961D01*
X127189188Y-78762961D02*
X127194000Y-78744000D01*
X127554000Y-77628000D02*
X127494856Y-77690551D01*
X127494856Y-77690551D02*
X127437682Y-77756617D01*
X127437682Y-77756617D02*
X127384640Y-77824968D01*
X127384640Y-77824968D02*
X127335492Y-77896324D01*
X127335492Y-77896324D02*
X127289101Y-77972119D01*
X127289101Y-77972119D02*
X127246014Y-78050261D01*
X127246014Y-78050261D02*
X127209000Y-78123000D01*
X122622000Y-76467000D02*
X122787000Y-76305000D01*
X127074000Y-78624000D02*
X127080054Y-78738171D01*
X127080054Y-78738171D02*
X127091313Y-78849037D01*
X127091313Y-78849037D02*
X127104000Y-78924000D01*
X126159000Y-76962000D02*
X126078000Y-76860000D01*
X125937000Y-78009000D02*
X126000000Y-77808000D01*
X122004000Y-75642000D02*
X122004000Y-75642000D01*
X120330000Y-76752000D02*
X120435527Y-76736605D01*
X120435527Y-76736605D02*
X120529737Y-76708847D01*
X120529737Y-76708847D02*
X120591000Y-76689000D01*
X127209000Y-78123000D02*
X127168445Y-78205608D01*
X127168445Y-78205608D02*
X127129917Y-78287669D01*
X127129917Y-78287669D02*
X127095518Y-78374008D01*
X127095518Y-78374008D02*
X127074168Y-78473329D01*
X127074168Y-78473329D02*
X127072740Y-78593588D01*
X127072740Y-78593588D02*
X127074000Y-78624000D01*
X126111000Y-77286000D02*
X126159000Y-76962000D01*
X125466000Y-77400000D02*
X125403000Y-77553000D01*
X125775000Y-76548000D02*
X125738440Y-76634522D01*
X125738440Y-76634522D02*
X125705921Y-76722897D01*
X125705921Y-76722897D02*
X125674262Y-76812865D01*
X125674262Y-76812865D02*
X125643737Y-76902785D01*
X125643737Y-76902785D02*
X125643000Y-76905000D01*
X122910000Y-76482000D02*
X122995594Y-76517093D01*
X122995594Y-76517093D02*
X123094506Y-76538734D01*
X123094506Y-76538734D02*
X123096000Y-76539000D01*
X123930000Y-75726000D02*
X123848814Y-75767574D01*
X123848814Y-75767574D02*
X123769286Y-75811018D01*
X123769286Y-75811018D02*
X123691532Y-75855467D01*
X123691532Y-75855467D02*
X123616336Y-75900294D01*
X123616336Y-75900294D02*
X123542152Y-75946735D01*
X123542152Y-75946735D02*
X123495000Y-75978000D01*
X129105000Y-76737000D02*
X129010180Y-76766383D01*
X129010180Y-76766383D02*
X128920253Y-76797173D01*
X128920253Y-76797173D02*
X128828049Y-76831548D01*
X128828049Y-76831548D02*
X128739817Y-76867004D01*
X128739817Y-76867004D02*
X128655013Y-76903391D01*
X128655013Y-76903391D02*
X128570078Y-76942077D01*
X128570078Y-76942077D02*
X128487370Y-76981915D01*
X128487370Y-76981915D02*
X128407508Y-77022438D01*
X128407508Y-77022438D02*
X128327795Y-77064953D01*
X128327795Y-77064953D02*
X128250103Y-77108454D01*
X128250103Y-77108454D02*
X128173828Y-77153239D01*
X128173828Y-77153239D02*
X128099199Y-77199188D01*
X128099199Y-77199188D02*
X128025693Y-77246661D01*
X128025693Y-77246661D02*
X127952161Y-77296566D01*
X127952161Y-77296566D02*
X127879771Y-77348329D01*
X127879771Y-77348329D02*
X127810289Y-77400809D01*
X127810289Y-77400809D02*
X127742562Y-77455023D01*
X127742562Y-77455023D02*
X127676360Y-77511504D01*
X127676360Y-77511504D02*
X127609768Y-77572606D01*
X127609768Y-77572606D02*
X127554000Y-77628000D01*
X121095000Y-76554000D02*
X121335000Y-76506000D01*
X126078000Y-76860000D02*
X126023764Y-76790943D01*
X126023764Y-76790943D02*
X125967307Y-76724403D01*
X125967307Y-76724403D02*
X125909197Y-76660575D01*
X125909197Y-76660575D02*
X125849329Y-76600242D01*
X125849329Y-76600242D02*
X125782011Y-76547418D01*
X125782011Y-76547418D02*
X125775000Y-76548000D01*
X122148000Y-76458000D02*
X122622000Y-76467000D01*
X125670000Y-77781000D02*
X125937000Y-78009000D01*
X125232000Y-77409000D02*
X125274644Y-77330478D01*
X125274644Y-77330478D02*
X125310418Y-77244488D01*
X125310418Y-77244488D02*
X125344470Y-77155122D01*
X125344470Y-77155122D02*
X125377810Y-77062988D01*
X125377810Y-77062988D02*
X125409688Y-76971693D01*
X125409688Y-76971693D02*
X125440746Y-76880345D01*
X125440746Y-76880345D02*
X125471262Y-76788630D01*
X125471262Y-76788630D02*
X125500825Y-76698153D01*
X125500825Y-76698153D02*
X125531527Y-76602692D01*
X125531527Y-76602692D02*
X125561273Y-76508857D01*
X125561273Y-76508857D02*
X125591891Y-76411000D01*
X125591891Y-76411000D02*
X125595000Y-76401000D01*
X125403000Y-77553000D02*
X125670000Y-77781000D01*
X125643000Y-76905000D02*
X125611614Y-76997643D01*
X125611614Y-76997643D02*
X125579882Y-77088894D01*
X125579882Y-77088894D02*
X125547044Y-77181312D01*
X125547044Y-77181312D02*
X125515046Y-77269535D01*
X125515046Y-77269535D02*
X125482056Y-77358245D01*
X125482056Y-77358245D02*
X125466000Y-77400000D01*
X123831000Y-76599000D02*
X123887739Y-76531014D01*
X123887739Y-76531014D02*
X123945437Y-76464964D01*
X123945437Y-76464964D02*
X124004656Y-76400154D01*
X124004656Y-76400154D02*
X124063659Y-76338377D01*
X124063659Y-76338377D02*
X124124097Y-76277787D01*
X124124097Y-76277787D02*
X124187427Y-76216995D01*
X124187427Y-76216995D02*
X124250657Y-76158868D01*
X124250657Y-76158868D02*
X124316240Y-76101091D01*
X124316240Y-76101091D02*
X124382317Y-76045279D01*
X124382317Y-76045279D02*
X124443000Y-75996000D01*
X123930000Y-75726000D02*
X123930000Y-75726000D01*
X125031000Y-77298000D02*
X125105311Y-77343702D01*
X125105311Y-77343702D02*
X125182055Y-77387869D01*
X125182055Y-77387869D02*
X125232000Y-77409000D01*
X124200000Y-75615000D02*
X124107214Y-75643183D01*
X124107214Y-75643183D02*
X124023667Y-75680067D01*
X124023667Y-75680067D02*
X123942956Y-75719400D01*
X123942956Y-75719400D02*
X123930000Y-75726000D01*
X123516000Y-76638000D02*
X123750000Y-76698000D01*
X124659000Y-76086000D02*
X124590959Y-76139325D01*
X124590959Y-76139325D02*
X124524896Y-76194601D01*
X124524896Y-76194601D02*
X124460303Y-76250746D01*
X124460303Y-76250746D02*
X124393838Y-76310147D01*
X124393838Y-76310147D02*
X124329144Y-76369326D01*
X124329144Y-76369326D02*
X124265095Y-76429148D01*
X124265095Y-76429148D02*
X124202387Y-76488954D01*
X124202387Y-76488954D02*
X124140400Y-76549450D01*
X124140400Y-76549450D02*
X124080498Y-76609647D01*
X124080498Y-76609647D02*
X124021637Y-76671572D01*
X124021637Y-76671572D02*
X123966793Y-76737364D01*
X123966793Y-76737364D02*
X123960000Y-76752000D01*
X124659000Y-76086000D02*
X124659000Y-76086000D01*
X126000000Y-77808000D02*
X126025396Y-77712927D01*
X126025396Y-77712927D02*
X126048459Y-77614283D01*
X126048459Y-77614283D02*
X126069602Y-77515031D01*
X126069602Y-77515031D02*
X126089229Y-77414119D01*
X126089229Y-77414119D02*
X126107217Y-77310179D01*
X126107217Y-77310179D02*
X126111000Y-77286000D01*
X124917000Y-75912000D02*
X124841014Y-75956883D01*
X124841014Y-75956883D02*
X124769612Y-76005889D01*
X124769612Y-76005889D02*
X124698569Y-76056830D01*
X124698569Y-76056830D02*
X124659000Y-76086000D01*
X123078000Y-75555000D02*
X123078000Y-75555000D01*
X122004000Y-75642000D02*
X121914395Y-75673346D01*
X121914395Y-75673346D02*
X121826602Y-75706607D01*
X121826602Y-75706607D02*
X121739956Y-75741906D01*
X121739956Y-75741906D02*
X121654370Y-75779213D01*
X121654370Y-75779213D02*
X121571979Y-75817445D01*
X121571979Y-75817445D02*
X121488404Y-75858589D01*
X121488404Y-75858589D02*
X121408174Y-75900388D01*
X121408174Y-75900388D02*
X121329322Y-75943723D01*
X121329322Y-75943723D02*
X121251743Y-75988611D01*
X121251743Y-75988611D02*
X121173065Y-76036505D01*
X121173065Y-76036505D02*
X121098649Y-76084102D01*
X121098649Y-76084102D02*
X121026065Y-76132783D01*
X121026065Y-76132783D02*
X120953696Y-76183659D01*
X120953696Y-76183659D02*
X120883651Y-76235263D01*
X120883651Y-76235263D02*
X120814672Y-76288496D01*
X120814672Y-76288496D02*
X120746866Y-76343334D01*
X120746866Y-76343334D02*
X120681869Y-76398418D01*
X120681869Y-76398418D02*
X120617145Y-76455935D01*
X120617145Y-76455935D02*
X120576000Y-76494000D01*
X125595000Y-76401000D02*
X125542893Y-76332085D01*
X125542893Y-76332085D02*
X125478075Y-76275342D01*
X125478075Y-76275342D02*
X125411266Y-76221886D01*
X125411266Y-76221886D02*
X125338406Y-76166788D01*
X125338406Y-76166788D02*
X125265334Y-76114027D01*
X125265334Y-76114027D02*
X125193530Y-76064381D01*
X125193530Y-76064381D02*
X125120405Y-76016229D01*
X125120405Y-76016229D02*
X125045148Y-75969949D01*
X125045148Y-75969949D02*
X124966354Y-75927816D01*
X124966354Y-75927816D02*
X124917000Y-75912000D01*
X123960000Y-76752000D02*
X124033898Y-76798518D01*
X124033898Y-76798518D02*
X124117489Y-76836288D01*
X124117489Y-76836288D02*
X124131000Y-76842000D01*
X124131000Y-76842000D02*
X124216081Y-76877590D01*
X124216081Y-76877590D02*
X124301816Y-76915620D01*
X124301816Y-76915620D02*
X124387661Y-76955342D01*
X124387661Y-76955342D02*
X124469442Y-76994466D01*
X124469442Y-76994466D02*
X124554211Y-77036215D01*
X124554211Y-77036215D02*
X124634819Y-77077008D01*
X124634819Y-77077008D02*
X124715822Y-77119108D01*
X124715822Y-77119108D02*
X124795764Y-77161856D01*
X124795764Y-77161856D02*
X124873833Y-77204968D01*
X124873833Y-77204968D02*
X124950207Y-77248836D01*
X124950207Y-77248836D02*
X125025332Y-77294419D01*
X125025332Y-77294419D02*
X125031000Y-77298000D01*
X123750000Y-76698000D02*
X123831000Y-76599000D01*
X124653000Y-75783000D02*
X124573483Y-75741401D01*
X124573483Y-75741401D02*
X124487174Y-75705915D01*
X124487174Y-75705915D02*
X124399695Y-75673098D01*
X124399695Y-75673098D02*
X124308914Y-75642097D01*
X124308914Y-75642097D02*
X124214332Y-75616475D01*
X124214332Y-75616475D02*
X124200000Y-75615000D01*
X121335000Y-76506000D02*
X121620000Y-76230000D01*
X121620000Y-76230000D02*
X121682968Y-76170831D01*
X121682968Y-76170831D02*
X121749517Y-76111240D01*
X121749517Y-76111240D02*
X121814420Y-76055429D01*
X121814420Y-76055429D02*
X121880519Y-76000557D01*
X121880519Y-76000557D02*
X121948423Y-75946028D01*
X121948423Y-75946028D02*
X122017864Y-75892054D01*
X122017864Y-75892054D02*
X122087107Y-75839977D01*
X122087107Y-75839977D02*
X122158132Y-75788402D01*
X122158132Y-75788402D02*
X122228967Y-75738956D01*
X122228967Y-75738956D02*
X122301814Y-75690453D01*
X122301814Y-75690453D02*
X122375724Y-75644239D01*
X122375724Y-75644239D02*
X122453910Y-75599913D01*
X122453910Y-75599913D02*
X122496000Y-75579000D01*
X124443000Y-75996000D02*
X124511009Y-75942124D01*
X124511009Y-75942124D02*
X124575605Y-75886390D01*
X124575605Y-75886390D02*
X124635554Y-75825126D01*
X124635554Y-75825126D02*
X124653000Y-75783000D01*
X123495000Y-75978000D02*
X123424288Y-76027296D01*
X123424288Y-76027296D02*
X123353315Y-76080074D01*
X123353315Y-76080074D02*
X123285760Y-76132590D01*
X123285760Y-76132590D02*
X123217241Y-76187816D01*
X123217241Y-76187816D02*
X123150631Y-76243346D01*
X123150631Y-76243346D02*
X123085403Y-76299683D01*
X123085403Y-76299683D02*
X123020165Y-76358600D01*
X123020165Y-76358600D02*
X122958709Y-76418279D01*
X122958709Y-76418279D02*
X122910000Y-76482000D01*
X120591000Y-76689000D02*
X120682782Y-76660165D01*
X120682782Y-76660165D02*
X120779198Y-76631821D01*
X120779198Y-76631821D02*
X120875245Y-76605339D01*
X120875245Y-76605339D02*
X120972337Y-76580606D01*
X120972337Y-76580606D02*
X121071703Y-76558442D01*
X121071703Y-76558442D02*
X121095000Y-76554000D01*
X123096000Y-76539000D02*
X123196328Y-76560025D01*
X123196328Y-76560025D02*
X123296340Y-76582461D01*
X123296340Y-76582461D02*
X123393609Y-76605708D01*
X123393609Y-76605708D02*
X123489321Y-76630538D01*
X123489321Y-76630538D02*
X123516000Y-76638000D01*
X120576000Y-76494000D02*
X120514072Y-76553953D01*
X120514072Y-76553953D02*
X120453287Y-76614470D01*
X120453287Y-76614470D02*
X120393708Y-76676014D01*
X120393708Y-76676014D02*
X120337230Y-76739775D01*
X120337230Y-76739775D02*
X120330000Y-76752000D01*
X122496000Y-75579000D02*
X122574474Y-75537039D01*
X122574474Y-75537039D02*
X122469161Y-75521298D01*
X122469161Y-75521298D02*
X122366799Y-75540783D01*
X122366799Y-75540783D02*
X122268829Y-75563987D01*
X122268829Y-75563987D02*
X122173100Y-75589792D01*
X122173100Y-75589792D02*
X122080258Y-75617431D01*
X122080258Y-75617431D02*
X122004000Y-75642000D01*
X122280000Y-81024000D02*
X122391241Y-81033623D01*
X122391241Y-81033623D02*
X122495148Y-81015782D01*
X122495148Y-81015782D02*
X122499000Y-81015000D01*
X120432000Y-79914000D02*
X120361551Y-79864019D01*
X120361551Y-79864019D02*
X120274653Y-79830378D01*
X120274653Y-79830378D02*
X120264000Y-79827000D01*
X119415000Y-79848000D02*
X119432954Y-79950740D01*
X119432954Y-79950740D02*
X119452730Y-80052778D01*
X119452730Y-80052778D02*
X119475068Y-80154967D01*
X119475068Y-80154967D02*
X119499411Y-80251698D01*
X119499411Y-80251698D02*
X119527360Y-80345542D01*
X119527360Y-80345542D02*
X119559754Y-80433507D01*
X119559754Y-80433507D02*
X119599545Y-80514488D01*
X119599545Y-80514488D02*
X119652329Y-80582349D01*
X119652329Y-80582349D02*
X119664000Y-80592000D01*
X122538000Y-79902000D02*
X122441564Y-79926283D01*
X122441564Y-79926283D02*
X122344035Y-79949009D01*
X122344035Y-79949009D02*
X122244372Y-79970137D01*
X122244372Y-79970137D02*
X122141466Y-79988298D01*
X122141466Y-79988298D02*
X122103000Y-79992000D01*
X120768000Y-81033000D02*
X120745576Y-80935057D01*
X120745576Y-80935057D02*
X120714859Y-80844941D01*
X120714859Y-80844941D02*
X120681321Y-80753762D01*
X120681321Y-80753762D02*
X120678000Y-80745000D01*
X119376000Y-79470000D02*
X119379758Y-79586922D01*
X119379758Y-79586922D02*
X119392200Y-79698986D01*
X119392200Y-79698986D02*
X119407801Y-79805512D01*
X119407801Y-79805512D02*
X119415000Y-79848000D01*
X123426000Y-80682000D02*
X123514414Y-80649962D01*
X123514414Y-80649962D02*
X123595181Y-80609438D01*
X123595181Y-80609438D02*
X123673174Y-80567084D01*
X123673174Y-80567084D02*
X123753177Y-80521488D01*
X123753177Y-80521488D02*
X123828666Y-80476843D01*
X123828666Y-80476843D02*
X123905912Y-80429655D01*
X123905912Y-80429655D02*
X123980230Y-80382797D01*
X123980230Y-80382797D02*
X124014000Y-80361000D01*
X123912000Y-79335000D02*
X123912000Y-79335000D01*
X125979000Y-79752000D02*
X125895000Y-79623000D01*
X121956000Y-80241000D02*
X121984978Y-80334561D01*
X121984978Y-80334561D02*
X122016436Y-80425602D01*
X122016436Y-80425602D02*
X122048787Y-80513489D01*
X122048787Y-80513489D02*
X122084781Y-80606648D01*
X122084781Y-80606648D02*
X122120178Y-80694373D01*
X122120178Y-80694373D02*
X122155835Y-80779053D01*
X122155835Y-80779053D02*
X122193164Y-80863296D01*
X122193164Y-80863296D02*
X122232440Y-80945356D01*
X122232440Y-80945356D02*
X122277099Y-81020846D01*
X122277099Y-81020846D02*
X122280000Y-81024000D01*
X122103000Y-79992000D02*
X121993870Y-80003055D01*
X121993870Y-80003055D02*
X121962000Y-80010000D01*
X119664000Y-80592000D02*
X119736132Y-80640701D01*
X119736132Y-80640701D02*
X119813757Y-80684190D01*
X119813757Y-80684190D02*
X119893325Y-80724708D01*
X119893325Y-80724708D02*
X119974577Y-80763484D01*
X119974577Y-80763484D02*
X120057312Y-80800994D01*
X120057312Y-80800994D02*
X120147171Y-80839902D01*
X120147171Y-80839902D02*
X120233334Y-80875609D01*
X120233334Y-80875609D02*
X120319700Y-80909870D01*
X120319700Y-80909870D02*
X120408338Y-80943344D01*
X120408338Y-80943344D02*
X120497714Y-80975066D01*
X120497714Y-80975066D02*
X120590402Y-81005051D01*
X120590402Y-81005051D02*
X120686048Y-81030507D01*
X120686048Y-81030507D02*
X120768000Y-81033000D01*
X123405000Y-79602000D02*
X123322534Y-79641373D01*
X123322534Y-79641373D02*
X123244042Y-79683508D01*
X123244042Y-79683508D02*
X123173764Y-79734112D01*
X123173764Y-79734112D02*
X123150000Y-79779000D01*
X119385000Y-79368000D02*
X119376000Y-79470000D01*
X119490000Y-79443000D02*
X119385000Y-79368000D01*
X120264000Y-79827000D02*
X120176390Y-79793836D01*
X120176390Y-79793836D02*
X120091374Y-79757695D01*
X120091374Y-79757695D02*
X120006517Y-79719318D01*
X120006517Y-79719318D02*
X119922166Y-79679419D01*
X119922166Y-79679419D02*
X119841345Y-79639727D01*
X119841345Y-79639727D02*
X119760293Y-79598459D01*
X119760293Y-79598459D02*
X119680817Y-79556361D01*
X119680817Y-79556361D02*
X119603292Y-79513235D01*
X119603292Y-79513235D02*
X119527378Y-79467751D01*
X119527378Y-79467751D02*
X119490000Y-79443000D01*
X124014000Y-80361000D02*
X124086423Y-80311753D01*
X124086423Y-80311753D02*
X124159087Y-80259763D01*
X124159087Y-80259763D02*
X124229141Y-80207990D01*
X124229141Y-80207990D02*
X124297758Y-80156045D01*
X124297758Y-80156045D02*
X124367302Y-80102323D01*
X124367302Y-80102323D02*
X124436338Y-80047983D01*
X124436338Y-80047983D02*
X124503432Y-79994185D01*
X124503432Y-79994185D02*
X124570759Y-79939098D01*
X124570759Y-79939098D02*
X124638255Y-79882487D01*
X124638255Y-79882487D02*
X124702921Y-79826302D01*
X124702921Y-79826302D02*
X124765279Y-79768270D01*
X124765279Y-79768270D02*
X124800000Y-79725000D01*
X120678000Y-80745000D02*
X120643838Y-80659044D01*
X120643838Y-80659044D02*
X120611019Y-80570064D01*
X120611019Y-80570064D02*
X120580604Y-80478885D01*
X120580604Y-80478885D02*
X120552620Y-80385985D01*
X120552620Y-80385985D02*
X120526424Y-80291518D01*
X120526424Y-80291518D02*
X120500718Y-80193150D01*
X120500718Y-80193150D02*
X120476165Y-80095437D01*
X120476165Y-80095437D02*
X120452332Y-79998201D01*
X120452332Y-79998201D02*
X120432000Y-79914000D01*
X124800000Y-79725000D02*
X124747922Y-79656527D01*
X124747922Y-79656527D02*
X124687060Y-79594741D01*
X124687060Y-79594741D02*
X124625455Y-79535762D01*
X124625455Y-79535762D02*
X124560568Y-79475852D01*
X124560568Y-79475852D02*
X124496964Y-79418815D01*
X124496964Y-79418815D02*
X124432382Y-79362476D01*
X124432382Y-79362476D02*
X124366308Y-79306642D01*
X124366308Y-79306642D02*
X124298609Y-79251972D01*
X124298609Y-79251972D02*
X124229384Y-79201177D01*
X124229384Y-79201177D02*
X124191000Y-79182000D01*
X125316000Y-79452000D02*
X125316000Y-79452000D01*
X124191000Y-79182000D02*
X124108070Y-79221302D01*
X124108070Y-79221302D02*
X124030571Y-79264740D01*
X124030571Y-79264740D02*
X123952780Y-79310396D01*
X123952780Y-79310396D02*
X123912000Y-79335000D01*
X123348000Y-80553000D02*
X123386261Y-80635665D01*
X123386261Y-80635665D02*
X123426000Y-80682000D01*
X123150000Y-79779000D02*
X123166820Y-79882648D01*
X123166820Y-79882648D02*
X123188932Y-79981653D01*
X123188932Y-79981653D02*
X123212552Y-80079236D01*
X123212552Y-80079236D02*
X123237979Y-80178945D01*
X123237979Y-80178945D02*
X123263630Y-80275118D01*
X123263630Y-80275118D02*
X123289991Y-80369423D01*
X123289991Y-80369423D02*
X123317516Y-80461996D01*
X123317516Y-80461996D02*
X123347734Y-80552297D01*
X123347734Y-80552297D02*
X123348000Y-80553000D01*
X123912000Y-79335000D02*
X123835679Y-79378885D01*
X123835679Y-79378885D02*
X123758542Y-79421838D01*
X123758542Y-79421838D02*
X123678989Y-79464936D01*
X123678989Y-79464936D02*
X123598440Y-79507336D01*
X123598440Y-79507336D02*
X123517709Y-79548373D01*
X123517709Y-79548373D02*
X123435077Y-79588268D01*
X123435077Y-79588268D02*
X123405000Y-79602000D01*
X125772000Y-80022000D02*
X125979000Y-79752000D01*
X123201000Y-80790000D02*
X123179411Y-80691226D01*
X123179411Y-80691226D02*
X123151283Y-80597523D01*
X123151283Y-80597523D02*
X123120893Y-80504632D01*
X123120893Y-80504632D02*
X123120000Y-80502000D01*
X122499000Y-81015000D02*
X122596553Y-80992049D01*
X122596553Y-80992049D02*
X122692651Y-80965553D01*
X122692651Y-80965553D02*
X122786559Y-80937759D01*
X122786559Y-80937759D02*
X122878950Y-80909022D01*
X122878950Y-80909022D02*
X122970017Y-80879404D01*
X122970017Y-80879404D02*
X123060049Y-80848575D01*
X123060049Y-80848575D02*
X123148345Y-80815640D01*
X123148345Y-80815640D02*
X123201000Y-80790000D01*
X119415000Y-79848000D02*
X119415000Y-79848000D01*
X126795000Y-78288000D02*
X126766501Y-78381566D01*
X126766501Y-78381566D02*
X126739353Y-78478254D01*
X126739353Y-78478254D02*
X126713655Y-78574934D01*
X126713655Y-78574934D02*
X126708000Y-78597000D01*
X125100000Y-79722000D02*
X125280000Y-79950000D01*
X126372000Y-79449000D02*
X126213000Y-79758000D01*
X125316000Y-79452000D02*
X125100000Y-79722000D01*
X125544000Y-80292000D02*
X125604892Y-80232234D01*
X125604892Y-80232234D02*
X125659986Y-80165903D01*
X125659986Y-80165903D02*
X125714720Y-80096755D01*
X125714720Y-80096755D02*
X125767450Y-80028014D01*
X125767450Y-80028014D02*
X125772000Y-80022000D01*
X124770000Y-78627000D02*
X124770000Y-78627000D01*
X126534000Y-79143000D02*
X126372000Y-79449000D01*
X126321000Y-79971000D02*
X126321000Y-79971000D01*
X123912000Y-78981000D02*
X123838680Y-78932586D01*
X123838680Y-78932586D02*
X123763107Y-78887912D01*
X123763107Y-78887912D02*
X123682976Y-78842313D01*
X123682976Y-78842313D02*
X123602534Y-78797653D01*
X123602534Y-78797653D02*
X123523568Y-78754673D01*
X123523568Y-78754673D02*
X123441670Y-78710948D01*
X123441670Y-78710948D02*
X123360894Y-78668790D01*
X123360894Y-78668790D02*
X123280568Y-78628228D01*
X123280568Y-78628228D02*
X123198455Y-78590045D01*
X123198455Y-78590045D02*
X123174000Y-78582000D01*
X125325000Y-79122000D02*
X125415000Y-78993000D01*
X125097000Y-79404000D02*
X125154155Y-79338096D01*
X125154155Y-79338096D02*
X125209302Y-79271672D01*
X125209302Y-79271672D02*
X125263298Y-79204084D01*
X125263298Y-79204084D02*
X125315524Y-79135190D01*
X125315524Y-79135190D02*
X125325000Y-79122000D01*
X126360000Y-78870000D02*
X126312728Y-78797196D01*
X126312728Y-78797196D02*
X126262639Y-78726743D01*
X126262639Y-78726743D02*
X126210700Y-78656800D01*
X126210700Y-78656800D02*
X126158447Y-78588684D01*
X126158447Y-78588684D02*
X126104651Y-78520803D01*
X126104651Y-78520803D02*
X126049045Y-78453867D01*
X126049045Y-78453867D02*
X125997000Y-78402000D01*
X123348000Y-79407000D02*
X123429336Y-79367979D01*
X123429336Y-79367979D02*
X123510788Y-79326859D01*
X123510788Y-79326859D02*
X123591327Y-79284680D01*
X123591327Y-79284680D02*
X123670490Y-79241745D01*
X123670490Y-79241745D02*
X123749038Y-79197278D01*
X123749038Y-79197278D02*
X123780000Y-79179000D01*
X125490000Y-80235000D02*
X125544000Y-80292000D01*
X125805000Y-78744000D02*
X125673000Y-78978000D01*
X126213000Y-79758000D02*
X126321000Y-79971000D01*
X126525000Y-80454000D02*
X126621000Y-80718000D01*
X126621000Y-80718000D02*
X126684000Y-80559000D01*
X124353000Y-79041000D02*
X124485000Y-79149000D01*
X122958000Y-78492000D02*
X122733000Y-78417000D01*
X123135000Y-79506000D02*
X123348000Y-79407000D01*
X124785000Y-79407000D02*
X124959000Y-79557000D01*
X125673000Y-78978000D02*
X125871000Y-79245000D01*
X126708000Y-78597000D02*
X126708000Y-78597000D01*
X121959000Y-78225000D02*
X121908000Y-78273000D01*
X123174000Y-78582000D02*
X123141153Y-78669460D01*
X123141153Y-78669460D02*
X123135000Y-78708000D01*
X125415000Y-78993000D02*
X125160000Y-78759000D01*
X126630000Y-79350000D02*
X126534000Y-79143000D01*
X126096000Y-79512000D02*
X126147429Y-79442038D01*
X126147429Y-79442038D02*
X126191302Y-79362588D01*
X126191302Y-79362588D02*
X126231689Y-79282685D01*
X126231689Y-79282685D02*
X126261000Y-79221000D01*
X126861000Y-79950000D02*
X126795000Y-79755000D01*
X126795000Y-79755000D02*
X126763131Y-79664924D01*
X126763131Y-79664924D02*
X126728311Y-79575873D01*
X126728311Y-79575873D02*
X126692849Y-79490523D01*
X126692849Y-79490523D02*
X126656272Y-79406984D01*
X126656272Y-79406984D02*
X126630000Y-79350000D01*
X126684000Y-80559000D02*
X126716266Y-80470620D01*
X126716266Y-80470620D02*
X126746365Y-80379066D01*
X126746365Y-80379066D02*
X126774793Y-80286808D01*
X126774793Y-80286808D02*
X126801813Y-80193678D01*
X126801813Y-80193678D02*
X126807000Y-80175000D01*
X123999000Y-79050000D02*
X123912000Y-78981000D01*
X123135000Y-78708000D02*
X123127214Y-78822054D01*
X123127214Y-78822054D02*
X123124120Y-78939123D01*
X123124120Y-78939123D02*
X123123769Y-79060566D01*
X123123769Y-79060566D02*
X123126000Y-79173000D01*
X125160000Y-78759000D02*
X125095961Y-78700110D01*
X125095961Y-78700110D02*
X125030831Y-78642402D01*
X125030831Y-78642402D02*
X124964848Y-78586551D01*
X124964848Y-78586551D02*
X124897060Y-78534109D01*
X124897060Y-78534109D02*
X124875000Y-78522000D01*
X122937000Y-78651000D02*
X122958000Y-78492000D01*
X122691000Y-79659000D02*
X122910000Y-79593000D01*
X125997000Y-78402000D02*
X125958000Y-78456000D01*
X125871000Y-79245000D02*
X125922702Y-79313963D01*
X125922702Y-79313963D02*
X125976402Y-79382554D01*
X125976402Y-79382554D02*
X126030905Y-79448301D01*
X126030905Y-79448301D02*
X126090167Y-79509339D01*
X126090167Y-79509339D02*
X126096000Y-79512000D01*
X126756000Y-79158000D02*
X126796744Y-79238143D01*
X126796744Y-79238143D02*
X126838597Y-79317082D01*
X126838597Y-79317082D02*
X126882984Y-79393876D01*
X126882984Y-79393876D02*
X126906000Y-79422000D01*
X121908000Y-78273000D02*
X121908000Y-78273000D01*
X125958000Y-78456000D02*
X125958000Y-78456000D01*
X125958000Y-78456000D02*
X125918917Y-78537558D01*
X125918917Y-78537558D02*
X125875743Y-78618461D01*
X125875743Y-78618461D02*
X125832311Y-78696445D01*
X125832311Y-78696445D02*
X125805000Y-78744000D01*
X126627000Y-78894000D02*
X126756000Y-79158000D01*
X126900000Y-78822000D02*
X126885060Y-78714592D01*
X126885060Y-78714592D02*
X126868651Y-78609717D01*
X126868651Y-78609717D02*
X126850616Y-78505894D01*
X126850616Y-78505894D02*
X126830771Y-78404656D01*
X126830771Y-78404656D02*
X126806849Y-78308071D01*
X126806849Y-78308071D02*
X126795000Y-78288000D01*
X126807000Y-80175000D02*
X126861000Y-79950000D01*
X123135000Y-78708000D02*
X123135000Y-78708000D01*
X126906000Y-79422000D02*
X126926622Y-79322440D01*
X126926622Y-79322440D02*
X126927399Y-79202476D01*
X126927399Y-79202476D02*
X126922917Y-79085528D01*
X126922917Y-79085528D02*
X126915235Y-78972728D01*
X126915235Y-78972728D02*
X126904726Y-78862737D01*
X126904726Y-78862737D02*
X126900000Y-78822000D01*
X123780000Y-79179000D02*
X123999000Y-79050000D01*
X124959000Y-79557000D02*
X125097000Y-79404000D01*
X122913000Y-79200000D02*
X122914114Y-79080214D01*
X122914114Y-79080214D02*
X122917215Y-78959766D01*
X122917215Y-78959766D02*
X122921998Y-78844453D01*
X122921998Y-78844453D02*
X122928963Y-78731414D01*
X122928963Y-78731414D02*
X122937000Y-78651000D01*
X126261000Y-79221000D02*
X126299396Y-79139375D01*
X126299396Y-79139375D02*
X126336881Y-79055386D01*
X126336881Y-79055386D02*
X126369044Y-78966961D01*
X126369044Y-78966961D02*
X126360000Y-78870000D01*
X122910000Y-79593000D02*
X122913000Y-79200000D01*
X124875000Y-78522000D02*
X124809096Y-78577666D01*
X124809096Y-78577666D02*
X124770000Y-78627000D01*
X123126000Y-79173000D02*
X123135000Y-79506000D01*
X124485000Y-79149000D02*
X124551446Y-79204731D01*
X124551446Y-79204731D02*
X124618228Y-79261398D01*
X124618228Y-79261398D02*
X124687432Y-79320914D01*
X124687432Y-79320914D02*
X124751928Y-79377418D01*
X124751928Y-79377418D02*
X124785000Y-79407000D01*
X124770000Y-78627000D02*
X124714404Y-78691763D01*
X124714404Y-78691763D02*
X124654483Y-78755791D01*
X124654483Y-78755791D02*
X124594632Y-78816704D01*
X124594632Y-78816704D02*
X124531665Y-78877796D01*
X124531665Y-78877796D02*
X124524000Y-78885000D01*
X126708000Y-78597000D02*
X126627000Y-78894000D01*
X122733000Y-78417000D02*
X122640360Y-78388690D01*
X122640360Y-78388690D02*
X122544328Y-78361448D01*
X122544328Y-78361448D02*
X122449770Y-78335884D01*
X122449770Y-78335884D02*
X122354216Y-78311063D01*
X122354216Y-78311063D02*
X122258136Y-78287087D01*
X122258136Y-78287087D02*
X122159446Y-78263643D01*
X122159446Y-78263643D02*
X122058996Y-78241623D01*
X122058996Y-78241623D02*
X121959000Y-78225000D01*
X124524000Y-78885000D02*
X124353000Y-79041000D01*
X125280000Y-79950000D02*
X125333739Y-80017720D01*
X125333739Y-80017720D02*
X125386999Y-80086851D01*
X125386999Y-80086851D02*
X125438227Y-80156008D01*
X125438227Y-80156008D02*
X125486471Y-80228099D01*
X125486471Y-80228099D02*
X125490000Y-80235000D01*
X125553000Y-79182000D02*
X125492658Y-79241760D01*
X125492658Y-79241760D02*
X125434777Y-79308778D01*
X125434777Y-79308778D02*
X125377465Y-79377240D01*
X125377465Y-79377240D02*
X125323012Y-79443412D01*
X125323012Y-79443412D02*
X125316000Y-79452000D01*
X125895000Y-79623000D02*
X125846039Y-79550356D01*
X125846039Y-79550356D02*
X125794207Y-79476743D01*
X125794207Y-79476743D02*
X125742896Y-79406430D01*
X125742896Y-79406430D02*
X125689978Y-79336439D01*
X125689978Y-79336439D02*
X125636649Y-79269021D01*
X125636649Y-79269021D02*
X125580640Y-79204340D01*
X125580640Y-79204340D02*
X125553000Y-79182000D01*
X126321000Y-79971000D02*
X126360192Y-80052840D01*
X126360192Y-80052840D02*
X126398030Y-80136808D01*
X126398030Y-80136808D02*
X126434399Y-80221359D01*
X126434399Y-80221359D02*
X126469619Y-80307116D01*
X126469619Y-80307116D02*
X126503697Y-80395013D01*
X126503697Y-80395013D02*
X126525000Y-80454000D01*
X123078000Y-75555000D02*
X122987780Y-75587355D01*
X122987780Y-75587355D02*
X122900065Y-75622427D01*
X122900065Y-75622427D02*
X122815271Y-75659315D01*
X122815271Y-75659315D02*
X122732079Y-75698107D01*
X122732079Y-75698107D02*
X122651103Y-75738188D01*
X122651103Y-75738188D02*
X122569587Y-75780761D01*
X122569587Y-75780761D02*
X122491967Y-75823352D01*
X122491967Y-75823352D02*
X122414663Y-75867762D01*
X122414663Y-75867762D02*
X122338458Y-75913549D01*
X122338458Y-75913549D02*
X122258981Y-75963531D01*
X122258981Y-75963531D02*
X122185690Y-76011812D01*
X122185690Y-76011812D02*
X122114650Y-76060820D01*
X122114650Y-76060820D02*
X122040689Y-76114490D01*
X122040689Y-76114490D02*
X121969936Y-76168817D01*
X121969936Y-76168817D02*
X121903227Y-76223341D01*
X121903227Y-76223341D02*
X121839335Y-76279468D01*
X121839335Y-76279468D02*
X121775801Y-76340573D01*
X121775801Y-76340573D02*
X121758000Y-76359000D01*
X122241000Y-82227000D02*
X122136779Y-82242979D01*
X122136779Y-82242979D02*
X122162094Y-82338003D01*
X122162094Y-82338003D02*
X122234609Y-82386554D01*
X122234609Y-82386554D02*
X122308794Y-82433176D01*
X122308794Y-82433176D02*
X122349000Y-82458000D01*
X123459000Y-81969000D02*
X123459000Y-81969000D01*
X121935000Y-82413000D02*
X121867344Y-82359815D01*
X121867344Y-82359815D02*
X121797728Y-82307371D01*
X121797728Y-82307371D02*
X121724627Y-82259720D01*
X121724627Y-82259720D02*
X121639202Y-82224124D01*
X121639202Y-82224124D02*
X121535350Y-82205621D01*
X121535350Y-82205621D02*
X121485000Y-82200000D01*
X122931000Y-82962000D02*
X122837795Y-82933305D01*
X122837795Y-82933305D02*
X122753865Y-82895723D01*
X122753865Y-82895723D02*
X122672917Y-82856048D01*
X122672917Y-82856048D02*
X122592096Y-82814333D01*
X122592096Y-82814333D02*
X122513385Y-82772150D01*
X122513385Y-82772150D02*
X122434915Y-82728778D01*
X122434915Y-82728778D02*
X122358335Y-82685249D01*
X122358335Y-82685249D02*
X122280184Y-82639576D01*
X122280184Y-82639576D02*
X122203295Y-82593278D01*
X122203295Y-82593278D02*
X122128335Y-82546582D01*
X122128335Y-82546582D02*
X122054618Y-82498654D01*
X122054618Y-82498654D02*
X121983588Y-82449572D01*
X121983588Y-82449572D02*
X121935000Y-82413000D01*
X120663000Y-82017000D02*
X120600000Y-82020000D01*
X122616000Y-82179000D02*
X122510127Y-82194780D01*
X122510127Y-82194780D02*
X122402267Y-82208963D01*
X122402267Y-82208963D02*
X122292133Y-82221812D01*
X122292133Y-82221812D02*
X122241000Y-82227000D01*
X121485000Y-82200000D02*
X121379190Y-82185668D01*
X121379190Y-82185668D02*
X121275991Y-82167477D01*
X121275991Y-82167477D02*
X121175192Y-82147704D01*
X121175192Y-82147704D02*
X121074005Y-82126408D01*
X121074005Y-82126408D02*
X120974221Y-82104133D01*
X120974221Y-82104133D02*
X120876888Y-82081072D01*
X120876888Y-82081072D02*
X120780171Y-82056321D01*
X120780171Y-82056321D02*
X120687430Y-82028442D01*
X120687430Y-82028442D02*
X120663000Y-82017000D01*
X120903000Y-82275000D02*
X120972763Y-82326261D01*
X120972763Y-82326261D02*
X121043690Y-82375632D01*
X121043690Y-82375632D02*
X121118639Y-82425045D01*
X121118639Y-82425045D02*
X121193138Y-82471563D01*
X121193138Y-82471563D02*
X121275365Y-82520111D01*
X121275365Y-82520111D02*
X121352635Y-82563222D01*
X121352635Y-82563222D02*
X121432476Y-82605350D01*
X121432476Y-82605350D02*
X121514811Y-82646338D01*
X121514811Y-82646338D02*
X121597321Y-82685011D01*
X121597321Y-82685011D02*
X121682265Y-82722390D01*
X121682265Y-82722390D02*
X121767466Y-82757467D01*
X121767466Y-82757467D02*
X121854842Y-82790973D01*
X121854842Y-82790973D02*
X121944445Y-82822766D01*
X121944445Y-82822766D02*
X122036500Y-82852738D01*
X122036500Y-82852738D02*
X122130451Y-82880496D01*
X122130451Y-82880496D02*
X122227229Y-82906070D01*
X122227229Y-82906070D02*
X122326590Y-82929063D01*
X122326590Y-82929063D02*
X122385000Y-82941000D01*
X120600000Y-82020000D02*
X120656442Y-82085510D01*
X120656442Y-82085510D02*
X120724386Y-82139191D01*
X120724386Y-82139191D02*
X120792658Y-82191443D01*
X120792658Y-82191443D02*
X120862021Y-82244027D01*
X120862021Y-82244027D02*
X120903000Y-82275000D01*
X122385000Y-82941000D02*
X122488611Y-82960033D01*
X122488611Y-82960033D02*
X122593202Y-82977456D01*
X122593202Y-82977456D02*
X122699578Y-82992817D01*
X122699578Y-82992817D02*
X122808682Y-83004905D01*
X122808682Y-83004905D02*
X122925290Y-83008624D01*
X122925290Y-83008624D02*
X122970000Y-82992000D01*
X120600000Y-82020000D02*
X120600000Y-82020000D01*
X123018000Y-82251000D02*
X122951395Y-82196695D01*
X122951395Y-82196695D02*
X122868371Y-82158290D01*
X122868371Y-82158290D02*
X122749636Y-82161022D01*
X122749636Y-82161022D02*
X122638019Y-82175887D01*
X122638019Y-82175887D02*
X122616000Y-82179000D01*
X122349000Y-82458000D02*
X122424137Y-82502922D01*
X122424137Y-82502922D02*
X122503393Y-82547180D01*
X122503393Y-82547180D02*
X122582920Y-82588749D01*
X122582920Y-82588749D02*
X122666171Y-82629528D01*
X122666171Y-82629528D02*
X122748595Y-82667370D01*
X122748595Y-82667370D02*
X122837373Y-82705499D01*
X122837373Y-82705499D02*
X122927521Y-82741556D01*
X122927521Y-82741556D02*
X123018025Y-82775142D01*
X123018025Y-82775142D02*
X123108427Y-82806098D01*
X123108427Y-82806098D02*
X123201244Y-82835161D01*
X123201244Y-82835161D02*
X123295887Y-82861861D01*
X123295887Y-82861861D02*
X123394528Y-82886348D01*
X123394528Y-82886348D02*
X123495392Y-82907535D01*
X123495392Y-82907535D02*
X123599204Y-82924739D01*
X123599204Y-82924739D02*
X123709060Y-82936888D01*
X123709060Y-82936888D02*
X123795000Y-82941000D01*
X122970000Y-82992000D02*
X122931000Y-82962000D01*
X122616000Y-82179000D02*
X122616000Y-82179000D01*
X123759000Y-82740000D02*
X123677428Y-82697046D01*
X123677428Y-82697046D02*
X123599878Y-82654342D01*
X123599878Y-82654342D02*
X123520955Y-82608715D01*
X123520955Y-82608715D02*
X123446048Y-82563113D01*
X123446048Y-82563113D02*
X123371332Y-82515152D01*
X123371332Y-82515152D02*
X123299133Y-82466269D01*
X123299133Y-82466269D02*
X123228147Y-82415656D01*
X123228147Y-82415656D02*
X123158466Y-82363472D01*
X123158466Y-82363472D02*
X123090188Y-82309978D01*
X123090188Y-82309978D02*
X123022110Y-82254421D01*
X123022110Y-82254421D02*
X123018000Y-82251000D01*
X123795000Y-82941000D02*
X123914780Y-82941361D01*
X123914780Y-82941361D02*
X124013052Y-82919277D01*
X124013052Y-82919277D02*
X123959637Y-82852687D01*
X123959637Y-82852687D02*
X123883644Y-82806517D01*
X123883644Y-82806517D02*
X123804557Y-82763648D01*
X123804557Y-82763648D02*
X123759000Y-82740000D01*
X121671000Y-76449000D02*
X122148000Y-76458000D01*
X121758000Y-76359000D02*
X121671000Y-76449000D01*
X123438000Y-75465000D02*
X123335069Y-75482178D01*
X123335069Y-75482178D02*
X123238910Y-75506372D01*
X123238910Y-75506372D02*
X123145417Y-75533442D01*
X123145417Y-75533442D02*
X123078000Y-75555000D01*
X123828000Y-75531000D02*
X123733925Y-75504916D01*
X123733925Y-75504916D02*
X123630765Y-75487232D01*
X123630765Y-75487232D02*
X123523291Y-75472713D01*
X123523291Y-75472713D02*
X123438000Y-75465000D01*
X123621000Y-75666000D02*
X123699151Y-75621871D01*
X123699151Y-75621871D02*
X123774198Y-75576269D01*
X123774198Y-75576269D02*
X123828000Y-75531000D01*
X122787000Y-76305000D02*
X122850676Y-76244149D01*
X122850676Y-76244149D02*
X122915045Y-76185129D01*
X122915045Y-76185129D02*
X122980334Y-76127518D01*
X122980334Y-76127518D02*
X123046892Y-76070910D01*
X123046892Y-76070910D02*
X123113853Y-76015972D01*
X123113853Y-76015972D02*
X123182910Y-75961348D01*
X123182910Y-75961348D02*
X123251912Y-75908789D01*
X123251912Y-75908789D02*
X123322920Y-75856840D01*
X123322920Y-75856840D02*
X123396148Y-75805627D01*
X123396148Y-75805627D02*
X123470004Y-75756585D01*
X123470004Y-75756585D02*
X123544372Y-75710167D01*
X123544372Y-75710167D02*
X123621000Y-75666000D01*
X125343000Y-80370000D02*
X125294366Y-80298417D01*
X125294366Y-80298417D02*
X125242300Y-80226847D01*
X125242300Y-80226847D02*
X125189977Y-80157055D01*
X125189977Y-80157055D02*
X125137430Y-80088477D01*
X125137430Y-80088477D02*
X125084115Y-80020357D01*
X125084115Y-80020357D02*
X125029096Y-79952008D01*
X125029096Y-79952008D02*
X124973343Y-79887113D01*
X124973343Y-79887113D02*
X124956000Y-79872000D01*
X121896000Y-80028000D02*
X121956000Y-80241000D01*
X126015000Y-80037000D02*
X125961850Y-80106966D01*
X125961850Y-80106966D02*
X125908754Y-80174590D01*
X125908754Y-80174590D02*
X125853378Y-80243309D01*
X125853378Y-80243309D02*
X125808000Y-80298000D01*
X125814000Y-80799000D02*
X125853808Y-80882506D01*
X125853808Y-80882506D02*
X125892949Y-80969088D01*
X125892949Y-80969088D02*
X125931224Y-81057929D01*
X125931224Y-81057929D02*
X125966397Y-81143699D01*
X125966397Y-81143699D02*
X126000185Y-81231274D01*
X126000185Y-81231274D02*
X126031255Y-81320639D01*
X126031255Y-81320639D02*
X126036000Y-81336000D01*
X126405000Y-80748000D02*
X126377104Y-80654473D01*
X126377104Y-80654473D02*
X126346255Y-80559283D01*
X126346255Y-80559283D02*
X126313606Y-80464720D01*
X126313606Y-80464720D02*
X126281000Y-80375177D01*
X126281000Y-80375177D02*
X126247625Y-80288002D01*
X126247625Y-80288002D02*
X126212663Y-80201548D01*
X126212663Y-80201548D02*
X126175580Y-80116142D01*
X126175580Y-80116142D02*
X126136002Y-80035361D01*
X126136002Y-80035361D02*
X126111000Y-79995000D01*
X124956000Y-79872000D02*
X124887929Y-79925959D01*
X124887929Y-79925959D02*
X124822025Y-79982794D01*
X124822025Y-79982794D02*
X124756867Y-80040267D01*
X124756867Y-80040267D02*
X124737000Y-80058000D01*
X123759000Y-80748000D02*
X123681124Y-80790169D01*
X123681124Y-80790169D02*
X123603308Y-80835926D01*
X123603308Y-80835926D02*
X123531609Y-80884289D01*
X123531609Y-80884289D02*
X123510000Y-80907000D01*
X124737000Y-80058000D02*
X124673193Y-80114401D01*
X124673193Y-80114401D02*
X124606977Y-80170545D01*
X124606977Y-80170545D02*
X124538043Y-80226824D01*
X124538043Y-80226824D02*
X124466902Y-80282884D01*
X124466902Y-80282884D02*
X124396062Y-80336885D01*
X124396062Y-80336885D02*
X124326108Y-80388556D01*
X124326108Y-80388556D02*
X124254520Y-80439825D01*
X124254520Y-80439825D02*
X124182744Y-80489627D01*
X124182744Y-80489627D02*
X124110235Y-80538318D01*
X124110235Y-80538318D02*
X124036504Y-80586119D01*
X124036504Y-80586119D02*
X123962149Y-80632478D01*
X123962149Y-80632478D02*
X123885992Y-80677865D01*
X123885992Y-80677865D02*
X123809058Y-80721275D01*
X123809058Y-80721275D02*
X123759000Y-80748000D01*
X122994000Y-80019000D02*
X122972278Y-79920335D01*
X122972278Y-79920335D02*
X122941621Y-79830594D01*
X122941621Y-79830594D02*
X122925000Y-79812000D01*
X125808000Y-80298000D02*
X125661000Y-80475000D01*
X125661000Y-80475000D02*
X125814000Y-80799000D01*
X121962000Y-80010000D02*
X121896000Y-80028000D01*
X120660000Y-80004000D02*
X120678122Y-80106884D01*
X120678122Y-80106884D02*
X120703683Y-80201402D01*
X120703683Y-80201402D02*
X120732773Y-80297194D01*
X120732773Y-80297194D02*
X120763695Y-80391941D01*
X120763695Y-80391941D02*
X120795050Y-80482785D01*
X120795050Y-80482785D02*
X120827632Y-80572468D01*
X120827632Y-80572468D02*
X120861981Y-80662035D01*
X120861981Y-80662035D02*
X120897502Y-80748889D01*
X120897502Y-80748889D02*
X120934995Y-80832883D01*
X120934995Y-80832883D02*
X120936000Y-80835000D01*
X125400000Y-80466000D02*
X125343000Y-80370000D01*
X123510000Y-80907000D02*
X123546710Y-80992058D01*
X123546710Y-80992058D02*
X123590175Y-81072411D01*
X123590175Y-81072411D02*
X123635376Y-81151451D01*
X123635376Y-81151451D02*
X123680633Y-81227622D01*
X123680633Y-81227622D02*
X123727285Y-81303350D01*
X123727285Y-81303350D02*
X123774724Y-81376975D01*
X123774724Y-81376975D02*
X123824861Y-81448849D01*
X123824861Y-81448849D02*
X123828000Y-81453000D01*
X124737000Y-80058000D02*
X124737000Y-80058000D01*
X126480000Y-81024000D02*
X126405000Y-80748000D01*
X122925000Y-79812000D02*
X122823807Y-79833452D01*
X122823807Y-79833452D02*
X122724305Y-79857018D01*
X122724305Y-79857018D02*
X122624146Y-79881137D01*
X122624146Y-79881137D02*
X122538000Y-79902000D01*
X123933000Y-81552000D02*
X124018847Y-81516351D01*
X124018847Y-81516351D02*
X124097087Y-81473819D01*
X124097087Y-81473819D02*
X124174556Y-81428968D01*
X124174556Y-81428968D02*
X124252327Y-81382167D01*
X124252327Y-81382167D02*
X124326461Y-81336208D01*
X124326461Y-81336208D02*
X124402398Y-81287866D01*
X124402398Y-81287866D02*
X124480541Y-81236739D01*
X124480541Y-81236739D02*
X124553737Y-81187382D01*
X124553737Y-81187382D02*
X124624825Y-81137721D01*
X124624825Y-81137721D02*
X124694509Y-81086642D01*
X124694509Y-81086642D02*
X124698000Y-81084000D01*
X123120000Y-80502000D02*
X123091162Y-80410748D01*
X123091162Y-80410748D02*
X123063906Y-80316418D01*
X123063906Y-80316418D02*
X123038561Y-80221238D01*
X123038561Y-80221238D02*
X123015131Y-80124312D01*
X123015131Y-80124312D02*
X122994758Y-80023610D01*
X122994758Y-80023610D02*
X122994000Y-80019000D01*
X126399000Y-81159000D02*
X126480000Y-81024000D01*
X126120000Y-81552000D02*
X126177936Y-81488101D01*
X126177936Y-81488101D02*
X126229256Y-81418546D01*
X126229256Y-81418546D02*
X126278808Y-81347412D01*
X126278808Y-81347412D02*
X126327881Y-81273634D01*
X126327881Y-81273634D02*
X126375079Y-81198918D01*
X126375079Y-81198918D02*
X126399000Y-81159000D01*
X126036000Y-81336000D02*
X126066410Y-81426389D01*
X126066410Y-81426389D02*
X126099290Y-81514200D01*
X126099290Y-81514200D02*
X126120000Y-81552000D01*
X126111000Y-79995000D02*
X126022217Y-80027338D01*
X126022217Y-80027338D02*
X126015000Y-80037000D01*
X125163000Y-80688000D02*
X125400000Y-80466000D01*
X123828000Y-81453000D02*
X123884464Y-81516833D01*
X123884464Y-81516833D02*
X123933000Y-81552000D01*
X124698000Y-81084000D02*
X124765694Y-81031351D01*
X124765694Y-81031351D02*
X124832819Y-80977095D01*
X124832819Y-80977095D02*
X124898521Y-80922531D01*
X124898521Y-80922531D02*
X124963715Y-80867108D01*
X124963715Y-80867108D02*
X125028169Y-80811014D01*
X125028169Y-80811014D02*
X125091560Y-80754349D01*
X125091560Y-80754349D02*
X125153987Y-80696562D01*
X125153987Y-80696562D02*
X125163000Y-80688000D01*
X122538000Y-79902000D02*
X122538000Y-79902000D01*
X125517000Y-80649000D02*
X125286000Y-80856000D01*
X124335000Y-81567000D02*
X124044000Y-81738000D01*
X121770000Y-80307000D02*
X121692000Y-80037000D01*
X124638000Y-82710000D02*
X124812000Y-82629000D01*
X124125000Y-82086000D02*
X124061958Y-82025873D01*
X124061958Y-82025873D02*
X123998257Y-81967297D01*
X123998257Y-81967297D02*
X123933494Y-81911432D01*
X123933494Y-81911432D02*
X123864217Y-81860177D01*
X123864217Y-81860177D02*
X123810000Y-81843000D01*
X121692000Y-81939000D02*
X121797000Y-82041000D01*
X123150000Y-82095000D02*
X123209218Y-82156590D01*
X123209218Y-82156590D02*
X123278357Y-82208206D01*
X123278357Y-82208206D02*
X123349389Y-82257255D01*
X123349389Y-82257255D02*
X123422732Y-82305564D01*
X123422732Y-82305564D02*
X123497996Y-82353364D01*
X123497996Y-82353364D02*
X123574608Y-82400479D01*
X123574608Y-82400479D02*
X123653672Y-82447576D01*
X123653672Y-82447576D02*
X123732331Y-82492853D01*
X123732331Y-82492853D02*
X123809685Y-82535648D01*
X123809685Y-82535648D02*
X123888599Y-82577096D01*
X123888599Y-82577096D02*
X123939000Y-82602000D01*
X124839000Y-81228000D02*
X124839000Y-81228000D01*
X121434000Y-81987000D02*
X121389080Y-81910899D01*
X121389080Y-81910899D02*
X121335817Y-81842656D01*
X121335817Y-81842656D02*
X121314000Y-81816000D01*
X125628000Y-80868000D02*
X125517000Y-80649000D01*
X120849000Y-79980000D02*
X120745359Y-79962125D01*
X120745359Y-79962125D02*
X120661081Y-79997904D01*
X120661081Y-79997904D02*
X120660000Y-80004000D01*
X122058000Y-81093000D02*
X122029331Y-81001331D01*
X122029331Y-81001331D02*
X121994015Y-80912714D01*
X121994015Y-80912714D02*
X121959000Y-80829000D01*
X121278000Y-80019000D02*
X121162972Y-80012194D01*
X121162972Y-80012194D02*
X121047875Y-80003927D01*
X121047875Y-80003927D02*
X120936922Y-79993931D01*
X120936922Y-79993931D02*
X120849000Y-79980000D01*
X121056000Y-81096000D02*
X121314000Y-81120000D01*
X124812000Y-82629000D02*
X124602000Y-82491000D01*
X122703000Y-81957000D02*
X122562000Y-81792000D01*
X122817000Y-81777000D02*
X122946000Y-81918000D01*
X124839000Y-81228000D02*
X124767987Y-81280645D01*
X124767987Y-81280645D02*
X124697322Y-81330620D01*
X124697322Y-81330620D02*
X124625146Y-81380136D01*
X124625146Y-81380136D02*
X124551959Y-81429103D01*
X124551959Y-81429103D02*
X124478298Y-81477222D01*
X124478298Y-81477222D02*
X124404644Y-81524092D01*
X124404644Y-81524092D02*
X124335000Y-81567000D01*
X122946000Y-81918000D02*
X123078000Y-81885000D01*
X123087000Y-81054000D02*
X123087000Y-81054000D01*
X123939000Y-82602000D02*
X124022931Y-82641993D01*
X124022931Y-82641993D02*
X124106628Y-82680449D01*
X124106628Y-82680449D02*
X124191208Y-82716485D01*
X124191208Y-82716485D02*
X124279749Y-82748282D01*
X124279749Y-82748282D02*
X124378505Y-82769711D01*
X124378505Y-82769711D02*
X124492650Y-82763081D01*
X124492650Y-82763081D02*
X124583970Y-82733310D01*
X124583970Y-82733310D02*
X124638000Y-82710000D01*
X123810000Y-81843000D02*
X123717022Y-81876631D01*
X123717022Y-81876631D02*
X123617027Y-81912489D01*
X123617027Y-81912489D02*
X123513641Y-81949475D01*
X123513641Y-81949475D02*
X123459000Y-81969000D01*
X124602000Y-82491000D02*
X124531047Y-82439207D01*
X124531047Y-82439207D02*
X124462578Y-82385274D01*
X124462578Y-82385274D02*
X124396119Y-82330505D01*
X124396119Y-82330505D02*
X124331206Y-82275101D01*
X124331206Y-82275101D02*
X124263918Y-82215764D01*
X124263918Y-82215764D02*
X124200277Y-82157707D01*
X124200277Y-82157707D02*
X124138340Y-82099000D01*
X124138340Y-82099000D02*
X124125000Y-82086000D01*
X125265000Y-82362000D02*
X125334997Y-82311830D01*
X125334997Y-82311830D02*
X125404641Y-82259254D01*
X125404641Y-82259254D02*
X125473731Y-82205089D01*
X125473731Y-82205089D02*
X125551111Y-82142190D01*
X125551111Y-82142190D02*
X125617389Y-82086220D01*
X125617389Y-82086220D02*
X125681903Y-82029265D01*
X125681903Y-82029265D02*
X125721000Y-81993000D01*
X120750000Y-81831000D02*
X120844111Y-81860482D01*
X120844111Y-81860482D02*
X120939756Y-81887721D01*
X120939756Y-81887721D02*
X121037681Y-81913596D01*
X121037681Y-81913596D02*
X121134622Y-81937442D01*
X121134622Y-81937442D02*
X121233337Y-81959765D01*
X121233337Y-81959765D02*
X121334649Y-81979685D01*
X121334649Y-81979685D02*
X121434000Y-81987000D01*
X121590000Y-81315000D02*
X121590000Y-81315000D01*
X123459000Y-81969000D02*
X123369710Y-82001126D01*
X123369710Y-82001126D02*
X123282249Y-82034358D01*
X123282249Y-82034358D02*
X123197097Y-82069444D01*
X123197097Y-82069444D02*
X123150000Y-82095000D01*
X122619000Y-81981000D02*
X122703000Y-81957000D01*
X122082000Y-81294000D02*
X121971193Y-81305226D01*
X121971193Y-81305226D02*
X121854624Y-81310604D01*
X121854624Y-81310604D02*
X121736939Y-81313658D01*
X121736939Y-81313658D02*
X121617861Y-81314949D01*
X121617861Y-81314949D02*
X121590000Y-81315000D01*
X122304000Y-81453000D02*
X122254761Y-81381519D01*
X122254761Y-81381519D02*
X122200961Y-81315189D01*
X122200961Y-81315189D02*
X122106148Y-81289966D01*
X122106148Y-81289966D02*
X122082000Y-81294000D01*
X122562000Y-81792000D02*
X122506680Y-81725393D01*
X122506680Y-81725393D02*
X122453281Y-81657790D01*
X122453281Y-81657790D02*
X122400218Y-81588020D01*
X122400218Y-81588020D02*
X122348780Y-81517645D01*
X122348780Y-81517645D02*
X122304000Y-81453000D01*
X125034000Y-82518000D02*
X125265000Y-82362000D01*
X123078000Y-81885000D02*
X123172617Y-81856988D01*
X123172617Y-81856988D02*
X123266075Y-81826601D01*
X123266075Y-81826601D02*
X123356622Y-81796052D01*
X123356622Y-81796052D02*
X123450756Y-81763437D01*
X123450756Y-81763437D02*
X123540176Y-81731632D01*
X123540176Y-81731632D02*
X123629445Y-81698755D01*
X123629445Y-81698755D02*
X123714640Y-81663909D01*
X123714640Y-81663909D02*
X123720000Y-81660000D01*
X124929000Y-82464000D02*
X125034000Y-82518000D01*
X122685000Y-81177000D02*
X122589643Y-81203430D01*
X122589643Y-81203430D02*
X122497892Y-81233257D01*
X122497892Y-81233257D02*
X122448000Y-81255000D01*
X124191000Y-81888000D02*
X124252370Y-81947015D01*
X124252370Y-81947015D02*
X124316235Y-82004069D01*
X124316235Y-82004069D02*
X124382717Y-82060830D01*
X124382717Y-82060830D02*
X124449200Y-82115707D01*
X124449200Y-82115707D02*
X124516646Y-82169827D01*
X124516646Y-82169827D02*
X124584241Y-82222671D01*
X124584241Y-82222671D02*
X124654658Y-82276259D01*
X124654658Y-82276259D02*
X124725200Y-82328336D01*
X124725200Y-82328336D02*
X124796171Y-82378771D01*
X124796171Y-82378771D02*
X124867980Y-82426986D01*
X124867980Y-82426986D02*
X124929000Y-82464000D01*
X121797000Y-82041000D02*
X122166000Y-82023000D01*
X125286000Y-80856000D02*
X125220328Y-80914383D01*
X125220328Y-80914383D02*
X125152507Y-80973085D01*
X125152507Y-80973085D02*
X125086352Y-81029160D01*
X125086352Y-81029160D02*
X125019586Y-81084679D01*
X125019586Y-81084679D02*
X124953309Y-81138652D01*
X124953309Y-81138652D02*
X124885073Y-81192731D01*
X124885073Y-81192731D02*
X124839000Y-81228000D01*
X120936000Y-80835000D02*
X121056000Y-81096000D01*
X121248000Y-81396000D02*
X121297238Y-81468384D01*
X121297238Y-81468384D02*
X121349414Y-81538916D01*
X121349414Y-81538916D02*
X121403406Y-81608532D01*
X121403406Y-81608532D02*
X121460377Y-81679364D01*
X121460377Y-81679364D02*
X121515335Y-81745472D01*
X121515335Y-81745472D02*
X121572499Y-81811857D01*
X121572499Y-81811857D02*
X121630629Y-81876321D01*
X121630629Y-81876321D02*
X121689981Y-81937081D01*
X121689981Y-81937081D02*
X121692000Y-81939000D01*
X119880000Y-81144000D02*
X119880000Y-81144000D01*
X120846000Y-81264000D02*
X120747924Y-81241125D01*
X120747924Y-81241125D02*
X120652477Y-81216481D01*
X120652477Y-81216481D02*
X120555757Y-81189676D01*
X120555757Y-81189676D02*
X120456942Y-81160634D01*
X120456942Y-81160634D02*
X120363016Y-81131530D01*
X120363016Y-81131530D02*
X120269836Y-81101123D01*
X120269836Y-81101123D02*
X120179891Y-81070069D01*
X120179891Y-81070069D02*
X120090860Y-81037153D01*
X120090860Y-81037153D02*
X120005264Y-81002301D01*
X120005264Y-81002301D02*
X120000000Y-81000000D01*
X121053000Y-81471000D02*
X121003258Y-81399565D01*
X121003258Y-81399565D02*
X120948244Y-81332816D01*
X120948244Y-81332816D02*
X120882683Y-81278367D01*
X120882683Y-81278367D02*
X120846000Y-81264000D01*
X123558000Y-81408000D02*
X123509720Y-81332029D01*
X123509720Y-81332029D02*
X123463118Y-81256570D01*
X123463118Y-81256570D02*
X123417234Y-81179507D01*
X123417234Y-81179507D02*
X123374381Y-81102256D01*
X123374381Y-81102256D02*
X123360000Y-81072000D01*
X121314000Y-81120000D02*
X121429568Y-81125697D01*
X121429568Y-81125697D02*
X121548040Y-81127241D01*
X121548040Y-81127241D02*
X121669803Y-81125979D01*
X121669803Y-81125979D02*
X121786638Y-81122390D01*
X121786638Y-81122390D02*
X121900653Y-81116214D01*
X121900653Y-81116214D02*
X122010127Y-81105507D01*
X122010127Y-81105507D02*
X122058000Y-81093000D01*
X121590000Y-81315000D02*
X121197000Y-81315000D01*
X122448000Y-81255000D02*
X122479593Y-81344592D01*
X122479593Y-81344592D02*
X122526473Y-81417720D01*
X122526473Y-81417720D02*
X122576609Y-81488016D01*
X122576609Y-81488016D02*
X122629288Y-81557094D01*
X122629288Y-81557094D02*
X122683346Y-81624268D01*
X122683346Y-81624268D02*
X122739599Y-81690790D01*
X122739599Y-81690790D02*
X122796716Y-81755006D01*
X122796716Y-81755006D02*
X122817000Y-81777000D01*
X119763000Y-80910000D02*
X119799220Y-80994626D01*
X119799220Y-80994626D02*
X119840901Y-81073269D01*
X119840901Y-81073269D02*
X119880000Y-81144000D01*
X121314000Y-81816000D02*
X121258648Y-81748981D01*
X121258648Y-81748981D02*
X121202854Y-81677559D01*
X121202854Y-81677559D02*
X121149921Y-81607182D01*
X121149921Y-81607182D02*
X121099238Y-81537414D01*
X121099238Y-81537414D02*
X121053000Y-81471000D01*
X125721000Y-81993000D02*
X125783059Y-81934039D01*
X125783059Y-81934039D02*
X125843992Y-81874184D01*
X125843992Y-81874184D02*
X125900472Y-81810569D01*
X125900472Y-81810569D02*
X125931182Y-81720580D01*
X125931182Y-81720580D02*
X125925000Y-81675000D01*
X121197000Y-81315000D02*
X121248000Y-81396000D01*
X125925000Y-81675000D02*
X125901347Y-81576057D01*
X125901347Y-81576057D02*
X125873054Y-81481369D01*
X125873054Y-81481369D02*
X125843016Y-81390883D01*
X125843016Y-81390883D02*
X125809945Y-81298157D01*
X125809945Y-81298157D02*
X125776735Y-81210286D01*
X125776735Y-81210286D02*
X125741367Y-81121459D01*
X125741367Y-81121459D02*
X125705411Y-81035796D01*
X125705411Y-81035796D02*
X125668347Y-80952424D01*
X125668347Y-80952424D02*
X125629027Y-80870059D01*
X125629027Y-80870059D02*
X125628000Y-80868000D01*
X121692000Y-80037000D02*
X121278000Y-80019000D01*
X120660000Y-80004000D02*
X120660000Y-80004000D01*
X124044000Y-81738000D02*
X124191000Y-81888000D01*
X123720000Y-81660000D02*
X123673434Y-81584569D01*
X123673434Y-81584569D02*
X123625791Y-81510819D01*
X123625791Y-81510819D02*
X123576698Y-81436134D01*
X123576698Y-81436134D02*
X123558000Y-81408000D01*
X121959000Y-80829000D02*
X121923270Y-80743164D01*
X121923270Y-80743164D02*
X121888011Y-80652794D01*
X121888011Y-80652794D02*
X121855326Y-80564700D01*
X121855326Y-80564700D02*
X121823706Y-80475180D01*
X121823706Y-80475180D02*
X121793664Y-80384776D01*
X121793664Y-80384776D02*
X121770000Y-80307000D01*
X125808000Y-80298000D02*
X125808000Y-80298000D01*
X122166000Y-82023000D02*
X122279118Y-82015735D01*
X122279118Y-82015735D02*
X122393475Y-82007078D01*
X122393475Y-82007078D02*
X122503805Y-81997006D01*
X122503805Y-81997006D02*
X122610395Y-81982980D01*
X122610395Y-81982980D02*
X122619000Y-81981000D01*
X123300000Y-80982000D02*
X123207969Y-81010382D01*
X123207969Y-81010382D02*
X123118635Y-81042329D01*
X123118635Y-81042329D02*
X123087000Y-81054000D01*
X123087000Y-81054000D02*
X122997499Y-81084935D01*
X122997499Y-81084935D02*
X122904775Y-81114191D01*
X122904775Y-81114191D02*
X122810113Y-81142305D01*
X122810113Y-81142305D02*
X122715092Y-81168954D01*
X122715092Y-81168954D02*
X122685000Y-81177000D01*
X123360000Y-81072000D02*
X123316720Y-80995279D01*
X123316720Y-80995279D02*
X123300000Y-80982000D01*
X119880000Y-81144000D02*
X119924382Y-81219629D01*
X119924382Y-81219629D02*
X119971103Y-81295085D01*
X119971103Y-81295085D02*
X120021263Y-81369651D01*
X120021263Y-81369651D02*
X120073171Y-81438264D01*
X120073171Y-81438264D02*
X120129521Y-81502133D01*
X120129521Y-81502133D02*
X120191977Y-81560796D01*
X120191977Y-81560796D02*
X120260107Y-81612796D01*
X120260107Y-81612796D02*
X120334991Y-81659313D01*
X120334991Y-81659313D02*
X120416089Y-81701138D01*
X120416089Y-81701138D02*
X120499218Y-81738019D01*
X120499218Y-81738019D02*
X120585323Y-81772160D01*
X120585323Y-81772160D02*
X120673871Y-81804551D01*
X120673871Y-81804551D02*
X120750000Y-81831000D01*
X120000000Y-81000000D02*
X119913211Y-80963259D01*
X119913211Y-80963259D02*
X119826359Y-80929450D01*
X119826359Y-80929450D02*
X119763000Y-80910000D01*
X167673000Y-81470000D02*
X167702868Y-81379741D01*
X167702868Y-81379741D02*
X167706038Y-81262780D01*
X167706038Y-81262780D02*
X167700000Y-81194000D01*
X163623000Y-77522000D02*
X163525689Y-77490619D01*
X163525689Y-77490619D02*
X163430339Y-77459305D01*
X163430339Y-77459305D02*
X163335666Y-77427705D01*
X163335666Y-77427705D02*
X163243699Y-77396530D01*
X163243699Y-77396530D02*
X163150463Y-77364398D01*
X163150463Y-77364398D02*
X163059800Y-77332530D01*
X163059800Y-77332530D02*
X162968016Y-77299343D01*
X162968016Y-77299343D02*
X162891000Y-77270000D01*
X161205000Y-76343000D02*
X161287126Y-76304891D01*
X161287126Y-76304891D02*
X161394093Y-76291665D01*
X161394093Y-76291665D02*
X161442000Y-76289000D01*
X167658000Y-79205000D02*
X167565423Y-79174556D01*
X167565423Y-79174556D02*
X167476400Y-79143303D01*
X167476400Y-79143303D02*
X167388071Y-79111388D01*
X167388071Y-79111388D02*
X167296788Y-79077803D01*
X167296788Y-79077803D02*
X167206808Y-79044270D01*
X167206808Y-79044270D02*
X167118000Y-79010849D01*
X167118000Y-79010849D02*
X167030630Y-78977711D01*
X167030630Y-78977711D02*
X166941522Y-78943688D01*
X166941522Y-78943688D02*
X166843850Y-78906166D01*
X166843850Y-78906166D02*
X166749996Y-78869903D01*
X166749996Y-78869903D02*
X166660824Y-78835279D01*
X166660824Y-78835279D02*
X166573871Y-78801364D01*
X166573871Y-78801364D02*
X166486466Y-78767124D01*
X166486466Y-78767124D02*
X166398990Y-78732710D01*
X166398990Y-78732710D02*
X166311820Y-78698270D01*
X166311820Y-78698270D02*
X166225341Y-78663956D01*
X166225341Y-78663956D02*
X166127843Y-78625087D01*
X166127843Y-78625087D02*
X166041173Y-78590364D01*
X166041173Y-78590364D02*
X165953666Y-78555123D01*
X165953666Y-78555123D02*
X165860487Y-78517379D01*
X165860487Y-78517379D02*
X165771145Y-78480943D01*
X165771145Y-78480943D02*
X165683764Y-78445031D01*
X165683764Y-78445031D02*
X165594848Y-78408135D01*
X165594848Y-78408135D02*
X165509040Y-78372087D01*
X165509040Y-78372087D02*
X165423243Y-78335413D01*
X165423243Y-78335413D02*
X165338859Y-78298307D01*
X165338859Y-78298307D02*
X165256364Y-78259578D01*
X165256364Y-78259578D02*
X165240000Y-78251000D01*
X162891000Y-77270000D02*
X162804726Y-77236085D01*
X162804726Y-77236085D02*
X162715532Y-77204057D01*
X162715532Y-77204057D02*
X162621598Y-77175506D01*
X162621598Y-77175506D02*
X162522205Y-77152250D01*
X162522205Y-77152250D02*
X162417470Y-77134613D01*
X162417470Y-77134613D02*
X162309971Y-77121533D01*
X162309971Y-77121533D02*
X162200256Y-77111244D01*
X162200256Y-77111244D02*
X162085434Y-77102259D01*
X162085434Y-77102259D02*
X161997000Y-77096000D01*
X168105000Y-79313000D02*
X168003888Y-79293346D01*
X168003888Y-79293346D02*
X167906001Y-79271170D01*
X167906001Y-79271170D02*
X167806775Y-79246514D01*
X167806775Y-79246514D02*
X167711509Y-79220708D01*
X167711509Y-79220708D02*
X167658000Y-79205000D01*
X168660000Y-79553000D02*
X168593774Y-79498274D01*
X168593774Y-79498274D02*
X168517613Y-79453511D01*
X168517613Y-79453511D02*
X168436322Y-79414774D01*
X168436322Y-79414774D02*
X168349767Y-79380244D01*
X168349767Y-79380244D02*
X168258923Y-79350099D01*
X168258923Y-79350099D02*
X168162777Y-79324737D01*
X168162777Y-79324737D02*
X168105000Y-79313000D01*
X165240000Y-78251000D02*
X165159694Y-78206483D01*
X165159694Y-78206483D02*
X165081588Y-78163913D01*
X165081588Y-78163913D02*
X164997253Y-78118765D01*
X164997253Y-78118765D02*
X164916855Y-78076530D01*
X164916855Y-78076530D02*
X164837023Y-78035385D01*
X164837023Y-78035385D02*
X164754481Y-77993691D01*
X164754481Y-77993691D02*
X164667687Y-77950798D01*
X164667687Y-77950798D02*
X164583250Y-77910029D01*
X164583250Y-77910029D02*
X164501145Y-77871313D01*
X164501145Y-77871313D02*
X164418168Y-77833139D01*
X164418168Y-77833139D02*
X164332804Y-77794895D01*
X164332804Y-77794895D02*
X164248279Y-77758083D01*
X164248279Y-77758083D02*
X164161529Y-77721427D01*
X164161529Y-77721427D02*
X164075724Y-77686332D01*
X164075724Y-77686332D02*
X163987872Y-77651634D01*
X163987872Y-77651634D02*
X163895128Y-77616411D01*
X163895128Y-77616411D02*
X163806554Y-77584177D01*
X163806554Y-77584177D02*
X163716267Y-77552791D01*
X163716267Y-77552791D02*
X163624423Y-77522456D01*
X163624423Y-77522456D02*
X163623000Y-77522000D01*
X168678000Y-79904000D02*
X168691842Y-79795562D01*
X168691842Y-79795562D02*
X168701730Y-79685343D01*
X168701730Y-79685343D02*
X168683584Y-79583259D01*
X168683584Y-79583259D02*
X168660000Y-79553000D01*
X168261000Y-80381000D02*
X168349851Y-80348116D01*
X168349851Y-80348116D02*
X168441207Y-80315709D01*
X168441207Y-80315709D02*
X168531609Y-80285653D01*
X168531609Y-80285653D02*
X168579000Y-80273000D01*
X161997000Y-77096000D02*
X161884984Y-77087410D01*
X161884984Y-77087410D02*
X161775472Y-77076300D01*
X161775472Y-77076300D02*
X161669305Y-77062111D01*
X161669305Y-77062111D02*
X161567046Y-77044070D01*
X161567046Y-77044070D02*
X161469856Y-77021254D01*
X161469856Y-77021254D02*
X161377610Y-76991958D01*
X161377610Y-76991958D02*
X161294156Y-76955236D01*
X161294156Y-76955236D02*
X161220107Y-76908502D01*
X161220107Y-76908502D02*
X161172000Y-76865000D01*
X161142000Y-76589000D02*
X161162624Y-76488792D01*
X161162624Y-76488792D02*
X161186868Y-76392070D01*
X161186868Y-76392070D02*
X161205000Y-76343000D01*
X161172000Y-76865000D02*
X161123567Y-76793216D01*
X161123567Y-76793216D02*
X161126869Y-76675358D01*
X161126869Y-76675358D02*
X161142000Y-76589000D01*
X168579000Y-80273000D02*
X168629751Y-80203031D01*
X168629751Y-80203031D02*
X168649786Y-80101550D01*
X168649786Y-80101550D02*
X168665762Y-79994409D01*
X168665762Y-79994409D02*
X168678000Y-79904000D01*
X164850000Y-75758000D02*
X164965054Y-75765840D01*
X164965054Y-75765840D02*
X165086666Y-75774206D01*
X165086666Y-75774206D02*
X165199495Y-75782050D01*
X165199495Y-75782050D02*
X165313468Y-75790064D01*
X165313468Y-75790064D02*
X165432731Y-75798562D01*
X165432731Y-75798562D02*
X165547755Y-75806884D01*
X165547755Y-75806884D02*
X165667052Y-75815665D01*
X165667052Y-75815665D02*
X165785804Y-75824585D01*
X165785804Y-75824585D02*
X165899847Y-75833342D01*
X165899847Y-75833342D02*
X166013095Y-75842255D01*
X166013095Y-75842255D02*
X166128832Y-75851620D01*
X166128832Y-75851620D02*
X166239611Y-75860868D01*
X166239611Y-75860868D02*
X166352182Y-75870597D01*
X166352182Y-75870597D02*
X166462876Y-75880540D01*
X166462876Y-75880540D02*
X166580438Y-75891576D01*
X166580438Y-75891576D02*
X166695185Y-75902901D01*
X166695185Y-75902901D02*
X166804547Y-75914285D01*
X166804547Y-75914285D02*
X166914148Y-75926354D01*
X166914148Y-75926354D02*
X167023884Y-75939199D01*
X167023884Y-75939199D02*
X167134958Y-75953074D01*
X167134958Y-75953074D02*
X167244068Y-75967652D01*
X167244068Y-75967652D02*
X167349103Y-75982644D01*
X167349103Y-75982644D02*
X167453658Y-75998554D01*
X167453658Y-75998554D02*
X167561159Y-76015958D01*
X167561159Y-76015958D02*
X167670888Y-76034793D01*
X167670888Y-76034793D02*
X167776533Y-76053886D01*
X167776533Y-76053886D02*
X167879046Y-76073223D01*
X167879046Y-76073223D02*
X167955000Y-76088000D01*
X163605000Y-75632000D02*
X163703535Y-75654752D01*
X163703535Y-75654752D02*
X163809015Y-75670739D01*
X163809015Y-75670739D02*
X163917636Y-75683787D01*
X163917636Y-75683787D02*
X164026826Y-75695033D01*
X164026826Y-75695033D02*
X164137793Y-75705259D01*
X164137793Y-75705259D02*
X164250435Y-75714795D01*
X164250435Y-75714795D02*
X164368342Y-75724115D01*
X164368342Y-75724115D02*
X164482634Y-75732666D01*
X164482634Y-75732666D02*
X164598167Y-75740936D01*
X164598167Y-75740936D02*
X164713535Y-75748896D01*
X164713535Y-75748896D02*
X164827355Y-75756509D01*
X164827355Y-75756509D02*
X164850000Y-75758000D01*
X162075000Y-75797000D02*
X162116913Y-75718403D01*
X162116913Y-75718403D02*
X162174883Y-75655776D01*
X162174883Y-75655776D02*
X162257662Y-75618288D01*
X162257662Y-75618288D02*
X162359536Y-75599776D01*
X162359536Y-75599776D02*
X162471286Y-75591089D01*
X162471286Y-75591089D02*
X162587543Y-75587013D01*
X162587543Y-75587013D02*
X162708328Y-75585073D01*
X162708328Y-75585073D02*
X162827531Y-75584165D01*
X162827531Y-75584165D02*
X162861000Y-75584000D01*
X162861000Y-75584000D02*
X162983227Y-75583491D01*
X162983227Y-75583491D02*
X163104536Y-75583785D01*
X163104536Y-75583785D02*
X163222851Y-75585488D01*
X163222851Y-75585488D02*
X163339690Y-75589890D01*
X163339690Y-75589890D02*
X163450723Y-75599369D01*
X163450723Y-75599369D02*
X163553917Y-75617804D01*
X163553917Y-75617804D02*
X163605000Y-75632000D01*
X161943000Y-75923000D02*
X162016084Y-75875334D01*
X162016084Y-75875334D02*
X162069091Y-75808061D01*
X162069091Y-75808061D02*
X162075000Y-75797000D01*
X161655000Y-76190000D02*
X161686943Y-76101559D01*
X161686943Y-76101559D02*
X161744716Y-76037115D01*
X161744716Y-76037115D02*
X161814101Y-75985190D01*
X161814101Y-75985190D02*
X161892259Y-75943289D01*
X161892259Y-75943289D02*
X161943000Y-75923000D01*
X161442000Y-76289000D02*
X161554856Y-76281217D01*
X161554856Y-76281217D02*
X161645570Y-76251678D01*
X161645570Y-76251678D02*
X161655000Y-76190000D01*
X167745000Y-80831000D02*
X167779955Y-80745682D01*
X167779955Y-80745682D02*
X167821694Y-80665736D01*
X167821694Y-80665736D02*
X167872806Y-80596197D01*
X167872806Y-80596197D02*
X167935384Y-80538191D01*
X167935384Y-80538191D02*
X168008046Y-80490598D01*
X168008046Y-80490598D02*
X168088822Y-80449957D01*
X168088822Y-80449957D02*
X168173778Y-80414102D01*
X168173778Y-80414102D02*
X168261000Y-80381000D01*
X167700000Y-81194000D02*
X167692902Y-81079775D01*
X167692902Y-81079775D02*
X167703202Y-80968941D01*
X167703202Y-80968941D02*
X167729741Y-80873478D01*
X167729741Y-80873478D02*
X167745000Y-80831000D01*
X180258000Y-76241000D02*
X180196011Y-76182917D01*
X180196011Y-76182917D02*
X180167862Y-76090058D01*
X180167862Y-76090058D02*
X180176579Y-75978127D01*
X180176579Y-75978127D02*
X180177000Y-75974000D01*
X180810000Y-76538000D02*
X180703251Y-76524702D01*
X180703251Y-76524702D02*
X180601113Y-76503878D01*
X180601113Y-76503878D02*
X180515278Y-76469136D01*
X180515278Y-76469136D02*
X180445592Y-76418173D01*
X180445592Y-76418173D02*
X180417000Y-76391000D01*
X181140000Y-76616000D02*
X181051502Y-76584075D01*
X181051502Y-76584075D02*
X180953643Y-76560569D01*
X180953643Y-76560569D02*
X180850658Y-76542951D01*
X180850658Y-76542951D02*
X180810000Y-76538000D01*
X181905000Y-78665000D02*
X182011660Y-78680352D01*
X182011660Y-78680352D02*
X182112760Y-78699412D01*
X182112760Y-78699412D02*
X182118000Y-78701000D01*
X181656000Y-77072000D02*
X181590994Y-77016067D01*
X181590994Y-77016067D02*
X181532553Y-76954056D01*
X181532553Y-76954056D02*
X181524000Y-76943000D01*
X181305000Y-78530000D02*
X181408467Y-78547683D01*
X181408467Y-78547683D02*
X181508387Y-78569787D01*
X181508387Y-78569787D02*
X181602755Y-78596072D01*
X181602755Y-78596072D02*
X181620000Y-78602000D01*
X182118000Y-78701000D02*
X182194116Y-78657099D01*
X182194116Y-78657099D02*
X182249630Y-78591649D01*
X182249630Y-78591649D02*
X182295000Y-78530000D01*
X181224000Y-75563000D02*
X181959000Y-75563000D01*
X181971000Y-77384000D02*
X181909748Y-77319129D01*
X181909748Y-77319129D02*
X181850312Y-77257566D01*
X181850312Y-77257566D02*
X181788271Y-77194874D01*
X181788271Y-77194874D02*
X181726070Y-77134187D01*
X181726070Y-77134187D02*
X181662855Y-77077342D01*
X181662855Y-77077342D02*
X181656000Y-77072000D01*
X182103000Y-75695000D02*
X182103000Y-75695000D01*
X181959000Y-75563000D02*
X182103000Y-75695000D01*
X180270000Y-77996000D02*
X180348000Y-77951000D01*
X180177000Y-75974000D02*
X180192697Y-75868541D01*
X180192697Y-75868541D02*
X180223165Y-75778319D01*
X180223165Y-75778319D02*
X180264000Y-75719000D01*
X181524000Y-76943000D02*
X181469352Y-76875992D01*
X181469352Y-76875992D02*
X181408252Y-76813670D01*
X181408252Y-76813670D02*
X181344231Y-76756265D01*
X181344231Y-76756265D02*
X181276500Y-76702317D01*
X181276500Y-76702317D02*
X181204852Y-76652710D01*
X181204852Y-76652710D02*
X181140000Y-76616000D01*
X182295000Y-78530000D02*
X182343218Y-78458191D01*
X182343218Y-78458191D02*
X182384928Y-78379256D01*
X182384928Y-78379256D02*
X182406874Y-78280863D01*
X182406874Y-78280863D02*
X182394945Y-78171249D01*
X182394945Y-78171249D02*
X182368682Y-78077444D01*
X182368682Y-78077444D02*
X182337759Y-77988184D01*
X182337759Y-77988184D02*
X182303780Y-77897617D01*
X182303780Y-77897617D02*
X182292000Y-77867000D01*
X181620000Y-78602000D02*
X181713421Y-78629597D01*
X181713421Y-78629597D02*
X181812921Y-78651346D01*
X181812921Y-78651346D02*
X181905000Y-78665000D01*
X180417000Y-76391000D02*
X180356723Y-76331163D01*
X180356723Y-76331163D02*
X180291273Y-76270825D01*
X180291273Y-76270825D02*
X180258000Y-76241000D01*
X182292000Y-77867000D02*
X182255931Y-77780369D01*
X182255931Y-77780369D02*
X182216185Y-77699250D01*
X182216185Y-77699250D02*
X182170360Y-77623616D01*
X182170360Y-77623616D02*
X182119399Y-77553996D01*
X182119399Y-77553996D02*
X182064963Y-77488331D01*
X182064963Y-77488331D02*
X182007916Y-77424186D01*
X182007916Y-77424186D02*
X181971000Y-77384000D01*
X179964000Y-77696000D02*
X180270000Y-77996000D01*
X180264000Y-75719000D02*
X180324462Y-75658864D01*
X180324462Y-75658864D02*
X180398485Y-75612617D01*
X180398485Y-75612617D02*
X180492588Y-75586356D01*
X180492588Y-75586356D02*
X180600028Y-75573715D01*
X180600028Y-75573715D02*
X180714079Y-75567728D01*
X180714079Y-75567728D02*
X180831506Y-75564902D01*
X180831506Y-75564902D02*
X180951176Y-75563627D01*
X180951176Y-75563627D02*
X181071576Y-75563129D01*
X181071576Y-75563129D02*
X181192295Y-75563002D01*
X181192295Y-75563002D02*
X181224000Y-75563000D01*
X184893000Y-98639000D02*
X184818258Y-98685358D01*
X184818258Y-98685358D02*
X184728122Y-98715695D01*
X184728122Y-98715695D02*
X184618379Y-98704418D01*
X184618379Y-98704418D02*
X184534438Y-98667497D01*
X184534438Y-98667497D02*
X184500000Y-98648000D01*
X186171000Y-97325000D02*
X186117906Y-97394261D01*
X186117906Y-97394261D02*
X186060991Y-97461100D01*
X186060991Y-97461100D02*
X186004403Y-97524984D01*
X186004403Y-97524984D02*
X185945124Y-97590368D01*
X185945124Y-97590368D02*
X185885708Y-97654814D01*
X185885708Y-97654814D02*
X185825200Y-97719619D01*
X185825200Y-97719619D02*
X185766286Y-97782065D01*
X185766286Y-97782065D02*
X185703701Y-97847791D01*
X185703701Y-97847791D02*
X185644363Y-97909597D01*
X185644363Y-97909597D02*
X185575913Y-97980328D01*
X185575913Y-97980328D02*
X185515156Y-98042620D01*
X185515156Y-98042620D02*
X185454450Y-98104409D01*
X185454450Y-98104409D02*
X185392632Y-98166850D01*
X185392632Y-98166850D02*
X185328682Y-98230920D01*
X185328682Y-98230920D02*
X185264918Y-98294218D01*
X185264918Y-98294218D02*
X185203579Y-98354484D01*
X185203579Y-98354484D02*
X185141150Y-98415064D01*
X185141150Y-98415064D02*
X185077944Y-98475412D01*
X185077944Y-98475412D02*
X185014154Y-98534917D01*
X185014154Y-98534917D02*
X184950020Y-98592397D01*
X184950020Y-98592397D02*
X184893000Y-98639000D01*
X186375000Y-97052000D02*
X186320896Y-97119694D01*
X186320896Y-97119694D02*
X186266750Y-97191326D01*
X186266750Y-97191326D02*
X186214490Y-97263058D01*
X186214490Y-97263058D02*
X186171000Y-97325000D01*
X183840000Y-97322000D02*
X183829910Y-97211759D01*
X183829910Y-97211759D02*
X183836847Y-97097964D01*
X183836847Y-97097964D02*
X183874374Y-97014533D01*
X183874374Y-97014533D02*
X183879000Y-97007000D01*
X183879000Y-97007000D02*
X183932904Y-96940312D01*
X183932904Y-96940312D02*
X183993863Y-96880678D01*
X183993863Y-96880678D02*
X184058185Y-96824278D01*
X184058185Y-96824278D02*
X184124974Y-96769749D01*
X184124974Y-96769749D02*
X184194107Y-96716286D01*
X184194107Y-96716286D02*
X184263569Y-96664910D01*
X184263569Y-96664910D02*
X184336443Y-96613087D01*
X184336443Y-96613087D02*
X184410028Y-96562628D01*
X184410028Y-96562628D02*
X184483443Y-96513976D01*
X184483443Y-96513976D02*
X184558035Y-96466161D01*
X184558035Y-96466161D02*
X184633954Y-96419101D01*
X184633954Y-96419101D02*
X184644000Y-96413000D01*
X170922000Y-84203000D02*
X170878322Y-84282201D01*
X170878322Y-84282201D02*
X170832013Y-84357114D01*
X170832013Y-84357114D02*
X170783191Y-84428801D01*
X170783191Y-84428801D02*
X170731573Y-84498184D01*
X170731573Y-84498184D02*
X170677081Y-84565365D01*
X170677081Y-84565365D02*
X170620282Y-84629367D01*
X170620282Y-84629367D02*
X170560097Y-84690619D01*
X170560097Y-84690619D02*
X170496481Y-84747467D01*
X170496481Y-84747467D02*
X170426345Y-84798624D01*
X170426345Y-84798624D02*
X170341366Y-84834006D01*
X170341366Y-84834006D02*
X170286000Y-84809000D01*
X171915000Y-83480000D02*
X171806311Y-83492296D01*
X171806311Y-83492296D02*
X171702154Y-83508622D01*
X171702154Y-83508622D02*
X171603163Y-83531448D01*
X171603163Y-83531448D02*
X171512757Y-83561673D01*
X171512757Y-83561673D02*
X171426581Y-83599777D01*
X171426581Y-83599777D02*
X171414000Y-83606000D01*
X173871000Y-82079000D02*
X173718000Y-82070000D01*
X174075000Y-82241000D02*
X174024000Y-82088000D01*
X170286000Y-84809000D02*
X170283401Y-84690048D01*
X170283401Y-84690048D02*
X170286626Y-84569619D01*
X170286626Y-84569619D02*
X170291273Y-84452925D01*
X170291273Y-84452925D02*
X170292000Y-84437000D01*
X172827000Y-83060000D02*
X172757585Y-83115493D01*
X172757585Y-83115493D02*
X172688053Y-83169290D01*
X172688053Y-83169290D02*
X172617724Y-83221134D01*
X172617724Y-83221134D02*
X172544965Y-83271075D01*
X172544965Y-83271075D02*
X172469583Y-83317681D01*
X172469583Y-83317681D02*
X172390559Y-83359750D01*
X172390559Y-83359750D02*
X172305835Y-83396413D01*
X172305835Y-83396413D02*
X172215397Y-83426314D01*
X172215397Y-83426314D02*
X172118438Y-83449618D01*
X172118438Y-83449618D02*
X172014825Y-83467371D01*
X172014825Y-83467371D02*
X171915000Y-83480000D01*
X171414000Y-83606000D02*
X171334672Y-83647861D01*
X171334672Y-83647861D02*
X171262215Y-83696688D01*
X171262215Y-83696688D02*
X171199420Y-83754261D01*
X171199420Y-83754261D02*
X171144397Y-83820637D01*
X171144397Y-83820637D02*
X171094367Y-83893955D01*
X171094367Y-83893955D02*
X171048173Y-83970419D01*
X171048173Y-83970419D02*
X171004514Y-84048072D01*
X171004514Y-84048072D02*
X170961974Y-84127002D01*
X170961974Y-84127002D02*
X170922000Y-84203000D01*
X173577000Y-82343000D02*
X173535034Y-82423336D01*
X173535034Y-82423336D02*
X173491641Y-82500543D01*
X173491641Y-82500543D02*
X173443610Y-82573115D01*
X173443610Y-82573115D02*
X173387433Y-82636970D01*
X173387433Y-82636970D02*
X173320651Y-82692742D01*
X173320651Y-82692742D02*
X173259000Y-82736000D01*
X173259000Y-82736000D02*
X173188000Y-82786366D01*
X173188000Y-82786366D02*
X173115556Y-82839544D01*
X173115556Y-82839544D02*
X173043264Y-82893620D01*
X173043264Y-82893620D02*
X172975019Y-82945382D01*
X172975019Y-82945382D02*
X172905526Y-82998761D01*
X172905526Y-82998761D02*
X172836158Y-83052795D01*
X172836158Y-83052795D02*
X172827000Y-83060000D01*
X186186000Y-87932000D02*
X186237000Y-88190000D01*
X168381000Y-82304000D02*
X168310310Y-82252847D01*
X168310310Y-82252847D02*
X168235451Y-82207562D01*
X168235451Y-82207562D02*
X168158815Y-82163922D01*
X168158815Y-82163922D02*
X168078824Y-82120287D01*
X168078824Y-82120287D02*
X168006000Y-82082000D01*
X170295000Y-84098000D02*
X170225197Y-84151282D01*
X170225197Y-84151282D02*
X170157977Y-84204183D01*
X170157977Y-84204183D02*
X170089898Y-84258816D01*
X170089898Y-84258816D02*
X170070000Y-84275000D01*
X174024000Y-82088000D02*
X173871000Y-82079000D01*
X169785000Y-84404000D02*
X169804205Y-84297691D01*
X169804205Y-84297691D02*
X169823746Y-84194741D01*
X169823746Y-84194741D02*
X169843914Y-84092580D01*
X169843914Y-84092580D02*
X169864781Y-83991092D01*
X169864781Y-83991092D02*
X169872000Y-83957000D01*
X167652000Y-81842000D02*
X167629122Y-81744594D01*
X167629122Y-81744594D02*
X167628830Y-81624338D01*
X167628830Y-81624338D02*
X167649963Y-81524685D01*
X167649963Y-81524685D02*
X167673000Y-81470000D01*
X173718000Y-82070000D02*
X173577000Y-82343000D01*
X168006000Y-82082000D02*
X167925644Y-82040075D01*
X167925644Y-82040075D02*
X167847522Y-81997292D01*
X167847522Y-81997292D02*
X167771248Y-81951753D01*
X167771248Y-81951753D02*
X167701029Y-81901487D01*
X167701029Y-81901487D02*
X167652000Y-81842000D01*
X186330000Y-87620000D02*
X186186000Y-87932000D01*
X168570000Y-82652000D02*
X168529954Y-82567776D01*
X168529954Y-82567776D02*
X168489865Y-82487740D01*
X168489865Y-82487740D02*
X168448021Y-82409132D01*
X168448021Y-82409132D02*
X168402871Y-82332944D01*
X168402871Y-82332944D02*
X168381000Y-82304000D01*
X170070000Y-84275000D02*
X170002159Y-84328146D01*
X170002159Y-84328146D02*
X169932199Y-84379409D01*
X169932199Y-84379409D02*
X169857778Y-84425207D01*
X169857778Y-84425207D02*
X169785000Y-84404000D01*
X168789000Y-83006000D02*
X168733578Y-82940262D01*
X168733578Y-82940262D02*
X168685604Y-82866773D01*
X168685604Y-82866773D02*
X168640616Y-82789520D01*
X168640616Y-82789520D02*
X168598629Y-82710463D01*
X168598629Y-82710463D02*
X168570000Y-82652000D01*
X169773000Y-83483000D02*
X169684916Y-83448966D01*
X169684916Y-83448966D02*
X169599644Y-83413159D01*
X169599644Y-83413159D02*
X169515292Y-83376126D01*
X169515292Y-83376126D02*
X169431765Y-83338301D01*
X169431765Y-83338301D02*
X169345737Y-83298351D01*
X169345737Y-83298351D02*
X169263942Y-83259514D01*
X169263942Y-83259514D02*
X169177448Y-83217542D01*
X169177448Y-83217542D02*
X169095407Y-83176793D01*
X169095407Y-83176793D02*
X169014488Y-83135525D01*
X169014488Y-83135525D02*
X168934548Y-83093297D01*
X168934548Y-83093297D02*
X168856873Y-83049870D01*
X168856873Y-83049870D02*
X168789000Y-83006000D01*
X170292000Y-84437000D02*
X170296908Y-84319837D01*
X170296908Y-84319837D02*
X170300150Y-84200566D01*
X170300150Y-84200566D02*
X170295000Y-84098000D01*
X184929000Y-90968000D02*
X184899467Y-90874396D01*
X184899467Y-90874396D02*
X184869881Y-90781188D01*
X184869881Y-90781188D02*
X184839791Y-90687104D01*
X184839791Y-90687104D02*
X184809797Y-90594166D01*
X184809797Y-90594166D02*
X184778994Y-90499787D01*
X184778994Y-90499787D02*
X184747521Y-90404681D01*
X184747521Y-90404681D02*
X184717246Y-90314681D01*
X184717246Y-90314681D02*
X184686382Y-90224707D01*
X184686382Y-90224707D02*
X184655001Y-90135376D01*
X184655001Y-90135376D02*
X184621582Y-90043016D01*
X184621582Y-90043016D02*
X184587800Y-89952989D01*
X184587800Y-89952989D02*
X184553590Y-89865712D01*
X184553590Y-89865712D02*
X184517757Y-89778978D01*
X184517757Y-89778978D02*
X184480531Y-89694374D01*
X184480531Y-89694374D02*
X184441291Y-89611592D01*
X184441291Y-89611592D02*
X184399894Y-89531461D01*
X184399894Y-89531461D02*
X184356226Y-89454644D01*
X184356226Y-89454644D02*
X184308568Y-89379016D01*
X184308568Y-89379016D02*
X184258917Y-89308015D01*
X184258917Y-89308015D02*
X184205833Y-89239140D01*
X184205833Y-89239140D02*
X184149658Y-89172204D01*
X184149658Y-89172204D02*
X184092000Y-89108000D01*
X184092000Y-89108000D02*
X184031940Y-89046035D01*
X184031940Y-89046035D02*
X183963363Y-88994020D01*
X183963363Y-88994020D02*
X183880616Y-88956644D01*
X183880616Y-88956644D02*
X183788716Y-88927473D01*
X183788716Y-88927473D02*
X183692163Y-88901705D01*
X183692163Y-88901705D02*
X183593211Y-88877394D01*
X183593211Y-88877394D02*
X183491872Y-88853478D01*
X183491872Y-88853478D02*
X183388688Y-88829594D01*
X183388688Y-88829594D02*
X183287932Y-88806469D01*
X183287932Y-88806469D02*
X183216000Y-88790000D01*
X175905000Y-83219000D02*
X175826354Y-83172491D01*
X175826354Y-83172491D02*
X175749970Y-83128215D01*
X175749970Y-83128215D02*
X175672920Y-83085134D01*
X175672920Y-83085134D02*
X175594140Y-83043613D01*
X175594140Y-83043613D02*
X175511989Y-83003879D01*
X175511989Y-83003879D02*
X175426905Y-82966830D01*
X175426905Y-82966830D02*
X175340454Y-82932875D01*
X175340454Y-82932875D02*
X175250598Y-82900435D01*
X175250598Y-82900435D02*
X175158529Y-82869131D01*
X175158529Y-82869131D02*
X175065227Y-82838607D01*
X175065227Y-82838607D02*
X174974040Y-82809450D01*
X174974040Y-82809450D02*
X174960000Y-82805000D01*
X177837000Y-84863000D02*
X177790991Y-84786416D01*
X177790991Y-84786416D02*
X177744424Y-84709586D01*
X177744424Y-84709586D02*
X177696809Y-84632099D01*
X177696809Y-84632099D02*
X177649155Y-84556167D01*
X177649155Y-84556167D02*
X177600701Y-84481453D01*
X177600701Y-84481453D02*
X177551385Y-84409266D01*
X177551385Y-84409266D02*
X177499932Y-84339924D01*
X177499932Y-84339924D02*
X177444538Y-84274154D01*
X177444538Y-84274154D02*
X177383997Y-84213318D01*
X177383997Y-84213318D02*
X177327000Y-84164000D01*
X179220000Y-86729000D02*
X179158180Y-86664865D01*
X179158180Y-86664865D02*
X179099482Y-86602890D01*
X179099482Y-86602890D02*
X179039409Y-86538246D01*
X179039409Y-86538246D02*
X178980777Y-86473833D01*
X178980777Y-86473833D02*
X178923767Y-86409828D01*
X178923767Y-86409828D02*
X178867207Y-86344871D01*
X178867207Y-86344871D02*
X178811949Y-86279900D01*
X178811949Y-86279900D02*
X178752348Y-86208036D01*
X178752348Y-86208036D02*
X178698596Y-86141553D01*
X178698596Y-86141553D02*
X178645317Y-86074024D01*
X178645317Y-86074024D02*
X178592354Y-86005239D01*
X178592354Y-86005239D02*
X178537032Y-85931603D01*
X178537032Y-85931603D02*
X178484215Y-85859591D01*
X178484215Y-85859591D02*
X178433756Y-85789247D01*
X178433756Y-85789247D02*
X178383643Y-85717919D01*
X178383643Y-85717919D02*
X178334400Y-85646447D01*
X178334400Y-85646447D02*
X178285287Y-85573856D01*
X178285287Y-85573856D02*
X178235552Y-85499074D01*
X178235552Y-85499074D02*
X178187753Y-85426068D01*
X178187753Y-85426068D02*
X178139189Y-85350824D01*
X178139189Y-85350824D02*
X178089760Y-85273209D01*
X178089760Y-85273209D02*
X178042195Y-85197613D01*
X178042195Y-85197613D02*
X177993682Y-85119674D01*
X177993682Y-85119674D02*
X177947085Y-85044080D01*
X177947085Y-85044080D02*
X177899506Y-84966218D01*
X177899506Y-84966218D02*
X177853947Y-84891082D01*
X177853947Y-84891082D02*
X177837000Y-84863000D01*
X185400000Y-95528000D02*
X185440557Y-95444498D01*
X185440557Y-95444498D02*
X185478971Y-95360779D01*
X185478971Y-95360779D02*
X185514944Y-95275764D01*
X185514944Y-95275764D02*
X185548471Y-95186949D01*
X185548471Y-95186949D02*
X185578138Y-95095063D01*
X185578138Y-95095063D02*
X185603609Y-94997973D01*
X185603609Y-94997973D02*
X185623863Y-94897505D01*
X185623863Y-94897505D02*
X185639424Y-94790881D01*
X185639424Y-94790881D02*
X185650308Y-94681198D01*
X185650308Y-94681198D02*
X185657419Y-94568208D01*
X185657419Y-94568208D02*
X185661654Y-94450088D01*
X185661654Y-94450088D02*
X185663597Y-94331799D01*
X185663597Y-94331799D02*
X185664000Y-94238000D01*
X183216000Y-88790000D02*
X183115792Y-88767014D01*
X183115792Y-88767014D02*
X183018023Y-88744085D01*
X183018023Y-88744085D02*
X182919242Y-88720373D01*
X182919242Y-88720373D02*
X182822876Y-88696675D01*
X182822876Y-88696675D02*
X182726242Y-88672304D01*
X182726242Y-88672304D02*
X182630050Y-88647402D01*
X182630050Y-88647402D02*
X182534956Y-88622106D01*
X182534956Y-88622106D02*
X182439101Y-88595874D01*
X182439101Y-88595874D02*
X182345003Y-88569358D01*
X182345003Y-88569358D02*
X182250237Y-88541832D01*
X182250237Y-88541832D02*
X182154890Y-88513246D01*
X182154890Y-88513246D02*
X182059044Y-88483543D01*
X182059044Y-88483543D02*
X181959414Y-88451566D01*
X181959414Y-88451566D02*
X181866156Y-88420542D01*
X181866156Y-88420542D02*
X181774104Y-88388812D01*
X181774104Y-88388812D02*
X181683761Y-88356529D01*
X181683761Y-88356529D02*
X181591941Y-88322480D01*
X181591941Y-88322480D02*
X181502844Y-88288174D01*
X181502844Y-88288174D02*
X181416848Y-88253801D01*
X181416848Y-88253801D02*
X181329374Y-88217488D01*
X181329374Y-88217488D02*
X181244389Y-88180830D01*
X181244389Y-88180830D02*
X181159869Y-88142948D01*
X181159869Y-88142948D02*
X181075801Y-88103781D01*
X181075801Y-88103781D02*
X180994001Y-88064173D01*
X180994001Y-88064173D02*
X180912996Y-88023421D01*
X180912996Y-88023421D02*
X180834083Y-87982189D01*
X180834083Y-87982189D02*
X180755830Y-87939743D01*
X180755830Y-87939743D02*
X180675139Y-87894283D01*
X180675139Y-87894283D02*
X180596803Y-87848439D01*
X180596803Y-87848439D02*
X180520279Y-87801973D01*
X180520279Y-87801973D02*
X180445043Y-87754616D01*
X180445043Y-87754616D02*
X180369760Y-87705521D01*
X180369760Y-87705521D02*
X180296039Y-87655744D01*
X180296039Y-87655744D02*
X180224598Y-87605869D01*
X180224598Y-87605869D02*
X180148845Y-87551191D01*
X180148845Y-87551191D02*
X180079687Y-87499641D01*
X180079687Y-87499641D02*
X180010137Y-87446208D01*
X180010137Y-87446208D02*
X179939738Y-87390489D01*
X179939738Y-87390489D02*
X179872019Y-87335338D01*
X179872019Y-87335338D02*
X179806104Y-87280193D01*
X179806104Y-87280193D02*
X179739545Y-87223052D01*
X179739545Y-87223052D02*
X179673870Y-87165245D01*
X179673870Y-87165245D02*
X179609814Y-87107516D01*
X179609814Y-87107516D02*
X179546526Y-87049196D01*
X179546526Y-87049196D02*
X179483171Y-86989555D01*
X179483171Y-86989555D02*
X179419695Y-86928566D01*
X179419695Y-86928566D02*
X179356047Y-86866200D01*
X179356047Y-86866200D02*
X179295378Y-86805660D01*
X179295378Y-86805660D02*
X179234465Y-86743832D01*
X179234465Y-86743832D02*
X179220000Y-86729000D01*
X174960000Y-82805000D02*
X174861381Y-82774003D01*
X174861381Y-82774003D02*
X174767701Y-82744326D01*
X174767701Y-82744326D02*
X174674580Y-82714329D01*
X174674580Y-82714329D02*
X174584272Y-82684321D01*
X174584272Y-82684321D02*
X174494485Y-82652805D01*
X174494485Y-82652805D02*
X174406092Y-82618631D01*
X174406092Y-82618631D02*
X174323190Y-82580763D01*
X174323190Y-82580763D02*
X174247764Y-82535204D01*
X174247764Y-82535204D02*
X174185269Y-82477327D01*
X174185269Y-82477327D02*
X174138340Y-82404219D01*
X174138340Y-82404219D02*
X174102683Y-82319652D01*
X174102683Y-82319652D02*
X174075000Y-82241000D01*
X185664000Y-94238000D02*
X185663799Y-94116124D01*
X185663799Y-94116124D02*
X185662860Y-93996015D01*
X185662860Y-93996015D02*
X185660502Y-93876072D01*
X185660502Y-93876072D02*
X185656064Y-93760152D01*
X185656064Y-93760152D02*
X185648457Y-93641542D01*
X185648457Y-93641542D02*
X185637909Y-93530952D01*
X185637909Y-93530952D02*
X185622389Y-93411342D01*
X185622389Y-93411342D02*
X185605296Y-93306391D01*
X185605296Y-93306391D02*
X185585982Y-93205068D01*
X185585982Y-93205068D02*
X185564526Y-93104856D01*
X185564526Y-93104856D02*
X185541062Y-93004491D01*
X185541062Y-93004491D02*
X185517066Y-92908367D01*
X185517066Y-92908367D02*
X185490947Y-92808845D01*
X185490947Y-92808845D02*
X185464113Y-92710545D01*
X185464113Y-92710545D02*
X185436565Y-92612656D01*
X185436565Y-92612656D02*
X185408679Y-92515879D01*
X185408679Y-92515879D02*
X185380827Y-92421009D01*
X185380827Y-92421009D02*
X185351022Y-92321012D01*
X185351022Y-92321012D02*
X185321718Y-92223905D01*
X185321718Y-92223905D02*
X185292638Y-92128469D01*
X185292638Y-92128469D02*
X185264057Y-92035385D01*
X185264057Y-92035385D02*
X185234779Y-91940629D01*
X185234779Y-91940629D02*
X185204870Y-91844345D01*
X185204870Y-91844345D02*
X185173606Y-91744132D01*
X185173606Y-91744132D02*
X185144284Y-91650472D01*
X185144284Y-91650472D02*
X185115543Y-91558912D01*
X185115543Y-91558912D02*
X185085758Y-91464236D01*
X185085758Y-91464236D02*
X185051220Y-91354662D01*
X185051220Y-91354662D02*
X185019170Y-91253143D01*
X185019170Y-91253143D02*
X184989986Y-91160793D01*
X184989986Y-91160793D02*
X184957899Y-91059332D01*
X184957899Y-91059332D02*
X184929000Y-90968000D01*
X184644000Y-96413000D02*
X184717912Y-96366673D01*
X184717912Y-96366673D02*
X184789234Y-96317777D01*
X184789234Y-96317777D02*
X184858501Y-96265183D01*
X184858501Y-96265183D02*
X184923764Y-96209793D01*
X184923764Y-96209793D02*
X184986007Y-96150467D01*
X184986007Y-96150467D02*
X185044082Y-96088302D01*
X185044082Y-96088302D02*
X185098775Y-96022854D01*
X185098775Y-96022854D02*
X185150801Y-95953767D01*
X185150801Y-95953767D02*
X185200308Y-95881511D01*
X185200308Y-95881511D02*
X185247045Y-95807396D01*
X185247045Y-95807396D02*
X185292602Y-95729783D01*
X185292602Y-95729783D02*
X185336021Y-95651177D01*
X185336021Y-95651177D02*
X185377527Y-95572187D01*
X185377527Y-95572187D02*
X185400000Y-95528000D01*
X177327000Y-84164000D02*
X177259026Y-84110889D01*
X177259026Y-84110889D02*
X177190029Y-84059641D01*
X177190029Y-84059641D02*
X177119090Y-84008511D01*
X177119090Y-84008511D02*
X177046807Y-83957510D01*
X177046807Y-83957510D02*
X176974104Y-83907049D01*
X176974104Y-83907049D02*
X176901177Y-83857107D01*
X176901177Y-83857107D02*
X176827693Y-83807359D01*
X176827693Y-83807359D02*
X176749885Y-83755234D01*
X176749885Y-83755234D02*
X176675878Y-83706131D01*
X176675878Y-83706131D02*
X176600154Y-83656328D01*
X176600154Y-83656328D02*
X176523081Y-83606078D01*
X176523081Y-83606078D02*
X176446451Y-83556536D01*
X176446451Y-83556536D02*
X176372921Y-83509391D01*
X176372921Y-83509391D02*
X176294005Y-83459217D01*
X176294005Y-83459217D02*
X176220093Y-83412636D01*
X176220093Y-83412636D02*
X176144932Y-83365688D01*
X176144932Y-83365688D02*
X176065670Y-83316665D01*
X176065670Y-83316665D02*
X175989192Y-83269874D01*
X175989192Y-83269874D02*
X175914241Y-83224548D01*
X175914241Y-83224548D02*
X175905000Y-83219000D01*
X184500000Y-98648000D02*
X184430429Y-98597443D01*
X184430429Y-98597443D02*
X184367166Y-98540069D01*
X184367166Y-98540069D02*
X184306613Y-98478785D01*
X184306613Y-98478785D02*
X184248709Y-98415471D01*
X184248709Y-98415471D02*
X184192192Y-98349468D01*
X184192192Y-98349468D02*
X184138598Y-98282715D01*
X184138598Y-98282715D02*
X184086521Y-98212946D01*
X184086521Y-98212946D02*
X184037709Y-98140772D01*
X184037709Y-98140772D02*
X183994262Y-98063996D01*
X183994262Y-98063996D02*
X183987000Y-98048000D01*
X183987000Y-98048000D02*
X183955865Y-97958065D01*
X183955865Y-97958065D02*
X183930119Y-97863423D01*
X183930119Y-97863423D02*
X183907354Y-97764393D01*
X183907354Y-97764393D02*
X183887351Y-97663510D01*
X183887351Y-97663510D02*
X183869336Y-97557762D01*
X183869336Y-97557762D02*
X183854024Y-97450388D01*
X183854024Y-97450388D02*
X183841678Y-97340261D01*
X183841678Y-97340261D02*
X183840000Y-97322000D01*
X169770000Y-76409000D02*
X169883502Y-76427348D01*
X169883502Y-76427348D02*
X169995154Y-76445364D01*
X169995154Y-76445364D02*
X170104234Y-76462895D01*
X170104234Y-76462895D02*
X170212493Y-76480168D01*
X170212493Y-76480168D02*
X170316604Y-76496589D01*
X170316604Y-76496589D02*
X170426319Y-76513574D01*
X170426319Y-76513574D02*
X170531406Y-76529360D01*
X170531406Y-76529360D02*
X170638304Y-76544683D01*
X170638304Y-76544683D02*
X170746974Y-76559118D01*
X170746974Y-76559118D02*
X170856862Y-76572033D01*
X170856862Y-76572033D02*
X170966961Y-76582729D01*
X170966961Y-76582729D02*
X171081648Y-76591161D01*
X171081648Y-76591161D02*
X171199676Y-76597175D01*
X171199676Y-76597175D02*
X171317423Y-76601210D01*
X171317423Y-76601210D02*
X171437463Y-76604137D01*
X171437463Y-76604137D02*
X171558268Y-76606509D01*
X171558268Y-76606509D02*
X171585000Y-76607000D01*
X180915000Y-78407000D02*
X180970472Y-78472130D01*
X180970472Y-78472130D02*
X181070203Y-78493549D01*
X181070203Y-78493549D02*
X181176262Y-78510667D01*
X181176262Y-78510667D02*
X181282923Y-78526718D01*
X181282923Y-78526718D02*
X181305000Y-78530000D01*
X179238000Y-77471000D02*
X179309330Y-77520454D01*
X179309330Y-77520454D02*
X179384631Y-77565195D01*
X179384631Y-77565195D02*
X179406000Y-77573000D01*
X172545000Y-76580000D02*
X172656282Y-76569697D01*
X172656282Y-76569697D02*
X172771081Y-76562961D01*
X172771081Y-76562961D02*
X172888303Y-76558134D01*
X172888303Y-76558134D02*
X173007778Y-76554538D01*
X173007778Y-76554538D02*
X173130079Y-76551821D01*
X173130079Y-76551821D02*
X173249300Y-76549872D01*
X173249300Y-76549872D02*
X173369788Y-76548453D01*
X173369788Y-76548453D02*
X173492855Y-76547461D01*
X173492855Y-76547461D02*
X173615560Y-76546858D01*
X173615560Y-76546858D02*
X173735682Y-76546579D01*
X173735682Y-76546579D02*
X173856548Y-76546570D01*
X173856548Y-76546570D02*
X173976832Y-76546798D01*
X173976832Y-76546798D02*
X174039000Y-76547000D01*
X171585000Y-76607000D02*
X171707982Y-76608308D01*
X171707982Y-76608308D02*
X171827555Y-76608795D01*
X171827555Y-76608795D02*
X171949615Y-76608357D01*
X171949615Y-76608357D02*
X172070299Y-76606804D01*
X172070299Y-76606804D02*
X172188835Y-76603918D01*
X172188835Y-76603918D02*
X172304952Y-76599350D01*
X172304952Y-76599350D02*
X172418568Y-76592474D01*
X172418568Y-76592474D02*
X172528231Y-76582102D01*
X172528231Y-76582102D02*
X172545000Y-76580000D01*
X180699000Y-78035000D02*
X180756149Y-78100566D01*
X180756149Y-78100566D02*
X180809205Y-78169294D01*
X180809205Y-78169294D02*
X180857842Y-78243873D01*
X180857842Y-78243873D02*
X180897504Y-78325377D01*
X180897504Y-78325377D02*
X180915000Y-78407000D01*
X169956000Y-83549000D02*
X169773000Y-83483000D01*
X176862000Y-76883000D02*
X176960606Y-76905417D01*
X176960606Y-76905417D02*
X177057711Y-76929482D01*
X177057711Y-76929482D02*
X177152773Y-76954906D01*
X177152773Y-76954906D02*
X177246859Y-76982163D01*
X177246859Y-76982163D02*
X177338510Y-77011794D01*
X177338510Y-77011794D02*
X177393000Y-77033000D01*
X177885000Y-77048000D02*
X177962417Y-77091068D01*
X177962417Y-77091068D02*
X178032000Y-77108000D01*
X175701000Y-76640000D02*
X175805905Y-76624675D01*
X175805905Y-76624675D02*
X175902929Y-76647734D01*
X175902929Y-76647734D02*
X175917000Y-76652000D01*
X180348000Y-77951000D02*
X180430650Y-77912600D01*
X180430650Y-77912600D02*
X180547893Y-77915958D01*
X180547893Y-77915958D02*
X180622645Y-77961465D01*
X180622645Y-77961465D02*
X180684871Y-78019868D01*
X180684871Y-78019868D02*
X180699000Y-78035000D01*
X179520000Y-77483000D02*
X179582445Y-77424183D01*
X179582445Y-77424183D02*
X179631000Y-77393000D01*
X174039000Y-76547000D02*
X174180508Y-76547759D01*
X174180508Y-76547759D02*
X174316312Y-76548548D01*
X174316312Y-76548548D02*
X174450599Y-76549436D01*
X174450599Y-76549436D02*
X174571716Y-76550392D01*
X174571716Y-76550392D02*
X174692723Y-76551592D01*
X174692723Y-76551592D02*
X174813408Y-76553202D01*
X174813408Y-76553202D02*
X174932306Y-76555505D01*
X174932306Y-76555505D02*
X175049891Y-76559133D01*
X175049891Y-76559133D02*
X175164002Y-76565567D01*
X175164002Y-76565567D02*
X175271245Y-76579385D01*
X175271245Y-76579385D02*
X175360465Y-76610690D01*
X175360465Y-76610690D02*
X175365000Y-76613000D01*
X178950000Y-77324000D02*
X179036982Y-77358907D01*
X179036982Y-77358907D02*
X179117704Y-77398466D01*
X179117704Y-77398466D02*
X179194286Y-77442017D01*
X179194286Y-77442017D02*
X179238000Y-77471000D01*
X169872000Y-83957000D02*
X169956000Y-83549000D01*
X179631000Y-77393000D02*
X179699241Y-77445082D01*
X179699241Y-77445082D02*
X179762870Y-77502289D01*
X179762870Y-77502289D02*
X179826515Y-77561868D01*
X179826515Y-77561868D02*
X179887947Y-77620963D01*
X179887947Y-77620963D02*
X179949282Y-77681320D01*
X179949282Y-77681320D02*
X179964000Y-77696000D01*
X179406000Y-77573000D02*
X179476932Y-77523701D01*
X179476932Y-77523701D02*
X179520000Y-77483000D01*
X177612000Y-77051000D02*
X177698860Y-77016418D01*
X177698860Y-77016418D02*
X177811246Y-77008699D01*
X177811246Y-77008699D02*
X177885000Y-77048000D01*
X167955000Y-76088000D02*
X168056450Y-76107350D01*
X168056450Y-76107350D02*
X168162382Y-76127135D01*
X168162382Y-76127135D02*
X168265686Y-76146152D01*
X168265686Y-76146152D02*
X168380355Y-76167026D01*
X168380355Y-76167026D02*
X168482689Y-76185488D01*
X168482689Y-76185488D02*
X168589446Y-76204611D01*
X168589446Y-76204611D02*
X168697998Y-76223928D01*
X168697998Y-76223928D02*
X168801674Y-76242268D01*
X168801674Y-76242268D02*
X168915171Y-76262234D01*
X168915171Y-76262234D02*
X169026236Y-76281664D01*
X169026236Y-76281664D02*
X169139124Y-76301306D01*
X169139124Y-76301306D02*
X169250215Y-76320532D01*
X169250215Y-76320532D02*
X169361887Y-76339753D01*
X169361887Y-76339753D02*
X169468591Y-76358016D01*
X169468591Y-76358016D02*
X169577632Y-76376569D01*
X169577632Y-76376569D02*
X169684414Y-76394621D01*
X169684414Y-76394621D02*
X169770000Y-76409000D01*
X177393000Y-77033000D02*
X177476235Y-77070888D01*
X177476235Y-77070888D02*
X177588778Y-77062280D01*
X177588778Y-77062280D02*
X177612000Y-77051000D01*
X178032000Y-77108000D02*
X178135115Y-77127695D01*
X178135115Y-77127695D02*
X178234308Y-77148875D01*
X178234308Y-77148875D02*
X178337222Y-77171877D01*
X178337222Y-77171877D02*
X178438303Y-77195161D01*
X178438303Y-77195161D02*
X178538133Y-77218717D01*
X178538133Y-77218717D02*
X178638496Y-77242947D01*
X178638496Y-77242947D02*
X178738369Y-77267676D01*
X178738369Y-77267676D02*
X178834637Y-77292309D01*
X178834637Y-77292309D02*
X178929890Y-77318137D01*
X178929890Y-77318137D02*
X178950000Y-77324000D01*
X175917000Y-76652000D02*
X176010635Y-76679241D01*
X176010635Y-76679241D02*
X176105367Y-76704883D01*
X176105367Y-76704883D02*
X176200921Y-76729344D01*
X176200921Y-76729344D02*
X176301206Y-76753964D01*
X176301206Y-76753964D02*
X176401654Y-76777887D01*
X176401654Y-76777887D02*
X176502182Y-76801322D01*
X176502182Y-76801322D02*
X176603138Y-76824507D01*
X176603138Y-76824507D02*
X176702851Y-76847163D01*
X176702851Y-76847163D02*
X176810680Y-76871477D01*
X176810680Y-76871477D02*
X176862000Y-76883000D01*
X175365000Y-76613000D02*
X175450438Y-76648724D01*
X175450438Y-76648724D02*
X175550891Y-76669495D01*
X175550891Y-76669495D02*
X175658959Y-76657421D01*
X175658959Y-76657421D02*
X175701000Y-76640000D01*
X184065000Y-77102000D02*
X184108507Y-77178618D01*
X184108507Y-77178618D02*
X184160999Y-77247931D01*
X184160999Y-77247931D02*
X184217340Y-77312515D01*
X184217340Y-77312515D02*
X184276061Y-77373881D01*
X184276061Y-77373881D02*
X184337878Y-77434112D01*
X184337878Y-77434112D02*
X184401109Y-77492262D01*
X184401109Y-77492262D02*
X184467425Y-77550250D01*
X184467425Y-77550250D02*
X184532841Y-77604916D01*
X184532841Y-77604916D02*
X184609960Y-77666536D01*
X184609960Y-77666536D02*
X184656000Y-77702000D01*
X183819000Y-76886000D02*
X183898358Y-76926850D01*
X183898358Y-76926850D02*
X183971868Y-76974119D01*
X183971868Y-76974119D02*
X184029759Y-77036545D01*
X184029759Y-77036545D02*
X184065000Y-77102000D01*
X182961000Y-76322000D02*
X183035356Y-76372534D01*
X183035356Y-76372534D02*
X183106363Y-76421659D01*
X183106363Y-76421659D02*
X183181494Y-76474176D01*
X183181494Y-76474176D02*
X183253600Y-76525037D01*
X183253600Y-76525037D02*
X183326207Y-76576739D01*
X183326207Y-76576739D02*
X183360000Y-76601000D01*
X185307000Y-80201000D02*
X185331128Y-80301735D01*
X185331128Y-80301735D02*
X185354604Y-80402664D01*
X185354604Y-80402664D02*
X185376864Y-80502537D01*
X185376864Y-80502537D02*
X185397988Y-80603145D01*
X185397988Y-80603145D02*
X185417658Y-80704703D01*
X185417658Y-80704703D02*
X185435612Y-80807331D01*
X185435612Y-80807331D02*
X185451851Y-80911829D01*
X185451851Y-80911829D02*
X185466631Y-81019665D01*
X185466631Y-81019665D02*
X185479727Y-81127214D01*
X185479727Y-81127214D02*
X185491739Y-81236231D01*
X185491739Y-81236231D02*
X185503253Y-81349304D01*
X185503253Y-81349304D02*
X185508000Y-81398000D01*
X185250000Y-79223000D02*
X185227819Y-79321654D01*
X185227819Y-79321654D02*
X185213094Y-79427371D01*
X185213094Y-79427371D02*
X185207439Y-79541767D01*
X185207439Y-79541767D02*
X185211300Y-79658204D01*
X185211300Y-79658204D02*
X185222257Y-79768901D01*
X185222257Y-79768901D02*
X185237891Y-79874609D01*
X185237891Y-79874609D02*
X185256915Y-79977815D01*
X185256915Y-79977815D02*
X185277886Y-80076901D01*
X185277886Y-80076901D02*
X185300756Y-80175331D01*
X185300756Y-80175331D02*
X185307000Y-80201000D01*
X185022000Y-78395000D02*
X185069451Y-78469337D01*
X185069451Y-78469337D02*
X185116599Y-78544324D01*
X185116599Y-78544324D02*
X185162221Y-78619179D01*
X185162221Y-78619179D02*
X185206032Y-78695650D01*
X185206032Y-78695650D02*
X185246481Y-78775941D01*
X185246481Y-78775941D02*
X185279195Y-78863491D01*
X185279195Y-78863491D02*
X185294874Y-78970828D01*
X185294874Y-78970828D02*
X185283961Y-79080274D01*
X185283961Y-79080274D02*
X185261376Y-79179557D01*
X185261376Y-79179557D02*
X185250000Y-79223000D01*
X184845000Y-77984000D02*
X184857608Y-78091426D01*
X184857608Y-78091426D02*
X184891551Y-78177561D01*
X184891551Y-78177561D02*
X184934706Y-78255960D01*
X184934706Y-78255960D02*
X184981109Y-78331334D01*
X184981109Y-78331334D02*
X185022000Y-78395000D01*
X184656000Y-77702000D02*
X184723973Y-77754998D01*
X184723973Y-77754998D02*
X184789393Y-77811439D01*
X184789393Y-77811439D02*
X184836819Y-77884086D01*
X184836819Y-77884086D02*
X184845000Y-77984000D01*
X183360000Y-76601000D02*
X183431733Y-76650941D01*
X183431733Y-76650941D02*
X183505505Y-76700127D01*
X183505505Y-76700127D02*
X183579741Y-76747784D01*
X183579741Y-76747784D02*
X183654217Y-76793770D01*
X183654217Y-76793770D02*
X183731289Y-76839076D01*
X183731289Y-76839076D02*
X183809511Y-76881318D01*
X183809511Y-76881318D02*
X183819000Y-76886000D01*
X182103000Y-75695000D02*
X182169128Y-75750602D01*
X182169128Y-75750602D02*
X182236954Y-75804254D01*
X182236954Y-75804254D02*
X182307995Y-75858707D01*
X182307995Y-75858707D02*
X182376641Y-75910231D01*
X182376641Y-75910231D02*
X182445979Y-75961456D01*
X182445979Y-75961456D02*
X182518197Y-76014078D01*
X182518197Y-76014078D02*
X182592176Y-76067299D01*
X182592176Y-76067299D02*
X182666799Y-76120315D01*
X182666799Y-76120315D02*
X182739976Y-76171651D01*
X182739976Y-76171651D02*
X182813497Y-76222527D01*
X182813497Y-76222527D02*
X182886021Y-76271931D01*
X182886021Y-76271931D02*
X182959345Y-76320908D01*
X182959345Y-76320908D02*
X182961000Y-76322000D01*
X187440000Y-93575000D02*
X187419993Y-93675260D01*
X187419993Y-93675260D02*
X187404823Y-93782460D01*
X187404823Y-93782460D02*
X187391712Y-93891228D01*
X187391712Y-93891228D02*
X187379854Y-94002251D01*
X187379854Y-94002251D02*
X187369197Y-94113684D01*
X187369197Y-94113684D02*
X187359555Y-94226572D01*
X187359555Y-94226572D02*
X187350422Y-94348828D01*
X187350422Y-94348828D02*
X187350000Y-94355000D01*
X187455000Y-92960000D02*
X187461790Y-93074647D01*
X187461790Y-93074647D02*
X187467410Y-93190227D01*
X187467410Y-93190227D02*
X187470455Y-93308053D01*
X187470455Y-93308053D02*
X187467203Y-93424868D01*
X187467203Y-93424868D02*
X187451758Y-93530762D01*
X187451758Y-93530762D02*
X187440000Y-93575000D01*
X187155000Y-91583000D02*
X187167007Y-91691474D01*
X187167007Y-91691474D02*
X187189264Y-91790537D01*
X187189264Y-91790537D02*
X187217806Y-91882471D01*
X187217806Y-91882471D02*
X187218000Y-91883000D01*
X187107000Y-95621000D02*
X187075860Y-95710908D01*
X187075860Y-95710908D02*
X187027113Y-95783183D01*
X187027113Y-95783183D02*
X186984000Y-95828000D01*
X187350000Y-94355000D02*
X187341181Y-94471370D01*
X187341181Y-94471370D02*
X187332350Y-94583098D01*
X187332350Y-94583098D02*
X187322683Y-94697559D01*
X187322683Y-94697559D02*
X187312129Y-94810443D01*
X187312129Y-94810443D02*
X187300182Y-94920171D01*
X187300182Y-94920171D02*
X187285852Y-95025982D01*
X187285852Y-95025982D02*
X187267329Y-95127910D01*
X187267329Y-95127910D02*
X187242836Y-95223666D01*
X187242836Y-95223666D02*
X187211799Y-95313412D01*
X187211799Y-95313412D02*
X187188000Y-95372000D01*
X187188000Y-95372000D02*
X187153626Y-95460454D01*
X187153626Y-95460454D02*
X187124312Y-95552261D01*
X187124312Y-95552261D02*
X187107000Y-95621000D01*
X187218000Y-91883000D02*
X187250520Y-91972220D01*
X187250520Y-91972220D02*
X187282214Y-92060576D01*
X187282214Y-92060576D02*
X187313457Y-92150366D01*
X187313457Y-92150366D02*
X187343672Y-92242183D01*
X187343672Y-92242183D02*
X187371705Y-92336283D01*
X187371705Y-92336283D02*
X187396298Y-92434097D01*
X187396298Y-92434097D02*
X187416726Y-92540439D01*
X187416726Y-92540439D02*
X187431172Y-92647333D01*
X187431172Y-92647333D02*
X187441683Y-92758615D01*
X187441683Y-92758615D02*
X187449805Y-92873457D01*
X187449805Y-92873457D02*
X187455000Y-92960000D01*
X186810000Y-96503000D02*
X186718588Y-96531770D01*
X186718588Y-96531770D02*
X186690000Y-96533000D01*
X186690000Y-96533000D02*
X186596610Y-96560098D01*
X186596610Y-96560098D02*
X186558824Y-96642355D01*
X186558824Y-96642355D02*
X186530429Y-96734741D01*
X186530429Y-96734741D02*
X186528000Y-96743000D01*
X186855000Y-96197000D02*
X186843139Y-96307168D01*
X186843139Y-96307168D02*
X186829259Y-96414047D01*
X186829259Y-96414047D02*
X186810000Y-96503000D01*
X186984000Y-95828000D02*
X186925009Y-95889080D01*
X186925009Y-95889080D02*
X186885696Y-95970237D01*
X186885696Y-95970237D02*
X186867675Y-96073008D01*
X186867675Y-96073008D02*
X186856388Y-96181977D01*
X186856388Y-96181977D02*
X186855000Y-96197000D01*
X186528000Y-96743000D02*
X186496780Y-96832121D01*
X186496780Y-96832121D02*
X186459523Y-96916258D01*
X186459523Y-96916258D02*
X186416989Y-96993920D01*
X186416989Y-96993920D02*
X186375000Y-97052000D01*
X186489000Y-85139000D02*
X186564000Y-85220000D01*
X186705000Y-85745000D02*
X186703506Y-85863820D01*
X186703506Y-85863820D02*
X186699170Y-85981167D01*
X186699170Y-85981167D02*
X186692327Y-86094797D01*
X186692327Y-86094797D02*
X186683162Y-86205929D01*
X186683162Y-86205929D02*
X186671658Y-86316294D01*
X186671658Y-86316294D02*
X186657893Y-86425675D01*
X186657893Y-86425675D02*
X186642482Y-86530489D01*
X186642482Y-86530489D02*
X186625013Y-86634443D01*
X186625013Y-86634443D02*
X186605626Y-86736864D01*
X186605626Y-86736864D02*
X186584023Y-86839192D01*
X186584023Y-86839192D02*
X186559233Y-86945083D01*
X186559233Y-86945083D02*
X186533852Y-87043491D01*
X186533852Y-87043491D02*
X186505078Y-87145316D01*
X186505078Y-87145316D02*
X186476792Y-87237093D01*
X186476792Y-87237093D02*
X186446558Y-87327569D01*
X186446558Y-87327569D02*
X186414216Y-87416893D01*
X186414216Y-87416893D02*
X186379897Y-87504370D01*
X186379897Y-87504370D02*
X186344106Y-87588583D01*
X186344106Y-87588583D02*
X186330000Y-87620000D01*
X186564000Y-85220000D02*
X186619339Y-85284915D01*
X186619339Y-85284915D02*
X186664054Y-85361108D01*
X186664054Y-85361108D02*
X186690505Y-85455253D01*
X186690505Y-85455253D02*
X186701538Y-85565118D01*
X186701538Y-85565118D02*
X186704750Y-85684934D01*
X186704750Y-85684934D02*
X186705000Y-85745000D01*
X186513000Y-84590000D02*
X186574403Y-84649582D01*
X186574403Y-84649582D02*
X186624295Y-84719792D01*
X186624295Y-84719792D02*
X186631140Y-84832965D01*
X186631140Y-84832965D02*
X186598587Y-84920789D01*
X186598587Y-84920789D02*
X186567000Y-84986000D01*
X186567000Y-84986000D02*
X186489000Y-85139000D01*
X186564000Y-89543000D02*
X186583298Y-89647017D01*
X186583298Y-89647017D02*
X186603882Y-89748101D01*
X186603882Y-89748101D02*
X186626741Y-89852297D01*
X186626741Y-89852297D02*
X186649460Y-89949668D01*
X186649460Y-89949668D02*
X186675326Y-90054681D01*
X186675326Y-90054681D02*
X186701135Y-90154398D01*
X186701135Y-90154398D02*
X186727342Y-90251275D01*
X186727342Y-90251275D02*
X186754705Y-90348297D01*
X186754705Y-90348297D02*
X186783673Y-90446869D01*
X186783673Y-90446869D02*
X186812616Y-90541449D01*
X186812616Y-90541449D02*
X186841701Y-90632770D01*
X186841701Y-90632770D02*
X186872228Y-90724761D01*
X186872228Y-90724761D02*
X186903600Y-90815255D01*
X186903600Y-90815255D02*
X186936169Y-90904868D01*
X186936169Y-90904868D02*
X186969780Y-90992615D01*
X186969780Y-90992615D02*
X186990000Y-91043000D01*
X186990000Y-91043000D02*
X187024569Y-91129112D01*
X187024569Y-91129112D02*
X187058423Y-91217304D01*
X187058423Y-91217304D02*
X187090281Y-91306032D01*
X187090281Y-91306032D02*
X187119699Y-91397562D01*
X187119699Y-91397562D02*
X187144220Y-91493525D01*
X187144220Y-91493525D02*
X187155000Y-91583000D01*
X186345000Y-88577000D02*
X186377340Y-88665959D01*
X186377340Y-88665959D02*
X186404326Y-88759400D01*
X186404326Y-88759400D02*
X186428791Y-88855846D01*
X186428791Y-88855846D02*
X186451898Y-88955708D01*
X186451898Y-88955708D02*
X186473684Y-89056924D01*
X186473684Y-89056924D02*
X186494798Y-89161147D01*
X186494798Y-89161147D02*
X186514370Y-89262942D01*
X186514370Y-89262942D02*
X186533198Y-89365476D01*
X186533198Y-89365476D02*
X186551187Y-89467675D01*
X186551187Y-89467675D02*
X186564000Y-89543000D01*
X186237000Y-88190000D02*
X186260167Y-88291091D01*
X186260167Y-88291091D02*
X186285061Y-88387757D01*
X186285061Y-88387757D02*
X186312034Y-88481573D01*
X186312034Y-88481573D02*
X186342678Y-88571318D01*
X186342678Y-88571318D02*
X186345000Y-88577000D01*
X186360000Y-84335000D02*
X186385274Y-84430072D01*
X186385274Y-84430072D02*
X186430541Y-84505068D01*
X186430541Y-84505068D02*
X186489183Y-84567748D01*
X186489183Y-84567748D02*
X186513000Y-84590000D01*
X186297000Y-84074000D02*
X186325250Y-84167668D01*
X186325250Y-84167668D02*
X186348348Y-84265358D01*
X186348348Y-84265358D02*
X186360000Y-84335000D01*
X186222000Y-83783000D02*
X186242585Y-83885186D01*
X186242585Y-83885186D02*
X186267213Y-83981983D01*
X186267213Y-83981983D02*
X186296524Y-84072779D01*
X186296524Y-84072779D02*
X186297000Y-84074000D01*
X185508000Y-81398000D02*
X185518367Y-81512029D01*
X185518367Y-81512029D02*
X185529643Y-81624013D01*
X185529643Y-81624013D02*
X185542362Y-81732734D01*
X185542362Y-81732734D02*
X185557645Y-81838215D01*
X185557645Y-81838215D02*
X185577276Y-81939339D01*
X185577276Y-81939339D02*
X185603647Y-82033620D01*
X185603647Y-82033620D02*
X185638866Y-82119407D01*
X185638866Y-82119407D02*
X185667000Y-82172000D01*
X186093000Y-83438000D02*
X186132474Y-83518909D01*
X186132474Y-83518909D02*
X186167975Y-83605794D01*
X186167975Y-83605794D02*
X186199130Y-83696194D01*
X186199130Y-83696194D02*
X186222000Y-83783000D01*
X185994000Y-82832000D02*
X186033032Y-82913215D01*
X186033032Y-82913215D02*
X186000000Y-83000000D01*
X185787000Y-82448000D02*
X185818715Y-82538478D01*
X185818715Y-82538478D02*
X185856561Y-82620799D01*
X185856561Y-82620799D02*
X185901424Y-82697143D01*
X185901424Y-82697143D02*
X185950539Y-82770504D01*
X185950539Y-82770504D02*
X185994000Y-82832000D01*
X185667000Y-82172000D02*
X185707970Y-82252417D01*
X185707970Y-82252417D02*
X185745013Y-82336074D01*
X185745013Y-82336074D02*
X185778540Y-82422891D01*
X185778540Y-82422891D02*
X185787000Y-82448000D01*
X186000000Y-83000000D02*
X185970801Y-83091077D01*
X185970801Y-83091077D02*
X185982770Y-83199863D01*
X185982770Y-83199863D02*
X186015905Y-83286891D01*
X186015905Y-83286891D02*
X186055307Y-83367659D01*
X186055307Y-83367659D02*
X186093000Y-83438000D01*
M02*
