M48
; DRILL file {KiCad (5.1.0)-1} date 04/15/19 23:01:28
; FORMAT={-:-/ absolute / inch / decimal}
; #@! TF.CreationDate,2019-04-15T23:01:28-07:00
; #@! TF.GenerationSoftware,Kicad,Pcbnew,(5.1.0)-1
; #@! TF.FileFunction,Plated,1,2,PTH
FMAT,2
INCH
T1C0.0300
T2C0.0315
T3C0.0354
T4C0.0394
T5C0.0402
T6C0.0433
T7C0.0512
T8C0.0551
%
G90
G05
T1
X6.55Y-5.55
X6.55Y-5.75
X6.65Y-5.55
X6.75Y-5.55
X6.75Y-5.75
T2
X4.8756Y-5.1575
X5.2756Y-5.1575
X6.8516Y-5.374
X6.95Y-5.374
X4.8756Y-4.3701
X5.2756Y-4.3701
X7.2047Y-5.1575
X7.3031Y-5.1575
X4.8756Y-5.4724
X5.2756Y-5.4724
X6.5291Y-4.3701
X6.9291Y-4.3701
X4.5079Y-5.1575
X4.6063Y-5.1575
X6.5354Y-5.1575
X6.9354Y-5.1575
X6.5291Y-4.6063
X6.9291Y-4.6063
X6.6929Y-4.8819
X6.7717Y-4.8819
X5.0394Y-4.8819
X5.1181Y-4.8819
X4.8819Y-4.6063
X5.2819Y-4.6063
T3
X5.1181Y-5.765
X5.2181Y-5.765
T4
X4.4488Y-4.685
X4.6457Y-4.685
X7.1654Y-4.6457
X7.3622Y-4.6457
T6
X7.3622Y-4.0945
X7.4622Y-4.0945
X7.5622Y-4.0945
X4.9606Y-4.0945
X5.0606Y-4.0945
X5.1606Y-4.0945
X6.6535Y-4.0945
X6.7535Y-4.0945
X6.8535Y-4.0945
X4.252Y-4.0945
X4.352Y-4.0945
X4.452Y-4.0945
T7
X4.1142Y-4.5866
X4.2126Y-4.4882
X4.2126Y-4.685
X7.5984Y-4.4882
X7.5984Y-4.685
X7.6969Y-4.5866
X5.7097Y-5.1624
X5.7097Y-5.5592
X5.9065Y-5.1624
X5.9065Y-5.5592
X6.1034Y-5.1624
X6.1034Y-5.5592
T8
X4.1339Y-5.1575
X4.1339Y-5.3575
X7.6772Y-5.1575
X7.6772Y-5.3575
T2
G00X7.0866Y-5.565
M15
G01X7.0866Y-5.5374
M16
G05
G00X7.2697Y-5.748
M15
G01X7.2972Y-5.748
M16
G05
G00X7.4803Y-5.565
M15
G01X7.4803Y-5.5374
M16
G05
G00X4.3307Y-5.565
M15
G01X4.3307Y-5.5374
M16
G05
G00X4.5138Y-5.748
M15
G01X4.5413Y-5.748
M16
G05
G00X4.7244Y-5.565
M15
G01X4.7244Y-5.5374
M16
G05
T4
G00X5.7205Y-3.3425
M15
G01X5.7205Y-3.4213
M16
G05
G00X5.9449Y-3.2638
M15
G01X5.8661Y-3.2638
M16
G05
G00X5.9449Y-3.5
M15
G01X5.8661Y-3.5
M16
G05
T5
G00X5.5746Y-4.1236
M15
G01X5.5624Y-4.1614
M16
G05
G00X5.5624Y-4.3425
M15
G01X5.5746Y-4.3803
M16
G05
G00X5.7133Y-3.9537
M15
G01X5.6812Y-3.977
M16
G05
G00X5.6812Y-4.5269
M15
G01X5.7133Y-4.5503
M16
G05
G00X5.8856Y-3.8976
M15
G01X5.9254Y-3.8976
M16
G05
G00X6.0977Y-3.9537
M15
G01X6.1299Y-3.977
M16
G05
G00X6.1299Y-4.5269
M15
G01X6.0977Y-4.5503
M16
G05
G00X6.2364Y-4.1236
M15
G01X6.2487Y-4.1614
M16
G05
G00X6.2487Y-4.3425
M15
G01X6.2364Y-4.3803
M16
G05
T0
M30
