M48
; DRILL file {KiCad (5.1.6)-1} date 12/21/20 19:05:23
; FORMAT={-:-/ absolute / inch / decimal}
; #@! TF.CreationDate,2020-12-21T19:05:23-08:00
; #@! TF.GenerationSoftware,Kicad,Pcbnew,(5.1.6)-1
FMAT,2
INCH
T1C0.0157
T2C0.0300
T3C0.0315
T4C0.0354
T5C0.0394
T6C0.0402
T7C0.0433
T8C0.0472
T9C0.0512
T10C0.0728
T11C0.0472
%
G90
G05
T1
X3.4055Y-1.2795
X3.4055Y-1.4764
X3.4055Y-1.6732
X3.4055Y-1.8701
X3.4055Y-2.0669
X3.4055Y-2.2638
X3.4055Y-2.4606
X3.4055Y-2.6575
X3.4055Y-2.8543
X3.4055Y-3.0512
X3.4055Y-3.248
X3.4055Y-3.4449
X3.4055Y-3.6417
X3.4055Y-3.8386
X3.4055Y-4.0354
X3.4055Y-4.2323
X3.4055Y-4.4291
X3.4055Y-4.626
X3.4055Y-4.8228
X3.4055Y-5.0197
X3.4055Y-5.2165
X3.4055Y-5.4134
X3.4055Y-5.6102
X3.4055Y-5.8071
X3.5433Y-1.2402
X3.6417Y-5.8465
X3.7402Y-1.2402
X3.8386Y-5.8465
X3.937Y-1.2402
X4.1339Y-1.2402
X4.1339Y-5.8465
X4.3307Y-1.2402
X4.3307Y-5.8465
X4.5276Y-1.2402
X4.5276Y-5.8465
X4.7244Y-1.2402
X4.7244Y-5.8465
X4.9213Y-1.2402
X4.9213Y-5.8465
X5.1181Y-1.2402
X5.1181Y-5.8465
X5.315Y-1.2402
X5.5118Y-1.2402
X5.7087Y-1.2402
X5.8071Y-5.8465
X5.9055Y-1.2402
X6.0039Y-5.8465
X6.1024Y-1.2402
X6.2402Y-1.2795
X6.2402Y-1.4764
X6.2402Y-1.6732
X6.2402Y-1.8701
X6.2402Y-2.0669
X6.2402Y-2.2638
X6.2402Y-2.4606
X6.2402Y-2.6575
X6.2402Y-2.8543
X6.2402Y-3.0512
X6.2402Y-3.248
X6.2402Y-3.4449
X6.2402Y-3.6417
X6.2402Y-3.8386
X6.2402Y-4.0354
X6.2402Y-4.2323
X6.2402Y-4.4291
X6.2402Y-4.626
X6.2402Y-4.8228
X6.2402Y-5.0197
X6.2402Y-5.2165
X6.2402Y-5.4134
X6.2402Y-5.6102
X6.2402Y-5.8071
T2
X4.5079Y-1.8701
X4.6063Y-1.7717
X4.6063Y-1.9685
X5.0394Y-1.7717
X5.0394Y-1.9685
X5.1378Y-1.8701
T3
X4.626Y-3.5827
X5.026Y-3.5827
X4.626Y-3.7795
X5.026Y-3.7795
X4.5213Y-5.7283
X4.9213Y-5.7283
X5.689Y-4.4882
X6.089Y-4.4882
X5.3937Y-4.7047
X5.3937Y-4.8031
X4.1535Y-2.6378
X4.1535Y-2.7756
X4.6197Y-2.3819
X5.0197Y-2.3819
X5.4921Y-2.6378
X5.4921Y-2.7756
X4.626Y-2.185
X5.026Y-2.185
X4.2717Y-4.4882
X4.6717Y-4.4882
X4.9803Y-4.4882
X5.3803Y-4.4882
X3.563Y-4.4882
X3.963Y-4.4882
T4
X4.1142Y-5.7283
X4.2142Y-5.7283
T5
X5.0787Y-4.0157
X5.0787Y-4.2126
X5.0984Y-1.378
X4.5669Y-4.0157
X4.5669Y-4.2126
X4.4094Y-2.185
X5.2362Y-2.3819
X5.2362Y-2.185
X4.4094Y-2.3819
X5.0984Y-1.5551
T7
X5.5906Y-2.0669
X5.6906Y-2.0669
X5.7906Y-2.0669
X3.8583Y-2.0669
X3.9583Y-2.0669
X4.0583Y-2.0669
X3.8583Y-3.8386
X3.9583Y-3.8386
X4.0583Y-3.8386
X5.5906Y-3.8386
X5.6906Y-3.8386
X5.7906Y-3.8386
T8
X5.9449Y-2.3031
X5.9449Y-2.8937
X5.4528Y-4.1732
X6.0433Y-4.1732
X3.6024Y-4.1732
X4.1929Y-4.1732
X3.7598Y-4.7047
X3.7598Y-5.2953
X5.8858Y-4.7047
X5.8858Y-5.2953
X3.7008Y-2.3031
X3.7008Y-2.8937
T9
X4.4104Y-5.0789
X4.4104Y-5.4757
X4.6073Y-5.0789
X4.6073Y-5.4757
X4.8041Y-5.0789
X4.8041Y-5.4757
T10
X5.2937Y-5.7953
X5.3937Y-4.9953
X5.3937Y-5.1453
X5.3937Y-5.2953
X5.4937Y-5.7953
T11
X3.563Y-5.7677
X3.563Y-5.8661
X3.7598Y-5.5709
X3.9567Y-5.7677
X3.9567Y-5.8661
X5.689Y-5.7677
X5.689Y-5.8661
X5.8858Y-5.5709
X6.0827Y-5.7677
X6.0827Y-5.8661
T3
G00X3.563Y-5.5846
M15
G01X3.563Y-5.5571
M16
G05
G00X3.7461Y-5.7677
M15
G01X3.7736Y-5.7677
M16
G05
G00X3.9567Y-5.5846
M15
G01X3.9567Y-5.5571
M16
G05
G00X5.689Y-5.5846
M15
G01X5.689Y-5.5571
M16
G05
G00X5.872Y-5.7677
M15
G01X5.8996Y-5.7677
M16
G05
G00X6.0827Y-5.5846
M15
G01X6.0827Y-5.5571
M16
G05
T5
G00X4.6378Y-1.3976
M15
G01X4.6378Y-1.4764
M16
G05
G00X4.8622Y-1.3189
M15
G01X4.7835Y-1.3189
M16
G05
G00X4.8622Y-1.5551
M15
G01X4.7835Y-1.5551
M16
G05
T6
G00X4.4797Y-2.9016
M15
G01X4.492Y-2.8638
M16
G05
G00X4.492Y-3.1205
M15
G01X4.4797Y-3.0827
M16
G05
G00X4.5985Y-2.7172
M15
G01X4.6307Y-2.6938
M16
G05
G00X4.6307Y-3.2904
M15
G01X4.5985Y-3.2671
M16
G05
G00X4.8427Y-3.3465
M15
G01X4.803Y-3.3465
M16
G05
G00X5.0472Y-2.7172
M15
G01X5.015Y-2.6938
M16
G05
G00X5.015Y-3.2904
M15
G01X5.0472Y-3.2671
M16
G05
G00X5.166Y-2.9016
M15
G01X5.1537Y-2.8638
M16
G05
G00X5.1537Y-3.1205
M15
G01X5.166Y-3.0827
M16
G05
T0
M30
