G04 #@! TF.GenerationSoftware,KiCad,Pcbnew,(5.1.6)-1*
G04 #@! TF.CreationDate,2020-12-21T19:05:14-08:00*
G04 #@! TF.ProjectId,12AU7-Amplifier,31324155-372d-4416-9d70-6c6966696572,1.0*
G04 #@! TF.SameCoordinates,Original*
G04 #@! TF.FileFunction,Copper,L4,Bot*
G04 #@! TF.FilePolarity,Positive*
%FSLAX46Y46*%
G04 Gerber Fmt 4.6, Leading zero omitted, Abs format (unit mm)*
G04 Created by KiCad (PCBNEW (5.1.6)-1) date 2020-12-21 19:05:14*
%MOMM*%
%LPD*%
G01*
G04 APERTURE LIST*
G04 #@! TA.AperFunction,ComponentPad*
%ADD10C,2.400000*%
G04 #@! TD*
G04 #@! TA.AperFunction,ComponentPad*
%ADD11C,2.000000*%
G04 #@! TD*
G04 #@! TA.AperFunction,ComponentPad*
%ADD12R,2.000000X2.000000*%
G04 #@! TD*
G04 #@! TA.AperFunction,ComponentPad*
%ADD13O,1.905000X2.000000*%
G04 #@! TD*
G04 #@! TA.AperFunction,ComponentPad*
%ADD14R,1.905000X2.000000*%
G04 #@! TD*
G04 #@! TA.AperFunction,ComponentPad*
%ADD15O,1.600000X1.600000*%
G04 #@! TD*
G04 #@! TA.AperFunction,ComponentPad*
%ADD16C,1.600000*%
G04 #@! TD*
G04 #@! TA.AperFunction,ComponentPad*
%ADD17C,1.524000*%
G04 #@! TD*
G04 #@! TA.AperFunction,ComponentPad*
%ADD18R,1.600000X1.600000*%
G04 #@! TD*
G04 #@! TA.AperFunction,ComponentPad*
%ADD19C,3.000000*%
G04 #@! TD*
G04 #@! TA.AperFunction,ComponentPad*
%ADD20R,3.500000X3.500000*%
G04 #@! TD*
G04 #@! TA.AperFunction,ComponentPad*
%ADD21O,3.050000X2.030000*%
G04 #@! TD*
G04 #@! TA.AperFunction,ComponentPad*
%ADD22C,2.340000*%
G04 #@! TD*
G04 #@! TA.AperFunction,ComponentPad*
%ADD23R,2.500000X1.800000*%
G04 #@! TD*
G04 #@! TA.AperFunction,ComponentPad*
%ADD24R,1.800000X2.500000*%
G04 #@! TD*
G04 #@! TA.AperFunction,ComponentPad*
%ADD25C,1.800000*%
G04 #@! TD*
G04 #@! TA.AperFunction,ComponentPad*
%ADD26R,1.800000X1.800000*%
G04 #@! TD*
G04 #@! TA.AperFunction,ViaPad*
%ADD27C,0.800000*%
G04 #@! TD*
G04 #@! TA.AperFunction,Conductor*
%ADD28C,0.500000*%
G04 #@! TD*
G04 #@! TA.AperFunction,Conductor*
%ADD29C,0.254000*%
G04 #@! TD*
G04 APERTURE END LIST*
D10*
X95500000Y-134500000D03*
X95500000Y-119500000D03*
D11*
X129000000Y-107000000D03*
D12*
X129000000Y-102000000D03*
D13*
X147080000Y-97500000D03*
X144540000Y-97500000D03*
D14*
X142000000Y-97500000D03*
D13*
X103080000Y-97500000D03*
X100540000Y-97500000D03*
D14*
X98000000Y-97500000D03*
D13*
X147080000Y-52500000D03*
X144540000Y-52500000D03*
D14*
X142000000Y-52500000D03*
D13*
X103080000Y-52500000D03*
X100540000Y-52500000D03*
D14*
X98000000Y-52500000D03*
D15*
X127660000Y-55500000D03*
D16*
X117500000Y-55500000D03*
D15*
X117340000Y-60500000D03*
D16*
X127500000Y-60500000D03*
D11*
X133000000Y-55500000D03*
X112000000Y-55500000D03*
D12*
X133000000Y-60500000D03*
X112000000Y-60500000D03*
D11*
X129500000Y-35000000D03*
D12*
X129500000Y-39500000D03*
D17*
X128000000Y-50000000D03*
X130500000Y-47500000D03*
X128000000Y-45000000D03*
X117000000Y-45000000D03*
X114500000Y-47500000D03*
X117000000Y-50000000D03*
D16*
X139500000Y-70500000D03*
D18*
X139500000Y-67000000D03*
D16*
X105500000Y-70500000D03*
D18*
X105500000Y-67000000D03*
D10*
X138500000Y-106000000D03*
X153500000Y-106000000D03*
X106500000Y-106000000D03*
X91500000Y-106000000D03*
X151000000Y-73500000D03*
X151000000Y-58500000D03*
X94000000Y-58500000D03*
X94000000Y-73500000D03*
X149500000Y-134500000D03*
X149500000Y-119500000D03*
D19*
X139540000Y-147200000D03*
X134460000Y-147200000D03*
X137000000Y-126880000D03*
X137000000Y-130690000D03*
X137000000Y-134500000D03*
D20*
X122500000Y-39500000D03*
G04 #@! TA.AperFunction,ComponentPad*
G36*
G01*
X121500000Y-32000000D02*
X123500000Y-32000000D01*
G75*
G02*
X124250000Y-32750000I0J-750000D01*
G01*
X124250000Y-34250000D01*
G75*
G02*
X123500000Y-35000000I-750000J0D01*
G01*
X121500000Y-35000000D01*
G75*
G02*
X120750000Y-34250000I0J750000D01*
G01*
X120750000Y-32750000D01*
G75*
G02*
X121500000Y-32000000I750000J0D01*
G01*
G37*
G04 #@! TD.AperFunction*
G04 #@! TA.AperFunction,ComponentPad*
G36*
G01*
X116925000Y-34750000D02*
X118675000Y-34750000D01*
G75*
G02*
X119550000Y-35625000I0J-875000D01*
G01*
X119550000Y-37375000D01*
G75*
G02*
X118675000Y-38250000I-875000J0D01*
G01*
X116925000Y-38250000D01*
G75*
G02*
X116050000Y-37375000I0J875000D01*
G01*
X116050000Y-35625000D01*
G75*
G02*
X116925000Y-34750000I875000J0D01*
G01*
G37*
G04 #@! TD.AperFunction*
G04 #@! TA.AperFunction,ComponentPad*
G36*
G01*
X118219201Y-69241382D02*
X117394003Y-69840922D01*
G75*
G02*
X115976249Y-69616372I-596602J821152D01*
G01*
X115976249Y-69616372D01*
G75*
G02*
X116200799Y-68198618I821152J596602D01*
G01*
X117025997Y-67599078D01*
G75*
G02*
X118443751Y-67823628I596602J-821152D01*
G01*
X118443751Y-67823628D01*
G75*
G02*
X118219201Y-69241382I-821152J-596602D01*
G01*
G37*
G04 #@! TD.AperFunction*
G04 #@! TA.AperFunction,ComponentPad*
G36*
G01*
X115062921Y-73048613D02*
X114747723Y-74018691D01*
G75*
G02*
X113468749Y-74670361I-965322J313652D01*
G01*
X113468749Y-74670361D01*
G75*
G02*
X112817079Y-73391387I313652J965322D01*
G01*
X113132277Y-72421309D01*
G75*
G02*
X114411251Y-71769639I965322J-313652D01*
G01*
X114411251Y-71769639D01*
G75*
G02*
X115062921Y-73048613I-313652J-965322D01*
G01*
G37*
G04 #@! TD.AperFunction*
G04 #@! TA.AperFunction,ComponentPad*
G36*
G01*
X114747724Y-77981309D02*
X115062921Y-78951387D01*
G75*
G02*
X114411251Y-80230361I-965322J-313652D01*
G01*
X114411251Y-80230361D01*
G75*
G02*
X113132277Y-79578691I-313652J965322D01*
G01*
X112817079Y-78608613D01*
G75*
G02*
X113468749Y-77329639I965322J313652D01*
G01*
X113468749Y-77329639D01*
G75*
G02*
X114747723Y-77981309I313652J-965322D01*
G01*
G37*
G04 #@! TD.AperFunction*
G04 #@! TA.AperFunction,ComponentPad*
G36*
G01*
X117394003Y-82159077D02*
X118219201Y-82758618D01*
G75*
G02*
X118443751Y-84176372I-596602J-821152D01*
G01*
X118443751Y-84176372D01*
G75*
G02*
X117025997Y-84400922I-821152J596602D01*
G01*
X116200799Y-83801382D01*
G75*
G02*
X115976249Y-82383628I596602J821152D01*
G01*
X115976249Y-82383628D01*
G75*
G02*
X117394003Y-82159078I821152J-596602D01*
G01*
G37*
G04 #@! TD.AperFunction*
D21*
X122500000Y-85000000D03*
G04 #@! TA.AperFunction,ComponentPad*
G36*
G01*
X128799201Y-83801382D02*
X127974003Y-84400922D01*
G75*
G02*
X126556249Y-84176372I-596602J821152D01*
G01*
X126556249Y-84176372D01*
G75*
G02*
X126780799Y-82758618I821152J596602D01*
G01*
X127605997Y-82159078D01*
G75*
G02*
X129023751Y-82383628I596602J-821152D01*
G01*
X129023751Y-82383628D01*
G75*
G02*
X128799201Y-83801382I-821152J-596602D01*
G01*
G37*
G04 #@! TD.AperFunction*
G04 #@! TA.AperFunction,ComponentPad*
G36*
G01*
X132182921Y-78608613D02*
X131867723Y-79578691D01*
G75*
G02*
X130588749Y-80230361I-965322J313652D01*
G01*
X130588749Y-80230361D01*
G75*
G02*
X129937079Y-78951387I313652J965322D01*
G01*
X130252277Y-77981309D01*
G75*
G02*
X131531251Y-77329639I965322J-313652D01*
G01*
X131531251Y-77329639D01*
G75*
G02*
X132182921Y-78608613I-313652J-965322D01*
G01*
G37*
G04 #@! TD.AperFunction*
G04 #@! TA.AperFunction,ComponentPad*
G36*
G01*
X131867724Y-72421309D02*
X132182921Y-73391387D01*
G75*
G02*
X131531251Y-74670361I-965322J-313652D01*
G01*
X131531251Y-74670361D01*
G75*
G02*
X130252277Y-74018691I-313652J965322D01*
G01*
X129937079Y-73048613D01*
G75*
G02*
X130588749Y-71769639I965322J313652D01*
G01*
X130588749Y-71769639D01*
G75*
G02*
X131867723Y-72421309I313652J-965322D01*
G01*
G37*
G04 #@! TD.AperFunction*
G04 #@! TA.AperFunction,ComponentPad*
G36*
G01*
X127974003Y-67599077D02*
X128799201Y-68198618D01*
G75*
G02*
X129023751Y-69616372I-596602J-821152D01*
G01*
X129023751Y-69616372D01*
G75*
G02*
X127605997Y-69840922I-821152J596602D01*
G01*
X126780799Y-69241382D01*
G75*
G02*
X126556249Y-67823628I596602J821152D01*
G01*
X126556249Y-67823628D01*
G75*
G02*
X127974003Y-67599078I821152J-596602D01*
G01*
G37*
G04 #@! TD.AperFunction*
D22*
X112025400Y-129003720D03*
X117025400Y-129003720D03*
X122025400Y-129003720D03*
X112025400Y-139083720D03*
X117025400Y-139083720D03*
X122025400Y-139083720D03*
D15*
X126500000Y-114000000D03*
D16*
X136660000Y-114000000D03*
D15*
X118660000Y-114000000D03*
D16*
X108500000Y-114000000D03*
D15*
X117500000Y-96000000D03*
D16*
X127660000Y-96000000D03*
D15*
X127660000Y-91000000D03*
D16*
X117500000Y-91000000D03*
D15*
X114840000Y-145500000D03*
D16*
X125000000Y-145500000D03*
D15*
X154660000Y-114000000D03*
D16*
X144500000Y-114000000D03*
D15*
X100660000Y-114000000D03*
D16*
X90500000Y-114000000D03*
D23*
X149500000Y-146500000D03*
D24*
X154500000Y-141500000D03*
X144500000Y-141500000D03*
D23*
X95500000Y-146500000D03*
D24*
X100500000Y-141500000D03*
X90500000Y-141500000D03*
D25*
X107040000Y-145500000D03*
D26*
X104500000Y-145500000D03*
D11*
X116000000Y-107000000D03*
D12*
X116000000Y-102000000D03*
D16*
X137000000Y-122000000D03*
D18*
X137000000Y-119500000D03*
D27*
X158500000Y-32500000D03*
X158500000Y-37500000D03*
X158500000Y-42500000D03*
X158500000Y-47500000D03*
X158500000Y-57500000D03*
X158500000Y-52500000D03*
X158500000Y-67500000D03*
X158500000Y-62500000D03*
X158500000Y-72500000D03*
X158500000Y-77500000D03*
X158500000Y-82500000D03*
X158500000Y-87500000D03*
X158500000Y-97500000D03*
X158500000Y-102500000D03*
X158500000Y-92500000D03*
X158500000Y-117500000D03*
X158500000Y-107500000D03*
X158500000Y-112500000D03*
X158500000Y-127500000D03*
X158500000Y-132500000D03*
X158500000Y-122500000D03*
X158500000Y-137500000D03*
X158500000Y-142500000D03*
X86500000Y-32500000D03*
X86500000Y-82500000D03*
X86500000Y-132500000D03*
X86500000Y-42500000D03*
X86500000Y-137500000D03*
X86500000Y-87500000D03*
X86500000Y-112500000D03*
X86500000Y-102500000D03*
X86500000Y-62500000D03*
X86500000Y-92500000D03*
X86500000Y-117500000D03*
X86500000Y-142500000D03*
X86500000Y-52500000D03*
X86500000Y-77500000D03*
X86500000Y-107500000D03*
X86500000Y-37500000D03*
X86500000Y-67500000D03*
X86500000Y-97500000D03*
X86500000Y-47500000D03*
X86500000Y-57500000D03*
X86500000Y-122500000D03*
X86500000Y-72500000D03*
X86500000Y-127500000D03*
X92500000Y-148500000D03*
X105000000Y-148500000D03*
X110000000Y-148500000D03*
X115000000Y-148500000D03*
X120000000Y-148500000D03*
X125000000Y-148500000D03*
X130000000Y-148500000D03*
X152500000Y-148500000D03*
X90000000Y-31500000D03*
X155000000Y-31500000D03*
X115000000Y-31500000D03*
X110000000Y-31500000D03*
X100000000Y-31500000D03*
X120000000Y-31500000D03*
X130000000Y-31500000D03*
X95000000Y-31500000D03*
X145000000Y-31500000D03*
X105000000Y-31500000D03*
X140000000Y-31500000D03*
X135000000Y-31500000D03*
X125000000Y-31500000D03*
X150000000Y-31500000D03*
X158500000Y-147500000D03*
X86500000Y-147500000D03*
X147500000Y-148500000D03*
X97500000Y-148500000D03*
D28*
X112441680Y-134500000D02*
X117025400Y-139083720D01*
X95500000Y-134500000D02*
X112441680Y-134500000D01*
X100660000Y-114000000D02*
X100660000Y-106840000D01*
X100660000Y-106840000D02*
X111500000Y-96000000D01*
X111500000Y-75660000D02*
X113940000Y-73220000D01*
X111500000Y-96000000D02*
X111500000Y-75660000D01*
X144500000Y-114000000D02*
X144500000Y-106500000D01*
X144500000Y-106500000D02*
X136000000Y-98000000D01*
X136000000Y-83720000D02*
X131060000Y-78780000D01*
X136000000Y-98000000D02*
X136000000Y-83720000D01*
X123500000Y-43000000D02*
X122500000Y-42000000D01*
X122500000Y-42000000D02*
X122500000Y-39500000D01*
X147000000Y-43000000D02*
X123500000Y-43000000D01*
X154500000Y-50500000D02*
X147000000Y-43000000D01*
X156000000Y-104000000D02*
X154500000Y-102500000D01*
X156000000Y-107500000D02*
X156000000Y-104000000D01*
X152500000Y-111000000D02*
X156000000Y-107500000D01*
X152500000Y-124500000D02*
X152500000Y-111000000D01*
X146310000Y-130690000D02*
X152500000Y-124500000D01*
X154500000Y-102500000D02*
X154500000Y-50500000D01*
X137000000Y-130690000D02*
X146310000Y-130690000D01*
X114500000Y-66010000D02*
X114500000Y-47500000D01*
X117210000Y-68720000D02*
X114500000Y-66010000D01*
X150500000Y-144000000D02*
X153000000Y-141500000D01*
X132500000Y-144000000D02*
X150500000Y-144000000D01*
X128000000Y-128500000D02*
X128000000Y-139500000D01*
X128000000Y-139500000D02*
X132500000Y-144000000D01*
X113500000Y-114000000D02*
X128000000Y-128500000D01*
X153000000Y-141500000D02*
X154500000Y-141500000D01*
X108500000Y-114000000D02*
X113500000Y-114000000D01*
X112000000Y-55500000D02*
X108000000Y-59500000D01*
X108000000Y-92580000D02*
X103080000Y-97500000D01*
X108000000Y-59500000D02*
X108000000Y-92580000D01*
X136660000Y-114000000D02*
X132500000Y-118160000D01*
X132500000Y-118160000D02*
X132500000Y-134500000D01*
X139500000Y-141500000D02*
X144500000Y-141500000D01*
X132500000Y-134500000D02*
X139500000Y-141500000D01*
X147080000Y-52500000D02*
X147080000Y-97500000D01*
D29*
G36*
X159340001Y-149340000D02*
G01*
X157127000Y-149340000D01*
X157127000Y-30660000D01*
X159340000Y-30660000D01*
X159340001Y-149340000D01*
G37*
X159340001Y-149340000D02*
X157127000Y-149340000D01*
X157127000Y-30660000D01*
X159340000Y-30660000D01*
X159340001Y-149340000D01*
G36*
X87873000Y-149340000D02*
G01*
X85660000Y-149340000D01*
X85660000Y-30660000D01*
X87873000Y-30660000D01*
X87873000Y-149340000D01*
G37*
X87873000Y-149340000D02*
X85660000Y-149340000D01*
X85660000Y-30660000D01*
X87873000Y-30660000D01*
X87873000Y-149340000D01*
M02*
