G04 #@! TF.GenerationSoftware,KiCad,Pcbnew,(5.1.6)-1*
G04 #@! TF.CreationDate,2020-12-21T19:05:14-08:00*
G04 #@! TF.ProjectId,12AU7-Amplifier,31324155-372d-4416-9d70-6c6966696572,1.0*
G04 #@! TF.SameCoordinates,Original*
G04 #@! TF.FileFunction,Legend,Bot*
G04 #@! TF.FilePolarity,Positive*
%FSLAX46Y46*%
G04 Gerber Fmt 4.6, Leading zero omitted, Abs format (unit mm)*
G04 Created by KiCad (PCBNEW (5.1.6)-1) date 2020-12-21 19:05:14*
%MOMM*%
%LPD*%
G01*
G04 APERTURE LIST*
%ADD10C,0.120000*%
%ADD11C,0.150000*%
G04 APERTURE END LIST*
D10*
X127457406Y-71891180D02*
X127595538Y-71924317D01*
X120087894Y-76004874D02*
X120031736Y-76117654D01*
X120031736Y-76117654D02*
X119953302Y-76225324D01*
X119953302Y-76225324D02*
X119859067Y-76320883D01*
X119859067Y-76320883D02*
X119755508Y-76397336D01*
X119755508Y-76397336D02*
X119694638Y-76429751D01*
X119890347Y-71040553D02*
X119987425Y-71132718D01*
X119987425Y-71132718D02*
X120052678Y-71235547D01*
X120052678Y-71235547D02*
X120086396Y-71373578D01*
X120086396Y-71373578D02*
X120103117Y-71533675D01*
X120103117Y-71533675D02*
X120110975Y-71675935D01*
X120110975Y-71675935D02*
X120116694Y-71851960D01*
X120116694Y-71851960D02*
X120120696Y-72066331D01*
X120120696Y-72066331D02*
X120122185Y-72189326D01*
X120122185Y-72189326D02*
X120123403Y-72323626D01*
X120123403Y-72323626D02*
X120124403Y-72469802D01*
X120124403Y-72469802D02*
X120125237Y-72628427D01*
X120125237Y-72628427D02*
X120125958Y-72800073D01*
X120125958Y-72800073D02*
X120126619Y-72985312D01*
X120126619Y-72985312D02*
X120127273Y-73184718D01*
X120127273Y-73184718D02*
X120127971Y-73398863D01*
X120127971Y-73398863D02*
X120128769Y-73628319D01*
X116756902Y-72166637D02*
X116840498Y-72067433D01*
X116840498Y-72067433D02*
X116944006Y-71996269D01*
X116944006Y-71996269D02*
X117058158Y-71947637D01*
X117058158Y-71947637D02*
X117139956Y-71924317D01*
X117292828Y-71708260D02*
X117310120Y-71582545D01*
X117310120Y-71582545D02*
X117345425Y-71461810D01*
X117345425Y-71461810D02*
X117404179Y-71357003D01*
X117404179Y-71357003D02*
X117472601Y-71293058D01*
X127442665Y-71708260D02*
X127457406Y-71891180D01*
X120128769Y-73628319D02*
X120129426Y-73814324D01*
X120129426Y-73814324D02*
X120130014Y-73989970D01*
X120130014Y-73989970D02*
X120130525Y-74155572D01*
X120130525Y-74155572D02*
X120130956Y-74311445D01*
X120130956Y-74311445D02*
X120131300Y-74457904D01*
X120131300Y-74457904D02*
X120131552Y-74595263D01*
X120131552Y-74595263D02*
X120131706Y-74723839D01*
X120131706Y-74723839D02*
X120131757Y-74843945D01*
X120131757Y-74843945D02*
X120131529Y-75060010D01*
X120131529Y-75060010D02*
X120130823Y-75245980D01*
X120130823Y-75245980D02*
X120129597Y-75404374D01*
X120129597Y-75404374D02*
X120127805Y-75537712D01*
X120127805Y-75537712D02*
X120123962Y-75696255D01*
X120123962Y-75696255D02*
X120116455Y-75843475D01*
X120116455Y-75843475D02*
X120099373Y-75967753D01*
X120099373Y-75967753D02*
X120087894Y-76004874D01*
X119014116Y-70867172D02*
X119170505Y-70848451D01*
X119170505Y-70848451D02*
X119309559Y-70840490D01*
X119309559Y-70840490D02*
X119433252Y-70843680D01*
X119433252Y-70843680D02*
X119569271Y-70863943D01*
X119569271Y-70863943D02*
X119688224Y-70903000D01*
X119688224Y-70903000D02*
X119793965Y-70961616D01*
X119793965Y-70961616D02*
X119890347Y-71040553D01*
X116698423Y-73653255D02*
X116698441Y-73531701D01*
X116698441Y-73531701D02*
X116698555Y-73310089D01*
X116698555Y-73310089D02*
X116698831Y-73115538D01*
X116698831Y-73115538D02*
X116699347Y-72946127D01*
X116699347Y-72946127D02*
X116700179Y-72799937D01*
X116700179Y-72799937D02*
X116701401Y-72675046D01*
X116701401Y-72675046D02*
X116704133Y-72523448D01*
X116704133Y-72523448D02*
X116709851Y-72377945D01*
X116709851Y-72377945D02*
X116724107Y-72249834D01*
X116724107Y-72249834D02*
X116756902Y-72166637D01*
X116745988Y-75144623D02*
X116718523Y-75027098D01*
X116718523Y-75027098D02*
X116709194Y-74896237D01*
X116709194Y-74896237D02*
X116704180Y-74739040D01*
X116704180Y-74739040D02*
X116701616Y-74583206D01*
X116701616Y-74583206D02*
X116700393Y-74458643D01*
X116700393Y-74458643D02*
X116699507Y-74315917D01*
X116699507Y-74315917D02*
X116698915Y-74153637D01*
X116698915Y-74153637D02*
X116698570Y-73970411D01*
X116698570Y-73970411D02*
X116698430Y-73764848D01*
X116698430Y-73764848D02*
X116698423Y-73653255D01*
X117472601Y-71293058D02*
X117587505Y-71248074D01*
X117587505Y-71248074D02*
X117714967Y-71207269D01*
X117714967Y-71207269D02*
X117873900Y-71159535D01*
X117873900Y-71159535D02*
X117992321Y-71125250D01*
X117992321Y-71125250D02*
X118117202Y-71089963D01*
X118117202Y-71089963D02*
X118245534Y-71054508D01*
X118245534Y-71054508D02*
X118374305Y-71019716D01*
X118374305Y-71019716D02*
X118500506Y-70986419D01*
X118500506Y-70986419D02*
X118621124Y-70955448D01*
X118621124Y-70955448D02*
X118785001Y-70915174D01*
X118785001Y-70915174D02*
X118919385Y-70884812D01*
X118919385Y-70884812D02*
X119014116Y-70867172D01*
X117609342Y-73661451D02*
X117609332Y-73816877D01*
X117609332Y-73816877D02*
X117609369Y-73964591D01*
X117609369Y-73964591D02*
X117609454Y-74104780D01*
X117609454Y-74104780D02*
X117609592Y-74237630D01*
X117609592Y-74237630D02*
X117609787Y-74363331D01*
X117609787Y-74363331D02*
X117610359Y-74594033D01*
X117610359Y-74594033D02*
X117611199Y-74798386D01*
X117611199Y-74798386D02*
X117612334Y-74977893D01*
X117612334Y-74977893D02*
X117613795Y-75134054D01*
X117613795Y-75134054D02*
X117615608Y-75268371D01*
X117615608Y-75268371D02*
X117619051Y-75432174D01*
X117619051Y-75432174D02*
X117623449Y-75555273D01*
X117623449Y-75555273D02*
X117633157Y-75683748D01*
X117633157Y-75683748D02*
X117649282Y-75740283D01*
X119393352Y-71162655D02*
X119283197Y-71160765D01*
X117633153Y-71579414D02*
X117625155Y-71716634D01*
X117625155Y-71716634D02*
X117622035Y-71844674D01*
X117622035Y-71844674D02*
X117619159Y-72009048D01*
X117619159Y-72009048D02*
X117617398Y-72137038D01*
X117617398Y-72137038D02*
X117615778Y-72278507D01*
X117615778Y-72278507D02*
X117614309Y-72432389D01*
X117614309Y-72432389D02*
X117613006Y-72597616D01*
X117613006Y-72597616D02*
X117611880Y-72773121D01*
X117611880Y-72773121D02*
X117610944Y-72957835D01*
X117610944Y-72957835D02*
X117610210Y-73150691D01*
X117610210Y-73150691D02*
X117609691Y-73350623D01*
X117609691Y-73350623D02*
X117609399Y-73556562D01*
X117609399Y-73556562D02*
X117609342Y-73661451D01*
X119283197Y-71160765D02*
X119283322Y-73672384D01*
X119283322Y-76183959D02*
X119378793Y-76183899D01*
X119745928Y-75980528D02*
X119813137Y-75879923D01*
X119805200Y-73639780D02*
X119797263Y-71399634D01*
X127086875Y-75739628D02*
X127108657Y-75613687D01*
X127108657Y-75613687D02*
X127115085Y-75471591D01*
X127115085Y-75471591D02*
X127118778Y-75320353D01*
X127118778Y-75320353D02*
X127120753Y-75195611D01*
X127120753Y-75195611D02*
X127122369Y-75050087D01*
X127122369Y-75050087D02*
X127123653Y-74882370D01*
X127123653Y-74882370D02*
X127124632Y-74691047D01*
X127124632Y-74691047D02*
X127125331Y-74474706D01*
X127125331Y-74474706D02*
X127125778Y-74231935D01*
X127125778Y-74231935D02*
X127125915Y-74100197D01*
X127125915Y-74100197D02*
X127125999Y-73961322D01*
X127125999Y-73961322D02*
X127126033Y-73815133D01*
X127126033Y-73815133D02*
X127126021Y-73661454D01*
X118960935Y-71190193D02*
X118835571Y-71220400D01*
X118835571Y-71220400D02*
X118706077Y-71254499D01*
X118706077Y-71254499D02*
X118573130Y-71290207D01*
X118573130Y-71290207D02*
X118454224Y-71322531D01*
X118454224Y-71322531D02*
X118327121Y-71357410D01*
X118327121Y-71357410D02*
X118294385Y-71366445D01*
X118294408Y-71366444D02*
X118165783Y-71402599D01*
X118165783Y-71402599D02*
X118044868Y-71437777D01*
X118044868Y-71437777D02*
X117908697Y-71479045D01*
X117908697Y-71479045D02*
X117794106Y-71515716D01*
X117794106Y-71515716D02*
X117680021Y-71556083D01*
X117680021Y-71556083D02*
X117633153Y-71579414D01*
X127126021Y-73661454D02*
X127125855Y-73452910D01*
X127125855Y-73452910D02*
X127125455Y-73249839D01*
X127125455Y-73249839D02*
X127124831Y-73053307D01*
X127124831Y-73053307D02*
X127123997Y-72864382D01*
X127123997Y-72864382D02*
X127122966Y-72684131D01*
X127122966Y-72684131D02*
X127121749Y-72513623D01*
X127121749Y-72513623D02*
X127120361Y-72353924D01*
X127120361Y-72353924D02*
X127118813Y-72206102D01*
X127118813Y-72206102D02*
X127117118Y-72071225D01*
X127117118Y-72071225D02*
X127115289Y-71950360D01*
X127115289Y-71950360D02*
X127112322Y-71797672D01*
X127112322Y-71797672D02*
X127108014Y-71653094D01*
X127108014Y-71653094D02*
X127102210Y-71579215D01*
X125797247Y-76114057D02*
X125915314Y-76082602D01*
X125915314Y-76082602D02*
X126039581Y-76050873D01*
X119813137Y-75879923D02*
X119805200Y-73639780D01*
X125797324Y-71193389D02*
X125761702Y-71323107D01*
X125761702Y-71323107D02*
X125754750Y-71492700D01*
X125754750Y-71492700D02*
X125752207Y-71614799D01*
X125752207Y-71614799D02*
X125750201Y-71765788D01*
X125750201Y-71765788D02*
X125748671Y-71948682D01*
X125748671Y-71948682D02*
X125747553Y-72166498D01*
X125747553Y-72166498D02*
X125747128Y-72289443D01*
X125747128Y-72289443D02*
X125746783Y-72422251D01*
X125746783Y-72422251D02*
X125746510Y-72565296D01*
X125746510Y-72565296D02*
X125746300Y-72718957D01*
X125746300Y-72718957D02*
X125746146Y-72883610D01*
X125746146Y-72883610D02*
X125746040Y-73059633D01*
X125746040Y-73059633D02*
X125745974Y-73247402D01*
X125745974Y-73247402D02*
X125745940Y-73447294D01*
X125745940Y-73447294D02*
X125745931Y-73659687D01*
X119797263Y-71399634D02*
X119709134Y-71306536D01*
X119709134Y-71306536D02*
X119618145Y-71223990D01*
X119618145Y-71223990D02*
X119499477Y-71172348D01*
X119499477Y-71172348D02*
X119393352Y-71162655D01*
X117649282Y-75740283D02*
X117786913Y-75791225D01*
X117786913Y-75791225D02*
X117919981Y-75832351D01*
X117919981Y-75832351D02*
X118080124Y-75879532D01*
X118080124Y-75879532D02*
X118196089Y-75912729D01*
X118196089Y-75912729D02*
X118315330Y-75946185D01*
X118315330Y-75946185D02*
X118434344Y-75978927D01*
X118434344Y-75978927D02*
X118604779Y-76024571D01*
X118604779Y-76024571D02*
X118755003Y-76063134D01*
X118755003Y-76063134D02*
X118873194Y-76091331D01*
X118873194Y-76091331D02*
X118966888Y-76106371D01*
X127102210Y-71579215D02*
X126983890Y-71531650D01*
X126983890Y-71531650D02*
X126861330Y-71491298D01*
X126861330Y-71491298D02*
X126710949Y-71444173D01*
X126710949Y-71444173D02*
X126543583Y-71393476D01*
X126543583Y-71393476D02*
X126427919Y-71359276D01*
X126427919Y-71359276D02*
X126256319Y-71309747D01*
X126256319Y-71309747D02*
X126096625Y-71265190D01*
X126096625Y-71265190D02*
X125959672Y-71228809D01*
X125959672Y-71228809D02*
X125831167Y-71198556D01*
X125831167Y-71198556D02*
X125797324Y-71193389D01*
X119378793Y-76183899D02*
X119507604Y-76160487D01*
X119507604Y-76160487D02*
X119618996Y-76104665D01*
X119618996Y-76104665D02*
X119713015Y-76023165D01*
X119713015Y-76023165D02*
X119745928Y-75980528D01*
X125745855Y-73659685D02*
X125745864Y-73872475D01*
X125745864Y-73872475D02*
X125745897Y-74072708D01*
X125745897Y-74072708D02*
X125745962Y-74260763D01*
X125745962Y-74260763D02*
X125746067Y-74437016D01*
X125746067Y-74437016D02*
X125746220Y-74601845D01*
X125746220Y-74601845D02*
X125746428Y-74755628D01*
X125746428Y-74755628D02*
X125746700Y-74898743D01*
X125746700Y-74898743D02*
X125747043Y-75031568D01*
X125747043Y-75031568D02*
X125747465Y-75154479D01*
X125747465Y-75154479D02*
X125748580Y-75372073D01*
X125748580Y-75372073D02*
X125750106Y-75554547D01*
X125750106Y-75554547D02*
X125752108Y-75704922D01*
X125752108Y-75704922D02*
X125754648Y-75826219D01*
X125754648Y-75826219D02*
X125759606Y-75960253D01*
X125759606Y-75960253D02*
X125771458Y-76081056D01*
X125771458Y-76081056D02*
X125797247Y-76114057D01*
X119283322Y-73672384D02*
X119283322Y-76183959D01*
X126039581Y-76050873D02*
X126164679Y-76018714D01*
X126164679Y-76018714D02*
X126293974Y-75984270D01*
X126293974Y-75984270D02*
X126424084Y-75948545D01*
X126424084Y-75948545D02*
X126551631Y-75912543D01*
X126551631Y-75912543D02*
X126673233Y-75877269D01*
X126673233Y-75877269D02*
X126820281Y-75833107D01*
X126820281Y-75833107D02*
X126942741Y-75794405D01*
X126942741Y-75794405D02*
X127062801Y-75751801D01*
X127062801Y-75751801D02*
X127086875Y-75739628D01*
X118966888Y-76106371D02*
X118975511Y-75979936D01*
X118975511Y-75979936D02*
X118980107Y-75776712D01*
X118980107Y-75776712D02*
X118982066Y-75644786D01*
X118982066Y-75644786D02*
X118983801Y-75495035D01*
X118983801Y-75495035D02*
X118985314Y-75329249D01*
X118985314Y-75329249D02*
X118986609Y-75149215D01*
X118986609Y-75149215D02*
X118987687Y-74956723D01*
X118987687Y-74956723D02*
X118988550Y-74753561D01*
X118988550Y-74753561D02*
X118989200Y-74541518D01*
X118989200Y-74541518D02*
X118989640Y-74322383D01*
X118989640Y-74322383D02*
X118989872Y-74097944D01*
X118989872Y-74097944D02*
X118989898Y-73869990D01*
X118989898Y-73869990D02*
X118989720Y-73640309D01*
X118989720Y-73640309D02*
X118989341Y-73410691D01*
X118989341Y-73410691D02*
X118988762Y-73182923D01*
X118988762Y-73182923D02*
X118987986Y-72958796D01*
X118987986Y-72958796D02*
X118987014Y-72740096D01*
X118987014Y-72740096D02*
X118985850Y-72528614D01*
X118985850Y-72528614D02*
X118984495Y-72326137D01*
X118984495Y-72326137D02*
X118982952Y-72134455D01*
X118982952Y-72134455D02*
X118981222Y-71955356D01*
X118981222Y-71955356D02*
X118979308Y-71790628D01*
X118979308Y-71790628D02*
X118977212Y-71642061D01*
X118977212Y-71642061D02*
X118974936Y-71511443D01*
X118974936Y-71511443D02*
X118969853Y-71311209D01*
X118969853Y-71311209D02*
X118960935Y-71190193D01*
X125745855Y-70868740D02*
X125874027Y-70894600D01*
X125874027Y-70894600D02*
X126015293Y-70928493D01*
X126015293Y-70928493D02*
X126183723Y-70971590D01*
X126183723Y-70971590D02*
X126305978Y-71004001D01*
X126305978Y-71004001D02*
X126432623Y-71038354D01*
X126432623Y-71038354D02*
X126560585Y-71073789D01*
X126560585Y-71073789D02*
X126686790Y-71109445D01*
X126686790Y-71109445D02*
X126808165Y-71144464D01*
X126808165Y-71144464D02*
X126974450Y-71193918D01*
X126974450Y-71193918D02*
X127112580Y-71237102D01*
X127112580Y-71237102D02*
X127235032Y-71279914D01*
X127235032Y-71279914D02*
X127262892Y-71293058D01*
X127595538Y-71924317D02*
X127722563Y-71964250D01*
X127722563Y-71964250D02*
X127840771Y-72025763D01*
X127840771Y-72025763D02*
X127932433Y-72104591D01*
X127932433Y-72104591D02*
X127978592Y-72166637D01*
X127617946Y-75404835D02*
X127498526Y-75444371D01*
X127498526Y-75444371D02*
X127449511Y-75561821D01*
X127989505Y-75144623D02*
X127918528Y-75249763D01*
X127918528Y-75249763D02*
X127811666Y-75329641D01*
X127811666Y-75329641D02*
X127691692Y-75381409D01*
X127691692Y-75381409D02*
X127617946Y-75404835D01*
X127449511Y-75561821D02*
X127438134Y-75693132D01*
X127438134Y-75693132D02*
X127405269Y-75811034D01*
X127405269Y-75811034D02*
X127345146Y-75921645D01*
X127345146Y-75921645D02*
X127314525Y-75958750D01*
X128037071Y-73653255D02*
X128037011Y-73870509D01*
X128037011Y-73870509D02*
X128036770Y-74064729D01*
X128036770Y-74064729D02*
X128036304Y-74237309D01*
X128036304Y-74237309D02*
X128035567Y-74389638D01*
X128035567Y-74389638D02*
X128034516Y-74523108D01*
X128034516Y-74523108D02*
X128032252Y-74690998D01*
X128032252Y-74690998D02*
X128029032Y-74824285D01*
X128029032Y-74824285D02*
X128022989Y-74956289D01*
X128022989Y-74956289D02*
X128009459Y-75078959D01*
X128009459Y-75078959D02*
X127989505Y-75144623D01*
X127262892Y-71293058D02*
X127353071Y-71388167D01*
X127353071Y-71388167D02*
X127405187Y-71504131D01*
X127405187Y-71504131D02*
X127434349Y-71634193D01*
X127434349Y-71634193D02*
X127442665Y-71708260D01*
X127978592Y-72166637D02*
X128016977Y-72283079D01*
X128016977Y-72283079D02*
X128027306Y-72408974D01*
X128027306Y-72408974D02*
X128032392Y-72569536D01*
X128032392Y-72569536D02*
X128034750Y-72734949D01*
X128034750Y-72734949D02*
X128035770Y-72870250D01*
X128035770Y-72870250D02*
X128036436Y-73027810D01*
X128036436Y-73027810D02*
X128036825Y-73209551D01*
X128036825Y-73209551D02*
X128037011Y-73417392D01*
X128037011Y-73417392D02*
X128037071Y-73653255D01*
X117219680Y-72204826D02*
X117104909Y-72247642D01*
X117104909Y-72247642D02*
X117080159Y-72258599D01*
X117006742Y-72292534D02*
X116999088Y-73645928D01*
X127449613Y-75133796D02*
X127543156Y-75115087D01*
X127543156Y-75115087D02*
X127657701Y-75070841D01*
X127657701Y-75070841D02*
X127690019Y-75048113D01*
X127471667Y-72191260D02*
X127462090Y-72336007D01*
X127462090Y-72336007D02*
X127458447Y-72483362D01*
X127458447Y-72483362D02*
X127456040Y-72622130D01*
X127456040Y-72622130D02*
X127453955Y-72782285D01*
X127453955Y-72782285D02*
X127452229Y-72961284D01*
X127452229Y-72961284D02*
X127451296Y-73089829D01*
X127451296Y-73089829D02*
X127450552Y-73224864D01*
X127450552Y-73224864D02*
X127450006Y-73365635D01*
X127450006Y-73365635D02*
X127449670Y-73511388D01*
X127449670Y-73511388D02*
X127449556Y-73661370D01*
X127449613Y-73661367D02*
X127449613Y-75133796D01*
X117045066Y-75047854D02*
X117151685Y-75103999D01*
X117151685Y-75103999D02*
X117192241Y-75115092D01*
X127690019Y-75048113D02*
X127728897Y-74920285D01*
X127728897Y-74920285D02*
X127736720Y-74771633D01*
X127736720Y-74771633D02*
X127739686Y-74638894D01*
X127739686Y-74638894D02*
X127741619Y-74466642D01*
X127741619Y-74466642D02*
X127742439Y-74327087D01*
X127742439Y-74327087D02*
X127742960Y-74165817D01*
X127742960Y-74165817D02*
X127743244Y-73981171D01*
X127743244Y-73981171D02*
X127743356Y-73771488D01*
X127743356Y-73771488D02*
X127743367Y-73656739D01*
X118294385Y-71366445D02*
X118294385Y-71366445D01*
X116999088Y-73645928D02*
X116997881Y-73871848D01*
X116997881Y-73871848D02*
X116996957Y-74071338D01*
X116996957Y-74071338D02*
X116996370Y-74246108D01*
X116996370Y-74246108D02*
X116996178Y-74397873D01*
X116996178Y-74397873D02*
X116996437Y-74528343D01*
X116996437Y-74528343D02*
X116997792Y-74687868D01*
X116997792Y-74687868D02*
X117000477Y-74809114D01*
X117000477Y-74809114D02*
X117008419Y-74941821D01*
X117008419Y-74941821D02*
X117045066Y-75047854D01*
X127743367Y-73656739D02*
X127743267Y-73470284D01*
X127743267Y-73470284D02*
X127742958Y-73300273D01*
X127742958Y-73300273D02*
X127742420Y-73146059D01*
X127742420Y-73146059D02*
X127741637Y-73006996D01*
X127741637Y-73006996D02*
X127740591Y-72882436D01*
X127740591Y-72882436D02*
X127738489Y-72721376D01*
X127738489Y-72721376D02*
X127735696Y-72589312D01*
X127735696Y-72589312D02*
X127730792Y-72454562D01*
X127730792Y-72454562D02*
X127720625Y-72330502D01*
X127720625Y-72330502D02*
X127706659Y-72284605D01*
X126459474Y-76251422D02*
X126440199Y-76629697D01*
X127449556Y-73661370D02*
X127449556Y-73661370D01*
X117285784Y-75133800D02*
X117285784Y-73659393D01*
X126668132Y-76200220D02*
X126459474Y-76251422D01*
X125745931Y-73659687D02*
X125745931Y-73659687D01*
X126440199Y-76629697D02*
X126426819Y-76841531D01*
X126426819Y-76841531D02*
X126408365Y-77048649D01*
X126408365Y-77048649D02*
X126384855Y-77250992D01*
X126384855Y-77250992D02*
X126356304Y-77448502D01*
X126356304Y-77448502D02*
X126322731Y-77641121D01*
X126322731Y-77641121D02*
X126284151Y-77828792D01*
X126284151Y-77828792D02*
X126240583Y-78011457D01*
X126240583Y-78011457D02*
X126192042Y-78189057D01*
X126192042Y-78189057D02*
X126138545Y-78361536D01*
X126138545Y-78361536D02*
X126080110Y-78528835D01*
X126080110Y-78528835D02*
X126016753Y-78690896D01*
X126016753Y-78690896D02*
X125948492Y-78847662D01*
X125948492Y-78847662D02*
X125875342Y-78999075D01*
X125875342Y-78999075D02*
X125797322Y-79145077D01*
X125797322Y-79145077D02*
X125714448Y-79285611D01*
X125714448Y-79285611D02*
X125626737Y-79420618D01*
X117080159Y-72258599D02*
X117080159Y-72258599D01*
X117285784Y-72184984D02*
X117219680Y-72204826D01*
X117080187Y-72258603D02*
X117006742Y-72292534D01*
X127706659Y-72284605D02*
X127593701Y-72229442D01*
X127593701Y-72229442D02*
X127476377Y-72191884D01*
X127476377Y-72191884D02*
X127471667Y-72191260D01*
X117285784Y-73659393D02*
X117285784Y-72184984D01*
X117192241Y-75115092D02*
X117285784Y-75133800D01*
X117479589Y-76183659D02*
X117484921Y-76063733D01*
X117484921Y-76063733D02*
X117420968Y-75958750D01*
X117581154Y-77617495D02*
X117562240Y-77494363D01*
X117562240Y-77494363D02*
X117544180Y-77353496D01*
X117544180Y-77353496D02*
X117527350Y-77200224D01*
X117527350Y-77200224D02*
X117512128Y-77039877D01*
X117512128Y-77039877D02*
X117498890Y-76877787D01*
X117498890Y-76877787D02*
X117488015Y-76719284D01*
X117488015Y-76719284D02*
X117479879Y-76569699D01*
X117479879Y-76569699D02*
X117474861Y-76434361D01*
X117474861Y-76434361D02*
X117473671Y-76285289D01*
X117473671Y-76285289D02*
X117479589Y-76183659D01*
X118495308Y-79964755D02*
X118414583Y-79850472D01*
X118414583Y-79850472D02*
X118336796Y-79731329D01*
X118336796Y-79731329D02*
X118261989Y-79607443D01*
X118261989Y-79607443D02*
X118190208Y-79478927D01*
X118190208Y-79478927D02*
X118121498Y-79345897D01*
X118121498Y-79345897D02*
X118055903Y-79208467D01*
X118055903Y-79208467D02*
X117993469Y-79066753D01*
X117993469Y-79066753D02*
X117934239Y-78920869D01*
X117934239Y-78920869D02*
X117878259Y-78770931D01*
X117878259Y-78770931D02*
X117825574Y-78617053D01*
X117825574Y-78617053D02*
X117776227Y-78459351D01*
X117776227Y-78459351D02*
X117730265Y-78297939D01*
X117730265Y-78297939D02*
X117687732Y-78132932D01*
X117687732Y-78132932D02*
X117648673Y-77964446D01*
X117648673Y-77964446D02*
X117613132Y-77792595D01*
X117613132Y-77792595D02*
X117581154Y-77617495D01*
X123175566Y-82180793D02*
X123031035Y-82196766D01*
X123031035Y-82196766D02*
X122889439Y-82205751D01*
X122889439Y-82205751D02*
X122727078Y-82212168D01*
X122727078Y-82212168D02*
X122550875Y-82216019D01*
X122550875Y-82216019D02*
X122429133Y-82217160D01*
X122429133Y-82217160D02*
X122306366Y-82217160D01*
X122306366Y-82217160D02*
X122184624Y-82216019D01*
X122184624Y-82216019D02*
X122008420Y-82212168D01*
X122008420Y-82212168D02*
X121846059Y-82205751D01*
X121846059Y-82205751D02*
X121704464Y-82196766D01*
X121704464Y-82196766D02*
X121559934Y-82180793D01*
X118607730Y-80260814D02*
X118594775Y-80140124D01*
X118594775Y-80140124D02*
X118540587Y-80029314D01*
X118540587Y-80029314D02*
X118495308Y-79964755D01*
X125669762Y-80957089D02*
X125542689Y-81078251D01*
X125542689Y-81078251D02*
X125412109Y-81193293D01*
X125412109Y-81193293D02*
X125277949Y-81302248D01*
X125277949Y-81302248D02*
X125140139Y-81405152D01*
X125140139Y-81405152D02*
X124998605Y-81502039D01*
X124998605Y-81502039D02*
X124853278Y-81592946D01*
X124853278Y-81592946D02*
X124704085Y-81677907D01*
X124704085Y-81677907D02*
X124550954Y-81756958D01*
X124550954Y-81756958D02*
X124393814Y-81830132D01*
X124393814Y-81830132D02*
X124232593Y-81897467D01*
X124232593Y-81897467D02*
X124067220Y-81958996D01*
X124067220Y-81958996D02*
X123897623Y-82014755D01*
X123897623Y-82014755D02*
X123723731Y-82064779D01*
X123723731Y-82064779D02*
X123545472Y-82109103D01*
X123545472Y-82109103D02*
X123362774Y-82147763D01*
X123362774Y-82147763D02*
X123175566Y-82180793D01*
X119065735Y-80957089D02*
X118972693Y-80863351D01*
X118972693Y-80863351D02*
X118867867Y-80752248D01*
X118867867Y-80752248D02*
X118783458Y-80654634D01*
X118783458Y-80654634D02*
X118704062Y-80547643D01*
X118704062Y-80547643D02*
X118642698Y-80434614D01*
X118642698Y-80434614D02*
X118610597Y-80312881D01*
X118610597Y-80312881D02*
X118607730Y-80260814D01*
X117117548Y-75404835D02*
X116994733Y-75362923D01*
X116994733Y-75362923D02*
X116887228Y-75307795D01*
X116887228Y-75307795D02*
X116792483Y-75221284D01*
X116792483Y-75221284D02*
X116745988Y-75144623D01*
X117285983Y-75561821D02*
X117243451Y-75447626D01*
X117243451Y-75447626D02*
X117117548Y-75404835D01*
X117420968Y-75958750D02*
X117351388Y-75858126D01*
X117351388Y-75858126D02*
X117306001Y-75734111D01*
X117306001Y-75734111D02*
X117287312Y-75606844D01*
X117287312Y-75606844D02*
X117285983Y-75561821D01*
X121559934Y-82180793D02*
X121372724Y-82147763D01*
X121372724Y-82147763D02*
X121190026Y-82109103D01*
X121190026Y-82109103D02*
X121011766Y-82064779D01*
X121011766Y-82064779D02*
X120837873Y-82014755D01*
X120837873Y-82014755D02*
X120668276Y-81958996D01*
X120668276Y-81958996D02*
X120502903Y-81897467D01*
X120502903Y-81897467D02*
X120341682Y-81830132D01*
X120341682Y-81830132D02*
X120184542Y-81756958D01*
X120184542Y-81756958D02*
X120031411Y-81677907D01*
X120031411Y-81677907D02*
X119882218Y-81592946D01*
X119882218Y-81592946D02*
X119736890Y-81502039D01*
X119736890Y-81502039D02*
X119595357Y-81405152D01*
X119595357Y-81405152D02*
X119457546Y-81302248D01*
X119457546Y-81302248D02*
X119323387Y-81193293D01*
X119323387Y-81193293D02*
X119192807Y-81078251D01*
X119192807Y-81078251D02*
X119065735Y-80957089D01*
X127154339Y-77617495D02*
X127122363Y-77792595D01*
X127122363Y-77792595D02*
X127086824Y-77964446D01*
X127086824Y-77964446D02*
X127047766Y-78132932D01*
X127047766Y-78132932D02*
X127005234Y-78297939D01*
X127005234Y-78297939D02*
X126959273Y-78459351D01*
X126959273Y-78459351D02*
X126909927Y-78617053D01*
X126909927Y-78617053D02*
X126857242Y-78770931D01*
X126857242Y-78770931D02*
X126801262Y-78920869D01*
X126801262Y-78920869D02*
X126742031Y-79066753D01*
X126742031Y-79066753D02*
X126679596Y-79208467D01*
X126679596Y-79208467D02*
X126614001Y-79345897D01*
X126614001Y-79345897D02*
X126545290Y-79478927D01*
X126545290Y-79478927D02*
X126473508Y-79607443D01*
X126473508Y-79607443D02*
X126398701Y-79731329D01*
X126398701Y-79731329D02*
X126320913Y-79850472D01*
X126320913Y-79850472D02*
X126240189Y-79964755D01*
X127255905Y-76183659D02*
X127262165Y-76318603D01*
X127262165Y-76318603D02*
X127259340Y-76477562D01*
X127259340Y-76477562D02*
X127253241Y-76618241D01*
X127253241Y-76618241D02*
X127244149Y-76771391D01*
X127244149Y-76771391D02*
X127232442Y-76931682D01*
X127232442Y-76931682D02*
X127218499Y-77093783D01*
X127218499Y-77093783D02*
X127202696Y-77252364D01*
X127202696Y-77252364D02*
X127185411Y-77402093D01*
X127185411Y-77402093D02*
X127167024Y-77537641D01*
X127167024Y-77537641D02*
X127154339Y-77617495D01*
X126127767Y-80260814D02*
X126111286Y-80381835D01*
X126111286Y-80381835D02*
X126055756Y-80508483D01*
X126055756Y-80508483D02*
X125987126Y-80610078D01*
X125987126Y-80610078D02*
X125890585Y-80726681D01*
X125890585Y-80726681D02*
X125791022Y-80834169D01*
X125791022Y-80834169D02*
X125702204Y-80924770D01*
X125702204Y-80924770D02*
X125669762Y-80957089D01*
X126240189Y-79964755D02*
X126172463Y-80065993D01*
X126172463Y-80065993D02*
X126132114Y-80182068D01*
X126132114Y-80182068D02*
X126127767Y-80260814D01*
X127314525Y-75958750D02*
X127250544Y-76063733D01*
X127250544Y-76063733D02*
X127255905Y-76183659D01*
X119108543Y-79420617D02*
X119022860Y-79289361D01*
X119022860Y-79289361D02*
X118942193Y-79154289D01*
X118942193Y-79154289D02*
X118866479Y-79015188D01*
X118866479Y-79015188D02*
X118795653Y-78871848D01*
X118795653Y-78871848D02*
X118729652Y-78724056D01*
X118729652Y-78724056D02*
X118668412Y-78571599D01*
X118668412Y-78571599D02*
X118611869Y-78414267D01*
X118611869Y-78414267D02*
X118559960Y-78251847D01*
X118559960Y-78251847D02*
X118512621Y-78084126D01*
X118512621Y-78084126D02*
X118469788Y-77910894D01*
X118469788Y-77910894D02*
X118431397Y-77731938D01*
X118431397Y-77731938D02*
X118397385Y-77547046D01*
X118397385Y-77547046D02*
X118367688Y-77356007D01*
X118367688Y-77356007D02*
X118342242Y-77158607D01*
X118342242Y-77158607D02*
X118320984Y-76954636D01*
X118320984Y-76954636D02*
X118303850Y-76743881D01*
X125512955Y-79587576D02*
X125684734Y-79736403D01*
X126268229Y-79327099D02*
X126332759Y-79203241D01*
X126332759Y-79203241D02*
X126394267Y-79075404D01*
X126394267Y-79075404D02*
X126452722Y-78943702D01*
X126452722Y-78943702D02*
X126508091Y-78808253D01*
X126508091Y-78808253D02*
X126560344Y-78669173D01*
X126560344Y-78669173D02*
X126609448Y-78526580D01*
X126609448Y-78526580D02*
X126655371Y-78380589D01*
X126655371Y-78380589D02*
X126698082Y-78231317D01*
X126698082Y-78231317D02*
X126737549Y-78078881D01*
X126737549Y-78078881D02*
X126773740Y-77923397D01*
X126773740Y-77923397D02*
X126806623Y-77764982D01*
X126806623Y-77764982D02*
X126836168Y-77603753D01*
X126836168Y-77603753D02*
X126862341Y-77439826D01*
X126862341Y-77439826D02*
X126885111Y-77273319D01*
X126885111Y-77273319D02*
X126904447Y-77104346D01*
X126904447Y-77104346D02*
X126920317Y-76933026D01*
X125885002Y-79885228D02*
X125973137Y-79795088D01*
X125973137Y-79795088D02*
X126050462Y-79686442D01*
X126050462Y-79686442D02*
X126122765Y-79575351D01*
X126122765Y-79575351D02*
X126196987Y-79453189D01*
X126196987Y-79453189D02*
X126268229Y-79327099D01*
X117785654Y-76352865D02*
X117788076Y-76511546D01*
X117788076Y-76511546D02*
X117794617Y-76673315D01*
X117794617Y-76673315D02*
X117805143Y-76837444D01*
X117805143Y-76837444D02*
X117819521Y-77003202D01*
X117819521Y-77003202D02*
X117837616Y-77169863D01*
X117837616Y-77169863D02*
X117859296Y-77336696D01*
X117859296Y-77336696D02*
X117884427Y-77502975D01*
X117884427Y-77502975D02*
X117912875Y-77667969D01*
X117912875Y-77667969D02*
X117944507Y-77830951D01*
X117944507Y-77830951D02*
X117979189Y-77991192D01*
X117979189Y-77991192D02*
X118016788Y-78147962D01*
X118016788Y-78147962D02*
X118057170Y-78300535D01*
X118057170Y-78300535D02*
X118100202Y-78448181D01*
X118100202Y-78448181D02*
X118145751Y-78590171D01*
X118145751Y-78590171D02*
X118193682Y-78725776D01*
X118193682Y-78725776D02*
X118243863Y-78854270D01*
X125626737Y-79420618D02*
X125512955Y-79587576D01*
X118049440Y-76195152D02*
X117932273Y-76161824D01*
X117932273Y-76161824D02*
X117816116Y-76130376D01*
X117816116Y-76130376D02*
X117807192Y-76128432D01*
X118901436Y-80299099D02*
X118993142Y-80418342D01*
X118993142Y-80418342D02*
X119077151Y-80506861D01*
X119077151Y-80506861D02*
X119179061Y-80609285D01*
X119179061Y-80609285D02*
X119292693Y-80719700D01*
X119292693Y-80719700D02*
X119411870Y-80832189D01*
X119411870Y-80832189D02*
X119530415Y-80940839D01*
X119530415Y-80940839D02*
X119642149Y-81039734D01*
X119642149Y-81039734D02*
X119740894Y-81122959D01*
X119740894Y-81122959D02*
X119841674Y-81199329D01*
X119222354Y-79587575D02*
X119108543Y-79420617D01*
X119050575Y-79736403D02*
X119222354Y-79587575D01*
X119241165Y-79987071D02*
X119140424Y-80072253D01*
X119140424Y-80072253D02*
X119038229Y-80161833D01*
X119038229Y-80161833D02*
X118942593Y-80250943D01*
X118942593Y-80250943D02*
X118901436Y-80299099D01*
X117785648Y-76352863D02*
X117785648Y-76352863D01*
X124933488Y-79887076D02*
X124820190Y-79977723D01*
X124820190Y-79977723D02*
X124705965Y-80062943D01*
X124705965Y-80062943D02*
X124590599Y-80142824D01*
X124590599Y-80142824D02*
X124473879Y-80217453D01*
X124473879Y-80217453D02*
X124355593Y-80286919D01*
X124355593Y-80286919D02*
X124235529Y-80351311D01*
X124235529Y-80351311D02*
X124113473Y-80410716D01*
X124113473Y-80410716D02*
X123989214Y-80465224D01*
X123989214Y-80465224D02*
X123862537Y-80514922D01*
X123862537Y-80514922D02*
X123733232Y-80559898D01*
X123733232Y-80559898D02*
X123601085Y-80600241D01*
X123601085Y-80600241D02*
X123465883Y-80636039D01*
X123465883Y-80636039D02*
X123327415Y-80667381D01*
X123327415Y-80667381D02*
X123185467Y-80694355D01*
X123185467Y-80694355D02*
X123039826Y-80717048D01*
X123039826Y-80717048D02*
X122890281Y-80735551D01*
X126913514Y-76134666D02*
X126790894Y-76169194D01*
X126790894Y-76169194D02*
X126668118Y-76200223D01*
X122890281Y-80735551D02*
X122665570Y-80755236D01*
X122665570Y-80755236D02*
X122444826Y-80765142D01*
X122444826Y-80765142D02*
X122228099Y-80765282D01*
X122228099Y-80765282D02*
X122015440Y-80755671D01*
X122015440Y-80755671D02*
X121806899Y-80736321D01*
X121806899Y-80736321D02*
X121602525Y-80707247D01*
X121602525Y-80707247D02*
X121402370Y-80668462D01*
X121402370Y-80668462D02*
X121206483Y-80619981D01*
X121206483Y-80619981D02*
X121014915Y-80561817D01*
X121014915Y-80561817D02*
X120827715Y-80493983D01*
X120827715Y-80493983D02*
X120644935Y-80416495D01*
X120644935Y-80416495D02*
X120466624Y-80329365D01*
X120466624Y-80329365D02*
X120292832Y-80232608D01*
X120292832Y-80232608D02*
X120123610Y-80126237D01*
X120123610Y-80126237D02*
X119959008Y-80010266D01*
X119959008Y-80010266D02*
X119799077Y-79884709D01*
X126668118Y-76200223D02*
X126668118Y-76200223D01*
X118850307Y-79885227D02*
X118957517Y-79813421D01*
X118957517Y-79813421D02*
X119050575Y-79736403D01*
X118243863Y-78854270D02*
X118297452Y-78978026D01*
X118297452Y-78978026D02*
X118358317Y-79107395D01*
X118358317Y-79107395D02*
X118424172Y-79238492D01*
X118424172Y-79238492D02*
X118492734Y-79367434D01*
X118492734Y-79367434D02*
X118561717Y-79490336D01*
X118561717Y-79490336D02*
X118628838Y-79603315D01*
X118628838Y-79603315D02*
X118711485Y-79731804D01*
X118711485Y-79731804D02*
X118796175Y-79843874D01*
X118796175Y-79843874D02*
X118850307Y-79885227D01*
X118269664Y-76258639D02*
X118049440Y-76195152D01*
X118303850Y-76743881D02*
X118269664Y-76258639D01*
X117807192Y-76128432D02*
X117787599Y-76254706D01*
X117787599Y-76254706D02*
X117785648Y-76352863D01*
X125684734Y-79736403D02*
X125777778Y-79813424D01*
X125777778Y-79813424D02*
X125878694Y-79883505D01*
X125878694Y-79883505D02*
X125885002Y-79885228D01*
X126920317Y-76933026D02*
X126930846Y-76795554D01*
X126930846Y-76795554D02*
X126939048Y-76669227D01*
X126939048Y-76669227D02*
X126946374Y-76519211D01*
X126946374Y-76519211D02*
X126949587Y-76391610D01*
X126949587Y-76391610D02*
X126947839Y-76265895D01*
X126947839Y-76265895D02*
X126928639Y-76142995D01*
X126928639Y-76142995D02*
X126913514Y-76134666D01*
X125349132Y-79275730D02*
X125430488Y-79155862D01*
X125430488Y-79155862D02*
X125511026Y-79018198D01*
X125511026Y-79018198D02*
X125589846Y-78865130D01*
X125589846Y-78865130D02*
X125640994Y-78755707D01*
X125640994Y-78755707D02*
X125690713Y-78641209D01*
X125690713Y-78641209D02*
X125738737Y-78522346D01*
X125738737Y-78522346D02*
X125784798Y-78399824D01*
X125784798Y-78399824D02*
X125828630Y-78274354D01*
X125828630Y-78274354D02*
X125869968Y-78146644D01*
X125869968Y-78146644D02*
X125908544Y-78017402D01*
X125908544Y-78017402D02*
X125944092Y-77887337D01*
X125944092Y-77887337D02*
X125976346Y-77757158D01*
X125976346Y-77757158D02*
X126005039Y-77627573D01*
X126005039Y-77627573D02*
X126029905Y-77499291D01*
X126029905Y-77499291D02*
X126040820Y-77435861D01*
X120014862Y-79656570D02*
X120131796Y-79752876D01*
X120131796Y-79752876D02*
X120252348Y-79842763D01*
X120252348Y-79842763D02*
X120376604Y-79926258D01*
X120376604Y-79926258D02*
X120504648Y-80003391D01*
X120504648Y-80003391D02*
X120636567Y-80074188D01*
X120636567Y-80074188D02*
X120772445Y-80138680D01*
X120772445Y-80138680D02*
X120912369Y-80196895D01*
X120912369Y-80196895D02*
X121056422Y-80248860D01*
X121056422Y-80248860D02*
X121204690Y-80294605D01*
X121204690Y-80294605D02*
X121357260Y-80334158D01*
X121357260Y-80334158D02*
X121514215Y-80367548D01*
X121514215Y-80367548D02*
X121675642Y-80394803D01*
X121675642Y-80394803D02*
X121841625Y-80415952D01*
X121841625Y-80415952D02*
X122012250Y-80431023D01*
X122012250Y-80431023D02*
X122187603Y-80440045D01*
X122187603Y-80440045D02*
X122367768Y-80443046D01*
X119602826Y-79415262D02*
X119729587Y-79439982D01*
X119729587Y-79439982D02*
X119834008Y-79506550D01*
X119834008Y-79506550D02*
X119931440Y-79585261D01*
X119931440Y-79585261D02*
X120014862Y-79656570D01*
X118860909Y-76421814D02*
X118742012Y-76389950D01*
X118742012Y-76389950D02*
X118623050Y-76360958D01*
X118623050Y-76360958D02*
X118617583Y-76360246D01*
X119694638Y-76429751D02*
X119578860Y-76465945D01*
X119578860Y-76465945D02*
X119434896Y-76484656D01*
X119434896Y-76484656D02*
X119299545Y-76486951D01*
X119299545Y-76486951D02*
X119155475Y-76477211D01*
X119155475Y-76477211D02*
X119007618Y-76455482D01*
X119007618Y-76455482D02*
X118889922Y-76429500D01*
X118889922Y-76429500D02*
X118860909Y-76421814D01*
X125132707Y-79415262D02*
X125249910Y-79388367D01*
X125249910Y-79388367D02*
X125332643Y-79297810D01*
X125332643Y-79297810D02*
X125349132Y-79275730D01*
X124720671Y-79656570D02*
X124822433Y-79569907D01*
X124822433Y-79569907D02*
X124928148Y-79486944D01*
X124928148Y-79486944D02*
X125034828Y-79428478D01*
X125034828Y-79428478D02*
X125132707Y-79415262D01*
X119386401Y-79275730D02*
X119462908Y-79369147D01*
X119462908Y-79369147D02*
X119576333Y-79414787D01*
X119576333Y-79414787D02*
X119602826Y-79415262D01*
X122367768Y-80443046D02*
X122547932Y-80440045D01*
X122547932Y-80440045D02*
X122723285Y-80431023D01*
X122723285Y-80431023D02*
X122893910Y-80415952D01*
X122893910Y-80415952D02*
X123059893Y-80394804D01*
X123059893Y-80394804D02*
X123221320Y-80367549D01*
X123221320Y-80367549D02*
X123378275Y-80334159D01*
X123378275Y-80334159D02*
X123530844Y-80294606D01*
X123530844Y-80294606D02*
X123679113Y-80248861D01*
X123679113Y-80248861D02*
X123823166Y-80196895D01*
X123823166Y-80196895D02*
X123963089Y-80138681D01*
X123963089Y-80138681D02*
X124098967Y-80074189D01*
X124098967Y-80074189D02*
X124230885Y-80003391D01*
X124230885Y-80003391D02*
X124358930Y-79926259D01*
X124358930Y-79926259D02*
X124483185Y-79842763D01*
X124483185Y-79842763D02*
X124603737Y-79752876D01*
X124603737Y-79752876D02*
X124720671Y-79656570D01*
X118694714Y-77435861D02*
X118717564Y-77563225D01*
X118717564Y-77563225D02*
X118744376Y-77692247D01*
X118744376Y-77692247D02*
X118774881Y-77822217D01*
X118774881Y-77822217D02*
X118808815Y-77952428D01*
X118808815Y-77952428D02*
X118845910Y-78082170D01*
X118845910Y-78082170D02*
X118885900Y-78210735D01*
X118885900Y-78210735D02*
X118928519Y-78337413D01*
X118928519Y-78337413D02*
X118973499Y-78461498D01*
X118973499Y-78461498D02*
X119020575Y-78582279D01*
X119020575Y-78582279D02*
X119069480Y-78699048D01*
X119069480Y-78699048D02*
X119119948Y-78811097D01*
X119119948Y-78811097D02*
X119197997Y-78968769D01*
X119197997Y-78968769D02*
X119278063Y-79111833D01*
X119278063Y-79111833D02*
X119359246Y-79237899D01*
X119359246Y-79237899D02*
X119386401Y-79275730D01*
X118617583Y-76360246D02*
X118607434Y-76505421D01*
X118607434Y-76505421D02*
X118613200Y-76641337D01*
X118613200Y-76641337D02*
X118620899Y-76761269D01*
X118620899Y-76761269D02*
X118631077Y-76890818D01*
X118631077Y-76890818D02*
X118643360Y-77024760D01*
X118643360Y-77024760D02*
X118657375Y-77157868D01*
X118657375Y-77157868D02*
X118672748Y-77284918D01*
X118672748Y-77284918D02*
X118694714Y-77435861D01*
X124893732Y-81199329D02*
X124994488Y-81122973D01*
X124994488Y-81122973D02*
X125093224Y-81039754D01*
X125093224Y-81039754D02*
X125204955Y-80940863D01*
X125204955Y-80940863D02*
X125323500Y-80832215D01*
X125323500Y-80832215D02*
X125442682Y-80719726D01*
X125442682Y-80719726D02*
X125556321Y-80609311D01*
X125556321Y-80609311D02*
X125658238Y-80506887D01*
X125658238Y-80506887D02*
X125742254Y-80418369D01*
X125742254Y-80418369D02*
X125825720Y-80317808D01*
X125825720Y-80317808D02*
X125833970Y-80299136D01*
X121378808Y-81830091D02*
X121515214Y-81857136D01*
X121515214Y-81857136D02*
X121647344Y-81875552D01*
X121647344Y-81875552D02*
X121771650Y-81885455D01*
X121771650Y-81885455D02*
X121923807Y-81891389D01*
X121923807Y-81891389D02*
X122074997Y-81893898D01*
X122074997Y-81893898D02*
X122210285Y-81894782D01*
X122210285Y-81894782D02*
X122367703Y-81895033D01*
X125833970Y-80299136D02*
X125733695Y-80197566D01*
X125733695Y-80197566D02*
X125630180Y-80103617D01*
X125630180Y-80103617D02*
X125510483Y-79997848D01*
X125510483Y-79997848D02*
X125418844Y-79918415D01*
X125418844Y-79918415D02*
X125305843Y-79822564D01*
X125305843Y-79822564D02*
X125199816Y-79736801D01*
X125199816Y-79736801D02*
X125160909Y-79710931D01*
X119841674Y-81199329D02*
X119971134Y-81282334D01*
X119971134Y-81282334D02*
X120101823Y-81359662D01*
X120101823Y-81359662D02*
X120234366Y-81431567D01*
X120234366Y-81431567D02*
X120369385Y-81498307D01*
X120369385Y-81498307D02*
X120507504Y-81560136D01*
X120507504Y-81560136D02*
X120649345Y-81617310D01*
X120649345Y-81617310D02*
X120795533Y-81670085D01*
X120795533Y-81670085D02*
X120946689Y-81718717D01*
X120946689Y-81718717D02*
X121103438Y-81763461D01*
X121103438Y-81763461D02*
X121266403Y-81804574D01*
X121266403Y-81804574D02*
X121378808Y-81830091D01*
X123356597Y-81830091D02*
X123524051Y-81791258D01*
X123524051Y-81791258D02*
X123684874Y-81748963D01*
X123684874Y-81748963D02*
X123839690Y-81702952D01*
X123839690Y-81702952D02*
X123989120Y-81652967D01*
X123989120Y-81652967D02*
X124133790Y-81598754D01*
X124133790Y-81598754D02*
X124274321Y-81540056D01*
X124274321Y-81540056D02*
X124411338Y-81476619D01*
X124411338Y-81476619D02*
X124545462Y-81408186D01*
X124545462Y-81408186D02*
X124677319Y-81334501D01*
X124677319Y-81334501D02*
X124807530Y-81255309D01*
X124807530Y-81255309D02*
X124893732Y-81199329D01*
X124933485Y-79887076D02*
X124933485Y-79887076D01*
X122367703Y-81895033D02*
X122525119Y-81894783D01*
X122525119Y-81894783D02*
X122660406Y-81893900D01*
X122660406Y-81893900D02*
X122811595Y-81891395D01*
X122811595Y-81891395D02*
X122935995Y-81886939D01*
X122935995Y-81886939D02*
X123064750Y-81877907D01*
X123064750Y-81877907D02*
X123198522Y-81860773D01*
X123198522Y-81860773D02*
X123332537Y-81835267D01*
X123332537Y-81835267D02*
X123356597Y-81830091D01*
X119580895Y-79704242D02*
X119241165Y-79987071D01*
X119799077Y-79884709D02*
X119580895Y-79704242D01*
X125160909Y-79710931D02*
X125055682Y-79787996D01*
X125055682Y-79787996D02*
X124955476Y-79868942D01*
X124955476Y-79868942D02*
X124933485Y-79887076D01*
X117278088Y-71891180D02*
X117292828Y-71708260D01*
X126117950Y-76360246D02*
X125991781Y-76390573D01*
X125991781Y-76390573D02*
X125871081Y-76423098D01*
X124614953Y-75963676D02*
X124614953Y-73672414D01*
X125871081Y-76423098D02*
X125735403Y-76453940D01*
X125735403Y-76453940D02*
X125593014Y-76474708D01*
X125593014Y-76474708D02*
X125451071Y-76485233D01*
X125451071Y-76485233D02*
X125316729Y-76485346D01*
X125316729Y-76485346D02*
X125197144Y-76474876D01*
X125197144Y-76474876D02*
X125068142Y-76442119D01*
X125745897Y-70868771D02*
X125745897Y-70868771D01*
X124614953Y-73672414D02*
X124614913Y-73438277D01*
X124614913Y-73438277D02*
X124614828Y-73219793D01*
X124614828Y-73219793D02*
X124614749Y-73016376D01*
X124614749Y-73016376D02*
X124614728Y-72827441D01*
X124614728Y-72827441D02*
X124614815Y-72652402D01*
X124614815Y-72652402D02*
X124615061Y-72490675D01*
X124615061Y-72490675D02*
X124615519Y-72341674D01*
X124615519Y-72341674D02*
X124616238Y-72204814D01*
X124616238Y-72204814D02*
X124617270Y-72079509D01*
X124617270Y-72079509D02*
X124620479Y-71861224D01*
X124620479Y-71861224D02*
X124625556Y-71682137D01*
X124625556Y-71682137D02*
X124632908Y-71537566D01*
X124632908Y-71537566D02*
X124649101Y-71375183D01*
X124649101Y-71375183D02*
X124682481Y-71235773D01*
X124682481Y-71235773D02*
X124747760Y-71132746D01*
X124747760Y-71132746D02*
X124845183Y-71040585D01*
X124679328Y-76083955D02*
X124614953Y-75963676D01*
X117139956Y-71924317D02*
X117278088Y-71891180D01*
X124845183Y-71040585D02*
X124942195Y-70962296D01*
X124942195Y-70962296D02*
X125051157Y-70903869D01*
X125051157Y-70903869D02*
X125174962Y-70864753D01*
X125174962Y-70864753D02*
X125316506Y-70844395D01*
X125316506Y-70844395D02*
X125444456Y-70841245D01*
X125444456Y-70841245D02*
X125587093Y-70849464D01*
X125587093Y-70849464D02*
X125745897Y-70868771D01*
X125068142Y-76442119D02*
X124956180Y-76379498D01*
X124956180Y-76379498D02*
X124860323Y-76304491D01*
X124860323Y-76304491D02*
X124773635Y-76217251D01*
X124773635Y-76217251D02*
X124694608Y-76110691D01*
X124694608Y-76110691D02*
X124679328Y-76083955D01*
X126040820Y-77435861D02*
X126062760Y-77284918D01*
X126062760Y-77284918D02*
X126078124Y-77157868D01*
X126078124Y-77157868D02*
X126092135Y-77024760D01*
X126092135Y-77024760D02*
X126104419Y-76890818D01*
X126104419Y-76890818D02*
X126114601Y-76761269D01*
X126114601Y-76761269D02*
X126122307Y-76641337D01*
X126122307Y-76641337D02*
X126128083Y-76505421D01*
X126128083Y-76505421D02*
X126125302Y-76378118D01*
X126125302Y-76378118D02*
X126117950Y-76360246D01*
X125451979Y-76183960D02*
X125451979Y-73668646D01*
X124938035Y-71396771D02*
X124930098Y-73647352D01*
X124930098Y-73647352D02*
X124922161Y-75897933D01*
X125362914Y-76183960D02*
X125451979Y-76183960D01*
X125045235Y-71289451D02*
X125045383Y-71289435D01*
X125451979Y-71153335D02*
X125302281Y-71167735D01*
X125451979Y-73668646D02*
X125451979Y-71153335D01*
X125045383Y-71289435D02*
X124938035Y-71396771D01*
X124922161Y-75897933D02*
X125000000Y-76000000D01*
X125302281Y-71167735D02*
X125182541Y-71190810D01*
X125182541Y-71190810D02*
X125076589Y-71259356D01*
X125076589Y-71259356D02*
X125045235Y-71289451D01*
X125000000Y-76000000D02*
X125094810Y-76092639D01*
X125094810Y-76092639D02*
X125210804Y-76155489D01*
X125210804Y-76155489D02*
X125337296Y-76183133D01*
X125337296Y-76183133D02*
X125362914Y-76183960D01*
X103500000Y-32181000D02*
X130575000Y-31010000D01*
X130863000Y-30743000D02*
X103613000Y-32046000D01*
X98129000Y-30975000D02*
X98240952Y-30910892D01*
X98240952Y-30910892D02*
X98336000Y-30840000D01*
X96266000Y-31668000D02*
X96179000Y-31758000D01*
X96893000Y-38250000D02*
X97017189Y-38272617D01*
X97017189Y-38272617D02*
X97156173Y-38294741D01*
X97156173Y-38294741D02*
X97295037Y-38311913D01*
X97295037Y-38311913D02*
X97424050Y-38318115D01*
X97424050Y-38318115D02*
X97478000Y-38301000D01*
X95411000Y-37584000D02*
X95534540Y-37672937D01*
X95534540Y-37672937D02*
X95663366Y-37757291D01*
X95663366Y-37757291D02*
X95796751Y-37836751D01*
X95796751Y-37836751D02*
X95933966Y-37911005D01*
X95933966Y-37911005D02*
X96074287Y-37979742D01*
X96074287Y-37979742D02*
X96216985Y-38042650D01*
X96216985Y-38042650D02*
X96361335Y-38099418D01*
X96361335Y-38099418D02*
X96506609Y-38149734D01*
X96506609Y-38149734D02*
X96652081Y-38193287D01*
X96652081Y-38193287D02*
X96797024Y-38229765D01*
X96797024Y-38229765D02*
X96893000Y-38250000D01*
X97295000Y-31614000D02*
X97394820Y-31519728D01*
X97394820Y-31519728D02*
X97499562Y-31426828D01*
X97499562Y-31426828D02*
X97607398Y-31336669D01*
X97607398Y-31336669D02*
X97716500Y-31250625D01*
X97716500Y-31250625D02*
X97825039Y-31170064D01*
X97825039Y-31170064D02*
X97931187Y-31096359D01*
X97931187Y-31096359D02*
X98033117Y-31030880D01*
X98033117Y-31030880D02*
X98129000Y-30975000D01*
X98336000Y-30840000D02*
X98207964Y-30807618D01*
X98207964Y-30807618D02*
X98083947Y-30788340D01*
X98083947Y-30788340D02*
X97957106Y-30774666D01*
X97957106Y-30774666D02*
X97946000Y-30774000D01*
X97124000Y-37488000D02*
X97124000Y-37488000D01*
X97478000Y-38301000D02*
X97439000Y-38271000D01*
X96179000Y-31758000D02*
X96656000Y-31767000D01*
X98267000Y-38049000D02*
X98135732Y-37978909D01*
X98135732Y-37978909D02*
X98013322Y-37908393D01*
X98013322Y-37908393D02*
X97897641Y-37836146D01*
X97897641Y-37836146D02*
X97786560Y-37760865D01*
X97786560Y-37760865D02*
X97677951Y-37681244D01*
X97677951Y-37681244D02*
X97569686Y-37595978D01*
X97569686Y-37595978D02*
X97526000Y-37560000D01*
X98303000Y-38250000D02*
X98440729Y-38249446D01*
X98440729Y-38249446D02*
X98399212Y-38119808D01*
X98399212Y-38119808D02*
X98267000Y-38049000D01*
X96857000Y-37767000D02*
X96985147Y-37841855D01*
X96985147Y-37841855D02*
X97120269Y-37912434D01*
X97120269Y-37912434D02*
X97260484Y-37978099D01*
X97260484Y-37978099D02*
X97403908Y-38038212D01*
X97403908Y-38038212D02*
X97548656Y-38092136D01*
X97548656Y-38092136D02*
X97692846Y-38139232D01*
X97692846Y-38139232D02*
X97834593Y-38178862D01*
X97834593Y-38178862D02*
X97972015Y-38210390D01*
X97972015Y-38210390D02*
X98103227Y-38233177D01*
X98103227Y-38233177D02*
X98226346Y-38246586D01*
X98226346Y-38246586D02*
X98303000Y-38250000D01*
X95108000Y-37329000D02*
X95191203Y-37416041D01*
X95191203Y-37416041D02*
X95297013Y-37497671D01*
X95297013Y-37497671D02*
X95411000Y-37584000D01*
X97946000Y-30774000D02*
X97818572Y-30796927D01*
X97818572Y-30796927D02*
X97700468Y-30828421D01*
X97700468Y-30828421D02*
X97586000Y-30864000D01*
X97526000Y-37560000D02*
X97429862Y-37486259D01*
X97429862Y-37486259D02*
X97299298Y-37465950D01*
X97299298Y-37465950D02*
X97172547Y-37481162D01*
X97172547Y-37481162D02*
X97124000Y-37488000D01*
X95108000Y-37329000D02*
X95108000Y-37329000D01*
X96749000Y-37536000D02*
X96625072Y-37558252D01*
X96625072Y-37558252D02*
X96695235Y-37664462D01*
X96695235Y-37664462D02*
X96802063Y-37733028D01*
X96802063Y-37733028D02*
X96857000Y-37767000D01*
X101414000Y-34731000D02*
X101435304Y-34612347D01*
X101435304Y-34612347D02*
X101434803Y-34487169D01*
X101434803Y-34487169D02*
X101429169Y-34364374D01*
X101429169Y-34364374D02*
X101419085Y-34234300D01*
X101419085Y-34234300D02*
X101408000Y-34131000D01*
X101138000Y-34659000D02*
X101042000Y-34452000D01*
X99605000Y-34713000D02*
X99688746Y-34615385D01*
X99688746Y-34615385D02*
X99765495Y-34520493D01*
X99765495Y-34520493D02*
X99833000Y-34431000D01*
X97586000Y-30864000D02*
X97456714Y-30911568D01*
X97456714Y-30911568D02*
X97321846Y-30968961D01*
X97321846Y-30968961D02*
X97183726Y-31034767D01*
X97183726Y-31034767D02*
X97044681Y-31107580D01*
X97044681Y-31107580D02*
X96907040Y-31185988D01*
X96907040Y-31185988D02*
X96773132Y-31268584D01*
X96773132Y-31268584D02*
X96645285Y-31353959D01*
X96645285Y-31353959D02*
X96525828Y-31440703D01*
X96525828Y-31440703D02*
X96417089Y-31527407D01*
X96417089Y-31527407D02*
X96321396Y-31612663D01*
X96321396Y-31612663D02*
X96266000Y-31668000D01*
X100829000Y-35280000D02*
X100885787Y-35400360D01*
X100885787Y-35400360D02*
X100934375Y-35511375D01*
X100934375Y-35511375D02*
X100981670Y-35626265D01*
X100981670Y-35626265D02*
X101028097Y-35749021D01*
X101028097Y-35749021D02*
X101033000Y-35763000D01*
X101303000Y-35064000D02*
X101259655Y-34943842D01*
X101259655Y-34943842D02*
X101210187Y-34821563D01*
X101210187Y-34821563D02*
X101159117Y-34704580D01*
X101159117Y-34704580D02*
X101138000Y-34659000D01*
X97682000Y-33891000D02*
X97643869Y-34010567D01*
X97643869Y-34010567D02*
X97643000Y-34017000D01*
X98420000Y-34290000D02*
X98302109Y-34214975D01*
X98302109Y-34214975D02*
X98192832Y-34152357D01*
X98192832Y-34152357D02*
X98069159Y-34084035D01*
X98069159Y-34084035D02*
X97943957Y-34016934D01*
X97943957Y-34016934D02*
X97830092Y-33957981D01*
X97830092Y-33957981D02*
X97708701Y-33899978D01*
X97708701Y-33899978D02*
X97682000Y-33891000D01*
X99998000Y-35544000D02*
X100052000Y-35601000D01*
X99278000Y-33936000D02*
X99198482Y-34026769D01*
X99198482Y-34026769D02*
X99112804Y-34115543D01*
X99112804Y-34115543D02*
X99032000Y-34194000D01*
X100403000Y-34932000D02*
X100328934Y-34823347D01*
X100328934Y-34823347D02*
X100248382Y-34712044D01*
X100248382Y-34712044D02*
X100171311Y-34611262D01*
X100171311Y-34611262D02*
X100091190Y-34516015D01*
X100091190Y-34516015D02*
X100061000Y-34491000D01*
X99788000Y-35259000D02*
X99869084Y-35361935D01*
X99869084Y-35361935D02*
X99944843Y-35463088D01*
X99944843Y-35463088D02*
X99998000Y-35544000D01*
X99032000Y-34194000D02*
X98861000Y-34350000D01*
X101315000Y-35484000D02*
X101369000Y-35259000D01*
X98507000Y-34359000D02*
X98420000Y-34290000D01*
X100721000Y-35067000D02*
X100829000Y-35280000D01*
X96416000Y-33582000D02*
X96416000Y-33582000D01*
X100379000Y-34554000D02*
X100457609Y-34657734D01*
X100457609Y-34657734D02*
X100533900Y-34751477D01*
X100533900Y-34751477D02*
X100604000Y-34821000D01*
X101216000Y-33906000D02*
X101216000Y-33906000D01*
X100505000Y-33711000D02*
X100466000Y-33765000D01*
X97643000Y-34815000D02*
X97856000Y-34716000D01*
X99293000Y-34716000D02*
X99467000Y-34866000D01*
X97241000Y-33726000D02*
X97101787Y-33684287D01*
X97101787Y-33684287D02*
X96960535Y-33645618D01*
X96960535Y-33645618D02*
X96841837Y-33614895D01*
X96841837Y-33614895D02*
X96698978Y-33579984D01*
X96698978Y-33579984D02*
X96576279Y-33552544D01*
X96576279Y-33552544D02*
X96467000Y-33534000D01*
X97418000Y-34902000D02*
X97421000Y-34509000D01*
X99467000Y-34866000D02*
X99605000Y-34713000D01*
X97445000Y-33960000D02*
X97466000Y-33801000D01*
X98861000Y-34350000D02*
X98993000Y-34458000D01*
X98288000Y-34488000D02*
X98507000Y-34359000D01*
X101135000Y-34203000D02*
X101264000Y-34467000D01*
X100466000Y-33765000D02*
X100466000Y-33765000D01*
X97199000Y-34968000D02*
X97418000Y-34902000D01*
X99668000Y-34068000D02*
X99578259Y-33986067D01*
X99578259Y-33986067D02*
X99478250Y-33900000D01*
X99478250Y-33900000D02*
X99383000Y-33831000D01*
X97466000Y-33801000D02*
X97241000Y-33726000D01*
X100604000Y-34821000D02*
X100675586Y-34715636D01*
X100675586Y-34715636D02*
X100734072Y-34603154D01*
X100734072Y-34603154D02*
X100769000Y-34530000D01*
X96467000Y-33534000D02*
X96416000Y-33582000D01*
X101129000Y-36027000D02*
X101192000Y-35868000D01*
X100868000Y-34179000D02*
X100797005Y-34072347D01*
X100797005Y-34072347D02*
X100712186Y-33957193D01*
X100712186Y-33957193D02*
X100638111Y-33861624D01*
X100638111Y-33861624D02*
X100560453Y-33766828D01*
X100560453Y-33766828D02*
X100505000Y-33711000D01*
X100769000Y-34530000D02*
X100825524Y-34408658D01*
X100825524Y-34408658D02*
X100873047Y-34289827D01*
X100873047Y-34289827D02*
X100868000Y-34179000D01*
X97643000Y-34017000D02*
X97634615Y-34146726D01*
X97634615Y-34146726D02*
X97631837Y-34272117D01*
X97631837Y-34272117D02*
X97632032Y-34393869D01*
X97632032Y-34393869D02*
X97634000Y-34482000D01*
X101033000Y-35763000D02*
X101129000Y-36027000D01*
X101216000Y-33906000D02*
X101135000Y-34203000D01*
X97421000Y-34509000D02*
X97422186Y-34385324D01*
X97422186Y-34385324D02*
X97425429Y-34262519D01*
X97425429Y-34262519D02*
X97431179Y-34130794D01*
X97431179Y-34130794D02*
X97439420Y-34010704D01*
X97439420Y-34010704D02*
X97445000Y-33960000D01*
X99923000Y-34302000D02*
X99668000Y-34068000D01*
X99833000Y-34431000D02*
X99923000Y-34302000D01*
X95993000Y-37509000D02*
X95847558Y-37487998D01*
X95847558Y-37487998D02*
X95722589Y-37464622D01*
X95722589Y-37464622D02*
X95588339Y-37436781D01*
X95588339Y-37436781D02*
X95456058Y-37407077D01*
X95456058Y-37407077D02*
X95336996Y-37378111D01*
X95336996Y-37378111D02*
X95207796Y-37341738D01*
X95207796Y-37341738D02*
X95171000Y-37326000D01*
X97124000Y-37488000D02*
X96994565Y-37507016D01*
X96994565Y-37507016D02*
X96868283Y-37523074D01*
X96868283Y-37523074D02*
X96749000Y-37536000D01*
X100061000Y-34491000D02*
X99974828Y-34580298D01*
X99974828Y-34580298D02*
X99889403Y-34681496D01*
X99889403Y-34681496D02*
X99824000Y-34761000D01*
X100466000Y-33765000D02*
X100408951Y-33880739D01*
X100408951Y-33880739D02*
X100347510Y-33992723D01*
X100347510Y-33992723D02*
X100313000Y-34053000D01*
X101192000Y-35868000D02*
X101233921Y-35751015D01*
X101233921Y-35751015D02*
X101271072Y-35634503D01*
X101271072Y-35634503D02*
X101305197Y-35519060D01*
X101305197Y-35519060D02*
X101315000Y-35484000D01*
X100313000Y-34053000D02*
X100181000Y-34287000D01*
X96443000Y-37722000D02*
X96332659Y-37636187D01*
X96332659Y-37636187D02*
X96227990Y-37566150D01*
X96227990Y-37566150D02*
X96114359Y-37525406D01*
X96114359Y-37525406D02*
X95993000Y-37509000D01*
X98993000Y-34458000D02*
X99085318Y-34535605D01*
X99085318Y-34535605D02*
X99186470Y-34622152D01*
X99186470Y-34622152D02*
X99284161Y-34708039D01*
X99284161Y-34708039D02*
X99293000Y-34716000D01*
X101264000Y-34467000D02*
X101322258Y-34580668D01*
X101322258Y-34580668D02*
X101384432Y-34692360D01*
X101384432Y-34692360D02*
X101414000Y-34731000D01*
X100181000Y-34287000D02*
X100379000Y-34554000D01*
X95171000Y-37326000D02*
X95108000Y-37329000D01*
X97439000Y-38271000D02*
X97301778Y-38223196D01*
X97301778Y-38223196D02*
X97173817Y-38161461D01*
X97173817Y-38161461D02*
X97063512Y-38103902D01*
X97063512Y-38103902D02*
X96946621Y-38039856D01*
X96946621Y-38039856D02*
X96828277Y-37972171D01*
X96828277Y-37972171D02*
X96713611Y-37903696D01*
X96713611Y-37903696D02*
X96607755Y-37837277D01*
X96607755Y-37837277D02*
X96489187Y-37756839D01*
X96489187Y-37756839D02*
X96443000Y-37722000D01*
X101408000Y-34131000D02*
X101391025Y-34009939D01*
X101391025Y-34009939D02*
X101372045Y-33891131D01*
X101372045Y-33891131D02*
X101348750Y-33762750D01*
X101348750Y-33762750D02*
X101321093Y-33638250D01*
X101321093Y-33638250D02*
X101303000Y-33597000D01*
X101369000Y-35259000D02*
X101303000Y-35064000D01*
X97856000Y-34716000D02*
X97969824Y-34660782D01*
X97969824Y-34660782D02*
X98085570Y-34600991D01*
X98085570Y-34600991D02*
X98200084Y-34538740D01*
X98200084Y-34538740D02*
X98288000Y-34488000D01*
X97634000Y-34482000D02*
X97643000Y-34815000D01*
X99383000Y-33831000D02*
X99293832Y-33915123D01*
X99293832Y-33915123D02*
X99278000Y-33936000D01*
X97643000Y-34017000D02*
X97643000Y-34017000D01*
X97967000Y-37278000D02*
X97967000Y-37278000D01*
X99539000Y-32607000D02*
X99647158Y-32672707D01*
X99647158Y-32672707D02*
X99740000Y-32718000D01*
X100103000Y-31710000D02*
X100017312Y-31610812D01*
X100017312Y-31610812D02*
X99920117Y-31531546D01*
X99920117Y-31531546D02*
X99804500Y-31445250D01*
X99804500Y-31445250D02*
X99683820Y-31361484D01*
X99683820Y-31361484D02*
X99571437Y-31289812D01*
X99571437Y-31289812D02*
X99462978Y-31231797D01*
X99462978Y-31231797D02*
X99425000Y-31221000D01*
X99308000Y-35034000D02*
X99220437Y-34928906D01*
X99220437Y-34928906D02*
X99129546Y-34841097D01*
X99129546Y-34841097D02*
X99023750Y-34744500D01*
X99023750Y-34744500D02*
X98915421Y-34650152D01*
X98915421Y-34650152D02*
X98816937Y-34569093D01*
X98816937Y-34569093D02*
X98714738Y-34496570D01*
X98714738Y-34496570D02*
X98699000Y-34491000D01*
X93893000Y-34677000D02*
X93884000Y-34779000D01*
X95084000Y-31803000D02*
X94988609Y-31896046D01*
X94988609Y-31896046D02*
X94902208Y-31984489D01*
X94902208Y-31984489D02*
X94838000Y-32061000D01*
X99911000Y-32862000D02*
X100178000Y-33090000D01*
X94940000Y-35223000D02*
X94834531Y-35158031D01*
X94834531Y-35158031D02*
X94772000Y-35136000D01*
X98639000Y-32151000D02*
X98771986Y-32207616D01*
X98771986Y-32207616D02*
X98889964Y-32261663D01*
X98889964Y-32261663D02*
X99013444Y-32321053D01*
X99013444Y-32321053D02*
X99137996Y-32383538D01*
X99137996Y-32383538D02*
X99259190Y-32446866D01*
X99259190Y-32446866D02*
X99372598Y-32508788D01*
X99372598Y-32508788D02*
X99496658Y-32580785D01*
X99496658Y-32580785D02*
X99539000Y-32607000D01*
X98468000Y-32061000D02*
X98573046Y-32122171D01*
X98573046Y-32122171D02*
X98639000Y-32151000D01*
X94172000Y-35901000D02*
X94303354Y-35983328D01*
X94303354Y-35983328D02*
X94415796Y-36040781D01*
X94415796Y-36040781D02*
X94544415Y-36100685D01*
X94544415Y-36100685D02*
X94681808Y-36160105D01*
X94681808Y-36160105D02*
X94820576Y-36216104D01*
X94820576Y-36216104D02*
X94953318Y-36265746D01*
X94953318Y-36265746D02*
X95072632Y-36306092D01*
X95072632Y-36306092D02*
X95198038Y-36340354D01*
X95198038Y-36340354D02*
X95276000Y-36342000D01*
X96464000Y-35550000D02*
X96503946Y-35676125D01*
X96503946Y-35676125D02*
X96546028Y-35793756D01*
X96546028Y-35793756D02*
X96593454Y-35917346D01*
X96593454Y-35917346D02*
X96642848Y-36038668D01*
X96642848Y-36038668D02*
X96690836Y-36149495D01*
X96690836Y-36149495D02*
X96743703Y-36260740D01*
X96743703Y-36260740D02*
X96788000Y-36333000D01*
X96512000Y-30951000D02*
X96366352Y-31003291D01*
X96366352Y-31003291D02*
X96221684Y-31062104D01*
X96221684Y-31062104D02*
X96078498Y-31127156D01*
X96078498Y-31127156D02*
X95937300Y-31198166D01*
X95937300Y-31198166D02*
X95798594Y-31274850D01*
X95798594Y-31274850D02*
X95662884Y-31356929D01*
X95662884Y-31356929D02*
X95530674Y-31444119D01*
X95530674Y-31444119D02*
X95402468Y-31536140D01*
X95402468Y-31536140D02*
X95278772Y-31632709D01*
X95278772Y-31632709D02*
X95160088Y-31733545D01*
X95160088Y-31733545D02*
X95084000Y-31803000D01*
X100487000Y-35061000D02*
X100403000Y-34932000D01*
X97934000Y-35991000D02*
X98059397Y-35940972D01*
X98059397Y-35940972D02*
X98174562Y-35879767D01*
X98174562Y-35879767D02*
X98285559Y-35816235D01*
X98285559Y-35816235D02*
X98403477Y-35745122D01*
X98403477Y-35745122D02*
X98522000Y-35670000D01*
X96788000Y-36333000D02*
X96910819Y-36341085D01*
X96910819Y-36341085D02*
X97007000Y-36324000D01*
X95276000Y-36342000D02*
X95245628Y-36219777D01*
X95245628Y-36219777D02*
X95201606Y-36095552D01*
X95201606Y-36095552D02*
X95186000Y-36054000D01*
X100178000Y-33090000D02*
X100445000Y-33318000D01*
X99161000Y-31092000D02*
X99053396Y-31038412D01*
X99053396Y-31038412D02*
X98925549Y-30988579D01*
X98925549Y-30988579D02*
X98799453Y-30945609D01*
X98799453Y-30945609D02*
X98708000Y-30924000D01*
X97709000Y-36099000D02*
X97680919Y-35977659D01*
X97680919Y-35977659D02*
X97641925Y-35852623D01*
X97641925Y-35852623D02*
X97628000Y-35811000D01*
X96611000Y-35301000D02*
X96491667Y-35313996D01*
X96491667Y-35313996D02*
X96470000Y-35319000D01*
X98708000Y-30924000D02*
X98590178Y-30962720D01*
X98590178Y-30962720D02*
X98472440Y-31017632D01*
X98472440Y-31017632D02*
X98438000Y-31035000D01*
X93923000Y-35157000D02*
X93923000Y-35157000D01*
X101303000Y-33597000D02*
X101267859Y-33713734D01*
X101267859Y-33713734D02*
X101235538Y-33831034D01*
X101235538Y-33831034D02*
X101216000Y-33906000D01*
X98438000Y-31035000D02*
X98438000Y-31035000D01*
X99824000Y-34761000D02*
X99824000Y-34761000D01*
X98024000Y-31947000D02*
X98258000Y-32007000D01*
X93884000Y-34779000D02*
X93888650Y-34905753D01*
X93888650Y-34905753D02*
X93902688Y-35026638D01*
X93902688Y-35026638D02*
X93923000Y-35157000D01*
X94772000Y-35136000D02*
X94644356Y-35086166D01*
X94644356Y-35086166D02*
X94512789Y-35027517D01*
X94512789Y-35027517D02*
X94399942Y-34973742D01*
X94399942Y-34973742D02*
X94287200Y-34917226D01*
X94287200Y-34917226D02*
X94180892Y-34861061D01*
X94180892Y-34861061D02*
X94066695Y-34796062D01*
X94066695Y-34796062D02*
X93998000Y-34752000D01*
X100829000Y-35280000D02*
X100829000Y-35280000D01*
X97007000Y-36324000D02*
X97132712Y-36293552D01*
X97132712Y-36293552D02*
X97267790Y-36254840D01*
X97267790Y-36254840D02*
X97382497Y-36219441D01*
X97382497Y-36219441D02*
X97518787Y-36174673D01*
X97518787Y-36174673D02*
X97647729Y-36128076D01*
X97647729Y-36128076D02*
X97709000Y-36099000D01*
X97604000Y-31848000D02*
X97722560Y-31873015D01*
X97722560Y-31873015D02*
X97849101Y-31901964D01*
X97849101Y-31901964D02*
X97974083Y-31933271D01*
X97974083Y-31933271D02*
X98024000Y-31947000D01*
X101042000Y-34452000D02*
X100880000Y-34758000D01*
X98420000Y-34644000D02*
X98420000Y-34644000D01*
X99278000Y-33936000D02*
X99278000Y-33936000D01*
X99824000Y-34761000D02*
X99608000Y-35031000D01*
X100052000Y-35601000D02*
X100137872Y-35511701D01*
X100137872Y-35511701D02*
X100219025Y-35410503D01*
X100219025Y-35410503D02*
X100280000Y-35331000D01*
X100508000Y-33117000D02*
X100539180Y-32998159D01*
X100539180Y-32998159D02*
X100565750Y-32880750D01*
X100565750Y-32880750D02*
X100591457Y-32753865D01*
X100591457Y-32753865D02*
X100613666Y-32628811D01*
X100613666Y-32628811D02*
X100619000Y-32595000D01*
X99167000Y-31395000D02*
X99167000Y-31395000D01*
X99740000Y-32718000D02*
X99800722Y-32597330D01*
X99800722Y-32597330D02*
X99850408Y-32469691D01*
X99850408Y-32469691D02*
X99897352Y-32339261D01*
X99897352Y-32339261D02*
X99950044Y-32185488D01*
X99950044Y-32185488D02*
X99992976Y-32055854D01*
X99992976Y-32055854D02*
X100038552Y-31914750D01*
X100038552Y-31914750D02*
X100086522Y-31762888D01*
X100086522Y-31762888D02*
X100103000Y-31710000D01*
X100880000Y-34758000D02*
X100721000Y-35067000D01*
X99608000Y-35031000D02*
X99788000Y-35259000D01*
X100280000Y-35331000D02*
X100487000Y-35061000D01*
X95099000Y-31998000D02*
X95221203Y-31960031D01*
X95221203Y-31960031D02*
X95339522Y-31926174D01*
X95339522Y-31926174D02*
X95457222Y-31895277D01*
X95457222Y-31895277D02*
X95577201Y-31867943D01*
X95577201Y-31867943D02*
X95603000Y-31863000D01*
X97586000Y-30864000D02*
X97586000Y-30864000D01*
X98420000Y-34644000D02*
X98302390Y-34711031D01*
X98302390Y-34711031D02*
X98184841Y-34775086D01*
X98184841Y-34775086D02*
X98065274Y-34837472D01*
X98065274Y-34837472D02*
X97954804Y-34891783D01*
X97954804Y-34891783D02*
X97913000Y-34911000D01*
X97658000Y-35088000D02*
X97680500Y-35218218D01*
X97680500Y-35218218D02*
X97711843Y-35352913D01*
X97711843Y-35352913D02*
X97742456Y-35474394D01*
X97742456Y-35474394D02*
X97775248Y-35597333D01*
X97775248Y-35597333D02*
X97815447Y-35737955D01*
X97815447Y-35737955D02*
X97856000Y-35862000D01*
X97913000Y-34911000D02*
X97793421Y-34969453D01*
X97793421Y-34969453D02*
X97688849Y-35036478D01*
X97688849Y-35036478D02*
X97658000Y-35088000D01*
X97046000Y-35211000D02*
X96919601Y-35242463D01*
X96919601Y-35242463D02*
X96787230Y-35272027D01*
X96787230Y-35272027D02*
X96660494Y-35295683D01*
X96660494Y-35295683D02*
X96611000Y-35301000D01*
X95843000Y-31815000D02*
X96128000Y-31539000D01*
X99425000Y-31221000D02*
X99321634Y-31284360D01*
X99321634Y-31284360D02*
X99214630Y-31359960D01*
X99214630Y-31359960D02*
X99167000Y-31395000D01*
X98339000Y-31908000D02*
X98427505Y-31803287D01*
X98427505Y-31803287D02*
X98518648Y-31702764D01*
X98518648Y-31702764D02*
X98612427Y-31606223D01*
X98612427Y-31606223D02*
X98708843Y-31513458D01*
X98708843Y-31513458D02*
X98807896Y-31424265D01*
X98807896Y-31424265D02*
X98909585Y-31338435D01*
X98909585Y-31338435D02*
X98951000Y-31305000D01*
X97856000Y-35862000D02*
X97912305Y-35972499D01*
X97912305Y-35972499D02*
X97934000Y-35991000D01*
X93923000Y-35157000D02*
X93950433Y-35310046D01*
X93950433Y-35310046D02*
X93978781Y-35445375D01*
X93978781Y-35445375D02*
X94008113Y-35563265D01*
X94008113Y-35563265D02*
X94046269Y-35686535D01*
X94046269Y-35686535D02*
X94094426Y-35799848D01*
X94094426Y-35799848D02*
X94172000Y-35901000D01*
X100151000Y-32214000D02*
X100107763Y-32340978D01*
X100107763Y-32340978D02*
X100063503Y-32466692D01*
X100063503Y-32466692D02*
X100022366Y-32580400D01*
X100022366Y-32580400D02*
X99977232Y-32700725D01*
X99977232Y-32700725D02*
X99974000Y-32709000D01*
X98699000Y-34491000D02*
X98585944Y-34546885D01*
X98585944Y-34546885D02*
X98470994Y-34613308D01*
X98470994Y-34613308D02*
X98420000Y-34644000D01*
X98951000Y-31305000D02*
X99045828Y-31228687D01*
X99045828Y-31228687D02*
X99134369Y-31144882D01*
X99134369Y-31144882D02*
X99161000Y-31092000D01*
X95186000Y-36054000D02*
X95138275Y-35932236D01*
X95138275Y-35932236D02*
X95096562Y-35812687D01*
X95096562Y-35812687D02*
X95056115Y-35679216D01*
X95056115Y-35679216D02*
X95019951Y-35545714D01*
X95019951Y-35545714D02*
X94987435Y-35417608D01*
X94987435Y-35417608D02*
X94950207Y-35265384D01*
X94950207Y-35265384D02*
X94940000Y-35223000D01*
X98003000Y-31287000D02*
X97892535Y-31365527D01*
X97892535Y-31365527D02*
X97796055Y-31439779D01*
X97796055Y-31439779D02*
X97698995Y-31518479D01*
X97698995Y-31518479D02*
X97607472Y-31596352D01*
X97607472Y-31596352D02*
X97510175Y-31684498D01*
X97510175Y-31684498D02*
X97427299Y-31772280D01*
X97427299Y-31772280D02*
X97418000Y-31791000D01*
X98522000Y-35670000D02*
X98628125Y-35596898D01*
X98628125Y-35596898D02*
X98751125Y-35506500D01*
X98751125Y-35506500D02*
X98848696Y-35432002D01*
X98848696Y-35432002D02*
X98946347Y-35355389D01*
X98946347Y-35355389D02*
X99040043Y-35279923D01*
X99040043Y-35279923D02*
X99151846Y-35186725D01*
X99151846Y-35186725D02*
X99257058Y-35093036D01*
X99257058Y-35093036D02*
X99308000Y-35034000D01*
X99167000Y-31395000D02*
X99051057Y-31488161D01*
X99051057Y-31488161D02*
X98940690Y-31584245D01*
X98940690Y-31584245D02*
X98824416Y-31690120D01*
X98824416Y-31690120D02*
X98711237Y-31797138D01*
X98711237Y-31797138D02*
X98610151Y-31896650D01*
X98610151Y-31896650D02*
X98514511Y-31997310D01*
X98514511Y-31997310D02*
X98468000Y-32061000D01*
X93998000Y-34752000D02*
X93893000Y-34677000D01*
X97004000Y-30888000D02*
X96886330Y-30847308D01*
X96886330Y-30847308D02*
X96763484Y-30876416D01*
X96763484Y-30876416D02*
X96623876Y-30915535D01*
X96623876Y-30915535D02*
X96512000Y-30951000D01*
X96128000Y-31539000D02*
X96232332Y-31442490D01*
X96232332Y-31442490D02*
X96346718Y-31344046D01*
X96346718Y-31344046D02*
X96466871Y-31246798D01*
X96466871Y-31246798D02*
X96588500Y-31153875D01*
X96588500Y-31153875D02*
X96707316Y-31068404D01*
X96707316Y-31068404D02*
X96819031Y-30993515D01*
X96819031Y-30993515D02*
X96942154Y-30919552D01*
X96942154Y-30919552D02*
X97004000Y-30888000D01*
X98258000Y-32007000D02*
X98339000Y-31908000D01*
X94271000Y-36219000D02*
X94323988Y-36335827D01*
X94323988Y-36335827D02*
X94381576Y-36441523D01*
X94381576Y-36441523D02*
X94388000Y-36453000D01*
X95822000Y-37125000D02*
X95742129Y-37026976D01*
X95742129Y-37026976D02*
X95662825Y-36922802D01*
X95662825Y-36922802D02*
X95588949Y-36820541D01*
X95588949Y-36820541D02*
X95561000Y-36780000D01*
X98552000Y-37047000D02*
X98699000Y-37197000D01*
X96467000Y-36138000D02*
X96418062Y-36018890D01*
X96418062Y-36018890D02*
X96372242Y-35898145D01*
X96372242Y-35898145D02*
X96328361Y-35774411D01*
X96328361Y-35774411D02*
X96290939Y-35659561D01*
X96290939Y-35659561D02*
X96278000Y-35616000D01*
X95168000Y-35313000D02*
X95168000Y-35313000D01*
X96200000Y-35346000D02*
X95786000Y-35328000D01*
X95705000Y-36624000D02*
X95756000Y-36705000D01*
X100316000Y-35607000D02*
X100316000Y-35607000D01*
X98228000Y-36969000D02*
X98163154Y-36865099D01*
X98163154Y-36865099D02*
X98090793Y-36754340D01*
X98090793Y-36754340D02*
X98066000Y-36717000D01*
X100433000Y-36984000D02*
X100403363Y-36863851D01*
X100403363Y-36863851D02*
X100364405Y-36739310D01*
X100364405Y-36739310D02*
X100316000Y-36601875D01*
X100316000Y-36601875D02*
X100272687Y-36488501D01*
X100272687Y-36488501D02*
X100227125Y-36376921D01*
X100227125Y-36376921D02*
X100169578Y-36246770D01*
X100169578Y-36246770D02*
X100136000Y-36177000D01*
X94388000Y-36453000D02*
X94452756Y-36562146D01*
X94452756Y-36562146D02*
X94533611Y-36684751D01*
X94533611Y-36684751D02*
X94613676Y-36785446D01*
X94613676Y-36785446D02*
X94721750Y-36887625D01*
X94721750Y-36887625D02*
X94821886Y-36956115D01*
X94821886Y-36956115D02*
X94940656Y-37017890D01*
X94940656Y-37017890D02*
X95084035Y-37077626D01*
X95084035Y-37077626D02*
X95211314Y-37123903D01*
X95211314Y-37123903D02*
X95258000Y-37140000D01*
X97868000Y-36381000D02*
X97808000Y-36291000D01*
X97595000Y-36363000D02*
X97478197Y-36402766D01*
X97478197Y-36402766D02*
X97356244Y-36440169D01*
X97356244Y-36440169D02*
X97238697Y-36473701D01*
X97238697Y-36473701D02*
X97193000Y-36486000D01*
X100229000Y-37302000D02*
X100329577Y-37205641D01*
X100329577Y-37205641D02*
X100413479Y-37112642D01*
X100413479Y-37112642D02*
X100434611Y-36993307D01*
X100434611Y-36993307D02*
X100433000Y-36984000D01*
X97808000Y-36291000D02*
X97688511Y-36329019D01*
X97688511Y-36329019D02*
X97595000Y-36363000D01*
X96674000Y-37332000D02*
X96806210Y-37323389D01*
X96806210Y-37323389D02*
X96928435Y-37313809D01*
X96928435Y-37313809D02*
X97054837Y-37301281D01*
X97054837Y-37301281D02*
X97127000Y-37290000D01*
X96218000Y-33519000D02*
X96100141Y-33492919D01*
X96100141Y-33492919D02*
X95978351Y-33485279D01*
X95978351Y-33485279D02*
X95844693Y-33480660D01*
X95844693Y-33480660D02*
X95716911Y-33478157D01*
X95716911Y-33478157D02*
X95609000Y-33477000D01*
X95609000Y-33477000D02*
X95228000Y-33471000D01*
X96383000Y-35115000D02*
X96508096Y-35111729D01*
X96508096Y-35111729D02*
X96642777Y-35091615D01*
X96642777Y-35091615D02*
X96768679Y-35068903D01*
X96768679Y-35068903D02*
X96900856Y-35042095D01*
X96900856Y-35042095D02*
X97030203Y-35012843D01*
X97030203Y-35012843D02*
X97147615Y-34982801D01*
X97147615Y-34982801D02*
X97199000Y-34968000D01*
X95120000Y-35022000D02*
X95241556Y-35059529D01*
X95241556Y-35059529D02*
X95381375Y-35085000D01*
X95381375Y-35085000D02*
X95521088Y-35105379D01*
X95521088Y-35105379D02*
X95640973Y-35119943D01*
X95640973Y-35119943D02*
X95762625Y-35132045D01*
X95762625Y-35132045D02*
X95852000Y-35139000D01*
X94886000Y-34509000D02*
X94888390Y-34365667D01*
X94888390Y-34365667D02*
X94893312Y-34230281D01*
X94893312Y-34230281D02*
X94900765Y-34102628D01*
X94900765Y-34102628D02*
X94910750Y-33982500D01*
X94910750Y-33982500D02*
X94926790Y-33842597D01*
X94926790Y-33842597D02*
X94946785Y-33713708D01*
X94946785Y-33713708D02*
X94970735Y-33595421D01*
X94970735Y-33595421D02*
X94976000Y-33573000D01*
X96170000Y-33807000D02*
X96191023Y-33687111D01*
X96191023Y-33687111D02*
X96211164Y-33565466D01*
X96211164Y-33565466D02*
X96218000Y-33519000D01*
X96140000Y-34953000D02*
X96128738Y-34825992D01*
X96128738Y-34825992D02*
X96121906Y-34684500D01*
X96121906Y-34684500D02*
X96119433Y-34533445D01*
X96119433Y-34533445D02*
X96121250Y-34377750D01*
X96121250Y-34377750D02*
X96127285Y-34222335D01*
X96127285Y-34222335D02*
X96137468Y-34072125D01*
X96137468Y-34072125D02*
X96151730Y-33932039D01*
X96151730Y-33932039D02*
X96170000Y-33807000D01*
X95795000Y-32220000D02*
X95725013Y-32324578D01*
X95725013Y-32324578D02*
X95662527Y-32428257D01*
X95662527Y-32428257D02*
X95648000Y-32463000D01*
X95015000Y-33294000D02*
X95077695Y-33181847D01*
X95077695Y-33181847D02*
X95132750Y-33057375D01*
X95132750Y-33057375D02*
X95184640Y-32928156D01*
X95184640Y-32928156D02*
X95223451Y-32813033D01*
X95223451Y-32813033D02*
X95228000Y-32787000D01*
X101702000Y-34053000D02*
X101739664Y-33922142D01*
X101739664Y-33922142D02*
X101784500Y-33791953D01*
X101784500Y-33791953D02*
X101835523Y-33664505D01*
X101835523Y-33664505D02*
X101891750Y-33541875D01*
X101891750Y-33541875D02*
X101952195Y-33426134D01*
X101952195Y-33426134D02*
X102015875Y-33319359D01*
X102015875Y-33319359D02*
X102098523Y-33201656D01*
X102098523Y-33201656D02*
X102149000Y-33141000D01*
X100151000Y-32214000D02*
X100151000Y-32214000D01*
X96989000Y-32553000D02*
X97124509Y-32578243D01*
X97124509Y-32578243D02*
X97262638Y-32608371D01*
X97262638Y-32608371D02*
X97383125Y-32636250D01*
X97383125Y-32636250D02*
X97501783Y-32664972D01*
X97501783Y-32664972D02*
X97632485Y-32698527D01*
X97632485Y-32698527D02*
X97748000Y-32733000D01*
X97856000Y-33147000D02*
X97856000Y-33147000D01*
X96059000Y-31992000D02*
X96059000Y-31992000D01*
X97748000Y-32733000D02*
X97846056Y-32649650D01*
X97846056Y-32649650D02*
X97911857Y-32546419D01*
X97911857Y-32546419D02*
X97952000Y-32478000D01*
X95330000Y-32139000D02*
X95204703Y-32177906D01*
X95204703Y-32177906D02*
X95079466Y-32220927D01*
X95079466Y-32220927D02*
X94952103Y-32267986D01*
X94952103Y-32267986D02*
X94834483Y-32314938D01*
X94834483Y-32314938D02*
X94790000Y-32334000D01*
X94775000Y-34926000D02*
X94886000Y-34965000D01*
X99764000Y-33888000D02*
X99853269Y-33969892D01*
X99853269Y-33969892D02*
X99946039Y-34050158D01*
X99946039Y-34050158D02*
X100053897Y-34105162D01*
X100053897Y-34105162D02*
X100061000Y-34098000D01*
X96059000Y-31992000D02*
X95944051Y-32037195D01*
X95944051Y-32037195D02*
X95858525Y-32132289D01*
X95858525Y-32132289D02*
X95795000Y-32220000D01*
X95852000Y-35139000D02*
X96164000Y-35160000D01*
X96965000Y-31971000D02*
X96569000Y-31971000D01*
X96569000Y-31971000D02*
X96446010Y-31971909D01*
X96446010Y-31971909D02*
X96309303Y-31975053D01*
X96309303Y-31975053D02*
X96175392Y-31980932D01*
X96175392Y-31980932D02*
X96059000Y-31992000D01*
X95087000Y-34620000D02*
X95093305Y-34752397D01*
X95093305Y-34752397D02*
X95101324Y-34882374D01*
X95101324Y-34882374D02*
X95114386Y-35005597D01*
X95114386Y-35005597D02*
X95120000Y-35022000D01*
X95228000Y-32787000D02*
X95103229Y-32798671D01*
X95103229Y-32798671D02*
X94977285Y-32831174D01*
X94977285Y-32831174D02*
X94846431Y-32870138D01*
X94846431Y-32870138D02*
X94751000Y-32901000D01*
X97433000Y-32019000D02*
X97308918Y-32005468D01*
X97308918Y-32005468D02*
X97192668Y-32036862D01*
X97192668Y-32036862D02*
X97157000Y-32067000D01*
X96164000Y-35160000D02*
X96140000Y-34953000D01*
X96320000Y-34311000D02*
X96315345Y-34460268D01*
X96315345Y-34460268D02*
X96316625Y-34588312D01*
X96316625Y-34588312D02*
X96321781Y-34716523D01*
X96321781Y-34716523D02*
X96330286Y-34837975D01*
X96330286Y-34837975D02*
X96344822Y-34969735D01*
X96344822Y-34969735D02*
X96370618Y-35092521D01*
X96370618Y-35092521D02*
X96383000Y-35115000D01*
X98762000Y-34164000D02*
X98863502Y-34077917D01*
X98863502Y-34077917D02*
X98950841Y-33992402D01*
X98950841Y-33992402D02*
X99038016Y-33900405D01*
X99038016Y-33900405D02*
X99126842Y-33798275D01*
X99126842Y-33798275D02*
X99188000Y-33705000D01*
X97718000Y-33636000D02*
X97800236Y-33726380D01*
X97800236Y-33726380D02*
X97917764Y-33786787D01*
X97917764Y-33786787D02*
X97949000Y-33801000D01*
X95195000Y-33552000D02*
X95157011Y-33689208D01*
X95157011Y-33689208D02*
X95135025Y-33808043D01*
X95135025Y-33808043D02*
X95116326Y-33943068D01*
X95116326Y-33943068D02*
X95101442Y-34089396D01*
X95101442Y-34089396D02*
X95090900Y-34242139D01*
X95090900Y-34242139D02*
X95085226Y-34396412D01*
X95085226Y-34396412D02*
X95084949Y-34547328D01*
X95084949Y-34547328D02*
X95087000Y-34620000D01*
X97157000Y-32067000D02*
X97082140Y-32165203D01*
X97082140Y-32165203D02*
X97005155Y-32274369D01*
X97005155Y-32274369D02*
X96929158Y-32386423D01*
X96929158Y-32386423D02*
X96864381Y-32487718D01*
X96864381Y-32487718D02*
X96848000Y-32520000D01*
X96416000Y-33582000D02*
X96385390Y-33716578D01*
X96385390Y-33716578D02*
X96364356Y-33846258D01*
X96364356Y-33846258D02*
X96348756Y-33967694D01*
X96348756Y-33967694D02*
X96335421Y-34097109D01*
X96335421Y-34097109D02*
X96324834Y-34230589D01*
X96324834Y-34230589D02*
X96320000Y-34311000D01*
X97949000Y-33801000D02*
X98058218Y-33854062D01*
X98058218Y-33854062D02*
X98169569Y-33912796D01*
X98169569Y-33912796D02*
X98284204Y-33976699D01*
X98284204Y-33976699D02*
X98391195Y-34039740D01*
X98391195Y-34039740D02*
X98432000Y-34065000D01*
X95195000Y-33552000D02*
X95195000Y-33552000D01*
X97856000Y-33147000D02*
X97815414Y-33261110D01*
X97815414Y-33261110D02*
X97773954Y-33390498D01*
X97773954Y-33390498D02*
X97738261Y-33519826D01*
X97738261Y-33519826D02*
X97718000Y-33636000D01*
X94976000Y-33573000D02*
X94853988Y-33533666D01*
X94853988Y-33533666D02*
X94763000Y-33549000D01*
X95648000Y-32463000D02*
X95767625Y-32488500D01*
X95767625Y-32488500D02*
X95897566Y-32493730D01*
X95897566Y-32493730D02*
X96020380Y-32495566D01*
X96020380Y-32495566D02*
X96137000Y-32496000D01*
X94763000Y-33549000D02*
X94642426Y-33571613D01*
X94642426Y-33571613D02*
X94522525Y-33597391D01*
X94522525Y-33597391D02*
X94392623Y-33628409D01*
X94392623Y-33628409D02*
X94319000Y-33648000D01*
X98087000Y-32181000D02*
X97969455Y-32141080D01*
X97969455Y-32141080D02*
X97846432Y-32110500D01*
X97846432Y-32110500D02*
X97716868Y-32080652D01*
X97716868Y-32080652D02*
X97597937Y-32054360D01*
X97597937Y-32054360D02*
X97467290Y-32026267D01*
X97467290Y-32026267D02*
X97433000Y-32019000D01*
X99494000Y-33639000D02*
X99764000Y-33888000D01*
X94319000Y-33648000D02*
X94191095Y-33682517D01*
X94191095Y-33682517D02*
X94059411Y-33723274D01*
X94059411Y-33723274D02*
X93954400Y-33800197D01*
X93954400Y-33800197D02*
X93920774Y-33930311D01*
X93920774Y-33930311D02*
X93911000Y-33996000D01*
X96137000Y-32496000D02*
X96626000Y-32496000D01*
X93911000Y-33996000D02*
X93890708Y-34135693D01*
X93890708Y-34135693D02*
X93877132Y-34264517D01*
X93877132Y-34264517D02*
X93888125Y-34384125D01*
X93888125Y-34384125D02*
X93971683Y-34489416D01*
X93971683Y-34489416D02*
X94082562Y-34565741D01*
X94082562Y-34565741D02*
X94106000Y-34581000D01*
X94886000Y-34965000D02*
X94886000Y-34509000D01*
X99842000Y-33081000D02*
X99766718Y-33186195D01*
X99766718Y-33186195D02*
X99710000Y-33282000D01*
X99710000Y-33282000D02*
X99710000Y-33282000D01*
X95228000Y-33471000D02*
X95195000Y-33552000D01*
X98684000Y-34221000D02*
X98762000Y-34164000D01*
X98432000Y-34065000D02*
X98684000Y-34221000D01*
X100355000Y-33537000D02*
X100184000Y-33372000D01*
X97952000Y-32478000D02*
X98013171Y-32370000D01*
X98013171Y-32370000D02*
X98067389Y-32258334D01*
X98067389Y-32258334D02*
X98087000Y-32181000D01*
X94409000Y-32640000D02*
X94345916Y-32751171D01*
X94345916Y-32751171D02*
X94313000Y-32835000D01*
X100223000Y-33795000D02*
X100355000Y-33537000D01*
X99710000Y-33282000D02*
X99651186Y-33388765D01*
X99651186Y-33388765D02*
X99589452Y-33492629D01*
X99589452Y-33492629D02*
X99545000Y-33561000D01*
X100184000Y-33372000D02*
X100082598Y-33275219D01*
X100082598Y-33275219D02*
X99985566Y-33186619D01*
X99985566Y-33186619D02*
X99887757Y-33106179D01*
X99887757Y-33106179D02*
X99842000Y-33081000D01*
X99188000Y-33705000D02*
X99089775Y-33607533D01*
X99089775Y-33607533D02*
X98981077Y-33533898D01*
X98981077Y-33533898D02*
X98845173Y-33450503D01*
X98845173Y-33450503D02*
X98691452Y-33362481D01*
X98691452Y-33362481D02*
X98583708Y-33303764D01*
X98583708Y-33303764D02*
X98475000Y-33246790D01*
X98475000Y-33246790D02*
X98316215Y-33167928D01*
X98316215Y-33167928D02*
X98170906Y-33101543D01*
X98170906Y-33101543D02*
X98048462Y-33052769D01*
X98048462Y-33052769D02*
X97937000Y-33024000D01*
X99467000Y-32799000D02*
X99362549Y-32734193D01*
X99362549Y-32734193D02*
X99247440Y-32667513D01*
X99247440Y-32667513D02*
X99125409Y-32600724D01*
X99125409Y-32600724D02*
X99000195Y-32535591D01*
X99000195Y-32535591D02*
X98875534Y-32473880D01*
X98875534Y-32473880D02*
X98755165Y-32417354D01*
X98755165Y-32417354D02*
X98642824Y-32367780D01*
X98642824Y-32367780D02*
X98511985Y-32315544D01*
X98511985Y-32315544D02*
X98391350Y-32278412D01*
X98391350Y-32278412D02*
X98360000Y-32274000D01*
X95078000Y-32601000D02*
X95363000Y-32538000D01*
X100637000Y-33534000D02*
X100724952Y-33651162D01*
X100724952Y-33651162D02*
X100804486Y-33753411D01*
X100804486Y-33753411D02*
X100885625Y-33852750D01*
X100885625Y-33852750D02*
X100969920Y-33944581D01*
X100969920Y-33944581D02*
X100997000Y-33960000D01*
X97511000Y-33573000D02*
X97538000Y-33507000D01*
X95330000Y-32139000D02*
X95330000Y-32139000D01*
X95789000Y-33282000D02*
X96293000Y-33288000D01*
X100793000Y-32796000D02*
X100764167Y-32922213D01*
X100764167Y-32922213D02*
X100731765Y-33047677D01*
X100731765Y-33047677D02*
X100697675Y-33169519D01*
X100697675Y-33169519D02*
X100670000Y-33261000D01*
X94751000Y-32901000D02*
X94637046Y-32939906D01*
X94637046Y-32939906D02*
X94516625Y-32985000D01*
X94516625Y-32985000D02*
X94404640Y-33030093D01*
X94404640Y-33030093D02*
X94316000Y-33069000D01*
X102149000Y-33141000D02*
X102259478Y-33026793D01*
X102259478Y-33026793D02*
X102381736Y-32916410D01*
X102381736Y-32916410D02*
X102512504Y-32810579D01*
X102512504Y-32810579D02*
X102648515Y-32710031D01*
X102648515Y-32710031D02*
X102786501Y-32615494D01*
X102786501Y-32615494D02*
X102923193Y-32527699D01*
X102923193Y-32527699D02*
X103055323Y-32447374D01*
X103055323Y-32447374D02*
X103179625Y-32375250D01*
X103179625Y-32375250D02*
X103292828Y-32312055D01*
X103292828Y-32312055D02*
X103434676Y-32235601D01*
X103434676Y-32235601D02*
X103554463Y-32171726D01*
X103554463Y-32171726D02*
X103500000Y-32181000D01*
X95402000Y-32922000D02*
X95354903Y-33032762D01*
X95354903Y-33032762D02*
X95312984Y-33148125D01*
X95312984Y-33148125D02*
X95300000Y-33195000D01*
X94085000Y-33306000D02*
X94046265Y-33423083D01*
X94046265Y-33423083D02*
X94154434Y-33486157D01*
X94154434Y-33486157D02*
X94205000Y-33471000D01*
X96125000Y-32691000D02*
X96000322Y-32691909D01*
X96000322Y-32691909D02*
X95861647Y-32695053D01*
X95861647Y-32695053D02*
X95740683Y-32700082D01*
X95740683Y-32700082D02*
X95620266Y-32709786D01*
X95620266Y-32709786D02*
X95606000Y-32712000D01*
X98171000Y-32493000D02*
X98171000Y-32493000D01*
X100670000Y-33261000D02*
X100633675Y-33385444D01*
X100633675Y-33385444D02*
X100622637Y-33505091D01*
X100622637Y-33505091D02*
X100637000Y-33534000D01*
X97682000Y-32928000D02*
X97566546Y-32893031D01*
X97566546Y-32893031D02*
X97428958Y-32858000D01*
X97428958Y-32858000D02*
X97301979Y-32827273D01*
X97301979Y-32827273D02*
X97173110Y-32797266D01*
X97173110Y-32797266D02*
X97054481Y-32770863D01*
X97054481Y-32770863D02*
X96922268Y-32744321D01*
X96922268Y-32744321D02*
X96908000Y-32742000D01*
X99605000Y-33057000D02*
X99668000Y-32931000D01*
X95606000Y-32712000D02*
X95493875Y-32756250D01*
X95493875Y-32756250D02*
X95429591Y-32862035D01*
X95429591Y-32862035D02*
X95402000Y-32922000D01*
X99335000Y-33528000D02*
X99437000Y-33357000D01*
X95300000Y-33195000D02*
X95285000Y-33276000D01*
X103613000Y-32046000D02*
X103613000Y-32046000D01*
X97538000Y-33507000D02*
X97566522Y-33386180D01*
X97566522Y-33386180D02*
X97603273Y-33266462D01*
X97603273Y-33266462D02*
X97625000Y-33201000D01*
X94790000Y-32334000D02*
X94665546Y-32390518D01*
X94665546Y-32390518D02*
X94558343Y-32449879D01*
X94558343Y-32449879D02*
X94466965Y-32544704D01*
X94466965Y-32544704D02*
X94409000Y-32640000D01*
X94559000Y-32757000D02*
X94672578Y-32717437D01*
X94672578Y-32717437D02*
X94790771Y-32679859D01*
X94790771Y-32679859D02*
X94914483Y-32643465D01*
X94914483Y-32643465D02*
X95032219Y-32612024D01*
X95032219Y-32612024D02*
X95078000Y-32601000D01*
X95444000Y-32397000D02*
X95505620Y-32292715D01*
X95505620Y-32292715D02*
X95570320Y-32185947D01*
X95570320Y-32185947D02*
X95588000Y-32157000D01*
X94313000Y-32835000D02*
X94435883Y-32802359D01*
X94435883Y-32802359D02*
X94559000Y-32757000D01*
X96503000Y-32742000D02*
X96380410Y-32693160D01*
X96380410Y-32693160D02*
X96248046Y-32691222D01*
X96248046Y-32691222D02*
X96125000Y-32691000D01*
X96656000Y-32898000D02*
X96608964Y-33009097D01*
X96608964Y-33009097D02*
X96560259Y-33130691D01*
X96560259Y-33130691D02*
X96513671Y-33253990D01*
X96513671Y-33253990D02*
X96488000Y-33336000D01*
X96629000Y-33366000D02*
X96755690Y-33391679D01*
X96755690Y-33391679D02*
X96887239Y-33423631D01*
X96887239Y-33423631D02*
X97015572Y-33457510D01*
X97015572Y-33457510D02*
X97127000Y-33489000D01*
X96797000Y-32232000D02*
X96965000Y-31971000D01*
X94676000Y-33366000D02*
X94795203Y-33345046D01*
X94795203Y-33345046D02*
X94920443Y-33319547D01*
X94920443Y-33319547D02*
X95015000Y-33294000D01*
X98129000Y-32871000D02*
X98263782Y-32924327D01*
X98263782Y-32924327D02*
X98380297Y-32978043D01*
X98380297Y-32978043D02*
X98510470Y-33042270D01*
X98510470Y-33042270D02*
X98647728Y-33113564D01*
X98647728Y-33113564D02*
X98785495Y-33188479D01*
X98785495Y-33188479D02*
X98917197Y-33263570D01*
X98917197Y-33263570D02*
X99036261Y-33335392D01*
X99036261Y-33335392D02*
X99089000Y-33369000D01*
X99668000Y-32931000D02*
X99467000Y-32799000D01*
X95588000Y-32157000D02*
X95624000Y-32061000D01*
X101003000Y-32814000D02*
X100947031Y-32707312D01*
X100947031Y-32707312D02*
X100884884Y-32597125D01*
X100884884Y-32597125D02*
X100850000Y-32547000D01*
X100850000Y-32547000D02*
X100819868Y-32670731D01*
X100819868Y-32670731D02*
X100793000Y-32796000D01*
X99089000Y-33369000D02*
X99335000Y-33528000D01*
X97625000Y-33201000D02*
X97663905Y-33078488D01*
X97663905Y-33078488D02*
X97688577Y-32957724D01*
X97688577Y-32957724D02*
X97682000Y-32928000D01*
X94205000Y-33471000D02*
X94324150Y-33440725D01*
X94324150Y-33440725D02*
X94448158Y-33412445D01*
X94448158Y-33412445D02*
X94580603Y-33384516D01*
X94580603Y-33384516D02*
X94676000Y-33366000D01*
X94316000Y-33069000D02*
X94209034Y-33125157D01*
X94209034Y-33125157D02*
X94122830Y-33213456D01*
X94122830Y-33213456D02*
X94085000Y-33306000D01*
X100997000Y-33960000D02*
X101035983Y-33825505D01*
X101035983Y-33825505D02*
X101064875Y-33687750D01*
X101064875Y-33687750D02*
X101088402Y-33559932D01*
X101088402Y-33559932D02*
X101108867Y-33433899D01*
X101108867Y-33433899D02*
X101126000Y-33303000D01*
X96848000Y-32520000D02*
X96967497Y-32549555D01*
X96967497Y-32549555D02*
X96989000Y-32553000D01*
X96908000Y-32742000D02*
X96784703Y-32730761D01*
X96784703Y-32730761D02*
X96695194Y-32814448D01*
X96695194Y-32814448D02*
X96656000Y-32898000D01*
X99437000Y-33357000D02*
X99499846Y-33250470D01*
X99499846Y-33250470D02*
X99561563Y-33139752D01*
X99561563Y-33139752D02*
X99605000Y-33057000D01*
X96293000Y-33288000D02*
X96386000Y-33042000D01*
X98171000Y-32493000D02*
X98111732Y-32597835D01*
X98111732Y-32597835D02*
X98053098Y-32711188D01*
X98053098Y-32711188D02*
X98044937Y-32832230D01*
X98044937Y-32832230D02*
X98129000Y-32871000D01*
X95624000Y-32061000D02*
X95504536Y-32089832D01*
X95504536Y-32089832D02*
X95383361Y-32123589D01*
X95383361Y-32123589D02*
X95330000Y-32139000D01*
X98360000Y-32274000D02*
X98261123Y-32349087D01*
X98261123Y-32349087D02*
X98188448Y-32462822D01*
X98188448Y-32462822D02*
X98171000Y-32493000D01*
X101126000Y-33303000D02*
X101134203Y-33175125D01*
X101134203Y-33175125D02*
X101113279Y-33045219D01*
X101113279Y-33045219D02*
X101059235Y-32924024D01*
X101059235Y-32924024D02*
X101003000Y-32814000D01*
X100793000Y-32796000D02*
X100793000Y-32796000D01*
X96386000Y-33042000D02*
X96432713Y-32918641D01*
X96432713Y-32918641D02*
X96476231Y-32805894D01*
X96476231Y-32805894D02*
X96503000Y-32742000D01*
X95363000Y-32538000D02*
X95444000Y-32397000D01*
X96488000Y-33336000D02*
X96607497Y-33362629D01*
X96607497Y-33362629D02*
X96629000Y-33366000D01*
X95606000Y-32712000D02*
X95606000Y-32712000D01*
X97127000Y-33489000D02*
X97251711Y-33523476D01*
X97251711Y-33523476D02*
X97374353Y-33553892D01*
X97374353Y-33553892D02*
X97493035Y-33575015D01*
X97493035Y-33575015D02*
X97511000Y-33573000D01*
X95285000Y-33276000D02*
X95789000Y-33282000D01*
X97157000Y-32067000D02*
X97157000Y-32067000D01*
X96626000Y-32496000D02*
X96797000Y-32232000D01*
X99974000Y-32709000D02*
X99911000Y-32862000D01*
X97130000Y-31776000D02*
X97295000Y-31614000D01*
X100619000Y-32595000D02*
X100667000Y-32271000D01*
X100445000Y-33318000D02*
X100508000Y-33117000D01*
X101717000Y-33432000D02*
X101662535Y-33543553D01*
X101662535Y-33543553D02*
X101612585Y-33657492D01*
X101612585Y-33657492D02*
X101582131Y-33782721D01*
X101582131Y-33782721D02*
X101581212Y-33914653D01*
X101581212Y-33914653D02*
X101582000Y-33933000D01*
X100667000Y-32271000D02*
X100586000Y-32169000D01*
X94838000Y-32061000D02*
X94963726Y-32040022D01*
X94963726Y-32040022D02*
X95085581Y-32002446D01*
X95085581Y-32002446D02*
X95099000Y-31998000D01*
X101612000Y-34233000D02*
X101681767Y-34131978D01*
X101681767Y-34131978D02*
X101702000Y-34053000D01*
X96512000Y-30951000D02*
X96512000Y-30951000D01*
X102062000Y-32937000D02*
X101971390Y-33035091D01*
X101971390Y-33035091D02*
X101893297Y-33133075D01*
X101893297Y-33133075D02*
X101823010Y-33237734D01*
X101823010Y-33237734D02*
X101755818Y-33355851D01*
X101755818Y-33355851D02*
X101717000Y-33432000D01*
X94319000Y-33648000D02*
X94319000Y-33648000D01*
X99545000Y-33561000D02*
X99494000Y-33639000D01*
X96656000Y-32898000D02*
X96656000Y-32898000D01*
X94751000Y-32901000D02*
X94751000Y-32901000D01*
X96656000Y-31767000D02*
X97130000Y-31776000D01*
X100586000Y-32169000D02*
X100503664Y-32066239D01*
X100503664Y-32066239D02*
X100419015Y-31971499D01*
X100419015Y-31971499D02*
X100328003Y-31882703D01*
X100328003Y-31882703D02*
X100283000Y-31857000D01*
X95603000Y-31863000D02*
X95843000Y-31815000D01*
X97937000Y-33024000D02*
X97866494Y-33121781D01*
X97866494Y-33121781D02*
X97856000Y-33147000D01*
X100061000Y-34098000D02*
X100121750Y-33991500D01*
X100121750Y-33991500D02*
X100182855Y-33874378D01*
X100182855Y-33874378D02*
X100223000Y-33795000D01*
X101582000Y-33933000D02*
X101588738Y-34055772D01*
X101588738Y-34055772D02*
X101602671Y-34182328D01*
X101602671Y-34182328D02*
X101612000Y-34233000D01*
X94106000Y-34581000D02*
X94214745Y-34649243D01*
X94214745Y-34649243D02*
X94323642Y-34712982D01*
X94323642Y-34712982D02*
X94431523Y-34771667D01*
X94431523Y-34771667D02*
X94557995Y-34834645D01*
X94557995Y-34834645D02*
X94679305Y-34888606D01*
X94679305Y-34888606D02*
X94775000Y-34926000D01*
X103613000Y-32046000D02*
X103452699Y-32097535D01*
X103452699Y-32097535D02*
X103290252Y-32158647D01*
X103290252Y-32158647D02*
X103127469Y-32228311D01*
X103127469Y-32228311D02*
X102966160Y-32305505D01*
X102966160Y-32305505D02*
X102808133Y-32389206D01*
X102808133Y-32389206D02*
X102655198Y-32478388D01*
X102655198Y-32478388D02*
X102509165Y-32572031D01*
X102509165Y-32572031D02*
X102371843Y-32669109D01*
X102371843Y-32669109D02*
X102245042Y-32768600D01*
X102245042Y-32768600D02*
X102130570Y-32869480D01*
X102130570Y-32869480D02*
X102062000Y-32937000D01*
X98438000Y-31035000D02*
X98319958Y-31096437D01*
X98319958Y-31096437D02*
X98202307Y-31162851D01*
X98202307Y-31162851D02*
X98088206Y-31231586D01*
X98088206Y-31231586D02*
X98003000Y-31287000D01*
X97418000Y-31791000D02*
X97531906Y-31833187D01*
X97531906Y-31833187D02*
X97604000Y-31848000D01*
X100283000Y-31857000D02*
X100237250Y-31968000D01*
X100237250Y-31968000D02*
X100191410Y-32095531D01*
X100191410Y-32095531D02*
X100151000Y-32214000D01*
X96098000Y-36624000D02*
X96098000Y-36624000D01*
X99773000Y-37671000D02*
X99880109Y-37593093D01*
X99880109Y-37593093D02*
X99986586Y-37510217D01*
X99986586Y-37510217D02*
X100094113Y-37421904D01*
X100094113Y-37421904D02*
X100192327Y-37336068D01*
X100192327Y-37336068D02*
X100229000Y-37302000D01*
X99110000Y-37800000D02*
X99008468Y-37724484D01*
X99008468Y-37724484D02*
X98901114Y-37636980D01*
X98901114Y-37636980D02*
X98803440Y-37552808D01*
X98803440Y-37552808D02*
X98707308Y-37465808D01*
X98707308Y-37465808D02*
X98633000Y-37395000D01*
X95258000Y-37140000D02*
X95379669Y-37177562D01*
X95379669Y-37177562D02*
X95516101Y-37214974D01*
X95516101Y-37214974D02*
X95653495Y-37249007D01*
X95653495Y-37249007D02*
X95778048Y-37276435D01*
X95778048Y-37276435D02*
X95904573Y-37297592D01*
X95904573Y-37297592D02*
X95942000Y-37296000D01*
X99347000Y-36537000D02*
X99241250Y-36614437D01*
X99241250Y-36614437D02*
X99127839Y-36692731D01*
X99127839Y-36692731D02*
X99024117Y-36761668D01*
X99024117Y-36761668D02*
X98921898Y-36827282D01*
X98921898Y-36827282D02*
X98843000Y-36876000D01*
X98318000Y-37152000D02*
X98196500Y-37195875D01*
X98196500Y-37195875D02*
X98074639Y-37239526D01*
X98074639Y-37239526D02*
X97967000Y-37278000D01*
X98447000Y-37911000D02*
X98586054Y-37976548D01*
X98586054Y-37976548D02*
X98698812Y-38025328D01*
X98698812Y-38025328D02*
X98831254Y-38069130D01*
X98831254Y-38069130D02*
X98953345Y-38079518D01*
X98953345Y-38079518D02*
X99069945Y-38050904D01*
X99069945Y-38050904D02*
X99146000Y-38019000D01*
X97595000Y-36363000D02*
X97595000Y-36363000D01*
X97454000Y-37227000D02*
X97586000Y-37194000D01*
X99245000Y-35367000D02*
X99245000Y-35367000D01*
X98267000Y-36057000D02*
X98158838Y-36116481D01*
X98158838Y-36116481D02*
X98053936Y-36182640D01*
X98053936Y-36182640D02*
X98018000Y-36216000D01*
X98441000Y-36861000D02*
X98571613Y-36801466D01*
X98571613Y-36801466D02*
X98698029Y-36728786D01*
X98698029Y-36728786D02*
X98813864Y-36658104D01*
X98813864Y-36658104D02*
X98934428Y-36581305D01*
X98934428Y-36581305D02*
X99052022Y-36503030D01*
X99052022Y-36503030D02*
X99158945Y-36427918D01*
X99158945Y-36427918D02*
X99206000Y-36393000D01*
X95786000Y-35328000D02*
X95663629Y-35320716D01*
X95663629Y-35320716D02*
X95537094Y-35311410D01*
X95537094Y-35311410D02*
X95415168Y-35299616D01*
X95415168Y-35299616D02*
X95357000Y-35289000D01*
X96200000Y-37248000D02*
X96305000Y-37350000D01*
X100136000Y-36177000D02*
X100025000Y-35958000D01*
X95942000Y-37296000D02*
X95872390Y-37187578D01*
X95872390Y-37187578D02*
X95822000Y-37125000D01*
X96278000Y-35616000D02*
X96200000Y-35346000D01*
X96404000Y-35337000D02*
X96464000Y-35550000D01*
X100523000Y-35346000D02*
X100444458Y-35448523D01*
X100444458Y-35448523D02*
X100362353Y-35551121D01*
X100362353Y-35551121D02*
X100316000Y-35607000D01*
X99347000Y-36537000D02*
X99347000Y-36537000D01*
X98843000Y-36876000D02*
X98552000Y-37047000D01*
X100628000Y-36861000D02*
X100710408Y-36764571D01*
X100710408Y-36764571D02*
X100783390Y-36661429D01*
X100783390Y-36661429D02*
X100858956Y-36546660D01*
X100858956Y-36546660D02*
X100907000Y-36468000D01*
X95168000Y-35313000D02*
X95195093Y-35450859D01*
X95195093Y-35450859D02*
X95234129Y-35584991D01*
X95234129Y-35584991D02*
X95273676Y-35706819D01*
X95273676Y-35706819D02*
X95317951Y-35833367D01*
X95317951Y-35833367D02*
X95364495Y-35957075D01*
X95364495Y-35957075D02*
X95410844Y-36070386D01*
X95410844Y-36070386D02*
X95444000Y-36144000D01*
X100913000Y-36057000D02*
X100871388Y-35920309D01*
X100871388Y-35920309D02*
X100832548Y-35804814D01*
X100832548Y-35804814D02*
X100790984Y-35689494D01*
X100790984Y-35689494D02*
X100738304Y-35553518D01*
X100738304Y-35553518D02*
X100688535Y-35436109D01*
X100688535Y-35436109D02*
X100631332Y-35322278D01*
X100631332Y-35322278D02*
X100619000Y-35304000D01*
X100544000Y-36645000D02*
X100585343Y-36766078D01*
X100585343Y-36766078D02*
X100628000Y-36861000D01*
X95357000Y-35289000D02*
X95232276Y-35274168D01*
X95232276Y-35274168D02*
X95168000Y-35313000D01*
X97325000Y-37086000D02*
X97454000Y-37227000D01*
X99206000Y-36393000D02*
X99311984Y-36309609D01*
X99311984Y-36309609D02*
X99419322Y-36220752D01*
X99419322Y-36220752D02*
X99513926Y-36139533D01*
X99513926Y-36139533D02*
X99604041Y-36059282D01*
X99604041Y-36059282D02*
X99671000Y-35997000D01*
X100988000Y-36333000D02*
X100913000Y-36057000D01*
X100322000Y-36108000D02*
X100380031Y-36231284D01*
X100380031Y-36231284D02*
X100428944Y-36342641D01*
X100428944Y-36342641D02*
X100480876Y-36469025D01*
X100480876Y-36469025D02*
X100527693Y-36594732D01*
X100527693Y-36594732D02*
X100544000Y-36645000D01*
X99245000Y-35367000D02*
X99134070Y-35463585D01*
X99134070Y-35463585D02*
X99014562Y-35560875D01*
X99014562Y-35560875D02*
X98889148Y-35657039D01*
X98889148Y-35657039D02*
X98760500Y-35750250D01*
X98760500Y-35750250D02*
X98631289Y-35838679D01*
X98631289Y-35838679D02*
X98504187Y-35920500D01*
X98504187Y-35920500D02*
X98381867Y-35993882D01*
X98381867Y-35993882D02*
X98267000Y-36057000D01*
X100025000Y-35958000D02*
X99794000Y-36165000D01*
X100169000Y-35784000D02*
X100322000Y-36108000D01*
X97211000Y-37266000D02*
X97070000Y-37101000D01*
X99320000Y-37938000D02*
X99110000Y-37800000D01*
X95564000Y-36405000D02*
X95822000Y-36429000D01*
X96566000Y-36402000D02*
X96526273Y-36281912D01*
X96526273Y-36281912D02*
X96478065Y-36164135D01*
X96478065Y-36164135D02*
X96467000Y-36138000D01*
X97433000Y-35121000D02*
X97308125Y-35148000D01*
X97308125Y-35148000D02*
X97187890Y-35176687D01*
X97187890Y-35176687D02*
X97064488Y-35206518D01*
X97064488Y-35206518D02*
X97046000Y-35211000D01*
X100316000Y-35607000D02*
X100169000Y-35784000D01*
X99464000Y-35181000D02*
X99362808Y-35263324D01*
X99362808Y-35263324D02*
X99266180Y-35348102D01*
X99266180Y-35348102D02*
X99245000Y-35367000D01*
X97658000Y-37404000D02*
X97762028Y-37499651D01*
X97762028Y-37499651D02*
X97887831Y-37586545D01*
X97887831Y-37586545D02*
X98008973Y-37664224D01*
X98008973Y-37664224D02*
X98139045Y-37743257D01*
X98139045Y-37743257D02*
X98269469Y-37818194D01*
X98269469Y-37818194D02*
X98391666Y-37883586D01*
X98391666Y-37883586D02*
X98447000Y-37911000D01*
X97046000Y-35211000D02*
X97046000Y-35211000D01*
X98336000Y-36762000D02*
X98421380Y-36851122D01*
X98421380Y-36851122D02*
X98441000Y-36861000D01*
X97628000Y-35811000D02*
X97589328Y-35686593D01*
X97589328Y-35686593D02*
X97556961Y-35570259D01*
X97556961Y-35570259D02*
X97525441Y-35443414D01*
X97525441Y-35443414D02*
X97502000Y-35328000D01*
X98018000Y-36216000D02*
X98072418Y-36334538D01*
X98072418Y-36334538D02*
X98141000Y-36456375D01*
X98141000Y-36456375D02*
X98206469Y-36565916D01*
X98206469Y-36565916D02*
X98271004Y-36668165D01*
X98271004Y-36668165D02*
X98336000Y-36762000D01*
X97502000Y-35328000D02*
X97473358Y-35204287D01*
X97473358Y-35204287D02*
X97433000Y-35121000D01*
X98633000Y-37395000D02*
X98539660Y-37306676D01*
X98539660Y-37306676D02*
X98439816Y-37219058D01*
X98439816Y-37219058D02*
X98337555Y-37152185D01*
X98337555Y-37152185D02*
X98318000Y-37152000D01*
X99146000Y-38019000D02*
X99320000Y-37938000D01*
X100907000Y-36468000D02*
X100988000Y-36333000D01*
X99908000Y-35775000D02*
X99851000Y-35679000D01*
X99851000Y-35679000D02*
X99777927Y-35573475D01*
X99777927Y-35573475D02*
X99702974Y-35472650D01*
X99702974Y-35472650D02*
X99622363Y-35367815D01*
X99622363Y-35367815D02*
X99534694Y-35258086D01*
X99534694Y-35258086D02*
X99464000Y-35181000D01*
X96470000Y-35319000D02*
X96404000Y-35337000D01*
X99671000Y-35997000D02*
X99908000Y-35775000D01*
X100619000Y-35304000D02*
X100523000Y-35346000D01*
X98066000Y-36717000D02*
X98001312Y-36614718D01*
X98001312Y-36614718D02*
X97935598Y-36506235D01*
X97935598Y-36506235D02*
X97875666Y-36397860D01*
X97875666Y-36397860D02*
X97868000Y-36381000D01*
X95561000Y-36780000D02*
X95485919Y-36675915D01*
X95485919Y-36675915D02*
X95398156Y-36591843D01*
X95398156Y-36591843D02*
X95354000Y-36573000D01*
X96812000Y-36762000D02*
X96736391Y-36655044D01*
X96736391Y-36655044D02*
X96630558Y-36597043D01*
X96630558Y-36597043D02*
X96590000Y-36603000D01*
X96098000Y-36624000D02*
X95705000Y-36624000D01*
X95354000Y-36573000D02*
X95227633Y-36543034D01*
X95227633Y-36543034D02*
X95087328Y-36505364D01*
X95087328Y-36505364D02*
X94970447Y-36471296D01*
X94970447Y-36471296D02*
X94853900Y-36435066D01*
X94853900Y-36435066D02*
X94714951Y-36388613D01*
X94714951Y-36388613D02*
X94590986Y-36343107D01*
X94590986Y-36343107D02*
X94508000Y-36309000D01*
X97193000Y-36486000D02*
X97070550Y-36520699D01*
X97070550Y-36520699D02*
X96957667Y-36562805D01*
X96957667Y-36562805D02*
X96956000Y-36564000D01*
X95444000Y-36144000D02*
X95564000Y-36405000D01*
X96956000Y-36564000D02*
X97005781Y-36683285D01*
X97005781Y-36683285D02*
X97080505Y-36791456D01*
X97080505Y-36791456D02*
X97159816Y-36894500D01*
X97159816Y-36894500D02*
X97249343Y-37001800D01*
X97249343Y-37001800D02*
X97325000Y-37086000D01*
X97586000Y-37194000D02*
X97716391Y-37154538D01*
X97716391Y-37154538D02*
X97845822Y-37111470D01*
X97845822Y-37111470D02*
X97982228Y-37064173D01*
X97982228Y-37064173D02*
X98105081Y-37019855D01*
X98105081Y-37019855D02*
X98222207Y-36973141D01*
X98222207Y-36973141D02*
X98228000Y-36969000D01*
X95756000Y-36705000D02*
X95832505Y-36814744D01*
X95832505Y-36814744D02*
X95920161Y-36928578D01*
X95920161Y-36928578D02*
X96000166Y-37026864D01*
X96000166Y-37026864D02*
X96079540Y-37119766D01*
X96079540Y-37119766D02*
X96164770Y-37212928D01*
X96164770Y-37212928D02*
X96200000Y-37248000D01*
X98699000Y-37197000D02*
X98790470Y-37283292D01*
X98790470Y-37283292D02*
X98882967Y-37363320D01*
X98882967Y-37363320D02*
X98986126Y-37448095D01*
X98986126Y-37448095D02*
X99093934Y-37532976D01*
X99093934Y-37532976D02*
X99200379Y-37613321D01*
X99200379Y-37613321D02*
X99299450Y-37684490D01*
X99299450Y-37684490D02*
X99403761Y-37753479D01*
X99403761Y-37753479D02*
X99437000Y-37773000D01*
X94388000Y-36453000D02*
X94388000Y-36453000D01*
X96590000Y-36603000D02*
X96467550Y-36614917D01*
X96467550Y-36614917D02*
X96334355Y-36620519D01*
X96334355Y-36620519D02*
X96199025Y-36623363D01*
X96199025Y-36623363D02*
X96098000Y-36624000D01*
X99542000Y-37827000D02*
X99773000Y-37671000D01*
X96305000Y-37350000D02*
X96674000Y-37332000D01*
X97070000Y-37101000D02*
X96990220Y-37003763D01*
X96990220Y-37003763D02*
X96911453Y-36901346D01*
X96911453Y-36901346D02*
X96838958Y-36801421D01*
X96838958Y-36801421D02*
X96812000Y-36762000D01*
X97127000Y-37290000D02*
X97211000Y-37266000D01*
X97967000Y-37278000D02*
X97846578Y-37321734D01*
X97846578Y-37321734D02*
X97728449Y-37368393D01*
X97728449Y-37368393D02*
X97658000Y-37404000D01*
X99794000Y-36165000D02*
X99702178Y-36246182D01*
X99702178Y-36246182D02*
X99598622Y-36334579D01*
X99598622Y-36334579D02*
X99493127Y-36421898D01*
X99493127Y-36421898D02*
X99395492Y-36499851D01*
X99395492Y-36499851D02*
X99347000Y-36537000D01*
X99437000Y-37773000D02*
X99542000Y-37827000D01*
X95822000Y-36429000D02*
X95945233Y-36434903D01*
X95945233Y-36434903D02*
X96090150Y-36436152D01*
X96090150Y-36436152D02*
X96210576Y-36434214D01*
X96210576Y-36434214D02*
X96352824Y-36428639D01*
X96352824Y-36428639D02*
X96489527Y-36418144D01*
X96489527Y-36418144D02*
X96566000Y-36402000D01*
X94508000Y-36309000D02*
X94390007Y-36259726D01*
X94390007Y-36259726D02*
X94275305Y-36219241D01*
X94275305Y-36219241D02*
X94271000Y-36219000D01*
X154227000Y-35021000D02*
X154257847Y-35150256D01*
X154257847Y-35150256D02*
X154284882Y-35268146D01*
X154284882Y-35268146D02*
X154315795Y-35412343D01*
X154315795Y-35412343D02*
X154341838Y-35547594D01*
X154341838Y-35547594D02*
X154364102Y-35680331D01*
X154364102Y-35680331D02*
X154383677Y-35816988D01*
X154383677Y-35816988D02*
X154401652Y-35963998D01*
X154401652Y-35963998D02*
X154414739Y-36084920D01*
X154414739Y-36084920D02*
X154428000Y-36218000D01*
X143880000Y-37625000D02*
X143745179Y-37582575D01*
X143745179Y-37582575D02*
X143626763Y-37544779D01*
X143626763Y-37544779D02*
X143477178Y-37495040D01*
X143477178Y-37495040D02*
X143357508Y-37451287D01*
X143357508Y-37451287D02*
X143237228Y-37397676D01*
X143237228Y-37397676D02*
X143136016Y-37329404D01*
X143136016Y-37329404D02*
X143060980Y-37229412D01*
X143060980Y-37229412D02*
X143014332Y-37116607D01*
X143014332Y-37116607D02*
X142995000Y-37061000D01*
X152985000Y-31922000D02*
X153059203Y-32040640D01*
X153059203Y-32040640D02*
X153152154Y-32148462D01*
X153152154Y-32148462D02*
X153250494Y-32247111D01*
X153250494Y-32247111D02*
X153341006Y-32329958D01*
X153341006Y-32329958D02*
X153440632Y-32414889D01*
X153440632Y-32414889D02*
X153548071Y-32500602D01*
X153548071Y-32500602D02*
X153576000Y-32522000D01*
X136875000Y-30908000D02*
X137034076Y-30938158D01*
X137034076Y-30938158D02*
X137176237Y-30964424D01*
X137176237Y-30964424D02*
X137334510Y-30993206D01*
X137334510Y-30993206D02*
X137505766Y-31023956D01*
X137505766Y-31023956D02*
X137625603Y-31045278D01*
X137625603Y-31045278D02*
X137748893Y-31067068D01*
X137748893Y-31067068D02*
X137874707Y-31089163D01*
X137874707Y-31089163D02*
X138002118Y-31111402D01*
X138002118Y-31111402D02*
X138130200Y-31133620D01*
X138130200Y-31133620D02*
X138258025Y-31155657D01*
X138258025Y-31155657D02*
X138384665Y-31177348D01*
X138384665Y-31177348D02*
X138509194Y-31198531D01*
X138509194Y-31198531D02*
X138630684Y-31219045D01*
X138630684Y-31219045D02*
X138690000Y-31229000D01*
X144621000Y-31460000D02*
X144744725Y-31447826D01*
X144744725Y-31447826D02*
X144837000Y-31472000D01*
X148326000Y-32393000D02*
X148421935Y-32320648D01*
X148421935Y-32320648D02*
X148440000Y-32303000D01*
X148158000Y-32291000D02*
X148259839Y-32359847D01*
X148259839Y-32359847D02*
X148326000Y-32393000D01*
X142959000Y-31367000D02*
X143161032Y-31368103D01*
X143161032Y-31368103D02*
X143339589Y-31369220D01*
X143339589Y-31369220D02*
X143496297Y-31370434D01*
X143496297Y-31370434D02*
X143632781Y-31371828D01*
X143632781Y-31371828D02*
X143803144Y-31374439D01*
X143803144Y-31374439D02*
X143937150Y-31377925D01*
X143937150Y-31377925D02*
X144068755Y-31384422D01*
X144068755Y-31384422D02*
X144191718Y-31399484D01*
X144191718Y-31399484D02*
X144285000Y-31433000D01*
X148551000Y-32213000D02*
X148649032Y-32291483D01*
X148649032Y-32291483D02*
X148749124Y-32384350D01*
X148749124Y-32384350D02*
X148837321Y-32469704D01*
X148837321Y-32469704D02*
X148884000Y-32516000D01*
X147870000Y-32144000D02*
X147986728Y-32192796D01*
X147986728Y-32192796D02*
X148092750Y-32249046D01*
X148092750Y-32249046D02*
X148158000Y-32291000D01*
X153420000Y-53468000D02*
X153308358Y-53380152D01*
X153308358Y-53380152D02*
X153213914Y-53285275D01*
X153213914Y-53285275D02*
X153117492Y-53175841D01*
X153117492Y-53175841D02*
X153028157Y-53062630D01*
X153028157Y-53062630D02*
X152954971Y-52956423D01*
X152954971Y-52956423D02*
X152907000Y-52868000D01*
X149835000Y-33227000D02*
X149932851Y-33302644D01*
X149932851Y-33302644D02*
X150071266Y-33326801D01*
X150071266Y-33326801D02*
X150190096Y-33344810D01*
X150190096Y-33344810D02*
X150225000Y-33350000D01*
X144825000Y-38039000D02*
X144699984Y-37965470D01*
X144699984Y-37965470D02*
X144592125Y-37904703D01*
X144592125Y-37904703D02*
X144469858Y-37841708D01*
X144469858Y-37841708D02*
X144347701Y-37787160D01*
X144347701Y-37787160D02*
X144210822Y-37734671D01*
X144210822Y-37734671D02*
X144080753Y-37689872D01*
X144080753Y-37689872D02*
X143966220Y-37652489D01*
X143966220Y-37652489D02*
X143880000Y-37625000D01*
X138690000Y-31229000D02*
X138886549Y-31260754D01*
X138886549Y-31260754D02*
X139060470Y-31288695D01*
X139060470Y-31288695D02*
X139214239Y-31313084D01*
X139214239Y-31313084D02*
X139350328Y-31334187D01*
X139350328Y-31334187D02*
X139471212Y-31352266D01*
X139471212Y-31352266D02*
X139629440Y-31374293D01*
X139629440Y-31374293D02*
X139767375Y-31391000D01*
X139767375Y-31391000D02*
X139893364Y-31403277D01*
X139893364Y-31403277D02*
X140015760Y-31412014D01*
X140015760Y-31412014D02*
X140142912Y-31418102D01*
X140142912Y-31418102D02*
X140283169Y-31422429D01*
X140283169Y-31422429D02*
X140444884Y-31425887D01*
X140444884Y-31425887D02*
X140505000Y-31427000D01*
X153012000Y-43928000D02*
X152920687Y-43839078D01*
X152920687Y-43839078D02*
X152801250Y-43776875D01*
X152801250Y-43776875D02*
X152674328Y-43737944D01*
X152674328Y-43737944D02*
X152526807Y-43700663D01*
X152526807Y-43700663D02*
X152382328Y-43666607D01*
X152382328Y-43666607D02*
X152203835Y-43625531D01*
X152203835Y-43625531D02*
X152136000Y-43610000D01*
X148140000Y-41549000D02*
X148044246Y-41449173D01*
X148044246Y-41449173D02*
X147952359Y-41350572D01*
X147952359Y-41350572D02*
X147863777Y-41252454D01*
X147863777Y-41252454D02*
X147777937Y-41154078D01*
X147777937Y-41154078D02*
X147694277Y-41054699D01*
X147694277Y-41054699D02*
X147612234Y-40953576D01*
X147612234Y-40953576D02*
X147531246Y-40849965D01*
X147531246Y-40849965D02*
X147450750Y-40743125D01*
X147450750Y-40743125D02*
X147370183Y-40632311D01*
X147370183Y-40632311D02*
X147288984Y-40516783D01*
X147288984Y-40516783D02*
X147206589Y-40395796D01*
X147206589Y-40395796D02*
X147122437Y-40268609D01*
X147122437Y-40268609D02*
X147035964Y-40134478D01*
X147035964Y-40134478D02*
X146946609Y-39992662D01*
X146946609Y-39992662D02*
X146853808Y-39842416D01*
X146853808Y-39842416D02*
X146757000Y-39683000D01*
X152136000Y-43610000D02*
X151956615Y-43568488D01*
X151956615Y-43568488D02*
X151782824Y-43526572D01*
X151782824Y-43526572D02*
X151614419Y-43484141D01*
X151614419Y-43484141D02*
X151451191Y-43441091D01*
X151451191Y-43441091D02*
X151292933Y-43397314D01*
X151292933Y-43397314D02*
X151139438Y-43352702D01*
X151139438Y-43352702D02*
X150990498Y-43307148D01*
X150990498Y-43307148D02*
X150845906Y-43260546D01*
X150845906Y-43260546D02*
X150705453Y-43212789D01*
X150705453Y-43212789D02*
X150568932Y-43163768D01*
X150568932Y-43163768D02*
X150436135Y-43113377D01*
X150436135Y-43113377D02*
X150306855Y-43061509D01*
X150306855Y-43061509D02*
X150180884Y-43008057D01*
X150180884Y-43008057D02*
X150058015Y-42952914D01*
X150058015Y-42952914D02*
X149938039Y-42895972D01*
X149938039Y-42895972D02*
X149820750Y-42837125D01*
X149820750Y-42837125D02*
X149705939Y-42776264D01*
X149705939Y-42776264D02*
X149593398Y-42713284D01*
X149593398Y-42713284D02*
X149482922Y-42648078D01*
X149482922Y-42648078D02*
X149374300Y-42580537D01*
X149374300Y-42580537D02*
X149267327Y-42510555D01*
X149267327Y-42510555D02*
X149161794Y-42438024D01*
X149161794Y-42438024D02*
X149057494Y-42362838D01*
X149057494Y-42362838D02*
X148954218Y-42284890D01*
X148954218Y-42284890D02*
X148851760Y-42204072D01*
X148851760Y-42204072D02*
X148749912Y-42120278D01*
X148749912Y-42120278D02*
X148648466Y-42033399D01*
X148648466Y-42033399D02*
X148547214Y-41943330D01*
X148547214Y-41943330D02*
X148445950Y-41849962D01*
X148445950Y-41849962D02*
X148344464Y-41753189D01*
X148344464Y-41753189D02*
X148242550Y-41652904D01*
X148242550Y-41652904D02*
X148140000Y-41549000D01*
X149619000Y-32855000D02*
X149699559Y-32949737D01*
X149699559Y-32949737D02*
X149770467Y-33051460D01*
X149770467Y-33051460D02*
X149823654Y-33163024D01*
X149823654Y-33163024D02*
X149835000Y-33227000D01*
X146757000Y-39683000D02*
X146682838Y-39559865D01*
X146682838Y-39559865D02*
X146618071Y-39454132D01*
X146618071Y-39454132D02*
X146543967Y-39336945D01*
X146543967Y-39336945D02*
X146466483Y-39222365D01*
X146466483Y-39222365D02*
X146387374Y-39120060D01*
X146387374Y-39120060D02*
X146300414Y-39030031D01*
X146300414Y-39030031D02*
X146247000Y-38984000D01*
X145782000Y-31703000D02*
X145907270Y-31731839D01*
X145907270Y-31731839D02*
X146028585Y-31762853D01*
X146028585Y-31762853D02*
X146155624Y-31798778D01*
X146155624Y-31798778D02*
X146278617Y-31839048D01*
X146278617Y-31839048D02*
X146313000Y-31853000D01*
X152739000Y-31706000D02*
X152847549Y-31763736D01*
X152847549Y-31763736D02*
X152943765Y-31847889D01*
X152943765Y-31847889D02*
X152985000Y-31922000D01*
X146805000Y-31868000D02*
X146916839Y-31921177D01*
X146916839Y-31921177D02*
X146952000Y-31928000D01*
X144837000Y-31472000D02*
X144955316Y-31506086D01*
X144955316Y-31506086D02*
X145092498Y-31542189D01*
X145092498Y-31542189D02*
X145226620Y-31575271D01*
X145226620Y-31575271D02*
X145349995Y-31604538D01*
X145349995Y-31604538D02*
X145490061Y-31636943D01*
X145490061Y-31636943D02*
X145607396Y-31663666D01*
X145607396Y-31663666D02*
X145736299Y-31692741D01*
X145736299Y-31692741D02*
X145782000Y-31703000D01*
X152907000Y-52868000D02*
X152868835Y-52753984D01*
X152868835Y-52753984D02*
X152836494Y-52625978D01*
X152836494Y-52625978D02*
X152811346Y-52504844D01*
X152811346Y-52504844D02*
X152789082Y-52376130D01*
X152789082Y-52376130D02*
X152770869Y-52245054D01*
X152770869Y-52245054D02*
X152760000Y-52142000D01*
X154584000Y-49058000D02*
X154583589Y-48894285D01*
X154583589Y-48894285D02*
X154581703Y-48745595D01*
X154581703Y-48745595D02*
X154577355Y-48607549D01*
X154577355Y-48607549D02*
X154569562Y-48475765D01*
X154569562Y-48475765D02*
X154557339Y-48345862D01*
X154557339Y-48345862D02*
X154539703Y-48213458D01*
X154539703Y-48213458D02*
X154515667Y-48074173D01*
X154515667Y-48074173D02*
X154484250Y-47923625D01*
X154484250Y-47923625D02*
X154444464Y-47757431D01*
X154444464Y-47757431D02*
X154395328Y-47571212D01*
X154395328Y-47571212D02*
X154335855Y-47360586D01*
X154335855Y-47360586D02*
X154301935Y-47244751D01*
X154301935Y-47244751D02*
X154265062Y-47121171D01*
X154265062Y-47121171D02*
X154225113Y-46989299D01*
X154225113Y-46989299D02*
X154181964Y-46848587D01*
X154181964Y-46848587D02*
X154135494Y-46698486D01*
X154135494Y-46698486D02*
X154085578Y-46538451D01*
X154085578Y-46538451D02*
X154032093Y-46367932D01*
X154032093Y-46367932D02*
X153974917Y-46186382D01*
X153974917Y-46186382D02*
X153913927Y-45993254D01*
X153913927Y-45993254D02*
X153849000Y-45788000D01*
X155610000Y-51353000D02*
X155500312Y-51406906D01*
X155500312Y-51406906D02*
X155458652Y-51527023D01*
X155458652Y-51527023D02*
X155448000Y-51563000D01*
X153765000Y-32804000D02*
X153781453Y-32924550D01*
X153781453Y-32924550D02*
X153834480Y-33040881D01*
X153834480Y-33040881D02*
X153902976Y-33154278D01*
X153902976Y-33154278D02*
X153942000Y-33215000D01*
X138876000Y-38369000D02*
X138693000Y-38303000D01*
X144285000Y-31433000D02*
X144402689Y-31478175D01*
X144402689Y-31478175D02*
X144528447Y-31488300D01*
X144528447Y-31488300D02*
X144621000Y-31460000D01*
X153849000Y-45788000D02*
X153779384Y-45568269D01*
X153779384Y-45568269D02*
X153715212Y-45369330D01*
X153715212Y-45369330D02*
X153655814Y-45189682D01*
X153655814Y-45189682D02*
X153600515Y-45027828D01*
X153600515Y-45027828D02*
X153548644Y-44882268D01*
X153548644Y-44882268D02*
X153499529Y-44751505D01*
X153499529Y-44751505D02*
X153452496Y-44634040D01*
X153452496Y-44634040D02*
X153384382Y-44479498D01*
X153384382Y-44479498D02*
X153317173Y-44346447D01*
X153317173Y-44346447D02*
X153248600Y-44229829D01*
X153248600Y-44229829D02*
X153176392Y-44124587D01*
X153176392Y-44124587D02*
X153098282Y-44025663D01*
X153098282Y-44025663D02*
X153012000Y-43928000D01*
X155904000Y-50648000D02*
X155823236Y-50743158D01*
X155823236Y-50743158D02*
X155791781Y-50861890D01*
X155791781Y-50861890D02*
X155777209Y-50993233D01*
X155777209Y-50993233D02*
X155775000Y-51017000D01*
X148440000Y-32303000D02*
X148532554Y-32221654D01*
X148532554Y-32221654D02*
X148551000Y-32213000D01*
X154170000Y-34043000D02*
X154143668Y-34165531D01*
X154143668Y-34165531D02*
X154129683Y-34291825D01*
X154129683Y-34291825D02*
X154128525Y-34426963D01*
X154128525Y-34426963D02*
X154140673Y-34576027D01*
X154140673Y-34576027D02*
X154160296Y-34708718D01*
X154160296Y-34708718D02*
X154188990Y-34856175D01*
X154188990Y-34856175D02*
X154216610Y-34978023D01*
X154216610Y-34978023D02*
X154227000Y-35021000D01*
X146952000Y-31928000D02*
X147083334Y-31953589D01*
X147083334Y-31953589D02*
X147203586Y-31979789D01*
X147203586Y-31979789D02*
X147338674Y-32010595D01*
X147338674Y-32010595D02*
X147478895Y-32043686D01*
X147478895Y-32043686D02*
X147614545Y-32076741D01*
X147614545Y-32076741D02*
X147735922Y-32107441D01*
X147735922Y-32107441D02*
X147852789Y-32138969D01*
X147852789Y-32138969D02*
X147870000Y-32144000D01*
X155775000Y-51017000D02*
X155761832Y-51138312D01*
X155761832Y-51138312D02*
X155745556Y-51257820D01*
X155745556Y-51257820D02*
X155730000Y-51323000D01*
X155730000Y-51323000D02*
X155610000Y-51353000D01*
X146313000Y-31853000D02*
X146424777Y-31898804D01*
X146424777Y-31898804D02*
X146532000Y-31871000D01*
X156138000Y-46703000D02*
X156186869Y-46837557D01*
X156186869Y-46837557D02*
X156227740Y-46953639D01*
X156227740Y-46953639D02*
X156271278Y-47086572D01*
X156271278Y-47086572D02*
X156304164Y-47203211D01*
X156304164Y-47203211D02*
X156333398Y-47340501D01*
X156333398Y-47340501D02*
X156353156Y-47485578D01*
X156353156Y-47485578D02*
X156364816Y-47619658D01*
X156364816Y-47619658D02*
X156375000Y-47780000D01*
X156108000Y-50192000D02*
X156065225Y-50305044D01*
X156065225Y-50305044D02*
X156030985Y-50422777D01*
X156030985Y-50422777D02*
X156027000Y-50441000D01*
X156270000Y-49175000D02*
X156260764Y-49296801D01*
X156260764Y-49296801D02*
X156247913Y-49456822D01*
X156247913Y-49456822D02*
X156235828Y-49592515D01*
X156235828Y-49592515D02*
X156220060Y-49741208D01*
X156220060Y-49741208D02*
X156203625Y-49860125D01*
X156203625Y-49860125D02*
X156180373Y-49978624D01*
X156180373Y-49978624D02*
X156145511Y-50096461D01*
X156145511Y-50096461D02*
X156108000Y-50192000D01*
X156027000Y-50441000D02*
X155981733Y-50555591D01*
X155981733Y-50555591D02*
X155904000Y-50648000D01*
X156075000Y-46403000D02*
X156089965Y-46527097D01*
X156089965Y-46527097D02*
X156119931Y-46648321D01*
X156119931Y-46648321D02*
X156138000Y-46703000D01*
X149268000Y-32771000D02*
X149382642Y-32725586D01*
X149382642Y-32725586D02*
X149506291Y-32755394D01*
X149506291Y-32755394D02*
X149606762Y-32841859D01*
X149606762Y-32841859D02*
X149619000Y-32855000D01*
X153942000Y-33215000D02*
X154018939Y-33336042D01*
X154018939Y-33336042D02*
X154099541Y-33468655D01*
X154099541Y-33468655D02*
X154157080Y-33575823D01*
X154157080Y-33575823D02*
X154205068Y-33706632D01*
X154205068Y-33706632D02*
X154212000Y-33846546D01*
X154212000Y-33846546D02*
X154184578Y-33986932D01*
X154184578Y-33986932D02*
X154170000Y-34043000D01*
X154320000Y-50348000D02*
X154376419Y-50230614D01*
X154376419Y-50230614D02*
X154438888Y-50085903D01*
X154438888Y-50085903D02*
X154488069Y-49948171D01*
X154488069Y-49948171D02*
X154525367Y-49810315D01*
X154525367Y-49810315D02*
X154552188Y-49665235D01*
X154552188Y-49665235D02*
X154569939Y-49505828D01*
X154569939Y-49505828D02*
X154578146Y-49372600D01*
X154578146Y-49372600D02*
X154582635Y-49224322D01*
X154582635Y-49224322D02*
X154584000Y-49058000D01*
X146532000Y-31871000D02*
X146646061Y-31830272D01*
X146646061Y-31830272D02*
X146771750Y-31841968D01*
X146771750Y-31841968D02*
X146805000Y-31868000D01*
X156375000Y-47780000D02*
X156382722Y-47911753D01*
X156382722Y-47911753D02*
X156388709Y-48045489D01*
X156388709Y-48045489D02*
X156390334Y-48169089D01*
X156390334Y-48169089D02*
X156382677Y-48289611D01*
X156382677Y-48289611D02*
X156360000Y-48395000D01*
X140505000Y-31427000D02*
X140625530Y-31428291D01*
X140625530Y-31428291D02*
X140777628Y-31428784D01*
X140777628Y-31428784D02*
X140919277Y-31427870D01*
X140919277Y-31427870D02*
X141049807Y-31425549D01*
X141049807Y-31425549D02*
X141196318Y-31420671D01*
X141196318Y-31420671D02*
X141323108Y-31413596D01*
X141323108Y-31413596D02*
X141447388Y-31402206D01*
X141447388Y-31402206D02*
X141465000Y-31400000D01*
X151881000Y-31142000D02*
X151987109Y-31214431D01*
X151987109Y-31214431D02*
X152092669Y-31287982D01*
X152092669Y-31287982D02*
X152193647Y-31359261D01*
X152193647Y-31359261D02*
X152280000Y-31421000D01*
X153576000Y-32522000D02*
X153672474Y-32598251D01*
X153672474Y-32598251D02*
X153753451Y-32693943D01*
X153753451Y-32693943D02*
X153765000Y-32804000D01*
X146247000Y-38984000D02*
X146142832Y-38903773D01*
X146142832Y-38903773D02*
X146041392Y-38830152D01*
X146041392Y-38830152D02*
X145923232Y-38747178D01*
X145923232Y-38747178D02*
X145791289Y-38656808D01*
X145791289Y-38656808D02*
X145648500Y-38561000D01*
X145648500Y-38561000D02*
X145497799Y-38461711D01*
X145497799Y-38461711D02*
X145394388Y-38394551D01*
X145394388Y-38394551D02*
X145289637Y-38327295D01*
X145289637Y-38327295D02*
X145184416Y-38260522D01*
X145184416Y-38260522D02*
X145079594Y-38194813D01*
X145079594Y-38194813D02*
X144976042Y-38130747D01*
X144976042Y-38130747D02*
X144825000Y-38039000D01*
X138792000Y-38777000D02*
X138876000Y-38369000D01*
X141465000Y-31400000D02*
X141604587Y-31387785D01*
X141604587Y-31387785D02*
X141731748Y-31381107D01*
X141731748Y-31381107D02*
X141887173Y-31375641D01*
X141887173Y-31375641D02*
X142022800Y-31372359D01*
X142022800Y-31372359D02*
X142175156Y-31369794D01*
X142175156Y-31369794D02*
X142344598Y-31367961D01*
X142344598Y-31367961D02*
X142467227Y-31367153D01*
X142467227Y-31367153D02*
X142597714Y-31366680D01*
X142597714Y-31366680D02*
X142736164Y-31366549D01*
X142736164Y-31366549D02*
X142882682Y-31366762D01*
X142882682Y-31366762D02*
X142959000Y-31367000D01*
X153564000Y-51233000D02*
X153684216Y-51155474D01*
X153684216Y-51155474D02*
X153792234Y-51074046D01*
X153792234Y-51074046D02*
X153890478Y-50985939D01*
X153890478Y-50985939D02*
X153981375Y-50888375D01*
X153981375Y-50888375D02*
X154067349Y-50778576D01*
X154067349Y-50778576D02*
X154150828Y-50653765D01*
X154150828Y-50653765D02*
X154213258Y-50548635D01*
X154213258Y-50548635D02*
X154276672Y-50432327D01*
X154276672Y-50432327D02*
X154320000Y-50348000D01*
X156360000Y-48395000D02*
X156336279Y-48519523D01*
X156336279Y-48519523D02*
X156318092Y-48656525D01*
X156318092Y-48656525D02*
X156302695Y-48794521D01*
X156302695Y-48794521D02*
X156290812Y-48916015D01*
X156290812Y-48916015D02*
X156279773Y-49043908D01*
X156279773Y-49043908D02*
X156270000Y-49175000D01*
X151023000Y-30515000D02*
X151129259Y-30602598D01*
X151129259Y-30602598D02*
X151226349Y-30677462D01*
X151226349Y-30677462D02*
X151338205Y-30761027D01*
X151338205Y-30761027D02*
X151459482Y-30849461D01*
X151459482Y-30849461D02*
X151584837Y-30938932D01*
X151584837Y-30938932D02*
X151708927Y-31025608D01*
X151708927Y-31025608D02*
X151826408Y-31105657D01*
X151826408Y-31105657D02*
X151881000Y-31142000D01*
X152280000Y-31421000D02*
X152383386Y-31492283D01*
X152383386Y-31492283D02*
X152493824Y-31564052D01*
X152493824Y-31564052D02*
X152601140Y-31629898D01*
X152601140Y-31629898D02*
X152706912Y-31689683D01*
X152706912Y-31689683D02*
X152739000Y-31706000D01*
X149184000Y-30539000D02*
X149282109Y-30451343D01*
X149282109Y-30451343D02*
X149399630Y-30408770D01*
X149399630Y-30408770D02*
X149532544Y-30392808D01*
X149532544Y-30392808D02*
X149683078Y-30386281D01*
X149683078Y-30386281D02*
X149828245Y-30383965D01*
X149828245Y-30383965D02*
X150005700Y-30383104D01*
X150005700Y-30383104D02*
X150144000Y-30383000D01*
X142995000Y-37061000D02*
X142944000Y-36908000D01*
X130362000Y-31109000D02*
X130483875Y-31100281D01*
X130483875Y-31100281D02*
X130574984Y-31017640D01*
X130574984Y-31017640D02*
X130575000Y-31010000D01*
X136572000Y-36662000D02*
X136546522Y-36534780D01*
X136546522Y-36534780D02*
X136553508Y-36411128D01*
X136553508Y-36411128D02*
X136593000Y-36290000D01*
X150540000Y-33422000D02*
X150663835Y-33456924D01*
X150663835Y-33456924D02*
X150789621Y-33480693D01*
X150789621Y-33480693D02*
X150825000Y-33485000D01*
X149178000Y-31061000D02*
X149095697Y-30968644D01*
X149095697Y-30968644D02*
X149092478Y-30839477D01*
X149092478Y-30839477D02*
X149097000Y-30794000D01*
X142497000Y-37163000D02*
X142435346Y-37279391D01*
X142435346Y-37279391D02*
X142366965Y-37388601D01*
X142366965Y-37388601D02*
X142277203Y-37484046D01*
X142277203Y-37484046D02*
X142179000Y-37556000D01*
X141747000Y-37880000D02*
X141646175Y-37960060D01*
X141646175Y-37960060D02*
X141526159Y-38049356D01*
X141526159Y-38049356D02*
X141417849Y-38120897D01*
X141417849Y-38120897D02*
X141291000Y-38189000D01*
X141291000Y-38189000D02*
X141164150Y-38237766D01*
X141164150Y-38237766D02*
X141027137Y-38271866D01*
X141027137Y-38271866D02*
X140903381Y-38291723D01*
X140903381Y-38291723D02*
X140835000Y-38300000D01*
X139206000Y-39629000D02*
X139203607Y-39498774D01*
X139203607Y-39498774D02*
X139207590Y-39362712D01*
X139207590Y-39362712D02*
X139212000Y-39257000D01*
X142791000Y-36899000D02*
X142638000Y-36890000D01*
X136620000Y-36014000D02*
X136612913Y-35892344D01*
X136612913Y-35892344D02*
X136627613Y-35768788D01*
X136627613Y-35768788D02*
X136665000Y-35651000D01*
X150444000Y-31763000D02*
X150355633Y-31660494D01*
X150355633Y-31660494D02*
X150254474Y-31568083D01*
X150254474Y-31568083D02*
X150147268Y-31487343D01*
X150147268Y-31487343D02*
X150060000Y-31436000D01*
X150879000Y-30383000D02*
X151023000Y-30515000D01*
X151023000Y-30515000D02*
X151023000Y-30515000D01*
X130863000Y-30743000D02*
X130962692Y-30666526D01*
X130962692Y-30666526D02*
X130995000Y-30617000D01*
X149097000Y-30794000D02*
X149117144Y-30670074D01*
X149117144Y-30670074D02*
X149166972Y-30559308D01*
X149166972Y-30559308D02*
X149184000Y-30539000D01*
X150891000Y-32204000D02*
X150807289Y-32115706D01*
X150807289Y-32115706D02*
X150715048Y-32021633D01*
X150715048Y-32021633D02*
X150627750Y-31936953D01*
X150627750Y-31936953D02*
X150576000Y-31892000D01*
X151038000Y-33521000D02*
X151142043Y-33445976D01*
X151142043Y-33445976D02*
X151215000Y-33350000D01*
X150225000Y-33350000D02*
X150343686Y-33370752D01*
X150343686Y-33370752D02*
X150468917Y-33400214D01*
X150468917Y-33400214D02*
X150540000Y-33422000D01*
X139212000Y-39257000D02*
X139217531Y-39122187D01*
X139217531Y-39122187D02*
X139220364Y-39002012D01*
X139220364Y-39002012D02*
X139215000Y-38918000D01*
X153813000Y-53459000D02*
X153702089Y-53521569D01*
X153702089Y-53521569D02*
X153577570Y-53534234D01*
X153577570Y-53534234D02*
X153463693Y-53492389D01*
X153463693Y-53492389D02*
X153420000Y-53468000D01*
X138693000Y-38303000D02*
X138553648Y-38247675D01*
X138553648Y-38247675D02*
X138414752Y-38186923D01*
X138414752Y-38186923D02*
X138301763Y-38135199D01*
X138301763Y-38135199D02*
X138186342Y-38080666D01*
X138186342Y-38080666D02*
X138073100Y-38025551D01*
X138073100Y-38025551D02*
X137933476Y-37955001D01*
X137933476Y-37955001D02*
X137816861Y-37892643D01*
X137816861Y-37892643D02*
X137709000Y-37826000D01*
X137709000Y-37826000D02*
X137632649Y-37729472D01*
X137632649Y-37729472D02*
X137564963Y-37617308D01*
X137564963Y-37617308D02*
X137504324Y-37501782D01*
X137504324Y-37501782D02*
X137490000Y-37472000D01*
X148884000Y-32516000D02*
X149190000Y-32816000D01*
X149730000Y-31358000D02*
X149602791Y-31341464D01*
X149602791Y-31341464D02*
X149486250Y-31312625D01*
X149486250Y-31312625D02*
X149381918Y-31252199D01*
X149381918Y-31252199D02*
X149337000Y-31211000D01*
X155091000Y-52145000D02*
X155008646Y-52249080D01*
X155008646Y-52249080D02*
X154906558Y-52364809D01*
X154906558Y-52364809D02*
X154823723Y-52455377D01*
X154823723Y-52455377D02*
X154731819Y-52553861D01*
X154731819Y-52553861D02*
X154633208Y-52657849D01*
X154633208Y-52657849D02*
X154530248Y-52764929D01*
X154530248Y-52764929D02*
X154425299Y-52872688D01*
X154425299Y-52872688D02*
X154320722Y-52978713D01*
X154320722Y-52978713D02*
X154218876Y-53080592D01*
X154218876Y-53080592D02*
X154122121Y-53175912D01*
X154122121Y-53175912D02*
X154032817Y-53262261D01*
X154032817Y-53262261D02*
X153917994Y-53369685D01*
X153917994Y-53369685D02*
X153813000Y-53459000D01*
X138990000Y-39095000D02*
X138885717Y-39175459D01*
X138885717Y-39175459D02*
X138777496Y-39245350D01*
X138777496Y-39245350D02*
X138705000Y-39224000D01*
X131781000Y-30404000D02*
X131905653Y-30403489D01*
X131905653Y-30403489D02*
X132046945Y-30403973D01*
X132046945Y-30403973D02*
X132189111Y-30406794D01*
X132189111Y-30406794D02*
X132319424Y-30414065D01*
X132319424Y-30414065D02*
X132446827Y-30431717D01*
X132446827Y-30431717D02*
X132525000Y-30452000D01*
X137598000Y-34724000D02*
X137614077Y-34596231D01*
X137614077Y-34596231D02*
X137621625Y-34468625D01*
X137621625Y-34468625D02*
X137580000Y-34373000D01*
X138705000Y-39224000D02*
X138728808Y-39093074D01*
X138728808Y-39093074D02*
X138754814Y-38958189D01*
X138754814Y-38958189D02*
X138778833Y-38839591D01*
X138778833Y-38839591D02*
X138792000Y-38777000D01*
X152799000Y-51827000D02*
X152881797Y-51730996D01*
X152881797Y-51730996D02*
X152977505Y-51644855D01*
X152977505Y-51644855D02*
X153072375Y-51568250D01*
X153072375Y-51568250D02*
X153180884Y-51486863D01*
X153180884Y-51486863D02*
X153300609Y-51402593D01*
X153300609Y-51402593D02*
X153429123Y-51317339D01*
X153429123Y-51317339D02*
X153564000Y-51233000D01*
X133770000Y-30578000D02*
X133936210Y-30589351D01*
X133936210Y-30589351D02*
X134095272Y-30600360D01*
X134095272Y-30600360D02*
X134247452Y-30611056D01*
X134247452Y-30611056D02*
X134393021Y-30621464D01*
X134393021Y-30621464D02*
X134532246Y-30631614D01*
X134532246Y-30631614D02*
X134665396Y-30641531D01*
X134665396Y-30641531D02*
X134792740Y-30651244D01*
X134792740Y-30651244D02*
X134914546Y-30660781D01*
X134914546Y-30660781D02*
X135142620Y-30679433D01*
X135142620Y-30679433D02*
X135351767Y-30697707D01*
X135351767Y-30697707D02*
X135544135Y-30715822D01*
X135544135Y-30715822D02*
X135721875Y-30734000D01*
X135721875Y-30734000D02*
X135887133Y-30752458D01*
X135887133Y-30752458D02*
X136042060Y-30771417D01*
X136042060Y-30771417D02*
X136188804Y-30791098D01*
X136188804Y-30791098D02*
X136329515Y-30811718D01*
X136329515Y-30811718D02*
X136466341Y-30833499D01*
X136466341Y-30833499D02*
X136601431Y-30856660D01*
X136601431Y-30856660D02*
X136736934Y-30881420D01*
X136736934Y-30881420D02*
X136875000Y-30908000D01*
X150825000Y-33485000D02*
X150947792Y-33502925D01*
X150947792Y-33502925D02*
X151038000Y-33521000D01*
X152760000Y-52142000D02*
X152749155Y-52015029D01*
X152749155Y-52015029D02*
X152764360Y-51893932D01*
X152764360Y-51893932D02*
X152799000Y-51827000D01*
X130062000Y-31409000D02*
X130087207Y-31288712D01*
X130087207Y-31288712D02*
X130120479Y-31171972D01*
X130120479Y-31171972D02*
X130125000Y-31163000D01*
X137499000Y-35093000D02*
X137559292Y-34980500D01*
X137559292Y-34980500D02*
X137580084Y-34854330D01*
X137580084Y-34854330D02*
X137598000Y-34724000D01*
X150576000Y-31892000D02*
X150483656Y-31808826D01*
X150483656Y-31808826D02*
X150444000Y-31763000D01*
X151215000Y-33350000D02*
X151283534Y-33243654D01*
X151283534Y-33243654D02*
X151325490Y-33119784D01*
X151325490Y-33119784D02*
X151315665Y-32994488D01*
X151315665Y-32994488D02*
X151281945Y-32876982D01*
X151281945Y-32876982D02*
X151238895Y-32757364D01*
X151238895Y-32757364D02*
X151212000Y-32687000D01*
X130575000Y-31010000D02*
X130623410Y-30899679D01*
X130623410Y-30899679D02*
X130724418Y-30811452D01*
X130724418Y-30811452D02*
X130833068Y-30754370D01*
X130833068Y-30754370D02*
X130863000Y-30743000D01*
X137490000Y-37472000D02*
X137433046Y-37353500D01*
X137433046Y-37353500D02*
X137372294Y-37236884D01*
X137372294Y-37236884D02*
X137307242Y-37131072D01*
X137307242Y-37131072D02*
X137301000Y-37124000D01*
X155250000Y-42440000D02*
X155106000Y-42752000D01*
X142944000Y-36908000D02*
X142791000Y-36899000D01*
X150060000Y-31436000D02*
X149946018Y-31397189D01*
X149946018Y-31397189D02*
X149820375Y-31370609D01*
X149820375Y-31370609D02*
X149730000Y-31358000D01*
X140835000Y-38300000D02*
X140710869Y-38314370D01*
X140710869Y-38314370D02*
X140592053Y-38334634D01*
X140592053Y-38334634D02*
X140465063Y-38369706D01*
X140465063Y-38369706D02*
X140347416Y-38419371D01*
X140347416Y-38419371D02*
X140334000Y-38426000D01*
X136926000Y-36902000D02*
X136808237Y-36839918D01*
X136808237Y-36839918D02*
X136703831Y-36779670D01*
X136703831Y-36779670D02*
X136603265Y-36705406D01*
X136603265Y-36705406D02*
X136572000Y-36662000D01*
X142179000Y-37556000D02*
X142077910Y-37628306D01*
X142077910Y-37628306D02*
X141979875Y-37701125D01*
X141979875Y-37701125D02*
X141875379Y-37780403D01*
X141875379Y-37780403D02*
X141774032Y-37858794D01*
X141774032Y-37858794D02*
X141747000Y-37880000D01*
X130917000Y-31916000D02*
X130794908Y-31906514D01*
X130794908Y-31906514D02*
X130648187Y-31890462D01*
X130648187Y-31890462D02*
X130518991Y-31870262D01*
X130518991Y-31870262D02*
X130380750Y-31838750D01*
X130380750Y-31838750D02*
X130266678Y-31799766D01*
X130266678Y-31799766D02*
X130159182Y-31742352D01*
X130159182Y-31742352D02*
X130092000Y-31685000D01*
X139842000Y-39023000D02*
X139762376Y-39161011D01*
X139762376Y-39161011D02*
X139694848Y-39260440D01*
X139694848Y-39260440D02*
X139598990Y-39383117D01*
X139598990Y-39383117D02*
X139501735Y-39489394D01*
X139501735Y-39489394D02*
X139408813Y-39573715D01*
X139408813Y-39573715D02*
X139307484Y-39639781D01*
X139307484Y-39639781D02*
X139206000Y-39629000D01*
X149190000Y-32816000D02*
X149268000Y-32771000D01*
X132525000Y-30452000D02*
X132660890Y-30480968D01*
X132660890Y-30480968D02*
X132797613Y-30499252D01*
X132797613Y-30499252D02*
X132939429Y-30514315D01*
X132939429Y-30514315D02*
X133066259Y-30526003D01*
X133066259Y-30526003D02*
X133211738Y-30538127D01*
X133211738Y-30538127D02*
X133376858Y-30550775D01*
X133376858Y-30550775D02*
X133498341Y-30559542D01*
X133498341Y-30559542D02*
X133629290Y-30568608D01*
X133629290Y-30568608D02*
X133770000Y-30578000D01*
X151212000Y-32687000D02*
X151162593Y-32571346D01*
X151162593Y-32571346D02*
X151101756Y-32460967D01*
X151101756Y-32460967D02*
X151021969Y-32352275D01*
X151021969Y-32352275D02*
X150940727Y-32258329D01*
X150940727Y-32258329D02*
X150891000Y-32204000D01*
X142638000Y-36890000D02*
X142497000Y-37163000D01*
X139215000Y-38918000D02*
X139117565Y-38992904D01*
X139117565Y-38992904D02*
X139021679Y-39069286D01*
X139021679Y-39069286D02*
X138990000Y-39095000D01*
X149337000Y-31211000D02*
X149248902Y-31125193D01*
X149248902Y-31125193D02*
X149178000Y-31061000D01*
X137301000Y-37124000D02*
X137195400Y-37051284D01*
X137195400Y-37051284D02*
X137087297Y-36988656D01*
X137087297Y-36988656D02*
X136976202Y-36928252D01*
X136976202Y-36928252D02*
X136926000Y-36902000D01*
X136665000Y-35651000D02*
X136719474Y-35525320D01*
X136719474Y-35525320D02*
X136793759Y-35415136D01*
X136793759Y-35415136D02*
X136895390Y-35330199D01*
X136895390Y-35330199D02*
X137016837Y-35266351D01*
X137016837Y-35266351D02*
X137150230Y-35212388D01*
X137150230Y-35212388D02*
X137181000Y-35201000D01*
X130995000Y-30617000D02*
X131056291Y-30511910D01*
X131056291Y-30511910D02*
X131162242Y-30442939D01*
X131162242Y-30442939D02*
X131301398Y-30417473D01*
X131301398Y-30417473D02*
X131436700Y-30409113D01*
X131436700Y-30409113D02*
X131565855Y-30405892D01*
X131565855Y-30405892D02*
X131722260Y-30404313D01*
X131722260Y-30404313D02*
X131781000Y-30404000D01*
X137181000Y-35201000D02*
X137295656Y-35158812D01*
X137295656Y-35158812D02*
X137414784Y-35117547D01*
X137414784Y-35117547D02*
X137499000Y-35093000D01*
X130092000Y-31685000D02*
X130038842Y-31572141D01*
X130038842Y-31572141D02*
X130055712Y-31443476D01*
X130055712Y-31443476D02*
X130062000Y-31409000D01*
X155295000Y-51872000D02*
X155220130Y-51966828D01*
X155220130Y-51966828D02*
X155143968Y-52069859D01*
X155143968Y-52069859D02*
X155091000Y-52145000D01*
X134160000Y-33071000D02*
X134050774Y-33010638D01*
X134050774Y-33010638D02*
X133942494Y-32952189D01*
X133942494Y-32952189D02*
X133835189Y-32895664D01*
X133835189Y-32895664D02*
X133676128Y-32814515D01*
X133676128Y-32814515D02*
X133519435Y-32737771D01*
X133519435Y-32737771D02*
X133365214Y-32665476D01*
X133365214Y-32665476D02*
X133213569Y-32597676D01*
X133213569Y-32597676D02*
X133064604Y-32534413D01*
X133064604Y-32534413D02*
X132918421Y-32475734D01*
X132918421Y-32475734D02*
X132775126Y-32421682D01*
X132775126Y-32421682D02*
X132634822Y-32372302D01*
X132634822Y-32372302D02*
X132543000Y-32342000D01*
X155106000Y-42752000D02*
X155157000Y-43010000D01*
X140334000Y-38426000D02*
X140213781Y-38493628D01*
X140213781Y-38493628D02*
X140116442Y-38577460D01*
X140116442Y-38577460D02*
X140037222Y-38679066D01*
X140037222Y-38679066D02*
X139965294Y-38795410D01*
X139965294Y-38795410D02*
X139899037Y-38915051D01*
X139899037Y-38915051D02*
X139842000Y-39023000D01*
X150144000Y-30383000D02*
X150879000Y-30383000D01*
X154587000Y-36992000D02*
X154643283Y-37105782D01*
X154643283Y-37105782D02*
X154689241Y-37217249D01*
X154689241Y-37217249D02*
X154707000Y-37268000D01*
X154920000Y-37820000D02*
X154889572Y-37945402D01*
X154889572Y-37945402D02*
X154921458Y-38073026D01*
X154921458Y-38073026D02*
X154978848Y-38194460D01*
X154978848Y-38194460D02*
X155013000Y-38258000D01*
X155487000Y-39806000D02*
X155409000Y-39959000D01*
X155280000Y-39155000D02*
X155315791Y-39272561D01*
X155315791Y-39272561D02*
X155389034Y-39367906D01*
X155389034Y-39367906D02*
X155433000Y-39410000D01*
X154707000Y-37268000D02*
X154748967Y-37383286D01*
X154748967Y-37383286D02*
X154810613Y-37499929D01*
X154810613Y-37499929D02*
X154880161Y-37604299D01*
X154880161Y-37604299D02*
X154914000Y-37652000D01*
X155409000Y-39959000D02*
X155484000Y-40040000D01*
X155013000Y-38258000D02*
X155068044Y-38375303D01*
X155068044Y-38375303D02*
X155111318Y-38491787D01*
X155111318Y-38491787D02*
X155142000Y-38603000D01*
X154428000Y-36218000D02*
X154439552Y-36344422D01*
X154439552Y-36344422D02*
X154454562Y-36488345D01*
X154454562Y-36488345D02*
X154469861Y-36607782D01*
X154469861Y-36607782D02*
X154490625Y-36728750D01*
X154490625Y-36728750D02*
X154525585Y-36859252D01*
X154525585Y-36859252D02*
X154579008Y-36977944D01*
X154579008Y-36977944D02*
X154587000Y-36992000D01*
X155484000Y-44363000D02*
X155509225Y-44496974D01*
X155509225Y-44496974D02*
X155538995Y-44637765D01*
X155538995Y-44637765D02*
X155572789Y-44783491D01*
X155572789Y-44783491D02*
X155610087Y-44932267D01*
X155610087Y-44932267D02*
X155650372Y-45082210D01*
X155650372Y-45082210D02*
X155693124Y-45231436D01*
X155693124Y-45231436D02*
X155737824Y-45378061D01*
X155737824Y-45378061D02*
X155783953Y-45520203D01*
X155783953Y-45520203D02*
X155830991Y-45655976D01*
X155830991Y-45655976D02*
X155878420Y-45783499D01*
X155878420Y-45783499D02*
X155910000Y-45863000D01*
X155625000Y-40565000D02*
X155623359Y-40689680D01*
X155623359Y-40689680D02*
X155618484Y-40814878D01*
X155618484Y-40814878D02*
X155610445Y-40940270D01*
X155610445Y-40940270D02*
X155599312Y-41065531D01*
X155599312Y-41065531D02*
X155585156Y-41190334D01*
X155585156Y-41190334D02*
X155568046Y-41314355D01*
X155568046Y-41314355D02*
X155548054Y-41437269D01*
X155548054Y-41437269D02*
X155525250Y-41558750D01*
X155525250Y-41558750D02*
X155499703Y-41678473D01*
X155499703Y-41678473D02*
X155471484Y-41796113D01*
X155471484Y-41796113D02*
X155424300Y-41967956D01*
X155424300Y-41967956D02*
X155371500Y-42133283D01*
X155371500Y-42133283D02*
X155313320Y-42290997D01*
X155313320Y-42290997D02*
X155250000Y-42440000D01*
X155265000Y-43397000D02*
X155305600Y-43512951D01*
X155305600Y-43512951D02*
X155337984Y-43631984D01*
X155337984Y-43631984D02*
X155372565Y-43778703D01*
X155372565Y-43778703D02*
X155401443Y-43914535D01*
X155401443Y-43914535D02*
X155431094Y-44065554D01*
X155431094Y-44065554D02*
X155453671Y-44188109D01*
X155453671Y-44188109D02*
X155476406Y-44318099D01*
X155476406Y-44318099D02*
X155484000Y-44363000D01*
X155448000Y-51563000D02*
X155406834Y-51676360D01*
X155406834Y-51676360D02*
X155351083Y-51790165D01*
X155351083Y-51790165D02*
X155295000Y-51872000D01*
X155217000Y-38894000D02*
X155251924Y-39013402D01*
X155251924Y-39013402D02*
X155276937Y-39132872D01*
X155276937Y-39132872D02*
X155280000Y-39155000D01*
X155910000Y-45863000D02*
X155958869Y-45985788D01*
X155958869Y-45985788D02*
X156005716Y-46112832D01*
X156005716Y-46112832D02*
X156044709Y-46234856D01*
X156044709Y-46234856D02*
X156071218Y-46353775D01*
X156071218Y-46353775D02*
X156075000Y-46403000D01*
X155433000Y-39410000D02*
X155520750Y-39500984D01*
X155520750Y-39500984D02*
X155556398Y-39626123D01*
X155556398Y-39626123D02*
X155513574Y-39751694D01*
X155513574Y-39751694D02*
X155487000Y-39806000D01*
X155142000Y-38603000D02*
X155167584Y-38726442D01*
X155167584Y-38726442D02*
X155201337Y-38849235D01*
X155201337Y-38849235D02*
X155217000Y-38894000D01*
X155484000Y-40040000D02*
X155564799Y-40142987D01*
X155564799Y-40142987D02*
X155607378Y-40258300D01*
X155607378Y-40258300D02*
X155621505Y-40384451D01*
X155621505Y-40384451D02*
X155624767Y-40506666D01*
X155624767Y-40506666D02*
X155625000Y-40565000D01*
X155157000Y-43010000D02*
X155185783Y-43133796D01*
X155185783Y-43133796D02*
X155218303Y-43255234D01*
X155218303Y-43255234D02*
X155256117Y-43374171D01*
X155256117Y-43374171D02*
X155265000Y-43397000D01*
X154914000Y-37652000D02*
X154945218Y-37768437D01*
X154945218Y-37768437D02*
X154920000Y-37820000D01*
X136578000Y-34025000D02*
X136439470Y-33978573D01*
X136439470Y-33978573D02*
X136311374Y-33932593D01*
X136311374Y-33932593D02*
X136159996Y-33876682D01*
X136159996Y-33876682D02*
X135989889Y-33812632D01*
X135989889Y-33812632D02*
X135805605Y-33742236D01*
X135805605Y-33742236D02*
X135611697Y-33667287D01*
X135611697Y-33667287D02*
X135412718Y-33589578D01*
X135412718Y-33589578D02*
X135213220Y-33510903D01*
X135213220Y-33510903D02*
X135017757Y-33433054D01*
X135017757Y-33433054D02*
X134830880Y-33357824D01*
X134830880Y-33357824D02*
X134657143Y-33287006D01*
X134657143Y-33287006D02*
X134501098Y-33222393D01*
X134501098Y-33222393D02*
X134367299Y-33165779D01*
X134367299Y-33165779D02*
X134218268Y-33099775D01*
X134218268Y-33099775D02*
X134160000Y-33071000D01*
X137025000Y-34133000D02*
X136901264Y-34108434D01*
X136901264Y-34108434D02*
X136782237Y-34080555D01*
X136782237Y-34080555D02*
X136661241Y-34049020D01*
X136661241Y-34049020D02*
X136578000Y-34025000D01*
X131811000Y-32090000D02*
X131682893Y-32040577D01*
X131682893Y-32040577D02*
X131568725Y-32003116D01*
X131568725Y-32003116D02*
X131432625Y-31970375D01*
X131432625Y-31970375D02*
X131305375Y-31950286D01*
X131305375Y-31950286D02*
X131185573Y-31937095D01*
X131185573Y-31937095D02*
X131042876Y-31925056D01*
X131042876Y-31925056D02*
X130917000Y-31916000D01*
X130125000Y-31163000D02*
X130238804Y-31119441D01*
X130238804Y-31119441D02*
X130362000Y-31109000D01*
X132543000Y-32342000D02*
X132408281Y-32298398D01*
X132408281Y-32298398D02*
X132272436Y-32253340D01*
X132272436Y-32253340D02*
X132141370Y-32208886D01*
X132141370Y-32208886D02*
X132020988Y-32167097D01*
X132020988Y-32167097D02*
X131898947Y-32123367D01*
X131898947Y-32123367D02*
X131811000Y-32090000D01*
X136593000Y-36290000D02*
X136626324Y-36169685D01*
X136626324Y-36169685D02*
X136622564Y-36039083D01*
X136622564Y-36039083D02*
X136620000Y-36014000D01*
X137580000Y-34373000D02*
X137475037Y-34294148D01*
X137475037Y-34294148D02*
X137354250Y-34233875D01*
X137354250Y-34233875D02*
X137234450Y-34187818D01*
X137234450Y-34187818D02*
X137108402Y-34150818D01*
X137108402Y-34150818D02*
X137025000Y-34133000D01*
D11*
X137261904Y-54952380D02*
X136690476Y-54952380D01*
X136976190Y-55952380D02*
X136976190Y-54952380D01*
X136357142Y-55952380D02*
X136357142Y-54952380D01*
X135976190Y-54952380D01*
X135880952Y-55000000D01*
X135833333Y-55047619D01*
X135785714Y-55142857D01*
X135785714Y-55285714D01*
X135833333Y-55380952D01*
X135880952Y-55428571D01*
X135976190Y-55476190D01*
X136357142Y-55476190D01*
X134928571Y-54952380D02*
X135119047Y-54952380D01*
X135214285Y-55000000D01*
X135261904Y-55047619D01*
X135357142Y-55190476D01*
X135404761Y-55380952D01*
X135404761Y-55761904D01*
X135357142Y-55857142D01*
X135309523Y-55904761D01*
X135214285Y-55952380D01*
X135023809Y-55952380D01*
X134928571Y-55904761D01*
X134880952Y-55857142D01*
X134833333Y-55761904D01*
X134833333Y-55523809D01*
X134880952Y-55428571D01*
X134928571Y-55380952D01*
X135023809Y-55333333D01*
X135214285Y-55333333D01*
X135309523Y-55380952D01*
X135357142Y-55428571D01*
X135404761Y-55523809D01*
X110261904Y-54952380D02*
X109690476Y-54952380D01*
X109976190Y-55952380D02*
X109976190Y-54952380D01*
X109357142Y-55952380D02*
X109357142Y-54952380D01*
X108976190Y-54952380D01*
X108880952Y-55000000D01*
X108833333Y-55047619D01*
X108785714Y-55142857D01*
X108785714Y-55285714D01*
X108833333Y-55380952D01*
X108880952Y-55428571D01*
X108976190Y-55476190D01*
X109357142Y-55476190D01*
X107880952Y-54952380D02*
X108357142Y-54952380D01*
X108404761Y-55428571D01*
X108357142Y-55380952D01*
X108261904Y-55333333D01*
X108023809Y-55333333D01*
X107928571Y-55380952D01*
X107880952Y-55428571D01*
X107833333Y-55523809D01*
X107833333Y-55761904D01*
X107880952Y-55857142D01*
X107928571Y-55904761D01*
X108023809Y-55952380D01*
X108261904Y-55952380D01*
X108357142Y-55904761D01*
X108404761Y-55857142D01*
X137261904Y-59952380D02*
X136690476Y-59952380D01*
X136976190Y-60952380D02*
X136976190Y-59952380D01*
X136357142Y-60952380D02*
X136357142Y-59952380D01*
X135976190Y-59952380D01*
X135880952Y-60000000D01*
X135833333Y-60047619D01*
X135785714Y-60142857D01*
X135785714Y-60285714D01*
X135833333Y-60380952D01*
X135880952Y-60428571D01*
X135976190Y-60476190D01*
X136357142Y-60476190D01*
X134928571Y-60285714D02*
X134928571Y-60952380D01*
X135166666Y-59904761D02*
X135404761Y-60619047D01*
X134785714Y-60619047D01*
X110261904Y-59952380D02*
X109690476Y-59952380D01*
X109976190Y-60952380D02*
X109976190Y-59952380D01*
X109357142Y-60952380D02*
X109357142Y-59952380D01*
X108976190Y-59952380D01*
X108880952Y-60000000D01*
X108833333Y-60047619D01*
X108785714Y-60142857D01*
X108785714Y-60285714D01*
X108833333Y-60380952D01*
X108880952Y-60428571D01*
X108976190Y-60476190D01*
X109357142Y-60476190D01*
X108452380Y-59952380D02*
X107833333Y-59952380D01*
X108166666Y-60333333D01*
X108023809Y-60333333D01*
X107928571Y-60380952D01*
X107880952Y-60428571D01*
X107833333Y-60523809D01*
X107833333Y-60761904D01*
X107880952Y-60857142D01*
X107928571Y-60904761D01*
X108023809Y-60952380D01*
X108309523Y-60952380D01*
X108404761Y-60904761D01*
X108452380Y-60857142D01*
X133761904Y-34452380D02*
X133190476Y-34452380D01*
X133476190Y-35452380D02*
X133476190Y-34452380D01*
X132857142Y-35452380D02*
X132857142Y-34452380D01*
X132476190Y-34452380D01*
X132380952Y-34500000D01*
X132333333Y-34547619D01*
X132285714Y-34642857D01*
X132285714Y-34785714D01*
X132333333Y-34880952D01*
X132380952Y-34928571D01*
X132476190Y-34976190D01*
X132857142Y-34976190D01*
X131904761Y-34547619D02*
X131857142Y-34500000D01*
X131761904Y-34452380D01*
X131523809Y-34452380D01*
X131428571Y-34500000D01*
X131380952Y-34547619D01*
X131333333Y-34642857D01*
X131333333Y-34738095D01*
X131380952Y-34880952D01*
X131952380Y-35452380D01*
X131333333Y-35452380D01*
X133761904Y-38952380D02*
X133190476Y-38952380D01*
X133476190Y-39952380D02*
X133476190Y-38952380D01*
X132857142Y-39952380D02*
X132857142Y-38952380D01*
X132476190Y-38952380D01*
X132380952Y-39000000D01*
X132333333Y-39047619D01*
X132285714Y-39142857D01*
X132285714Y-39285714D01*
X132333333Y-39380952D01*
X132380952Y-39428571D01*
X132476190Y-39476190D01*
X132857142Y-39476190D01*
X131333333Y-39952380D02*
X131904761Y-39952380D01*
X131619047Y-39952380D02*
X131619047Y-38952380D01*
X131714285Y-39095238D01*
X131809523Y-39190476D01*
X131904761Y-39238095D01*
M02*
